<svg xmlns="http://www.w3.org/2000/svg" viewBox="0 0 100 122"><defs><style>.cls-1{fill:#fff;}.cls-2{fill:#0d47a1;}.cls-3{fill:#ffe471;}.cls-4{fill:#ffebc5;}.cls-5{fill:#b1aea4;}</style></defs><title>NwkEhd_divs_web_mini</title><g id="Tenant_Legal_Services" data-name="Tenant Legal Services"><rect class="cls-1" x="-10" y="11" width="120" height="100" rx="8.53341" transform="translate(111 11) rotate(90)"/><rect class="cls-2" y="4.21767" width="100" height="113.56467" rx="7.42035"/><path class="cls-1" d="M10.27971,47.88008A1.11515,1.11515,0,0,1,10,47.11992V21.28008a1.11655,1.11655,0,0,1,.27971-.76016A.85487.85487,0,0,1,10.9441,20.2h5.52471a1.50436,1.50436,0,0,1,1.4334.91992L23.81125,32.2V21.28008a1.1166,1.1166,0,0,1,.27971-.76016A.85489.85489,0,0,1,24.75535,20.2h6.329a.857.857,0,0,1,.66439.31992,1.12007,1.12007,0,0,1,.27971.76016V47.11992a1.11867,1.11867,0,0,1-.27971.76016.85578.85578,0,0,1-.66439.31992H25.55959a1.32331,1.32331,0,0,1-.90886-.28008,2.60545,2.60545,0,0,1-.52454-.63984l-5.9094-10.2V47.11992a1.11693,1.11693,0,0,1-.27971.76016.85454.85454,0,0,1-.664.31992h-6.329A.85365.85365,0,0,1,10.27971,47.88008Z"/><path class="cls-1" d="M39.10858,47.73984a1.80716,1.80716,0,0,1-.50711-1.05976L35.3845,21.2v-.11992a.91046.91046,0,0,1,.2274-.62031.69756.69756,0,0,1,.542-.25977h6.50369a1.4663,1.4663,0,0,1,.9263.23984,1.1167,1.1167,0,0,1,.33237.84024l1.18893,11.27969,1.4334-5q.34926-1.15958,1.18893-1.15977h3.56642q.83911,0,1.18893,1.15977l1.43339,4.96015,1.18893-11.23984a1.11258,1.11258,0,0,1,.332-.84024A1.46673,1.46673,0,0,1,56.36383,20.2h6.50369a.69918.69918,0,0,1,.542.25977.91367.91367,0,0,1,.227.62031V21.2L60.41992,46.68008a1.81361,1.81361,0,0,1-.5071,1.05976A1.45483,1.45483,0,0,1,58.81144,48.2H53.81125a1.24235,1.24235,0,0,1-.96153-.36016,2.30162,2.30162,0,0,1-.47186-.71992l-2.86716-8.2-2.86716,8.2a2.32266,2.32266,0,0,1-.47223.71992,1.24286,1.24286,0,0,1-.96153.36016H40.21A1.45262,1.45262,0,0,1,39.10858,47.73984Z"/><path class="cls-1" d="M67.27233,47.88008a1.11519,1.11519,0,0,1-.2797-.76016V21.28008a1.11659,1.11659,0,0,1,.2797-.76016A.85489.85489,0,0,1,67.93672,20.2h6.67841a.85594.85594,0,0,1,.66439.31992,1.11833,1.11833,0,0,1,.27971.76016V29.2l3.9511-8.11992A1.44,1.44,0,0,1,80.90886,20.2h7.72749a.69916.69916,0,0,1,.542.25977.91367.91367,0,0,1,.227.62031.93033.93033,0,0,1-.105.43984L83.007,33.6l6.888,13.28008a.79783.79783,0,0,1,.105.43984.91225.91225,0,0,1-.2274.61992.69657.69657,0,0,1-.542.26016h-7.972a1.4,1.4,0,0,1-.94409-.3,1.76865,1.76865,0,0,1-.48967-.61992l-4.26568-8.72031v8.56015a1.11693,1.11693,0,0,1-.27971.76016.85472.85472,0,0,1-.66439.31992H67.93672A.85366.85366,0,0,1,67.27233,47.88008Z"/><rect class="cls-1" x="10" y="60.2" width="80" height="1.6" rx="0.23264"/><path class="cls-3" d="M17.43744,103.50008a1.034,1.034,0,0,1-.296-.739V84.95H10.99912a.93607.93607,0,0,1-.70311-.311,1.03235,1.03235,0,0,1-.296-.739V77.639a1.03363,1.03363,0,0,1,.296-.739.93745.93745,0,0,1,.70311-.311H32.68289a.93843.93843,0,0,1,.70272.311,1.03685,1.03685,0,0,1,.296.739v6.261a1.03556,1.03556,0,0,1-.296.739.937.937,0,0,1-.70272.311h-6.1427v17.811a1.03561,1.03561,0,0,1-.296.739.93792.93792,0,0,1-.70311.311H18.14055A.93609.93609,0,0,1,17.43744,103.50008Z"/><path class="cls-3" d="M40.34214,103.50008a1.034,1.034,0,0,1-.296-.739V77.639a1.03522,1.03522,0,0,1,.296-.739.93746.93746,0,0,1,.70311-.311h7.40053a.93867.93867,0,0,1,.70311.311,1.03684,1.03684,0,0,1,.296.739V95.83889H59.69477a.93867.93867,0,0,1,.70311.311,1.03684,1.03684,0,0,1,.296.739V102.761a1.03557,1.03557,0,0,1-.296.739.93732.93732,0,0,1-.70311.311H41.04525A.93611.93611,0,0,1,40.34214,103.50008Z"/><path class="cls-3" d="M71.07293,103.07207a9.27278,9.27278,0,0,1-4.08873-3.01389,7.31581,7.31581,0,0,1-1.44312-4.14144.84243.84243,0,0,1,.24064-.60308.76436.76436,0,0,1,.57318-.25255h7.03071a2.13469,2.13469,0,0,1,.83267.136,3.16251,3.16251,0,0,1,.75846.52523,4.13042,4.13042,0,0,0,2.73825.89437,5.74112,5.74112,0,0,0,2.01668-.29167q.75828-.29166.75847-.79715,0-.70011-.99912-1.06944A21.31775,21.31775,0,0,0,75.71676,93.7Q66.17,92.37838,66.17,85.14444a7.92409,7.92409,0,0,1,1.42467-4.64729,9.29274,9.29274,0,0,1,3.978-3.1696A14.44018,14.44018,0,0,1,77.45589,76.2a14.124,14.124,0,0,1,6.10579,1.24452,10.51082,10.51082,0,0,1,4.033,3.13048,6.66764,6.66764,0,0,1,1.48042,3.67508.84413.84413,0,0,1-.24065.6027.72611.72611,0,0,1-.53666.25255H80.89724a1.98032,1.98032,0,0,1-.8142-.136,2.60138,2.60138,0,0,1-.66583-.48611,2.82026,2.82026,0,0,0-1.96132-.69993q-1.776,0-1.776,1.08882,0,.58333.86957.97222a13.32422,13.32422,0,0,0,3.23761.69992,21.946,21.946,0,0,1,5.93934,1.51682A7.01478,7.01478,0,0,1,88.98243,90.764,8.14578,8.14578,0,0,1,90,95.022a7.74811,7.74811,0,0,1-1.59113,4.84175,10.14945,10.14945,0,0,1-4.38473,3.20833A16.73761,16.73761,0,0,1,77.715,104.2,17.358,17.358,0,0,1,71.07293,103.07207Z"/><path class="cls-4" d="M17.43744,103.50008a1.034,1.034,0,0,1-.296-.739V84.95H10.99912a.93607.93607,0,0,1-.70311-.311,1.03235,1.03235,0,0,1-.296-.739V77.639a1.03363,1.03363,0,0,1,.296-.739.93745.93745,0,0,1,.70311-.311H32.68289a.93843.93843,0,0,1,.70272.311,1.03685,1.03685,0,0,1,.296.739v6.261a1.03556,1.03556,0,0,1-.296.739.937.937,0,0,1-.70272.311h-6.1427v17.811a1.03561,1.03561,0,0,1-.296.739.93792.93792,0,0,1-.70311.311H18.14055A.93609.93609,0,0,1,17.43744,103.50008Z"/><path class="cls-4" d="M40.34214,103.50008a1.034,1.034,0,0,1-.296-.739V77.639a1.03522,1.03522,0,0,1,.296-.739.93746.93746,0,0,1,.70311-.311h7.40053a.93867.93867,0,0,1,.70311.311,1.03684,1.03684,0,0,1,.296.739V95.83889H59.69477a.93867.93867,0,0,1,.70311.311,1.03684,1.03684,0,0,1,.296.739V102.761a1.03557,1.03557,0,0,1-.296.739.93732.93732,0,0,1-.70311.311H41.04525A.93611.93611,0,0,1,40.34214,103.50008Z"/><path class="cls-4" d="M71.07293,103.07207a9.27278,9.27278,0,0,1-4.08873-3.01389,7.31581,7.31581,0,0,1-1.44312-4.14144.84243.84243,0,0,1,.24064-.60308.76436.76436,0,0,1,.57318-.25255h7.03071a2.13469,2.13469,0,0,1,.83267.136,3.16251,3.16251,0,0,1,.75846.52523,4.13042,4.13042,0,0,0,2.73825.89437,5.74112,5.74112,0,0,0,2.01668-.29167q.75828-.29166.75847-.79715,0-.70011-.99912-1.06944A21.31775,21.31775,0,0,0,75.71676,93.7Q66.17,92.37838,66.17,85.14444a7.92409,7.92409,0,0,1,1.42467-4.64729,9.29274,9.29274,0,0,1,3.978-3.1696A14.44018,14.44018,0,0,1,77.45589,76.2a14.124,14.124,0,0,1,6.10579,1.24452,10.51082,10.51082,0,0,1,4.033,3.13048,6.66764,6.66764,0,0,1,1.48042,3.67508.84413.84413,0,0,1-.24065.6027.72611.72611,0,0,1-.53666.25255H80.89724a1.98032,1.98032,0,0,1-.8142-.136,2.60138,2.60138,0,0,1-.66583-.48611,2.82026,2.82026,0,0,0-1.96132-.69993q-1.776,0-1.776,1.08882,0,.58333.86957.97222a13.32422,13.32422,0,0,0,3.23761.69992,21.946,21.946,0,0,1,5.93934,1.51682A7.01478,7.01478,0,0,1,88.98243,90.764,8.14578,8.14578,0,0,1,90,95.022a7.74811,7.74811,0,0,1-1.59113,4.84175,10.14945,10.14945,0,0,1-4.38473,3.20833A16.73761,16.73761,0,0,1,77.715,104.2,17.358,17.358,0,0,1,71.07293,103.07207Z"/><path class="cls-5" d="M17.43744,103.50008a1.034,1.034,0,0,1-.296-.739V84.95H10.99912a.93607.93607,0,0,1-.70311-.311,1.03235,1.03235,0,0,1-.296-.739V77.639a1.03363,1.03363,0,0,1,.296-.739.93745.93745,0,0,1,.70311-.311H32.68289a.93843.93843,0,0,1,.70272.311,1.03685,1.03685,0,0,1,.296.739v6.261a1.03556,1.03556,0,0,1-.296.739.937.937,0,0,1-.70272.311h-6.1427v17.811a1.03561,1.03561,0,0,1-.296.739.93792.93792,0,0,1-.70311.311H18.14055A.93609.93609,0,0,1,17.43744,103.50008Z"/><path class="cls-5" d="M40.34214,103.50008a1.034,1.034,0,0,1-.296-.739V77.639a1.03522,1.03522,0,0,1,.296-.739.93746.93746,0,0,1,.70311-.311h7.40053a.93867.93867,0,0,1,.70311.311,1.03684,1.03684,0,0,1,.296.739V95.83889H59.69477a.93867.93867,0,0,1,.70311.311,1.03684,1.03684,0,0,1,.296.739V102.761a1.03557,1.03557,0,0,1-.296.739.93732.93732,0,0,1-.70311.311H41.04525A.93611.93611,0,0,1,40.34214,103.50008Z"/><path class="cls-5" d="M71.07293,103.07207a9.27278,9.27278,0,0,1-4.08873-3.01389,7.31581,7.31581,0,0,1-1.44312-4.14144.84243.84243,0,0,1,.24064-.60308.76436.76436,0,0,1,.57318-.25255h7.03071a2.13469,2.13469,0,0,1,.83267.136,3.16251,3.16251,0,0,1,.75846.52523,4.13042,4.13042,0,0,0,2.73825.89437,5.74112,5.74112,0,0,0,2.01668-.29167q.75828-.29166.75847-.79715,0-.70011-.99912-1.06944A21.31775,21.31775,0,0,0,75.71676,93.7Q66.17,92.37838,66.17,85.14444a7.92409,7.92409,0,0,1,1.42467-4.64729,9.29274,9.29274,0,0,1,3.978-3.1696A14.44018,14.44018,0,0,1,77.45589,76.2a14.124,14.124,0,0,1,6.10579,1.24452,10.51082,10.51082,0,0,1,4.033,3.13048,6.66764,6.66764,0,0,1,1.48042,3.67508.84413.84413,0,0,1-.24065.6027.72611.72611,0,0,1-.53666.25255H80.89724a1.98032,1.98032,0,0,1-.8142-.136,2.60138,2.60138,0,0,1-.66583-.48611,2.82026,2.82026,0,0,0-1.96132-.69993q-1.776,0-1.776,1.08882,0,.58333.86957.97222a13.32422,13.32422,0,0,0,3.23761.69992,21.946,21.946,0,0,1,5.93934,1.51682A7.01478,7.01478,0,0,1,88.98243,90.764,8.14578,8.14578,0,0,1,90,95.022a7.74811,7.74811,0,0,1-1.59113,4.84175,10.14945,10.14945,0,0,1-4.38473,3.20833A16.73761,16.73761,0,0,1,77.715,104.2,17.358,17.358,0,0,1,71.07293,103.07207Z"/></g></svg>