<svg xmlns="http://www.w3.org/2000/svg" viewBox="0 0 275 120"><defs><style>.cls-1{fill:#0d47a1;}.cls-2{fill:#fff;}</style></defs><title>NwkLogo</title><g id="MiniBar"><rect class="cls-1" width="275" height="120" rx="12.64911"/></g><g id="MiniTitle"><path class="cls-2" d="M30.47607,95.34912a2.67611,2.67611,0,0,1-.752-1.90039V28.84912a2.68107,2.68107,0,0,1,.752-1.90039,2.37019,2.37019,0,0,1,1.78614-.7998h14.852a4.07351,4.07351,0,0,1,3.854,2.2998L66.854,56.14893V28.84912a2.681,2.681,0,0,1,.752-1.90039,2.37015,2.37015,0,0,1,1.78613-.7998H86.40625a2.37469,2.37469,0,0,1,1.78613.7998,2.68733,2.68733,0,0,1,.752,1.90039V93.44873a2.68234,2.68234,0,0,1-.752,1.90039,2.36953,2.36953,0,0,1-1.78613.79981H71.5542a3.7386,3.7386,0,0,1-2.44385-.7002,6.6382,6.6382,0,0,1-1.41015-1.59961l-15.88624-25.5V93.44873a2.68024,2.68024,0,0,1-.752,1.90039,2.36852,2.36852,0,0,1-1.78564.79981H32.26221A2.36506,2.36506,0,0,1,30.47607,95.34912Z"/><path class="cls-2" d="M111.08057,94.999a4.397,4.397,0,0,1-1.36328-2.6499l-8.648-63.70019v-.29981a2.18214,2.18214,0,0,1,.61132-1.55029,1.93281,1.93281,0,0,1,1.457-.6499h17.48388a4.16283,4.16283,0,0,1,2.49072.60009,2.696,2.696,0,0,1,.89307,2.1001l3.19629,28.19971,3.854-12.5q.93824-2.89893,3.1958-2.8999h9.58838q2.25587,0,3.19532,2.8999l3.85449,12.3999,3.19629-28.09961a2.683,2.683,0,0,1,.89258-2.1001,4.15912,4.15912,0,0,1,2.49023-.60009h17.48438a1.93507,1.93507,0,0,1,1.457.6499,2.18842,2.18842,0,0,1,.61132,1.55029v.29981l-8.64843,63.70019a4.40745,4.40745,0,0,1-1.36328,2.6499,4.059,4.059,0,0,1-2.96094,1.14991H150.60742a3.48274,3.48274,0,0,1-2.585-.89991,5.71613,5.71613,0,0,1-1.26855-1.80029l-7.709-20.5-7.70752,20.5a5.78254,5.78254,0,0,1-1.269,1.80029,3.485,3.485,0,0,1-2.585.89991H114.0415A4.05665,4.05665,0,0,1,111.08057,94.999Z"/><path class="cls-2" d="M189.89844,95.34912a2.67607,2.67607,0,0,1-.752-1.90039V28.84912a2.681,2.681,0,0,1,.752-1.90039,2.36813,2.36813,0,0,1,1.78515-.7998h17.95508a2.37265,2.37265,0,0,1,1.78516.7998,2.68526,2.68526,0,0,1,.75195,1.90039V48.64893l10.62207-20.29981a3.90261,3.90261,0,0,1,3.76074-2.20019H247.332a1.93506,1.93506,0,0,1,1.457.6499,2.27336,2.27336,0,0,1,.32813,2.6499l-16.91895,30.2002L250.7168,92.84912a1.88758,1.88758,0,0,1,.28125,1.09961,2.19009,2.19009,0,0,1-.61133,1.55029,1.92991,1.92991,0,0,1-1.457.64991H227.49805a3.95382,3.95382,0,0,1-2.53809-.75,4.46975,4.46975,0,0,1-1.31543-1.54981L212.17578,72.04883v21.3999a2.68028,2.68028,0,0,1-.75195,1.90039,2.3675,2.3675,0,0,1-1.78516.79981H191.68359A2.363,2.363,0,0,1,189.89844,95.34912Z"/></g></svg>