<svg xmlns="http://www.w3.org/2000/svg" viewBox="0 0 793.78613 146.15143"><defs><style>.cls-1{fill:none;stroke:#fff;stroke-linecap:round;stroke-linejoin:round;stroke-width:4px;}.cls-2{fill:#fff;}.cls-3{fill:aqua;}</style></defs><title>NwkLogo-text</title><g id="MiniBar"><path class="cls-1" d="M277,122.78266c0,11.80164-10.29745,21.36877-23,21.36877H25c-12.70255,0-23-9.56713-23-21.36877"/><path class="cls-1" d="M2,27.36851V23.83905C2,11.77768,12.29745,2,25,2H254c12.70255,0,23,9.77768,23,21.83905v3.36726"/></g><g id="MiniTitle"><path class="cls-2" d="M35.57813,109.50055a2.67609,2.67609,0,0,1-.752-1.90039V43.00055a2.681,2.681,0,0,1,.752-1.90039,2.37013,2.37013,0,0,1,1.78613-.79981h14.852a4.0735,4.0735,0,0,1,3.854,2.29981L71.95605,70.30035V43.00055a2.681,2.681,0,0,1,.752-1.90039,2.37013,2.37013,0,0,1,1.78613-.79981H91.5083a2.37465,2.37465,0,0,1,1.78613.79981,2.68733,2.68733,0,0,1,.752,1.90039v64.59961a2.68236,2.68236,0,0,1-.752,1.90039,2.36951,2.36951,0,0,1-1.78613.7998H76.65625a3.73866,3.73866,0,0,1-2.44385-.70019,6.6382,6.6382,0,0,1-1.41015-1.59961l-15.88623-25.5v25.09961a2.68026,2.68026,0,0,1-.752,1.90039,2.3685,2.3685,0,0,1-1.78564.7998H37.36426A2.365,2.365,0,0,1,35.57813,109.50055Z"/><path class="cls-2" d="M113.08057,109.15045a4.397,4.397,0,0,1-1.36328-2.6499l-8.648-63.7002v-.2998a2.18214,2.18214,0,0,1,.61132-1.55029,1.93282,1.93282,0,0,1,1.457-.64991h17.48388a4.16282,4.16282,0,0,1,2.49072.6001,2.696,2.696,0,0,1,.89307,2.1001l3.19629,28.19971,3.854-12.5q.93824-2.89893,3.1958-2.89991h9.58838q2.25587,0,3.19532,2.89991l3.85449,12.3999,3.19629-28.09961a2.68293,2.68293,0,0,1,.89258-2.1001,4.15912,4.15912,0,0,1,2.49023-.6001h17.48438a1.93508,1.93508,0,0,1,1.457.64991,2.18842,2.18842,0,0,1,.61132,1.55029v.2998l-8.64843,63.7002a4.40745,4.40745,0,0,1-1.36328,2.6499,4.059,4.059,0,0,1-2.96094,1.1499H152.60742a3.48274,3.48274,0,0,1-2.585-.8999,5.71624,5.71624,0,0,1-1.26855-1.80029l-7.709-20.5-7.70752,20.5a5.78265,5.78265,0,0,1-1.269,1.80029,3.485,3.485,0,0,1-2.585.8999H116.0415A4.05664,4.05664,0,0,1,113.08057,109.15045Z"/><path class="cls-2" d="M188.7959,109.50055a2.67612,2.67612,0,0,1-.75195-1.90039V43.00055a2.68107,2.68107,0,0,1,.75195-1.90039,2.37014,2.37014,0,0,1,1.78613-.79981h17.9541a2.37468,2.37468,0,0,1,1.78614.79981,2.68942,2.68942,0,0,1,.75195,1.90039v19.7998l10.62109-20.2998a3.90354,3.90354,0,0,1,3.76074-2.2002h20.77442a1.93808,1.93808,0,0,1,1.457.64991,2.2777,2.2777,0,0,1,.32813,2.6499L231.0957,73.80035l18.51856,33.2002a1.88748,1.88748,0,0,1,.28222,1.09961,2.19008,2.19008,0,0,1-.61132,1.55029,1.93145,1.93145,0,0,1-1.457.6499H226.39648a3.95859,3.95859,0,0,1-2.53906-.75,4.46983,4.46983,0,0,1-1.31543-1.5498L211.07422,86.20026v21.3999a2.68444,2.68444,0,0,1-.75195,1.90039,2.36954,2.36954,0,0,1-1.78614.7998H190.582A2.365,2.365,0,0,1,188.7959,109.50055Z"/><path class="cls-3" d="M305.44531,100.72467q-.03222-1.07959-.0332-3.02441,0-1.94385.0332-3.02344.13478-4.8955,2.50489-7.416a9.46117,9.46117,0,0,1,12.85937,0q2.36865,2.51953,2.50391,7.416.06738,2.15917.06738,3.02344t-.06738,3.02441q-.23732,9.936-8.9336,9.93555Q305.6831,110.66022,305.44531,100.72467Zm13.791,5.81348q1.80908-1.96143,1.94531-5.99317.06738-2.16064.06836-2.84472,0-.68262-.06836-2.84375-.13476-4.03125-1.96289-5.99414a6.94823,6.94823,0,0,0-9.67773,0q-1.82812,1.96289-1.96289,5.99414-.03516,1.07958-.03418,2.84375,0,1.76512.03418,2.84472.13476,4.03125,1.94531,5.99317a6.98918,6.98918,0,0,0,9.71289,0Z"/><path class="cls-3" d="M333.56641,110.085a.81039.81039,0,0,1-.20313-.57617V93.669h-3.01172a.70477.70477,0,0,1-.541-.2168.802.802,0,0,1-.20313-.5752v-.50488a.80361.80361,0,0,1,.20313-.57519.70474.70474,0,0,1,.541-.2168h3.01172V89.52838a7.2962,7.2962,0,0,1,1.11719-4.30176q1.11621-1.56591,3.99316-1.5664h1.75879a.70694.70694,0,0,1,.542.21679.80365.80365,0,0,1,.20313.5752v.50391a.80449.80449,0,0,1-.20313.57617.70694.70694,0,0,1-.542.21679h-1.75879a2.70242,2.70242,0,0,0-2.38574.95313,5.38183,5.38183,0,0,0-.66016,3.00684v1.87109h7.47852V89.52838a7.2962,7.2962,0,0,1,1.11719-4.30176q1.11621-1.56591,3.99219-1.5664h3.75683a.70838.70838,0,0,1,.542.21679.80794.80794,0,0,1,.20313.5752v.50391a.80877.80877,0,0,1-.20313.57617.70838.70838,0,0,1-.542.21679h-3.75683a2.70161,2.70161,0,0,0-2.38477.95313,5.37351,5.37351,0,0,0-.66016,3.00684v1.87109h6.80176a.70835.70835,0,0,1,.542.2168.8079.8079,0,0,1,.20313.57519v17.13672a.81039.81039,0,0,1-.20313.57617.71117.71117,0,0,1-.542.21582h-.57519a.70755.70755,0,0,1-.541-.21582.80612.80612,0,0,1-.20312-.57617V93.669H344.9707v15.83984a.81042.81042,0,0,1-.20312.57617.709.709,0,0,1-.541.21582h-.57617a.709.709,0,0,1-.541-.21582.81039.81039,0,0,1-.20313-.57617V93.669h-7.47852v15.83984a.80612.80612,0,0,1-.20312.57617.709.709,0,0,1-.541.21582h-.57617A.71045.71045,0,0,1,333.56641,110.085Z"/><path class="cls-3" d="M362.60156,108.48248a9.271,9.271,0,0,1-2.03125-6.10156l-.0332-1.44043.0332-1.43945a9.27384,9.27384,0,0,1,2.03125-6.10254,6.89239,6.89239,0,0,1,5.44727-2.17774,7.94548,7.94548,0,0,1,3.80664.84571,5.8093,5.8093,0,0,1,3.19922,4.87793.66355.66355,0,0,1-.20313.55859.74951.74951,0,0,1-.542.2334h-.47363a.64314.64314,0,0,1-.49024-.16211,1.95324,1.95324,0,0,1-.32226-.59375,5.44623,5.44623,0,0,0-1.89453-2.82617,5.28334,5.28334,0,0,0-3.08008-.84571,5.00214,5.00214,0,0,0-3.875,1.56641,7.27084,7.27084,0,0,0-1.53906,4.80566l-.03321,1.25977.03321,1.25977a7.27374,7.27374,0,0,0,1.53906,4.80664,5.00483,5.00483,0,0,0,3.875,1.56543,5.27614,5.27614,0,0,0,3.08008-.84571,5.4381,5.4381,0,0,0,1.89453-2.82617,1.95337,1.95337,0,0,1,.32226-.59375.64314.64314,0,0,1,.49024-.16211h.47363a.75058.75058,0,0,1,.542.23438.66162.66162,0,0,1,.20313.55761,5.8093,5.8093,0,0,1-3.19922,4.87793,7.94548,7.94548,0,0,1-3.80664.84571A6.89239,6.89239,0,0,1,362.60156,108.48248Z"/><path class="cls-3" d="M384.25879,108.41022a9.97671,9.97671,0,0,1-2.2334-6.0293l-.03418-1.44043.03418-1.43945a10.07678,10.07678,0,0,1,2.2168-6.0127,6.49877,6.49877,0,0,1,5.19336-2.26758,6.643,6.643,0,0,1,5.5,2.4834,10.6371,10.6371,0,0,1,1.97949,6.80469v.54a.74711.74711,0,0,1-.77832.792H384.08984v.35938a8.37734,8.37734,0,0,0,.72657,3.15039,5.87152,5.87152,0,0,0,1.84472,2.33984,4.51135,4.51135,0,0,0,2.77442.88184,5.39076,5.39076,0,0,0,3.02929-.77344,5.66984,5.66984,0,0,0,1.67579-1.56641,2.55315,2.55315,0,0,1,.45605-.54,1.02714,1.02714,0,0,1,.55859-.10742h.542a.73489.73489,0,0,1,.50683.17969.5955.5955,0,0,1,.20313.46777,3.08311,3.08311,0,0,1-.89649,1.81836,7.47654,7.47654,0,0,1-2.4873,1.83594,8.09793,8.09793,0,0,1-3.58789.77344A6.53073,6.53073,0,0,1,384.25879,108.41022Zm10.5918-8.58594v-.14356a6.99221,6.99221,0,0,0-1.47168-4.57226,4.83629,4.83629,0,0,0-3.94336-1.79981,4.73842,4.73842,0,0,0-3.90821,1.79981,7.09519,7.09519,0,0,0-1.4375,4.57226v.14356Z"/><path class="cls-3" d="M418.11523,108.37506a9.23308,9.23308,0,0,1-2.04785-5.92285l-.03418-1.51172.03418-1.51172a9.23229,9.23229,0,0,1,2.04785-5.92187,7.67472,7.67472,0,0,1,10.92969,0,9.23169,9.23169,0,0,1,2.04688,5.92187q.03514.36036.03515,1.51172,0,1.15284-.03515,1.51172a9.23249,9.23249,0,0,1-2.04688,5.92285,7.677,7.677,0,0,1-10.92969,0Zm9.33985-1.44043a7.11973,7.11973,0,0,0,1.57324-4.66211q.03369-.35889.03418-1.332,0-.97119-.03418-1.332a7.12168,7.12168,0,0,0-1.57324-4.66211,5.40321,5.40321,0,0,0-7.75,0,7.12168,7.12168,0,0,0-1.57324,4.66211l-.03418,1.332.03418,1.332a7.11973,7.11973,0,0,0,1.57324,4.66211,5.40321,5.40321,0,0,0,7.75,0Z"/><path class="cls-3" d="M440.77148,110.085a.80612.80612,0,0,1-.20312-.57617V93.669h-3.01172a.70332.70332,0,0,1-.541-.2168.79787.79787,0,0,1-.20313-.5752v-.50488a.79941.79941,0,0,1,.20313-.57519.70329.70329,0,0,1,.541-.2168h3.01172V89.52838a7.28907,7.28907,0,0,1,1.11719-4.30176q1.11621-1.56591,3.99218-1.5664h1.75977a.70479.70479,0,0,1,.541.21679.80369.80369,0,0,1,.20312.5752v.50391a.80453.80453,0,0,1-.20312.57617.70479.70479,0,0,1-.541.21679h-1.75977a2.7016,2.7016,0,0,0-2.38476.95313,5.37351,5.37351,0,0,0-.66016,3.00684v1.87109h4.4668a.70621.70621,0,0,1,.541.2168.80794.80794,0,0,1,.20312.57519V92.877a.80635.80635,0,0,1-.20312.5752.70624.70624,0,0,1-.541.2168h-4.4668v15.83984a.81042.81042,0,0,1-.20312.57617.71118.71118,0,0,1-.542.21582h-.5752A.70755.70755,0,0,1,440.77148,110.085Z"/><path class="cls-3" d="M466.45508,110.085a.81039.81039,0,0,1-.20313-.57617V85.92877a.87609.87609,0,0,1,.20313-.59375.68157.68157,0,0,1,.541-.23437h8.22364a8.07173,8.07173,0,0,1,5.70215,1.92578,7.15728,7.15728,0,0,1,2.08105,5.52637,7.1522,7.1522,0,0,1-2.08105,5.52539,8.06773,8.06773,0,0,1-5.70215,1.92675h-6.835v9.50391a.74857.74857,0,0,1-.7793.792h-.60938A.71045.71045,0,0,1,466.45508,110.085Zm8.5957-12.24023A6.2193,6.2193,0,0,0,479.416,96.4942a6.067,6.067,0,0,0,0-7.88379,6.22383,6.22383,0,0,0-4.36524-1.34961h-6.666v10.584Z"/><path class="cls-3" d="M490.68457,110.085a.80612.80612,0,0,1-.20312-.57617V85.53229a.80771.80771,0,0,1,.20312-.57617.70972.70972,0,0,1,.542-.21582h.57422a.71117.71117,0,0,1,.542.21582.80768.80768,0,0,1,.20313.57617v23.97656a.80608.80608,0,0,1-.20313.57617.71117.71117,0,0,1-.542.21582h-.57422A.70972.70972,0,0,1,490.68457,110.085Z"/><path class="cls-3" d="M503.1709,109.94049a5.89411,5.89411,0,0,1-2.21582-1.94434,4.70039,4.70039,0,0,1-.83008-2.69921,4.838,4.838,0,0,1,1.81055-3.88868,9.53968,9.53968,0,0,1,4.89062-1.94336l5.34571-.792V97.41217a3.96729,3.96729,0,0,0-1.13282-3.042,4.92883,4.92883,0,0,0-3.46875-1.06153,5.07572,5.07572,0,0,0-2.82617.71973,3.19891,3.19891,0,0,0-1.4043,1.72852,1.30457,1.30457,0,0,1-.32129.59375.71988.71988,0,0,1-.49121.16211h-.47265a.69644.69644,0,0,1-.52539-.23438.78522.78522,0,0,1-.21973-.55762,3.60789,3.60789,0,0,1,.67676-1.85449,5.70989,5.70989,0,0,1,2.09765-1.85351,7.08075,7.08075,0,0,1,3.48633-.792q3.62111,0,5.14356,1.83594a6.764,6.764,0,0,1,1.52246,4.46387v11.98828a.80608.80608,0,0,1-.20313.57617.709.709,0,0,1-.541.21582h-.5752a.71118.71118,0,0,1-.542-.21582.81038.81038,0,0,1-.20312-.57617v-1.69238a6.09386,6.09386,0,0,1-2.18165,2.0166,7.60516,7.60516,0,0,1-3.80761.82715A6.44622,6.44622,0,0,1,503.1709,109.94049Zm7.41113-3.0957a7.07955,7.07955,0,0,0,1.58985-4.96778V100.6524l-4.36524.64844a10.0207,10.0207,0,0,0-4.19531,1.36817,2.88272,2.88272,0,0,0-1.42188,2.44726,2.92229,2.92229,0,0,0,1.30274,2.55664,5.2029,5.2029,0,0,0,3.02929.89942A5.27676,5.27676,0,0,0,510.582,106.84479Z"/><path class="cls-3" d="M523.16992,110.085a.81042.81042,0,0,1-.20312-.57617V92.37213a.80794.80794,0,0,1,.20312-.57519.70765.70765,0,0,1,.541-.2168h.57617a.70621.70621,0,0,1,.541.2168.80364.80364,0,0,1,.20312.57519v1.69238a7.15586,7.15586,0,0,1,2.31836-2.124,6.928,6.928,0,0,1,3.36719-.71973,6.15409,6.15409,0,0,1,5.10937,2.25,9.04271,9.04271,0,0,1,1.793,5.81348v10.22461a.80559.80559,0,0,1-.20215.57617.71117.71117,0,0,1-.542.21582h-.57422a.70972.70972,0,0,1-.542-.21582.80612.80612,0,0,1-.20313-.57617V99.4649a6.9379,6.9379,0,0,0-1.33691-4.53613,4.69542,4.69542,0,0,0-3.84082-1.62012,4.94754,4.94754,0,0,0-3.8916,1.6377,6.56429,6.56429,0,0,0-1.45508,4.51855v10.04395a.80612.80612,0,0,1-.20312.57617.709.709,0,0,1-.541.21582h-.57617A.71047.71047,0,0,1,523.16992,110.085Z"/><path class="cls-3" d="M546.51953,110.085a.81042.81042,0,0,1-.20312-.57617V92.37213a.80794.80794,0,0,1,.20312-.57519.70765.70765,0,0,1,.541-.2168h.57617a.70617.70617,0,0,1,.541.2168.80361.80361,0,0,1,.20313.57519v1.69238a7.15586,7.15586,0,0,1,2.31836-2.124,6.928,6.928,0,0,1,3.36719-.71973,6.15409,6.15409,0,0,1,5.10937,2.25,9.04271,9.04271,0,0,1,1.793,5.81348v10.22461a.80559.80559,0,0,1-.20215.57617.71117.71117,0,0,1-.542.21582h-.57422a.70972.70972,0,0,1-.542-.21582.80612.80612,0,0,1-.20313-.57617V99.4649a6.938,6.938,0,0,0-1.33691-4.53613,4.69545,4.69545,0,0,0-3.84082-1.62012,4.94754,4.94754,0,0,0-3.8916,1.6377,6.56424,6.56424,0,0,0-1.45508,4.51855v10.04395a.80608.80608,0,0,1-.20313.57617.709.709,0,0,1-.541.21582h-.57617A.71047.71047,0,0,1,546.51953,110.085Z"/><path class="cls-3" d="M569.49707,87.51276a.80614.80614,0,0,1-.20312-.57618V85.56842a.873.873,0,0,1,.20312-.59375.68086.68086,0,0,1,.542-.23437h1.28516a.73282.73282,0,0,1,.55859.23437.835.835,0,0,1,.22071.59375v1.36816a.74857.74857,0,0,1-.7793.792h-1.28516A.70975.70975,0,0,1,569.49707,87.51276Zm.37207,22.57226a.81042.81042,0,0,1-.20312-.57617V92.37213a.80794.80794,0,0,1,.20312-.57519.70765.70765,0,0,1,.541-.2168h.57617a.70617.70617,0,0,1,.541.2168.80361.80361,0,0,1,.20313.57519v17.13672a.80608.80608,0,0,1-.20313.57617.709.709,0,0,1-.541.21582h-.57617A.71047.71047,0,0,1,569.86914,110.085Z"/><path class="cls-3" d="M580.79883,110.085a.81039.81039,0,0,1-.20313-.57617V92.37213a.8079.8079,0,0,1,.20313-.57519.70763.70763,0,0,1,.541-.2168h.57618a.70617.70617,0,0,1,.541.2168.80365.80365,0,0,1,.20313.57519v1.69238a7.15576,7.15576,0,0,1,2.31836-2.124,6.928,6.928,0,0,1,3.36718-.71973,6.1541,6.1541,0,0,1,5.10938,2.25,9.04271,9.04271,0,0,1,1.793,5.81348v10.22461a.80559.80559,0,0,1-.20215.57617.71118.71118,0,0,1-.542.21582h-.57422a.70972.70972,0,0,1-.542-.21582.80608.80608,0,0,1-.20313-.57617V99.4649a6.938,6.938,0,0,0-1.33691-4.53613,4.69545,4.69545,0,0,0-3.84082-1.62012,4.94756,4.94756,0,0,0-3.89161,1.6377,6.56428,6.56428,0,0,0-1.45507,4.51855v10.04395a.80612.80612,0,0,1-.20313.57617.709.709,0,0,1-.541.21582h-.57618A.71045.71045,0,0,1,580.79883,110.085Z"/><path class="cls-3" d="M606.28125,117.24908a5.69346,5.69346,0,0,1-2.2168-2.21484,4.97246,4.97246,0,0,1-.62695-2.17773.74529.74529,0,0,1,.74512-.75586h.47363a.71725.71725,0,0,1,.49023.16211,1.30813,1.30813,0,0,1,.32227.59375q1.04883,3.27538,4.87305,3.27636a6.18257,6.18257,0,0,0,4.29687-1.27832q1.38867-1.27881,1.3877-4.55371v-2.48437a6.4786,6.4786,0,0,1-5.68457,2.84375,6.09273,6.09273,0,0,1-5.39844-2.53809,11.21565,11.21565,0,0,1-1.84375-6.17383l-.0332-1.00781.0332-1.00781a11.21815,11.21815,0,0,1,1.84375-6.17383,6.09273,6.09273,0,0,1,5.39844-2.53809,6.53239,6.53239,0,0,1,5.68457,2.84375V92.40826a.873.873,0,0,1,.20312-.59375.68394.68394,0,0,1,.542-.23437h.541a.73925.73925,0,0,1,.55859.23437.83434.83434,0,0,1,.21973.59375v17.53223a9.76886,9.76886,0,0,1-1.69238,6.06641q-1.6919,2.21337-5.8877,2.21386A8.04991,8.04991,0,0,1,606.28125,117.24908Zm8.29-10.5664a7.99971,7.99971,0,0,0,1.45508-4.44629q.03369-.35889.03418-1.2959,0-.936-.03418-1.2959a8.00227,8.00227,0,0,0-1.45508-4.44629,4.63243,4.63243,0,0,0-4.02637-1.88965,4.51707,4.51707,0,0,0-4.01074,1.85352,8.83884,8.83884,0,0,0-1.37012,4.77051l-.03418,1.00781.03418,1.00781a8.83884,8.83884,0,0,0,1.37012,4.77051,4.51482,4.51482,0,0,0,4.01074,1.85352A4.63243,4.63243,0,0,0,614.57129,106.68268Z"/><path class="cls-3" d="M642.01563,109.7608a6.59368,6.59368,0,0,1-2.64063-2.502,6.911,6.911,0,0,1-.94727-3.582,5.89669,5.89669,0,0,1,1.28614-3.87012,14.62359,14.62359,0,0,1,3.58691-3.00586,16.96416,16.96416,0,0,1-2.45312-3.34863,6.42377,6.42377,0,0,1-.69336-2.95117,5.71746,5.71746,0,0,1,.76074-2.88086,5.586,5.586,0,0,1,2.11523-2.10547,5.96,5.96,0,0,1,3.01172-.77441,6.04205,6.04205,0,0,1,3.02832.75585,5.53467,5.53467,0,0,1,2.09864,2.07032,5.75642,5.75642,0,0,1,.76074,2.93457,5.39607,5.39607,0,0,1-.71,2.79,7.36242,7.36242,0,0,1-1.81055,2.06933,26.69246,26.69246,0,0,1-2.792,1.87207l6.46289,6.73242a15.7913,15.7913,0,0,0,1.86133-6.04785,1.00067,1.00067,0,0,1,.2207-.57617.65162.65162,0,0,1,.52441-.21582h.64356a.70553.70553,0,0,1,.541.21582.80877.80877,0,0,1,.20313.57617,15.07715,15.07715,0,0,1-2.4375,7.668l3.31641,3.45606a.90958.90958,0,0,1,.30468.57519.60109.60109,0,0,1-.67578.68457h-.74414a1.23793,1.23793,0,0,1-.94824-.36035l-2.50488-2.66406a9.64008,9.64008,0,0,1-7.51172,3.38379A8.08637,8.08637,0,0,1,642.01563,109.7608Zm6.9873-1.98047a9.00052,9.00052,0,0,0,2.8252-2.124l-7.10547-7.30762a13.28116,13.28116,0,0,0-3.09668,2.42969,4.22676,4.22676,0,0,0-1.06543,2.89844,4.34144,4.34144,0,0,0,1.55664,3.52734,5.6749,5.6749,0,0,0,3.75586,1.29688A7.31263,7.31263,0,0,0,649.00293,107.78033Zm-.35547-14.59765a3.56692,3.56692,0,0,0,1.15137-2.68164,3.39442,3.39442,0,0,0-1.06641-2.61035,4.1036,4.1036,0,0,0-5.34668,0,3.34385,3.34385,0,0,0-1.10058,2.61035,4.50979,4.50979,0,0,0,.59277,2.19531,17.45978,17.45978,0,0,0,2.28418,2.95215A19.3458,19.3458,0,0,0,648.64746,93.18268Z"/><path class="cls-3" d="M676.29492,110.06647a.8744.8744,0,0,1-.20312-.59375V108.753a1.74835,1.74835,0,0,1,.2373-.97266c.15723-.23925.248-.37109.27051-.3955l13.333-20.124h-12.791a.70972.70972,0,0,1-.542-.21582.81037.81037,0,0,1-.20313-.57617v-.54a.87609.87609,0,0,1,.20313-.59375.68086.68086,0,0,1,.542-.23437h14.585a.75327.75327,0,0,1,.5752.21582.86438.86438,0,0,1,.20312.6123v.71973a1.65159,1.65159,0,0,1-.11914.666c-.0791.17969-.18554.39063-.32129.62989L678.7998,108.14069h13.26465a.75182.75182,0,0,1,.5752.21582.86.86,0,0,1,.20312.6123v.54a.74709.74709,0,0,1-.77832.792H676.83691A.68223.68223,0,0,1,676.29492,110.06647Z"/><path class="cls-3" d="M700.98145,108.37506a9.233,9.233,0,0,1-2.04786-5.92285l-.0332-1.51172.0332-1.51172a9.23224,9.23224,0,0,1,2.04786-5.92187,7.67471,7.67471,0,0,1,10.92968,0,9.24311,9.24311,0,0,1,2.04785,5.92187q.03224.36036.03321,1.51172,0,1.15284-.03321,1.51172a9.2439,9.2439,0,0,1-2.04785,5.92285,7.677,7.677,0,0,1-10.92968,0Zm9.33984-1.44043a7.1145,7.1145,0,0,0,1.57324-4.66211q.03369-.35889.03418-1.332,0-.97119-.03418-1.332a7.11644,7.11644,0,0,0-1.57324-4.66211,5.40321,5.40321,0,0,0-7.75,0,7.11639,7.11639,0,0,0-1.57324,4.66211l-.03418,1.332.03418,1.332a7.11444,7.11444,0,0,0,1.57324,4.66211,5.40321,5.40321,0,0,0,7.75,0Z"/><path class="cls-3" d="M722.21582,110.085a.80612.80612,0,0,1-.20312-.57617V92.37213a.80364.80364,0,0,1,.20312-.57519.70476.70476,0,0,1,.541-.2168h.57519a.70835.70835,0,0,1,.542.2168.8079.8079,0,0,1,.20313.57519v1.69238a7.163,7.163,0,0,1,2.31738-2.124,6.9307,6.9307,0,0,1,3.36719-.71973,6.15728,6.15728,0,0,1,5.11035,2.25,9.04271,9.04271,0,0,1,1.793,5.81348v10.22461a.80608.80608,0,0,1-.20313.57617.70753.70753,0,0,1-.541.21582h-.5752a.71118.71118,0,0,1-.542-.21582.81042.81042,0,0,1-.20312-.57617V99.4649a6.93781,6.93781,0,0,0-1.33594-4.53613,4.69674,4.69674,0,0,0-3.84082-1.62012,4.94615,4.94615,0,0,0-3.8916,1.6377,6.56424,6.56424,0,0,0-1.45508,4.51855v10.04395a.81039.81039,0,0,1-.20313.57617.71117.71117,0,0,1-.542.21582h-.57519A.70755.70755,0,0,1,722.21582,110.085Z"/><path class="cls-3" d="M745.19336,87.51276a.80615.80615,0,0,1-.20313-.57618V85.56842a.873.873,0,0,1,.20313-.59375.67887.67887,0,0,1,.541-.23437h1.28613a.73575.73575,0,0,1,.55859.23437.83432.83432,0,0,1,.21973.59375v1.36816a.74711.74711,0,0,1-.77832.792h-1.28613A.70759.70759,0,0,1,745.19336,87.51276Zm.37207,22.57226a.80612.80612,0,0,1-.20313-.57617V92.37213a.80365.80365,0,0,1,.20313-.57519.70476.70476,0,0,1,.541-.2168h.57519a.70835.70835,0,0,1,.542.2168.8079.8079,0,0,1,.20313.57519v17.13672a.81039.81039,0,0,1-.20313.57617.71117.71117,0,0,1-.542.21582h-.57519A.70755.70755,0,0,1,745.56543,110.085Z"/><path class="cls-3" d="M756.49512,110.085a.80612.80612,0,0,1-.20313-.57617V92.37213a.80365.80365,0,0,1,.20313-.57519.70474.70474,0,0,1,.541-.2168h.5752a.70836.70836,0,0,1,.542.2168.8079.8079,0,0,1,.20313.57519v1.69238a7.16276,7.16276,0,0,1,2.31738-2.124,6.93067,6.93067,0,0,1,3.36719-.71973,6.1573,6.1573,0,0,1,5.11035,2.25,9.04271,9.04271,0,0,1,1.793,5.81348v10.22461a.80612.80612,0,0,1-.20313.57617.70753.70753,0,0,1-.541.21582h-.5752a.71117.71117,0,0,1-.542-.21582.81039.81039,0,0,1-.20313-.57617V99.4649a6.9378,6.9378,0,0,0-1.33593-4.53613,4.69675,4.69675,0,0,0-3.84082-1.62012,4.94618,4.94618,0,0,0-3.89161,1.6377,6.56428,6.56428,0,0,0-1.45507,4.51855v10.04395a.81039.81039,0,0,1-.20313.57617.71118.71118,0,0,1-.542.21582h-.5752A.70753.70753,0,0,1,756.49512,110.085Z"/><path class="cls-3" d="M781.97656,117.24908a5.7,5.7,0,0,1-2.21679-2.21484,4.96954,4.96954,0,0,1-.626-2.17773.74369.74369,0,0,1,.74414-.75586h.47461a.719.719,0,0,1,.49023.16211,1.29907,1.29907,0,0,1,.32129.59375q1.04883,3.27538,4.87305,3.27636a6.18533,6.18533,0,0,0,4.29785-1.27832q1.38721-1.27881,1.3877-4.55371v-2.48437a6.47918,6.47918,0,0,1-5.68555,2.84375,6.09209,6.09209,0,0,1-5.39746-2.53809,11.20767,11.20767,0,0,1-1.84375-6.17383l-.03418-1.00781.03418-1.00781a11.21017,11.21017,0,0,1,1.84375-6.17383,6.09209,6.09209,0,0,1,5.39746-2.53809,6.53525,6.53525,0,0,1,5.68555,2.84375V92.40826a.873.873,0,0,1,.20312-.59375.68193.68193,0,0,1,.541-.23437h.541a.7363.7363,0,0,1,.5586.23437.83437.83437,0,0,1,.21972.59375v17.53223a9.76877,9.76877,0,0,1-1.6914,6.06641q-1.69337,2.21337-5.88868,2.21386A8.04991,8.04991,0,0,1,781.97656,117.24908Zm8.291-10.5664a8.01484,8.01484,0,0,0,1.45508-4.44629q.03222-.35889.0332-1.2959,0-.936-.0332-1.2959a8.01742,8.01742,0,0,0-1.45508-4.44629,4.63422,4.63422,0,0,0-4.02735-1.88965,4.51528,4.51528,0,0,0-4.00976,1.85352,8.83885,8.83885,0,0,0-1.37109,4.77051l-.03321,1.00781.03321,1.00781a8.83885,8.83885,0,0,0,1.37109,4.77051,4.513,4.513,0,0,0,4.00976,1.85352A4.63422,4.63422,0,0,0,790.26758,106.68268Z"/><path class="cls-2" d="M308.63086,59.13287a.57408.57408,0,0,1-.1582-.4082v-15.624a.6317.6317,0,0,1,.14648-.43164.495.495,0,0,1,.39453-.168h9.94922a.5311.5311,0,0,1,.40625.168.60308.60308,0,0,1,.1582.43164v1.6084a.564.564,0,0,1-.1582.41992.55456.55456,0,0,1-.40625.15527h-7.39941v4.2002h6.90332a.53607.53607,0,0,1,.40625.168.60976.60976,0,0,1,.1582.43262v1.51172a.56633.56633,0,0,1-.1582.41992.55291.55291,0,0,1-.40625.15625h-6.90332v4.34375h7.58007a.5491.5491,0,0,1,.40528.15625.56253.56253,0,0,1,.1582.41992v1.63184a.56252.56252,0,0,1-.1582.41992.5491.5491,0,0,1-.40528.15625H309.01367A.503.503,0,0,1,308.63086,59.13287Z"/><path class="cls-2" d="M325.53906,58.07623a5.7492,5.7492,0,0,1-1.56836-4.05566l-.02246-.96.02246-.96a5.74923,5.74923,0,0,1,1.56836-4.05567,5.3752,5.3752,0,0,1,3.959-1.46484,6.20713,6.20713,0,0,1,3.01172.67285,4.74885,4.74885,0,0,1,1.82812,1.64356,3.98577,3.98577,0,0,1,.64258,1.86035.48455.48455,0,0,1-.14649.40722.54507.54507,0,0,1-.3955.169h-2.00782a.50483.50483,0,0,1-.36035-.1084,1.144,1.144,0,0,1-.22656-.39648,2.7843,2.7843,0,0,0-.89062-1.31934,2.30944,2.30944,0,0,0-1.41016-.4082,2.20988,2.20988,0,0,0-1.793.76757,3.78073,3.78073,0,0,0-.68848,2.35254l-.02246.8877.02246.792q.13623,3.12012,2.48145,3.12012a2.3555,2.3555,0,0,0,1.42187-.39551,2.75678,2.75678,0,0,0,.87891-1.332.97492.97492,0,0,1,.21484-.38477.51939.51939,0,0,1,.37207-.12011h2.00782a.54793.54793,0,0,1,.3955.168.48864.48864,0,0,1,.14649.4082,3.99077,3.99077,0,0,1-.63184,1.8125,4.85458,4.85458,0,0,1-1.80566,1.668,6.06258,6.06258,0,0,1-3.04492.69629A5.37516,5.37516,0,0,1,325.53906,58.07623Z"/><path class="cls-2" d="M340.6875,58.10065a5.75571,5.75571,0,0,1-1.55664-3.98438l-.02246-1.05566.02246-1.05567a5.71628,5.71628,0,0,1,1.58008-3.97265,6.4346,6.4346,0,0,1,8.14355,0,5.72436,5.72436,0,0,1,1.5791,3.97265c.01465.19141.02246.544.02246,1.05567q0,.769-.02246,1.05566a5.76013,5.76013,0,0,1-1.55664,3.98438,6.54024,6.54024,0,0,1-8.18945,0Zm5.94531-1.77637a3.81585,3.81585,0,0,0,.6875-2.32813c.01465-.15918.02246-.47168.02246-.93554s-.00781-.77637-.02246-.93555a3.82468,3.82468,0,0,0-.69922-2.34082,2.22848,2.22848,0,0,0-1.82812-.80371,2.25212,2.25212,0,0,0-1.84961.80371,3.82468,3.82468,0,0,0-.69922,2.34082l-.02246.93555.02246.93554a3.76486,3.76486,0,0,0,.69922,2.32813,2.264,2.264,0,0,0,1.84961.792A2.2339,2.2339,0,0,0,346.63281,56.32428Z"/><path class="cls-2" d="M355.374,59.13287a.57408.57408,0,0,1-.1582-.4082V47.39655a.56406.56406,0,0,1,.1582-.41993.52694.52694,0,0,1,.38379-.15625h1.87207a.52137.52137,0,0,1,.39551.15625.58974.58974,0,0,1,.14649.41993v.98437a4.48238,4.48238,0,0,1,3.76757-1.80078,4.09109,4.09109,0,0,1,3.293,1.44043,5.93962,5.93962,0,0,1,1.21875,3.96v6.74414a.60012.60012,0,0,1-.14648.4082.49909.49909,0,0,1-.39453.168h-2.03125a.503.503,0,0,1-.38282-.168.57412.57412,0,0,1-.1582-.4082V52.12506a3.32993,3.32993,0,0,0-.64258-2.17285,2.25247,2.25247,0,0,0-1.83984-.7793,2.34726,2.34726,0,0,0-1.84961.792,3.1445,3.1445,0,0,0-.69922,2.16016v6.59961a.60012.60012,0,0,1-.14648.4082.49636.49636,0,0,1-.39453.168h-2.00782A.50508.50508,0,0,1,355.374,59.13287Z"/><path class="cls-2" d="M372.67773,58.10065a5.75134,5.75134,0,0,1-1.55664-3.98438l-.02343-1.05566.02343-1.05567a5.71571,5.71571,0,0,1,1.57911-3.97265,6.43459,6.43459,0,0,1,8.14355,0,5.72063,5.72063,0,0,1,1.58008,3.97265c.01367.19141.02148.544.02148,1.05567,0,.51269-.00781.86426-.02148,1.05566a5.76455,5.76455,0,0,1-1.55664,3.98438,6.54026,6.54026,0,0,1-8.18946,0Zm5.94434-1.77637a3.81585,3.81585,0,0,0,.68848-2.32813c.01367-.15918.02148-.47168.02148-.93554s-.00781-.77637-.02148-.93555a3.83107,3.83107,0,0,0-.69922-2.34082,2.50545,2.50545,0,0,0-3.67774,0,3.812,3.812,0,0,0-.69921,2.34082l-.02344.93555.02344.93554a3.75252,3.75252,0,0,0,.69921,2.32813,2.26275,2.26275,0,0,0,1.84961.792A2.232,2.232,0,0,0,378.62207,56.32428Z"/><path class="cls-2" d="M387.36328,59.13287a.57408.57408,0,0,1-.1582-.4082V47.39655a.56406.56406,0,0,1,.1582-.41993.52852.52852,0,0,1,.38379-.15625h1.78223a.51625.51625,0,0,1,.39453.15625.58978.58978,0,0,1,.14648.41993v.8164a3.87587,3.87587,0,0,1,3.27149-1.63281,3.54175,3.54175,0,0,1,3.49707,2.13672,4.26722,4.26722,0,0,1,3.67676-2.13672,3.82838,3.82838,0,0,1,3.02343,1.34473,5.78622,5.78622,0,0,1,1.17383,3.9121v6.8877a.60488.60488,0,0,1-.14648.4082.49976.49976,0,0,1-.39551.168h-1.87207a.50507.50507,0,0,1-.38379-.168.57408.57408,0,0,1-.1582-.4082V52.02838a3.24844,3.24844,0,0,0-.59766-2.18359,1.99788,1.99788,0,0,0-1.56738-.67188,1.95112,1.95112,0,0,0-1.501.6836,3.17526,3.17526,0,0,0-.62012,2.17187v6.69629a.60007.60007,0,0,1-.14648.4082.49771.49771,0,0,1-.39453.168h-1.89551a.50655.50655,0,0,1-.38379-.168.57408.57408,0,0,1-.1582-.4082V52.02838a3.21257,3.21257,0,0,0-.60938-2.17187,1.9879,1.9879,0,0,0-1.55664-.6836,1.95347,1.95347,0,0,0-1.5.6836,3.17026,3.17026,0,0,0-.62012,2.17187v6.69629a.60007.60007,0,0,1-.14648.4082.4977.4977,0,0,1-.39453.168h-1.918A.50655.50655,0,0,1,387.36328,59.13287Z"/><path class="cls-2" d="M409.90137,44.61237a.57166.57166,0,0,1-.15723-.40821v-1.752a.60405.60405,0,0,1,.15723-.43164.5085.5085,0,0,1,.38379-.168h2.07519a.536.536,0,0,1,.40625.168.60832.60832,0,0,1,.15723.43164v1.752a.55344.55344,0,0,1-.168.40821.54411.54411,0,0,1-.39551.168h-2.07519A.50509.50509,0,0,1,409.90137,44.61237Zm.09082,14.5205a.57408.57408,0,0,1-.15821-.4082V47.39655a.56406.56406,0,0,1,.15821-.41993.5247.5247,0,0,1,.38281-.15625h1.918a.50793.50793,0,0,1,.38281.168.57412.57412,0,0,1,.1582.40821V58.72467a.57408.57408,0,0,1-.1582.4082.50449.50449,0,0,1-.38281.168h-1.918A.503.503,0,0,1,409.99219,59.13287Z"/><path class="cls-2" d="M419.18457,58.07623a5.74439,5.74439,0,0,1-1.56738-4.05566l-.02344-.96.02344-.96a5.74442,5.74442,0,0,1,1.56738-4.05567,5.37752,5.37752,0,0,1,3.96-1.46484,6.2071,6.2071,0,0,1,3.01172.67285,4.75272,4.75272,0,0,1,1.82715,1.64356,3.97494,3.97494,0,0,1,.64258,1.86035.48455.48455,0,0,1-.14649.40722.54347.54347,0,0,1-.39551.169h-2.00781a.50643.50643,0,0,1-.36035-.1084,1.14531,1.14531,0,0,1-.22559-.39648,2.79816,2.79816,0,0,0-.89062-1.31934,2.3114,2.3114,0,0,0-1.41016-.4082,2.21188,2.21188,0,0,0-1.79394.76757,3.78687,3.78687,0,0,0-.68848,2.35254l-.02148.8877.02148.792q.13623,3.12012,2.48242,3.12012a2.3524,2.3524,0,0,0,1.4209-.39551,2.76448,2.76448,0,0,0,.87988-1.332.96288.96288,0,0,1,.21485-.38477.51676.51676,0,0,1,.37109-.12011H428.084a.54631.54631,0,0,1,.39551.168.48864.48864,0,0,1,.14649.4082,3.97931,3.97931,0,0,1-.63184,1.8125,4.84374,4.84374,0,0,1-1.80469,1.668,6.06767,6.06767,0,0,1-3.04492.69629A5.37749,5.37749,0,0,1,419.18457,58.07623Z"/><path class="cls-2" d="M442.88379,58.94049a4.57217,4.57217,0,0,1-1.92871-1.69141,4.64827,4.64827,0,0,1-.68848-2.53222,4.20607,4.20607,0,0,1,.81153-2.58008,8.06535,8.06535,0,0,1,2.30175-2.00391,8.87251,8.87251,0,0,1-1.36425-1.956,4.15434,4.15434,0,0,1-.418-1.8125,4.01065,4.01065,0,0,1,.541-2.04,3.95409,3.95409,0,0,1,1.58008-1.5,5.08639,5.08639,0,0,1,2.459-.56348,4.90215,4.90215,0,0,1,2.35743.54,3.84226,3.84226,0,0,1,1.54492,1.47559,4.001,4.001,0,0,1,.541,2.04,3.67489,3.67489,0,0,1-.834,2.42383,9.46107,9.46107,0,0,1-2.43652,1.96875l3.22558,3.38378a12.32042,12.32042,0,0,0,1.17383-3.168.44548.44548,0,0,1,.14648-.29981.47756.47756,0,0,1,.32715-.1084h1.66895a.44711.44711,0,0,1,.33887.14356.47583.47583,0,0,1,.13574.33593,6.58575,6.58575,0,0,1-.63281,2.34082,14.17833,14.17833,0,0,1-1.44336,2.58008l2.41406,2.5918a.51774.51774,0,0,1,.1582.35937.43723.43723,0,0,1-.11328.3125.41068.41068,0,0,1-.31543.12012h-2.21094a.76782.76782,0,0,1-.58691-.24023l-1.24024-1.27246a6.46191,6.46191,0,0,1-4.625,1.75293A6.56991,6.56991,0,0,1,442.88379,58.94049Zm5.75293-3.14355-3.58789-3.74414q-1.916,1.10448-1.917,2.54394a2.1919,2.1919,0,0,0,.77832,1.76367,2.78163,2.78163,0,0,0,1.86132.66016A3.77451,3.77451,0,0,0,448.63672,55.79694ZM447.418,47.70905a1.78435,1.78435,0,0,0,.56445-1.32032,1.6612,1.6612,0,0,0-.51953-1.25976,1.7953,1.7953,0,0,0-1.28516-.49219,1.838,1.838,0,0,0-1.27539.47949,1.63311,1.63311,0,0,0-.52929,1.27246,2.33183,2.33183,0,0,0,.293,1.10352,7.13241,7.13241,0,0,0,1.082,1.39258A8.14953,8.14953,0,0,0,447.418,47.70905Z"/><path class="cls-2" d="M466.93164,59.13287a.57325.57325,0,0,1-.15723-.4082v-15.624a.627.627,0,0,1,.14649-.43164.497.497,0,0,1,.39551-.168h2.07422a.53111.53111,0,0,1,.40625.168.60312.60312,0,0,1,.1582.43164v6.168H476.543v-6.168a.60308.60308,0,0,1,.1582-.43164.503.503,0,0,1,.38281-.168h2.09766a.49837.49837,0,0,1,.39551.168.63175.63175,0,0,1,.14648.43164v15.624a.60012.60012,0,0,1-.14648.4082.49837.49837,0,0,1-.39551.168H477.084a.503.503,0,0,1-.38281-.168.57408.57408,0,0,1-.1582-.4082v-6.4082h-6.58789v6.4082a.57412.57412,0,0,1-.1582.4082.53111.53111,0,0,1-.40625.168h-2.07422A.50713.50713,0,0,1,466.93164,59.13287Z"/><path class="cls-2" d="M486.334,58.10065a5.75134,5.75134,0,0,1-1.55664-3.98438l-.02343-1.05566.02343-1.05567a5.71571,5.71571,0,0,1,1.57911-3.97265,6.43459,6.43459,0,0,1,8.14355,0,5.72063,5.72063,0,0,1,1.58008,3.97265c.01367.19141.02148.544.02148,1.05567,0,.51269-.00781.86426-.02148,1.05566a5.76455,5.76455,0,0,1-1.55664,3.98438,6.54026,6.54026,0,0,1-8.18946,0Zm5.94434-1.77637a3.81585,3.81585,0,0,0,.68848-2.32813c.01367-.15918.02148-.47168.02148-.93554s-.00781-.77637-.02148-.93555a3.83107,3.83107,0,0,0-.69922-2.34082,2.50545,2.50545,0,0,0-3.67774,0,3.812,3.812,0,0,0-.69921,2.34082l-.02344.93555.02344.93554a3.75252,3.75252,0,0,0,.69921,2.32813,2.26275,2.26275,0,0,0,1.84961.792A2.232,2.232,0,0,0,492.27832,56.32428Z"/><path class="cls-2" d="M501.94531,58.10065a6.01326,6.01326,0,0,1-1.19629-3.96V47.39655a.56406.56406,0,0,1,.15821-.41993.52693.52693,0,0,1,.38379-.15625h2.03027a.51152.51152,0,0,1,.38379.168.5775.5775,0,0,1,.15722.40821v6.5996q0,2.95313,2.41407,2.95215a2.33873,2.33873,0,0,0,1.86133-.792,3.18455,3.18455,0,0,0,.68847-2.16016v-6.5996a.5673.5673,0,0,1,.15723-.41993.52852.52852,0,0,1,.38379-.15625H511.375a.51622.51622,0,0,1,.39453.15625.58974.58974,0,0,1,.14649.41993V58.72467a.60008.60008,0,0,1-.14649.4082.495.495,0,0,1-.39453.168h-1.873a.50449.50449,0,0,1-.38281-.168.57408.57408,0,0,1-.1582-.4082V57.7403a4.24265,4.24265,0,0,1-3.74414,1.80078A4.024,4.024,0,0,1,501.94531,58.10065Z"/><path class="cls-2" d="M518.752,58.98834a4.54452,4.54452,0,0,1-1.70312-1.28418,2.22894,2.22894,0,0,1-.55274-1.25976.51442.51442,0,0,1,.14649-.38379.48313.48313,0,0,1,.34961-.14356h1.85058a.3841.3841,0,0,1,.31543.19141c.0752.06445.24414.21582.50782.456a2.92526,2.92526,0,0,0,2.01953.76856,2.61659,2.61659,0,0,0,1.46582-.37207,1.20362,1.20362,0,0,0,.56347-1.06836,1.15058,1.15058,0,0,0-.25879-.78027,2.31606,2.31606,0,0,0-.9248-.55176,17.24364,17.24364,0,0,0-1.99609-.56446,5.85025,5.85025,0,0,1-2.832-1.31933,3.12978,3.12978,0,0,1-.91407-2.35254,3.3272,3.3272,0,0,1,.542-1.81152,3.95588,3.95588,0,0,1,1.61329-1.39258,5.63631,5.63631,0,0,1,2.56054-.54,6.2022,6.2022,0,0,1,2.63965.5166,4.572,4.572,0,0,1,1.67969,1.23633,2.15073,2.15073,0,0,1,.57617,1.27148.52318.52318,0,0,1-.14648.37207.46279.46279,0,0,1-.34961.15625h-1.69239a.44257.44257,0,0,1-.38378-.19238c-.10547-.08008-.27442-.22754-.50782-.44434a2.85173,2.85173,0,0,0-.77734-.51562,2.53891,2.53891,0,0,0-1.03809-.19238,1.92976,1.92976,0,0,0-1.28613.38476,1.25893,1.25893,0,0,0-.45117,1.00781,1.16641,1.16641,0,0,0,.21484.71973,1.95529,1.95529,0,0,0,.86817.54,13.02539,13.02539,0,0,0,1.96191.51563q4.062.84081,4.06152,3.76855a3.30652,3.30652,0,0,1-1.38769,2.75977,6.26217,6.26217,0,0,1-3.86914,1.05664A6.60558,6.60558,0,0,1,518.752,58.98834Z"/><path class="cls-2" d="M531.49805,44.61237a.57166.57166,0,0,1-.15723-.40821v-1.752a.60405.60405,0,0,1,.15723-.43164.51.51,0,0,1,.38379-.168H533.957a.53456.53456,0,0,1,.40625.168.6047.6047,0,0,1,.1582.43164v1.752a.55431.55431,0,0,1-.16894.40821.54253.54253,0,0,1-.39551.168h-2.07519A.50658.50658,0,0,1,531.49805,44.61237Zm.09082,14.5205a.57408.57408,0,0,1-.15821-.4082V47.39655a.56406.56406,0,0,1,.15821-.41993.52693.52693,0,0,1,.38379-.15625h1.918a.50945.50945,0,0,1,.38281.168.57412.57412,0,0,1,.1582.40821V58.72467a.57408.57408,0,0,1-.1582.4082.506.506,0,0,1-.38281.168h-1.918A.50507.50507,0,0,1,531.58887,59.13287Z"/><path class="cls-2" d="M539.82324,59.13287a.57408.57408,0,0,1-.1582-.4082V47.39655a.56406.56406,0,0,1,.1582-.41993.52693.52693,0,0,1,.38379-.15625h1.87207a.52137.52137,0,0,1,.39551.15625.58974.58974,0,0,1,.14648.41993v.98437a4.48241,4.48241,0,0,1,3.76758-1.80078,4.0911,4.0911,0,0,1,3.293,1.44043,5.93962,5.93962,0,0,1,1.21875,3.96v6.74414a.60012.60012,0,0,1-.14648.4082.49909.49909,0,0,1-.39453.168h-2.03125a.503.503,0,0,1-.38282-.168.57408.57408,0,0,1-.1582-.4082V52.12506a3.32993,3.32993,0,0,0-.64258-2.17285,2.25249,2.25249,0,0,0-1.83984-.7793,2.34726,2.34726,0,0,0-1.84961.792,3.1445,3.1445,0,0,0-.69922,2.16016v6.59961a.60012.60012,0,0,1-.14648.4082.49636.49636,0,0,1-.39454.168H540.207A.50507.50507,0,0,1,539.82324,59.13287Z"/><path class="cls-2" d="M558.07422,63.87213a4.52647,4.52647,0,0,1-1.75977-1.61914,3.30972,3.30972,0,0,1-.51953-1.56055.53047.53047,0,0,1,.15821-.3955.52457.52457,0,0,1,.38378-.15625h2.00782a.57074.57074,0,0,1,.34961.10839.7575.7575,0,0,1,.2373.39551,2.80376,2.80376,0,0,0,.74414,1.06836,2.2488,2.2488,0,0,0,1.53418.44336,2.70224,2.70224,0,0,0,1.98535-.63574,3.108,3.108,0,0,0,.63184-2.21973V57.669a4.15308,4.15308,0,0,1-3.45215,1.53515,4.21,4.21,0,0,1-3.53027-1.51172,6.92316,6.92316,0,0,1-1.27442-4.12793l-.02343-.64746.02343-.64843a7.02858,7.02858,0,0,1,1.28516-4.12793,4.16117,4.16117,0,0,1,3.51953-1.56055,4.39773,4.39773,0,0,1,2.09766.48047,4.30735,4.30735,0,0,1,1.49023,1.2959V47.421a.5858.5858,0,0,1,.168-.43262.548.548,0,0,1,.39551-.168H566.377a.50945.50945,0,0,1,.38282.168.60717.60717,0,0,1,.1582.43262l.02246,11.56738a5.73512,5.73512,0,0,1-1.39941,4.12793,5.5725,5.5725,0,0,1-4.21875,1.46387A6.50993,6.50993,0,0,1,558.07422,63.87213Zm5.05273-8.07519a3.84968,3.84968,0,0,0,.7002-2.11231q.022-.1919.02246-.76758,0-.57714-.02246-.76855a3.84968,3.84968,0,0,0-.7002-2.11231,2.19488,2.19488,0,0,0-1.89453-.86328q-2.436,0-2.57226,3.168l-.02149.57617q0,3.74268,2.59375,3.74317A2.19488,2.19488,0,0,0,563.127,55.79694Z"/><path class="cls-2" d="M580.002,59.13287a.57408.57408,0,0,1-.1582-.4082v-15.624a.63175.63175,0,0,1,.14648-.43164.497.497,0,0,1,.39551-.168h5.50489q6.65331,0,6.79,6.52734.04542,1.39307.0459,1.87207,0,.457-.0459,1.84863a6.98652,6.98652,0,0,1-1.70312,4.95508,6.82087,6.82087,0,0,1-4.97461,1.59668h-5.61719A.50508.50508,0,0,1,580.002,59.13287Zm5.88868-2.61621a3.57473,3.57473,0,0,0,2.707-.88769,4.38672,4.38672,0,0,0,.8789-2.95215q.04688-1.43994.0459-1.79981,0-.38379-.0459-1.77636a4.22038,4.22038,0,0,0-.92383-2.8916,3.67886,3.67886,0,0,0-2.77539-.92481h-2.75195V56.51666Z"/><path class="cls-2" d="M598.76074,58.00494a6.35381,6.35381,0,0,1-1.56738-4.36816l-.02344-.60059a7.0343,7.0343,0,0,1,1.47852-4.72754,5.76756,5.76756,0,0,1,8.23437,0,6.92076,6.92076,0,0,1,1.45508,4.6084V53.421a.57015.57015,0,0,1-.1582.40723.53114.53114,0,0,1-.40625.168H600.2832v.19239a3.88174,3.88174,0,0,0,.68848,2.21972,2.07312,2.07312,0,0,0,1.77051.876,2.49571,2.49571,0,0,0,2.09863-1.10352,1.26992,1.26992,0,0,1,.31543-.32421.88091.88091,0,0,1,.38379-.05957h1.98535a.53515.53515,0,0,1,.34961.12011.4094.4094,0,0,1,.14648.33594,2.29532,2.29532,0,0,1-.64257,1.35547A5.34511,5.34511,0,0,1,605.54,58.9649a6.32684,6.32684,0,0,1-2.77441.57618A5.29848,5.29848,0,0,1,598.76074,58.00494Zm6.46387-6.04882v-.04786a3.587,3.587,0,0,0-.666-2.26757,2.18173,2.18173,0,0,0-1.8164-.85254,2.15222,2.15222,0,0,0-1.80469.85254,3.63229,3.63229,0,0,0-.6543,2.26757v.04786Z"/><path class="cls-2" d="M616.1875,59.14459a1.1036,1.1036,0,0,1-.293-.44433l-4.24121-11.13575a.78725.78725,0,0,1-.02246-.21582.52485.52485,0,0,1,.14648-.37207.44339.44339,0,0,1,.32715-.15625h1.87207a.60342.60342,0,0,1,.60938.45606l2.97851,8.376,2.97754-8.376a.68437.68437,0,0,1,.19239-.31153.53485.53485,0,0,1,.39453-.14453H623.001a.43117.43117,0,0,1,.33886.15625.55035.55035,0,0,1,.13477.37207.78725.78725,0,0,1-.02246.21582L619.2334,58.70026a.84266.84266,0,0,1-.81152.60058H616.707A.77157.77157,0,0,1,616.1875,59.14459Z"/><path class="cls-2" d="M628.42676,58.00494a6.35381,6.35381,0,0,1-1.56738-4.36816l-.02344-.60059a7.03435,7.03435,0,0,1,1.47851-4.72754,5.76757,5.76757,0,0,1,8.23438,0,6.92081,6.92081,0,0,1,1.45508,4.6084V53.421a.57429.57429,0,0,1-.15821.40723.53259.53259,0,0,1-.40625.168h-7.49023v.19239a3.88159,3.88159,0,0,0,.68848,2.21972,2.07312,2.07312,0,0,0,1.7705.876,2.49573,2.49573,0,0,0,2.09864-1.10352,1.25372,1.25372,0,0,1,.31543-.32421.88083.88083,0,0,1,.38378-.05957h1.98536a.53331.53331,0,0,1,.34961.12011.40942.40942,0,0,1,.14648.33594,2.28938,2.28938,0,0,1-.64258,1.35547,5.345,5.345,0,0,1-1.83887,1.35644,6.32681,6.32681,0,0,1-2.77441.57618A5.29846,5.29846,0,0,1,628.42676,58.00494Zm6.46387-6.04882v-.04786a3.587,3.587,0,0,0-.666-2.26757,2.18175,2.18175,0,0,0-1.81641-.85254,2.1522,2.1522,0,0,0-1.80468.85254,3.63229,3.63229,0,0,0-.6543,2.26757v.04786Z"/><path class="cls-2" d="M642.83105,59.13287a.57412.57412,0,0,1-.1582-.4082V42.837a.56257.56257,0,0,1,.1582-.41992.52091.52091,0,0,1,.38282-.15625h1.89551a.51422.51422,0,0,1,.39453.15625.58816.58816,0,0,1,.14648.41992v15.8877a.60012.60012,0,0,1-.14648.4082.49636.49636,0,0,1-.39453.168h-1.89551A.503.503,0,0,1,642.83105,59.13287Z"/><path class="cls-2" d="M652.0127,58.10065a5.75572,5.75572,0,0,1-1.55665-3.98438l-.02246-1.05566.02246-1.05567a5.71571,5.71571,0,0,1,1.57911-3.97265,6.43459,6.43459,0,0,1,8.14355,0,5.72,5.72,0,0,1,1.5791,3.97265c.01563.19141.02344.544.02344,1.05567q0,.769-.02344,1.05566a5.75571,5.75571,0,0,1-1.55664,3.98438,6.53885,6.53885,0,0,1-8.18847,0Zm5.94433-1.77637a3.80949,3.80949,0,0,0,.6875-2.32813c.01563-.15918.02344-.47168.02344-.93554s-.00781-.77637-.02344-.93555a3.81832,3.81832,0,0,0-.69922-2.34082,2.22654,2.22654,0,0,0-1.82715-.80371,2.25086,2.25086,0,0,0-1.84961.80371,3.812,3.812,0,0,0-.69921,2.34082l-.02246.93555.02246.93554a3.75252,3.75252,0,0,0,.69921,2.32813,2.26275,2.26275,0,0,0,1.84961.792A2.232,2.232,0,0,0,657.957,56.32428Z"/><path class="cls-2" d="M666.72168,63.70416a.56252.56252,0,0,1-.1582-.41992V47.39655a.56406.56406,0,0,1,.1582-.41993.5247.5247,0,0,1,.38281-.15625h1.80469a.53456.53456,0,0,1,.40625.168.57412.57412,0,0,1,.1582.40821v.96a4.036,4.036,0,0,1,3.58692-1.77637,4.21822,4.21822,0,0,1,3.49707,1.52441,6.77338,6.77338,0,0,1,1.30859,4.0918q.022.28857.02246.86426,0,.57569-.02246.86426a6.64677,6.64677,0,0,1-1.29785,4.06738,4.21871,4.21871,0,0,1-3.50781,1.54883A3.95941,3.95941,0,0,1,669.6084,57.837v5.44727a.5881.5881,0,0,1-.14649.41992.51419.51419,0,0,1-.39453.15625h-1.96289A.52087.52087,0,0,1,666.72168,63.70416Zm8.05371-9.92383q.022-.23877.02246-.71972c0-.32031-.00781-.55957-.02246-.71973q-.1582-3.16845-2.57226-3.168a2.195,2.195,0,0,0-1.917.8877,3.87274,3.87274,0,0,0-.67773,2.16015c-.01465.19141-.02246.4961-.02246.91211s.00781.72754.02246.93555a3.4356,3.4356,0,0,0,.70019,2.04,2.25454,2.25454,0,0,0,1.89454.83984Q674.61719,56.9483,674.77539,53.78033Z"/><path class="cls-2" d="M682.80664,59.13287a.57325.57325,0,0,1-.15723-.4082V47.39655a.56346.56346,0,0,1,.15723-.41993.52852.52852,0,0,1,.38379-.15625h1.78223a.51771.51771,0,0,1,.39453.15625.59029.59029,0,0,1,.14746.41993v.8164a3.87411,3.87411,0,0,1,3.27051-1.63281,3.54175,3.54175,0,0,1,3.49707,2.13672A4.2672,4.2672,0,0,1,695.96,46.58014a3.82778,3.82778,0,0,1,3.02246,1.34473,5.781,5.781,0,0,1,1.17285,3.9121v6.8877a.60007.60007,0,0,1-.14648.4082.49634.49634,0,0,1-.39453.168h-1.87207a.50359.50359,0,0,1-.38379-.168.57408.57408,0,0,1-.1582-.4082V52.02838a3.24844,3.24844,0,0,0-.59766-2.18359,1.99854,1.99854,0,0,0-1.56836-.67188,1.95347,1.95347,0,0,0-1.5.6836,3.17026,3.17026,0,0,0-.62012,2.17187v6.69629a.60012.60012,0,0,1-.14648.4082.49837.49837,0,0,1-.39551.168h-1.89453a.50655.50655,0,0,1-.38379-.168.57408.57408,0,0,1-.1582-.4082V52.02838a3.21272,3.21272,0,0,0-.6084-2.17187,1.99072,1.99072,0,0,0-1.55664-.6836,1.954,1.954,0,0,0-1.501.6836,3.17531,3.17531,0,0,0-.62012,2.17187v6.69629a.60007.60007,0,0,1-.14648.4082.49634.49634,0,0,1-.39453.168h-1.918A.50655.50655,0,0,1,682.80664,59.13287Z"/><path class="cls-2" d="M706.34766,58.00494a6.35877,6.35877,0,0,1-1.56836-4.36816l-.02246-.60059a7.03941,7.03941,0,0,1,1.47851-4.72754,5.76757,5.76757,0,0,1,8.23438,0,6.92081,6.92081,0,0,1,1.45507,4.6084V53.421a.57433.57433,0,0,1-.1582.40723.53259.53259,0,0,1-.40625.168h-7.49023v.19239a3.88166,3.88166,0,0,0,.68847,2.21972,2.07313,2.07313,0,0,0,1.77051.876,2.49571,2.49571,0,0,0,2.09863-1.10352,1.254,1.254,0,0,1,.31543-.32421.88091.88091,0,0,1,.38379-.05957h1.98535a.53328.53328,0,0,1,.34961.12011.4094.4094,0,0,1,.14649.33594,2.28938,2.28938,0,0,1-.64258,1.35547A5.345,5.345,0,0,1,713.127,58.9649a6.32681,6.32681,0,0,1-2.77441.57618A5.29846,5.29846,0,0,1,706.34766,58.00494Zm6.46386-6.04882v-.04786a3.587,3.587,0,0,0-.666-2.26757,2.18175,2.18175,0,0,0-1.81641-.85254,2.15223,2.15223,0,0,0-1.80469.85254,3.62622,3.62622,0,0,0-.65429,2.26757v.04786Z"/><path class="cls-2" d="M720.72949,59.13287a.57324.57324,0,0,1-.15722-.4082V47.39655a.56346.56346,0,0,1,.15722-.41993.52852.52852,0,0,1,.38379-.15625h1.873a.51916.51916,0,0,1,.39453.15625.58974.58974,0,0,1,.14648.41993v.98437a4.48365,4.48365,0,0,1,3.76758-1.80078,4.09175,4.09175,0,0,1,3.29395,1.44043,5.94458,5.94458,0,0,1,1.21777,3.96v6.74414a.60012.60012,0,0,1-.14648.4082.49636.49636,0,0,1-.39453.168h-2.03028a.50507.50507,0,0,1-.38379-.168.57408.57408,0,0,1-.1582-.4082V52.12506a3.32445,3.32445,0,0,0-.64258-2.17285,2.24918,2.24918,0,0,0-1.83887-.7793,2.34589,2.34589,0,0,0-1.84961.792,3.14454,3.14454,0,0,0-.69921,2.16016v6.59961a.60089.60089,0,0,1-.14746.4082.49636.49636,0,0,1-.39454.168h-2.00781A.50655.50655,0,0,1,720.72949,59.13287Z"/><path class="cls-2" d="M739.02637,58.16022a4.81161,4.81161,0,0,1-1.03809-3.34766V49.38873h-1.78223a.50651.50651,0,0,1-.38378-.168.57325.57325,0,0,1-.15723-.4082v-1.416a.57329.57329,0,0,1,.15723-.40821.51.51,0,0,1,.38378-.168h1.78223V42.837a.56257.56257,0,0,1,.1582-.41992.52155.52155,0,0,1,.38379-.15625h1.87207a.51423.51423,0,0,1,.39454.15625.58816.58816,0,0,1,.14648.41992v3.9834h2.82031a.51.51,0,0,1,.38379.168.57751.57751,0,0,1,.15723.40821v1.416a.57747.57747,0,0,1-.15723.4082.50655.50655,0,0,1-.38379.168h-2.82031v5.16016a2.916,2.916,0,0,0,.33887,1.55957,1.21213,1.21213,0,0,0,1.10547.52832h1.5791a.5142.5142,0,0,1,.39453.15625.58816.58816,0,0,1,.14648.41992v1.51172a.60012.60012,0,0,1-.14648.4082.49634.49634,0,0,1-.39453.168h-1.84961A3.968,3.968,0,0,1,739.02637,58.16022Z"/></g></svg>