<svg id="Slideout" xmlns="http://www.w3.org/2000/svg" viewBox="0 0 277 317">
  <defs>
    <style>
      .cls-1, .cls-2 {
        fill: #bdccd4;
      }

      .cls-1 {
        stroke: #bdccd4;
        stroke-width: 2px;
      }

      .cls-1, .cls-3 {
        stroke-miterlimit: 10;
      }

      .cls-3 {
        fill: none;
        stroke: #000;
        stroke-width: 7px;
      }
    </style>
  </defs>
  <title>NwkLogo-ext-bg</title>
  <rect class="cls-1" x="-17.0549" y="22.9787" width="315" height="275" rx="34.1261" transform="translate(298.9787 18.0549) rotate(90)"/>
  <rect class="cls-2" x="1" y="8.5" width="275" height="300" rx="31"/>
  <g>
    <path d="M81.75565,151.01679a1.04359,1.04359,0,0,1-.29346-.74122V125.08173a1.04409,1.04409,0,0,1,.29346-.74073.92346.92346,0,0,1,.69677-.312h5.792a1.58752,1.58752,0,0,1,1.50293.897l6.1958,10.80273v-10.647a1.04359,1.04359,0,0,1,.293-.74073.925.925,0,0,1,.69677-.312h6.63526a.925.925,0,0,1,.69677.312,1.04614,1.04614,0,0,1,.29346.74073v25.19384a1.04563,1.04563,0,0,1-.29346.74122.92325.92325,0,0,1-.69677.312h-5.792a1.45814,1.45814,0,0,1-.95312-.273,2.58246,2.58246,0,0,1-.54981-.624l-6.1958-9.94482v9.78857a1.04358,1.04358,0,0,1-.29345.74122.923.923,0,0,1-.69629.312H82.45242A.92175.92175,0,0,1,81.75565,151.01679Z" transform="translate(-1.9451 -1.9787)"/>
    <path d="M112.45828,150.88007a1.7119,1.7119,0,0,1-.53173-1.03321L108.554,125.0036v-.1167a.85169.85169,0,0,1,.23828-.60449.7532.7532,0,0,1,.56836-.25342H116.179a1.62257,1.62257,0,0,1,.97168.23389,1.04941,1.04941,0,0,1,.34814.81885l1.24658,10.998,1.50293-4.875q.36621-1.13085,1.24658-1.13086h3.73926q.87964,0,1.24658,1.13086l1.50293,4.83594,1.24659-10.959a1.0462,1.0462,0,0,1,.34814-.81885,1.62155,1.62155,0,0,1,.97168-.23389h6.81885a.7537.7537,0,0,1,.56787.25342.85379.85379,0,0,1,.23828.60449v.1167l-3.37256,24.84326a1.71708,1.71708,0,0,1-.53174,1.03321,1.58288,1.58288,0,0,1-1.15478.44873h-5.24219a1.35923,1.35923,0,0,1-1.0083-.35108,2.22891,2.22891,0,0,1-.49463-.70215l-3.00635-7.99462-3.00586,7.99462a2.25507,2.25507,0,0,1-.49511.70215,1.36,1.36,0,0,1-1.0083.35108h-5.24219A1.58212,1.58212,0,0,1,112.45828,150.88007Z" transform="translate(-1.9451 -1.9787)"/>
    <path d="M142.46365,151.01679a1.042,1.042,0,0,1-.29394-.74122V125.08173a1.0425,1.0425,0,0,1,.29394-.74073.92248.92248,0,0,1,.69629-.312h7.002a.926.926,0,0,1,.69726.312,1.04573,1.04573,0,0,1,.293.74073v7.72216l4.14258-7.917a1.52054,1.52054,0,0,1,1.4668-.85791h8.10156a.75622.75622,0,0,1,.56836.25342.88671.88671,0,0,1,.12793,1.0332l-6.59864,11.77832,7.22266,12.94776a.74424.74424,0,0,1,.10938.4292.855.855,0,0,1-.23829.60449.75147.75147,0,0,1-.56835.25342h-8.3584a1.53919,1.53919,0,0,1-.98926-.29248,1.7421,1.7421,0,0,1-.51367-.6045l-4.47266-8.50195v8.3457a1.04522,1.04522,0,0,1-.293.74122.92427.92427,0,0,1-.69726.312h-7.002A.92077.92077,0,0,1,142.46365,151.01679Z" transform="translate(-1.9451 -1.9787)"/>
    <path d="M169.29862,151.01679a1.04518,1.04518,0,0,1-.293-.74122v-6.78564a1.04683,1.04683,0,0,1,.293-.74121.92564.92564,0,0,1,.69628-.312h6.37891a.92564.92564,0,0,1,.69629.312,1.04778,1.04778,0,0,1,.29395.74121v6.78564a1.04613,1.04613,0,0,1-.29395.74122.92224.92224,0,0,1-.69629.312H169.9949A.92224.92224,0,0,1,169.29862,151.01679Z" transform="translate(-1.9451 -1.9787)"/>
    <path d="M184.80545,149.028q-3.22706-2.69166-3.44629-8.03418-.03516-1.05323-.03613-3.4712,0-2.45654.03613-3.54882.18458-5.0691,3.4834-7.70264,3.3003-2.63232,8.87207-2.63232a17.322,17.322,0,0,1,6.59766,1.16992,10.37671,10.37671,0,0,1,4.40039,3.15918,7.38259,7.38259,0,0,1,1.61328,4.36767.85342.85342,0,0,1-.23828.6045.75649.75649,0,0,1-.56836.2539H197.4158a1.25692,1.25692,0,0,1-1.0625-.4292,5.52359,5.52359,0,0,0-.33008-.4873,2.45782,2.45782,0,0,0-.89843-.72168,3.03192,3.03192,0,0,0-1.41016-.312q-2.71289,0-2.82422,2.9248-.03516,1.05322-.03515,3.27637,0,2.2229.03515,3.354.11133,3.31494,2.97071,3.31494a3.5652,3.5652,0,0,0,2.291-.66308,2.54531,2.54531,0,0,0,.82422-2.106v-.03906h-1.72266a.92277.92277,0,0,1-.69726-.312,1.04522,1.04522,0,0,1-.293-.74121V135.924a1.04687,1.04687,0,0,1,.293-.74121.92444.92444,0,0,1,.69726-.312h10.082a.92343.92343,0,0,1,.69532.312,1.04869,1.04869,0,0,1,.29492.74121v5.06983a10.39309,10.39309,0,0,1-1.5957,5.85009,9.854,9.854,0,0,1-4.43555,3.64649,16.46275,16.46275,0,0,1-6.58008,1.22851Q188.031,151.71893,184.80545,149.028Z" transform="translate(-1.9451 -1.9787)"/>
    <path d="M213.54666,149.028q-3.2622-2.69166-3.48242-7.83936-.03662-1.05249-.03711-3.39307,0-2.37817.03711-3.4707a11.11764,11.11764,0,0,1,1.668-5.772,9.86289,9.86289,0,0,1,4.27051-3.666,16.55356,16.55356,0,0,1,12.61133,0,9.871,9.871,0,0,1,4.27148,3.666,11.12668,11.12668,0,0,1,1.668,5.772q.07177,2.18481.07324,3.4707,0,1.2876-.07324,3.39307-.22119,5.1482-3.4834,7.83936-3.2622,2.69091-8.76172,2.69091Q216.80937,151.71893,213.54666,149.028Zm10.72364-5.69434a3.54957,3.54957,0,0,0,.751-2.37891q.07325-2.26172.07324-3.31494,0-1.13085-.07324-3.23681a3.49536,3.49536,0,0,0-.76953-2.3794,2.81028,2.81028,0,0,0-3.88574,0,3.49057,3.49057,0,0,0-.77051,2.3794q-.03662,1.05249-.03613,3.23681,0,2.18483.03613,3.31494a3.54964,3.54964,0,0,0,.75195,2.37891,2.85544,2.85544,0,0,0,3.92286,0Z" transform="translate(-1.9451 -1.9787)"/>
    <path d="M244.19412,150.93866a2.00712,2.00712,0,0,1-.5498-.897l-6.8916-24.88184-.03711-.273a.85169.85169,0,0,1,.23828-.60449.75471.75471,0,0,1,.56836-.25342h6.81836a1.52192,1.52192,0,0,1,1.10058.38965,2.0264,2.0264,0,0,1,.54981.897l3.48242,14.5083,3.48242-14.5083a2.01768,2.01768,0,0,1,.54981-.897,1.51875,1.51875,0,0,1,1.10058-.38965h6.81836a.75471.75471,0,0,1,.56836.25342.8559.8559,0,0,1,.23828.60449l-.03711.273-6.8916,24.88184a2.01583,2.01583,0,0,1-.5498.897,1.51566,1.51566,0,0,1-1.09961.39014h-8.35938A1.5141,1.5141,0,0,1,244.19412,150.93866Z" transform="translate(-1.9451 -1.9787)"/>
  </g>
  <g>
    <line class="cls-3" x1="115.5008" y1="205.47047" x2="236.85092" y2="205.02269"/>
    <path d="M117.89807,215.86945a8.42189,8.42189,0,1,1,8.39066-8.4529A8.42274,8.42274,0,0,1,117.89807,215.86945Z" transform="translate(-1.9451 -1.9787)"/>
    <polygon points="218.149 228.281 214.266 224.143 234.675 205.036 214.126 186.075 217.978 181.908 243 205.006 218.149 228.281"/>
  </g>
</svg>
