<svg xmlns="http://www.w3.org/2000/svg" viewBox="0 0 275 317">
  <defs>
    <style>
      .cls-1 {
        fill: #fff;
      }

      .cls-2 {
        fill: #0d47a1;
      }

      .cls-3 {
        opacity: 0.9;
      }

      .cls-4 {
        fill: #14c5ed;
      }

      .cls-5 {
        fill: aqua;
      }
    </style>
  </defs>
  <title>NwkLogo-ext</title>
  <g id="MiniBar">
    <rect class="cls-1" x="-18.0549" y="22.9787" width="317" height="275" rx="23" transform="translate(297.9787 18.0549) rotate(90)"/>
    <rect class="cls-2" y="8.5" width="275" height="300" rx="20"/>
  </g>
  <g id="MiniTitle">
    <g>
      <path class="cls-1" d="M36.52322,126.82782a2.67611,2.67611,0,0,1-.752-1.90039V60.32782a2.68107,2.68107,0,0,1,.752-1.90039,2.37019,2.37019,0,0,1,1.78614-.7998h14.852a4.07351,4.07351,0,0,1,3.854,2.2998l15.88574,27.7002V60.32782a2.681,2.681,0,0,1,.752-1.90039,2.37015,2.37015,0,0,1,1.78613-.7998H92.4534a2.37467,2.37467,0,0,1,1.78613.7998,2.68733,2.68733,0,0,1,.752,1.90039v64.59961a2.68234,2.68234,0,0,1-.752,1.90039,2.36952,2.36952,0,0,1-1.78613.79981H77.60135a3.7386,3.7386,0,0,1-2.44385-.7002,6.6382,6.6382,0,0,1-1.41015-1.59961l-15.88623-25.5v25.09961a2.68025,2.68025,0,0,1-.752,1.90039,2.36852,2.36852,0,0,1-1.78564.79981H38.30936A2.36506,2.36506,0,0,1,36.52322,126.82782Z" transform="translate(-2.9451 -1.9787)"/>
      <path class="cls-1" d="M114.02567,126.47772a4.397,4.397,0,0,1-1.36329-2.6499l-8.64794-63.70019v-.29981a2.18214,2.18214,0,0,1,.61132-1.55029,1.93281,1.93281,0,0,1,1.457-.6499h17.48388a4.16283,4.16283,0,0,1,2.49072.60009,2.696,2.696,0,0,1,.89307,2.1001l3.19629,28.19971,3.854-12.5q.93823-2.89893,3.1958-2.8999h9.58838q2.25586,0,3.19532,2.8999l3.85449,12.3999L157.031,60.32782a2.683,2.683,0,0,1,.89258-2.1001,4.15912,4.15912,0,0,1,2.49023-.60009h17.48437a1.93508,1.93508,0,0,1,1.457.6499,2.18842,2.18842,0,0,1,.61132,1.55029v.29981l-8.64843,63.70019a4.40745,4.40745,0,0,1-1.36328,2.6499,4.059,4.059,0,0,1-2.96094,1.14991H153.55252a3.48274,3.48274,0,0,1-2.585-.89991,5.71613,5.71613,0,0,1-1.26855-1.80029l-7.709-20.5-7.70752,20.5a5.78254,5.78254,0,0,1-1.269,1.80029,3.485,3.485,0,0,1-2.585.89991H116.9866A4.05665,4.05665,0,0,1,114.02567,126.47772Z" transform="translate(-2.9451 -1.9787)"/>
      <path class="cls-1" d="M189.741,126.82782a2.67611,2.67611,0,0,1-.752-1.90039V60.32782a2.68107,2.68107,0,0,1,.752-1.90039,2.37015,2.37015,0,0,1,1.78613-.7998h17.9541a2.37471,2.37471,0,0,1,1.78614.7998,2.68942,2.68942,0,0,1,.75195,1.90039V80.12763l10.62109-20.29981a3.90353,3.90353,0,0,1,3.76074-2.20019h20.77442a1.93807,1.93807,0,0,1,1.457.6499,2.27767,2.27767,0,0,1,.32812,2.6499L232.0408,91.12763l18.51856,33.20019a1.88748,1.88748,0,0,1,.28222,1.09961,2.19008,2.19008,0,0,1-.61132,1.55029,1.93143,1.93143,0,0,1-1.457.64991H227.34158a3.95857,3.95857,0,0,1-2.53906-.75,4.46986,4.46986,0,0,1-1.31543-1.54981l-11.46777-21.80029v21.3999a2.68443,2.68443,0,0,1-.75195,1.90039,2.36955,2.36955,0,0,1-1.78614.79981h-17.9541A2.365,2.365,0,0,1,189.741,126.82782Z" transform="translate(-2.9451 -1.9787)"/>
    </g>
    <rect class="cls-1" x="33.5" y="155" width="215" height="4" rx="0.60302"/>
    <g>
      <g class="cls-3">
        <g>
          <path class="cls-4" d="M41.68338,264.77167a2.8599,2.8599,0,0,1-.80469-2.0332V193.61639a2.86419,2.86419,0,0,1,.80469-2.03222,2.53572,2.53572,0,0,1,1.91113-.85645H74.0701q14.08082,0,22.17822,6.63379,8.09474,6.63574,8.09668,19.58106,0,12.84081-8.04638,19.09961-8.0486,6.25928-22.22852,6.25976H67.02957v20.43653a2.86611,2.86611,0,0,1-.80469,2.0332,2.53262,2.53262,0,0,1-1.91113.85644H43.59451A2.52889,2.52889,0,0,1,41.68338,264.77167ZM73.56717,222.507a4.38116,4.38116,0,0,0,3.21875-1.44434,5.98464,5.98464,0,0,0,1.4082-4.334,8.08814,8.08814,0,0,0-1.10644-4.28027,3.81667,3.81667,0,0,0-3.52051-1.81836H66.52664v11.877Z" transform="translate(-2.9451 -1.9787)"/>
          <path class="cls-4" d="M139.10721,261.57831a2.47538,2.47538,0,0,1-.70508-1.75V241.72772H121.85819a2.19147,2.19147,0,0,1-1.645-.75,2.47536,2.47536,0,0,1-.70508-1.75v-7.70019a2.7044,2.7044,0,0,1,.6582-1.84961,2.14483,2.14483,0,0,1,1.6919-.75h16.54394v-17.5a2.42957,2.42957,0,0,1,.70508-1.79981,2.26577,2.26577,0,0,1,1.645-.70019h8.08349a2.37881,2.37881,0,0,1,1.74024.70019,2.43264,2.43264,0,0,1,.7041,1.79981v17.5h16.35645a2.29145,2.29145,0,0,1,1.73828.75,2.59627,2.59627,0,0,1,.70508,1.84961v7.70019a2.41974,2.41974,0,0,1-.70508,1.79981,2.36674,2.36674,0,0,1-1.73828.70019H151.28006v18.10059a2.428,2.428,0,0,1-.7041,1.7998,2.375,2.375,0,0,1-1.74024.7002h-8.08349A2.19149,2.19149,0,0,1,139.10721,261.57831Z" transform="translate(-2.9451 -1.9787)"/>
          <path class="cls-4" d="M186.907,264.77167a2.86108,2.86108,0,0,1-.80371-2.0332V247.33124a5.29373,5.29373,0,0,1,1.50782-3.74512l28.1621-31.13769H189.824a2.53206,2.53206,0,0,1-1.91114-.85547,2.862,2.862,0,0,1-.80468-2.03321V193.61639a2.86627,2.86627,0,0,1,.80468-2.03222,2.53649,2.53649,0,0,1,1.91114-.85645h55.11718a2.54152,2.54152,0,0,1,1.91211.85645,2.87462,2.87462,0,0,1,.80469,2.03222v15.19434a4.95174,4.95174,0,0,1-1.30859,3.53125l-26.65235,31.35059h26.55274a2.539,2.539,0,0,1,1.91015.85644,2.86694,2.86694,0,0,1,.80469,2.03321v16.15625a2.862,2.862,0,0,1-.80469,2.0332,2.53211,2.53211,0,0,1-1.91015.85644H188.81815A2.52968,2.52968,0,0,1,186.907,264.77167Z" transform="translate(-2.9451 -1.9787)"/>
        </g>
      </g>
      <g>
        <path class="cls-5" d="M39.68338,262.77167a2.8599,2.8599,0,0,1-.80469-2.0332V191.61639a2.86419,2.86419,0,0,1,.80469-2.03222,2.53572,2.53572,0,0,1,1.91113-.85645H72.0701q14.08082,0,22.17822,6.63379,8.09474,6.63574,8.09668,19.58106,0,12.84081-8.04638,19.09961-8.0486,6.25928-22.22852,6.25976H65.02957v20.43653a2.86611,2.86611,0,0,1-.80469,2.0332,2.53262,2.53262,0,0,1-1.91113.85644H41.59451A2.52889,2.52889,0,0,1,39.68338,262.77167ZM71.56717,220.507a4.38116,4.38116,0,0,0,3.21875-1.44434,5.98464,5.98464,0,0,0,1.4082-4.334,8.08814,8.08814,0,0,0-1.10644-4.28027,3.81667,3.81667,0,0,0-3.52051-1.81836H64.52664v11.877Z" transform="translate(-2.9451 -1.9787)"/>
        <path class="cls-5" d="M137.10721,259.57831a2.47538,2.47538,0,0,1-.70508-1.75V239.72772H119.85819a2.19147,2.19147,0,0,1-1.645-.75,2.47536,2.47536,0,0,1-.70508-1.75v-7.70019a2.7044,2.7044,0,0,1,.6582-1.84961,2.14483,2.14483,0,0,1,1.6919-.75h16.54394v-17.5a2.42957,2.42957,0,0,1,.70508-1.79981,2.26577,2.26577,0,0,1,1.645-.70019h8.08349a2.37881,2.37881,0,0,1,1.74024.70019,2.43264,2.43264,0,0,1,.7041,1.79981v17.5h16.35645a2.29145,2.29145,0,0,1,1.73828.75,2.59627,2.59627,0,0,1,.70508,1.84961v7.70019a2.41974,2.41974,0,0,1-.70508,1.79981,2.36674,2.36674,0,0,1-1.73828.70019H149.28006v18.10059a2.428,2.428,0,0,1-.7041,1.7998,2.375,2.375,0,0,1-1.74024.7002h-8.08349A2.19149,2.19149,0,0,1,137.10721,259.57831Z" transform="translate(-2.9451 -1.9787)"/>
        <path class="cls-5" d="M184.907,262.77167a2.86108,2.86108,0,0,1-.80371-2.0332V245.33124a5.29373,5.29373,0,0,1,1.50782-3.74512l28.1621-31.13769H187.824a2.53206,2.53206,0,0,1-1.91114-.85547,2.862,2.862,0,0,1-.80468-2.03321V191.61639a2.86627,2.86627,0,0,1,.80468-2.03222,2.53649,2.53649,0,0,1,1.91114-.85645h55.11718a2.54152,2.54152,0,0,1,1.91211.85645,2.87462,2.87462,0,0,1,.80469,2.03222v15.19434a4.95174,4.95174,0,0,1-1.30859,3.53125l-26.65235,31.35059h26.55274a2.539,2.539,0,0,1,1.91015.85644,2.86694,2.86694,0,0,1,.80469,2.03321v16.15625a2.862,2.862,0,0,1-.80469,2.0332,2.53211,2.53211,0,0,1-1.91015.85644H186.81815A2.52968,2.52968,0,0,1,184.907,262.77167Z" transform="translate(-2.9451 -1.9787)"/>
      </g>
    </g>
  </g>
</svg>
