<svg xmlns="http://www.w3.org/2000/svg" viewBox="0 0 275 300">
  <defs>
    <style>
      .f7a4ed20-c89d-407d-87b5-0b8cec0e3c2d {
        fill: #0d47a1;
      }

      .b505c6d7-60b5-4088-9c63-0f1f1927ceef {
        fill: #fff;
      }
    </style>
  </defs>
  <title>NwkLogo</title>
  <g id="f5e662da-93fd-4455-8f05-90c660956d47" data-name="Layer 1">
    <rect class="f7a4ed20-c89d-407d-87b5-0b8cec0e3c2d" width="275" height="300"/>
  </g>
  <g id="a89b7f1a-7d56-4408-8de5-df04c7a8e93f" data-name="Layer 2">
    <g>
      <path class="b505c6d7-60b5-4088-9c63-0f1f1927ceef" d="M38.46,108.14q-4-3.19-4.29-9.82c0-.86,0-2.27,0-4.22s0-3.43,0-4.32q.27-6.44,4.38-9.72t10.74-3.29a20.69,20.69,0,0,1,7.46,1.3,12.47,12.47,0,0,1,5.55,4.05,11.17,11.17,0,0,1,2.19,6.94,1.06,1.06,0,0,1-.29.74.93.93,0,0,1-.7.31H54.29a1.64,1.64,0,0,1-1.06-.28,2.7,2.7,0,0,1-.61-1.11,3.93,3.93,0,0,0-1.3-2,3.5,3.5,0,0,0-2.08-.58A3.26,3.26,0,0,0,46.8,87a4.39,4.39,0,0,0-.9,3c0,.86,0,2.19,0,4s0,3.15,0,4.08a4.39,4.39,0,0,0,.9,3,3.59,3.59,0,0,0,5.82-1.7,2.23,2.23,0,0,1,.57-1.11,1.69,1.69,0,0,1,1.1-.28H63.5a.93.93,0,0,1,.7.31,1.06,1.06,0,0,1,.29.74A11.17,11.17,0,0,1,62.3,106a12.47,12.47,0,0,1-5.55,4,20.69,20.69,0,0,1-7.46,1.3Q42.47,111.33,38.46,108.14Z"/>
      <path class="b505c6d7-60b5-4088-9c63-0f1f1927ceef" d="M69.77,110.47a1.3,1.3,0,0,1-.36-.92v-31a1.3,1.3,0,0,1,.36-.92,1.16,1.16,0,0,1,.86-.38h9.2a1.16,1.16,0,0,1,.86.38,1.3,1.3,0,0,1,.36.92v31a1.3,1.3,0,0,1-.36.92,1.16,1.16,0,0,1-.86.38h-9.2A1.16,1.16,0,0,1,69.77,110.47Z"/>
      <path class="b505c6d7-60b5-4088-9c63-0f1f1927ceef" d="M94.72,110.47a1.3,1.3,0,0,1-.36-.92v-22H86.87a1.16,1.16,0,0,1-.86-.38,1.3,1.3,0,0,1-.36-.92V78.55a1.3,1.3,0,0,1,.36-.92,1.16,1.16,0,0,1,.86-.38h26.44a1.16,1.16,0,0,1,.86.38,1.3,1.3,0,0,1,.36.92v7.72a1.3,1.3,0,0,1-.36.92,1.16,1.16,0,0,1-.86.38h-7.49v22a1.3,1.3,0,0,1-.36.92,1.16,1.16,0,0,1-.86.38h-9A1.16,1.16,0,0,1,94.72,110.47Z"/>
      <path class="b505c6d7-60b5-4088-9c63-0f1f1927ceef" d="M127.39,110.47a1.3,1.3,0,0,1-.36-.92V100.1L116.87,78.74a1,1,0,0,1-.09-.43,1.05,1.05,0,0,1,.3-.75.91.91,0,0,1,.7-.31h8.48a1.85,1.85,0,0,1,1.24.41,2.36,2.36,0,0,1,.65.79l4.52,9.65,4.51-9.65a2.49,2.49,0,0,1,.65-.79,1.85,1.85,0,0,1,1.24-.41h8.49a.93.93,0,0,1,.7.31,1.08,1.08,0,0,1,.29.75,1,1,0,0,1-.09.43L138.31,100.1v9.45a1.3,1.3,0,0,1-.36.92,1.18,1.18,0,0,1-.86.38h-8.85A1.14,1.14,0,0,1,127.39,110.47Z"/>
      <path class="b505c6d7-60b5-4088-9c63-0f1f1927ceef" d="M164.52,108q-4-3.31-4.29-9.65c0-.86,0-2.26,0-4.18s0-3.37,0-4.27a13.65,13.65,0,0,1,2.06-7.1,12.09,12.09,0,0,1,5.25-4.51,20.32,20.32,0,0,1,15.52,0,12.07,12.07,0,0,1,5.26,4.51,13.65,13.65,0,0,1,2.05,7.1c.06,1.79.09,3.22.09,4.27s0,2.45-.09,4.18q-.27,6.33-4.28,9.65t-10.79,3.31Q168.53,111.33,164.52,108Zm13.2-7a4.41,4.41,0,0,0,.92-2.93q.09-2.77.09-4.08c0-.93,0-2.25-.09-4a4.31,4.31,0,0,0-.94-2.93,3.47,3.47,0,0,0-4.79,0A4.36,4.36,0,0,0,172,90c0,.86,0,2.19,0,4s0,3.15,0,4.08a4.42,4.42,0,0,0,.93,2.93,3.52,3.52,0,0,0,4.83,0Z"/>
      <path class="b505c6d7-60b5-4088-9c63-0f1f1927ceef" d="M196.24,110.47a1.3,1.3,0,0,1-.36-.92v-31a1.3,1.3,0,0,1,.36-.92,1.15,1.15,0,0,1,.86-.38h22.74a1.14,1.14,0,0,1,.85.38,1.3,1.3,0,0,1,.36.92v7.29a1.28,1.28,0,0,1-.36.91,1.12,1.12,0,0,1-.85.39H206.93v3.55h12a1.16,1.16,0,0,1,.86.38,1.3,1.3,0,0,1,.36.92v7.24a1.3,1.3,0,0,1-.36.92,1.16,1.16,0,0,1-.86.38h-12v9a1.3,1.3,0,0,1-.36.92,1.16,1.16,0,0,1-.86.38H197.1A1.15,1.15,0,0,1,196.24,110.47Z"/>
      <path class="b505c6d7-60b5-4088-9c63-0f1f1927ceef" d="M35.34,170.47a1.3,1.3,0,0,1-.36-.92v-31a1.3,1.3,0,0,1,.36-.92,1.16,1.16,0,0,1,.86-.38h7.13a2,2,0,0,1,1.85,1.1l7.63,13.3v-13.1a1.26,1.26,0,0,1,.36-.92,1.14,1.14,0,0,1,.85-.38h8.17a1.16,1.16,0,0,1,.86.38,1.3,1.3,0,0,1,.36.92v31a1.3,1.3,0,0,1-.36.92,1.16,1.16,0,0,1-.86.38H55.06a1.76,1.76,0,0,1-1.17-.34,3.26,3.26,0,0,1-.68-.76l-7.62-12.24v12a1.27,1.27,0,0,1-.37.92,1.14,1.14,0,0,1-.85.38H36.2A1.16,1.16,0,0,1,35.34,170.47Z"/>
      <path class="b505c6d7-60b5-4088-9c63-0f1f1927ceef" d="M70.09,170.47a1.27,1.27,0,0,1-.37-.92v-31a1.27,1.27,0,0,1,.37-.92,1.14,1.14,0,0,1,.85-.38H94.09a1.16,1.16,0,0,1,.86.38,1.3,1.3,0,0,1,.36.92v6.76a1.3,1.3,0,0,1-.36.92,1.16,1.16,0,0,1-.86.38H80.55v3H93.1A1.12,1.12,0,0,1,94,150a1.28,1.28,0,0,1,.36.91v6.24a1.28,1.28,0,0,1-.36.91,1.12,1.12,0,0,1-.85.39H80.55v3h13.9a1.16,1.16,0,0,1,.86.38,1.3,1.3,0,0,1,.36.92v6.76a1.3,1.3,0,0,1-.36.92,1.16,1.16,0,0,1-.86.38H70.94A1.14,1.14,0,0,1,70.09,170.47Z"/>
      <path class="b505c6d7-60b5-4088-9c63-0f1f1927ceef" d="M104.58,170.3a2.09,2.09,0,0,1-.65-1.27l-4.16-30.58v-.14a1.05,1.05,0,0,1,.3-.75.91.91,0,0,1,.7-.31h8.39a2,2,0,0,1,1.19.29,1.28,1.28,0,0,1,.43,1l1.54,13.53,1.85-6c.3-.93.81-1.39,1.53-1.39h4.6c.73,0,1.24.46,1.54,1.39l1.85,5.95,1.53-13.48a1.28,1.28,0,0,1,.43-1,2,2,0,0,1,1.2-.29h8.39a.93.93,0,0,1,.7.31,1.08,1.08,0,0,1,.29.75v.14L132.08,169a2.14,2.14,0,0,1-.65,1.27,2,2,0,0,1-1.43.55h-6.45a1.67,1.67,0,0,1-1.24-.43,2.89,2.89,0,0,1-.61-.87l-3.7-9.84-3.7,9.84a2.72,2.72,0,0,1-.61.87,1.66,1.66,0,0,1-1.24.43H106A2,2,0,0,1,104.58,170.3Z"/>
      <path class="b505c6d7-60b5-4088-9c63-0f1f1927ceef" d="M137.61,170.54a1.05,1.05,0,0,1-.3-.75,1.09,1.09,0,0,1,.05-.33l10.06-30.63a2.51,2.51,0,0,1,.68-1.1,1.86,1.86,0,0,1,1.35-.48h9.79a1.9,1.9,0,0,1,1.36.48,2.49,2.49,0,0,1,.67,1.1l10.06,30.63a1.11,1.11,0,0,1-.24,1.08.93.93,0,0,1-.7.31H162a1.68,1.68,0,0,1-1.76-1.2l-1.08-3.17h-9.7l-1.09,3.17a1.67,1.67,0,0,1-1.76,1.2h-8.34A.91.91,0,0,1,137.61,170.54Zm14.19-13.42h5.1l-2.58-8.93Z"/>
      <path class="b505c6d7-60b5-4088-9c63-0f1f1927ceef" d="M175.58,170.47a1.27,1.27,0,0,1-.37-.92v-31a1.27,1.27,0,0,1,.37-.92,1.14,1.14,0,0,1,.85-.38h13.36q6.5,0,10.15,3.1a10.6,10.6,0,0,1,3.65,8.56,10.89,10.89,0,0,1-4.87,9.41l5.55,11a1.23,1.23,0,0,1,.14.52,1.05,1.05,0,0,1-.3.75.91.91,0,0,1-.7.31h-9.25a1.89,1.89,0,0,1-1.28-.41,2.18,2.18,0,0,1-.66-.89l-3.88-9.16h-1.85v9.16a1.3,1.3,0,0,1-.36.92,1.14,1.14,0,0,1-.85.38h-8.85A1.14,1.14,0,0,1,175.58,170.47Zm14.21-19.2a1.84,1.84,0,0,0,1.53-.7,2.77,2.77,0,0,0,.54-1.75,3.26,3.26,0,0,0-.52-1.85,1.72,1.72,0,0,0-1.55-.79h-3.3v5.09Z"/>
      <path class="b505c6d7-60b5-4088-9c63-0f1f1927ceef" d="M209.5,170.47a1.3,1.3,0,0,1-.36-.92v-31a1.3,1.3,0,0,1,.36-.92,1.18,1.18,0,0,1,.86-.38H219a1.16,1.16,0,0,1,.86.38,1.3,1.3,0,0,1,.36.92v9.5l5.1-9.74a1.86,1.86,0,0,1,1.8-1.06h10a.91.91,0,0,1,.7.31,1.05,1.05,0,0,1,.3.75,1,1,0,0,1-.14.52l-8.12,14.5,8.89,15.94a.87.87,0,0,1,.13.52,1.08,1.08,0,0,1-.29.75.93.93,0,0,1-.7.31H227.55a1.91,1.91,0,0,1-1.22-.36,2.21,2.21,0,0,1-.63-.74l-5.5-10.47v10.27a1.3,1.3,0,0,1-.36.92,1.16,1.16,0,0,1-.86.38h-8.62A1.18,1.18,0,0,1,209.5,170.47Z"/>
    </g>
    <rect class="b505c6d7-60b5-4088-9c63-0f1f1927ceef" x="34.95" y="209" width="211" height="11"/>
    <rect class="b505c6d7-60b5-4088-9c63-0f1f1927ceef" y="289" width="275" height="11"/>
  </g>
</svg>
