<svg xmlns="http://www.w3.org/2000/svg" viewBox="0 0 250 116"><defs><style>.cls-1{fill:#fff;}.cls-2{fill:#0d47a1;}</style></defs><title>NwkEhd</title><g id="Nwk_Mini"><rect class="cls-1" x="67.5" y="-67" width="115" height="250" rx="13.20842" transform="translate(183 -67) rotate(90)"/><rect class="cls-2" y="3.5836" width="250" height="108.83281" rx="11.48558"/><path class="cls-1" d="M25.69926,92.2002A2.788,2.788,0,0,1,25,90.2998V25.7002a2.79146,2.79146,0,0,1,.69926-1.9004A2.13722,2.13722,0,0,1,27.36024,23H41.172a3.7609,3.7609,0,0,1,3.58349,2.2998L59.52813,53V25.7002a2.79147,2.79147,0,0,1,.69927-1.9004A2.1372,2.1372,0,0,1,61.88837,23H77.71078a2.14254,2.14254,0,0,1,1.661.7998,2.80021,2.80021,0,0,1,.69927,1.9004V90.2998a2.7967,2.7967,0,0,1-.69927,1.9004,2.13948,2.13948,0,0,1-1.661.7998H63.899a3.30824,3.30824,0,0,1-2.27215-.7002,6.513,6.513,0,0,1-1.31134-1.5996L45.542,65.2002V90.2998a2.79235,2.79235,0,0,1-.69926,1.9004A2.13639,2.13639,0,0,1,43.18264,93H27.36024A2.13418,2.13418,0,0,1,25.69926,92.2002Z"/><path class="cls-1" d="M97.77144,91.84961a4.518,4.518,0,0,1-1.26775-2.64941L88.46126,25.5v-.2998a2.27623,2.27623,0,0,1,.56849-1.55079A1.74393,1.74393,0,0,1,90.38469,23H106.6439a3.66562,3.66562,0,0,1,2.31574.59961,2.79165,2.79165,0,0,1,.83094,2.10059l2.97232,28.19921,3.5835-12.5q.87317-2.89892,2.97232-2.89941h8.916q2.09779,0,2.97232,2.89941l3.58349,12.40039,2.97232-28.0996a2.78143,2.78143,0,0,1,.83-2.10059A3.66679,3.66679,0,0,1,140.90959,23H157.1688a1.74793,1.74793,0,0,1,1.35494.64941,2.28425,2.28425,0,0,1,.56758,1.55079V25.5L151.0498,89.2002a4.53415,4.53415,0,0,1-1.26775,2.64941A3.63717,3.63717,0,0,1,147.02859,93H134.52813a3.10587,3.10587,0,0,1-2.40382-.90039,5.754,5.754,0,0,1-1.17967-1.79981l-7.1679-20.5-7.16789,20.5a5.80677,5.80677,0,0,1-1.18057,1.79981A3.10724,3.10724,0,0,1,113.02445,93H100.5249A3.63167,3.63167,0,0,1,97.77144,91.84961Z"/><path class="cls-1" d="M168.18083,92.2002a2.788,2.788,0,0,1-.69927-1.9004V25.7002a2.79147,2.79147,0,0,1,.69927-1.9004A2.1372,2.1372,0,0,1,169.8418,23h16.696a2.13988,2.13988,0,0,1,1.661.7998,2.79585,2.79585,0,0,1,.69926,1.9004V45.5l9.87777-20.2998A3.59988,3.59988,0,0,1,202.27215,23h19.31872a1.74793,1.74793,0,0,1,1.35493.64941,2.28421,2.28421,0,0,1,.56759,1.55079,2.32587,2.32587,0,0,1-.26245,1.0996L207.51753,56.5l17.22,33.2002A1.99451,1.99451,0,0,1,225,90.7998a2.28079,2.28079,0,0,1-.56849,1.54981A1.74147,1.74147,0,0,1,223.07657,93H203.14668a3.50015,3.50015,0,0,1-2.36024-.75,4.42174,4.42174,0,0,1-1.22416-1.5498L188.89807,68.89941V90.2998a2.79235,2.79235,0,0,1-.69926,1.9004,2.13684,2.13684,0,0,1-1.661.7998h-16.696A2.13416,2.13416,0,0,1,168.18083,92.2002Z"/></g></svg>