<?xml version="1.0" encoding="utf-8"?>
<!-- Generator: Adobe Illustrator 23.0.3, SVG Export Plug-In . SVG Version: 6.00 Build 0)  -->
<svg version="1.1" xmlns="http://www.w3.org/2000/svg" xmlns:xlink="http://www.w3.org/1999/xlink" x="0px" y="0px"
	 viewBox="0 0 100 150" style="enable-background:new 0 0 100 150;" xml:space="preserve">
<style type="text/css">
	.st0{fill:#FFFFFF;}
	.st1{fill:#009650;}
	.st2{fill:#8DCDA2;}
	.st3{fill:#646478;}
	.st4{fill:#323232;}
	.st5{fill:#F9BEC1;}
	.st6{enable-background:new    ;}
	.st7{font-family:'Century Gothic';}
	.st8{font-size:3px;}
	.st9{font-family:'Century Gothic';}
	.st10{font-size:2px;}
	.st11{fill:#C8C8C8;stroke:#FFA07A;stroke-width:0.25;}
	.st12{fill:#FFA07A;}
	.st13{fill:none;stroke:#000000;stroke-width:0.5;stroke-linecap:round;stroke-dasharray:0,1,2;}
	.st14{fill:none;stroke:#000000;stroke-width:0.25;stroke-miterlimit:10;}
	.st15{fill:none;}
	.st16{fill:none;stroke:#000000;stroke-width:0.1768;stroke-miterlimit:10;}
</style>
<g id="Layer_2">
	<path class="st0" d="M97,150H3c-1.7,0-3-1.3-3-3V3c0-1.7,1.3-3,3-3h94c1.7,0,3,1.3,3,3v144C100,148.7,98.7,150,97,150z"/>
</g>
<g id="Layer_1">
	<g>
		<rect id="lot" x="25" y="24.5" class="st1" width="50" height="100"/>
		<rect id="lotNoise" x="25" y="24.5" class="st2" width="50" height="100"/>
	</g>
	<g>
		<rect id="sidewalk" x="25" y="28.5" class="st3" width="50" height="3.5"/>
		<rect x="45.5" y="28.5" class="st3" width="3.5" height="10.5"/>
	</g>
	<g>
		<rect id="driveway" x="65" y="24.5" class="st4" width="10" height="42"/>
		<rect id="drivewayNoise" x="65" y="24.5" class="st5" width="10" height="42"/>
	</g>
	<text transform="matrix(1 0 0 1 6.8408 74)" class="st6">
		<tspan x="0" y="0" class="st7 st8">Lot Area</tspan>
		<tspan x="2" y="2.4" class="st9 st10">1 px = 1 ft</tspan>
	</text>
	<rect id="envelope" x="30" y="39" class="st11" width="35" height="50"/>
	<text transform="matrix(1 0 0 1 35 74)" class="st12 st7 st8">Building Envelope</text>
	<rect id="lotOutline" x="25" y="24.5" class="st13" width="50" height="100"/>
	<g>
		<line class="st2" x1="78.1" y1="24.5" x2="78.1" y2="124.5"/>
		<g>
			<line class="st14" x1="78.1" y1="24.6" x2="78.1" y2="124.4"/>
			<g>
				<rect x="77.3" y="24.5" width="1.6" height="0.3"/>
			</g>
			<g>
				<rect x="77.3" y="124.3" width="1.6" height="0.3"/>
			</g>
		</g>
	</g>
	<rect x="75" y="65.2" class="st15" width="6" height="18.6"/>
	<text transform="matrix(-3.464102e-07 1 -1 -3.464102e-07 78.8702 70.9392)" class="st9 st8">100 ft</text>
	<g>
		<line class="st2" x1="25" y1="21.4" x2="75" y2="21.4"/>
		<g>
			<line class="st16" x1="25.1" y1="21.4" x2="74.9" y2="21.4"/>
			<g>
				<rect x="25" y="20.8" width="0.2" height="1.1"/>
			</g>
			<g>
				<rect x="74.8" y="20.8" width="0.2" height="1.1"/>
			</g>
		</g>
	</g>
	<rect x="41.2" y="18.9" class="st15" width="18.6" height="6"/>
	<text transform="matrix(1 0 0 1 47.7113 21.0253)" class="st9 st8">50 ft</text>
</g>
</svg>
