<svg version="1.1" id="Layer_1" xmlns="http://www.w3.org/2000/svg" x="0px" y="0px" viewBox="0 0 150 150">
<style type="text/css">
.zoneText {
    user-select: none;
    font-family: 'Century Gothic';
    font-weight: bold;
    cursor: pointer;
}

#Other,
.st0 {
    fill: #4273cc;
}

#Special,
.st3 {
    fill: #fff;
    font-size: 10px;
}

#MX,
.st5 {
    fill: #cff;
    font-size: 15px;
}

#Ind,
.st7 {
    fill: #a18aad;
    font-size: 15px;
}

#Com,
.st8 {
    font-size: 13px;
    fill: #fc8b93;
}

#Res,
.st10 {
    fill: #fffaca;
}

.bgrnd {
    fill: black;
}

#Res:hover .bgrnd,
#Com:hover .bgrnd,
#Ind:hover .bgrnd,
#MX:hover .bgrnd,
#Special:hover .bgrnd,
#Other:hover .bgrnd {
    fill: dimgrey;
    cursor: pointer;
}

#Res:active .bgrnd,
#Com:active .bgrnd,
#Ind:active .bgrnd,
#MX:active .bgrnd,
#Special:active .bgrnd,
#Other:active .bgrnd {
    fill: orchid;
}
</style>
    <g id="Other">
        <polyline class="bgrnd" points="86.5,98.1 63.3,98.1 51,119.1 62.5,139.1 86.5,139.1 98.3,118.6 	"/>
        <text class="zoneText" transform="matrix(1 0 0 1 56 123)" class="st0 st1 st2">Other</text>
        <path class="st0" d="M86.5,98.9L98,118.8l-11.5,19.9h-23L52,118.8l11.5-19.9H86.5 M87.7,96.9H62.3l-12.6,21.9l12.7,21.9h25.3
            l12.7-21.9L87.7,96.9L87.7,96.9z"/>
    </g>
    <g id="Special">
        <polyline class="bgrnd" points="24.3,76.1 13.3,97.1 24.3,118.1 50.3,118.1 60.3,97.1 49.3,76.1 	"/>
        <text class="zoneText" transform="matrix(1 0 0 1 19.29 100.1)" class="st3 st1 st4">Special</text>
        <path class="st3" d="M48.6,77L60,96.9l-11.5,19.9h-23L14.1,96.9L25.6,77L48.6,77 M49.7,75H24.4L11.8,96.9l12.6,21.9h25.3l12.7-21.9
            L49.7,75L49.7,75z"/>
    </g>
    <g id="MX">
        <polyline class="bgrnd" points="101.3,33.1 89.3,53.1 101.3,73.1 124.3,73.1 136.3,53.1 125.3,33.1 	"/>
        <text class="zoneText" transform="matrix(1 0 0 1 100.29 58.1)" class="st5 st1 st6">MX</text>
        <path class="st5" d="M124.4,33.2l11.5,19.9L124.4,73h-23L90,53.1l11.5-19.9H124.4 M125.6,31.2h-25.3L87.6,53.1L100.3,75h25.3
            l12.6-21.9L125.6,31.2L125.6,31.2z"/>
    </g>
    <g id="Ind">
        <polyline class="bgrnd" points="101.3,76.1 89.3,97.1 101.3,118.1 124.3,118.1 136.3,97.1 124.3,76.1 	"/>
        <text class="zoneText" class="zoneText" transform="matrix(1 0 0 1 101.29 102.6)" class="st7 st1 st6">Ind</text>
        <path class="st7" d="M124.4,77l11.5,19.9l-11.5,19.9h-23L89.9,96.9L101.4,77H124.4 M125.6,75h-25.3L87.7,96.9l12.6,21.9h25.3
            l12.6-21.9L125.6,75L125.6,75z"/>
    </g>
    <g id="Com">
        <polyline class="bgrnd" points="25.3,33.1 13.3,53.1 24.3,73.1 50.3,73.1 60.3,53.1 49.3,33.1 	"/>
        <text class="zoneText" class="zoneText" transform="matrix(1 0 0 1 22 57)" class="st8 st1 st9">Com</text>
        <path class="st8" d="M48.6,33.2L60,53.1L48.6,73h-23L14.1,53.1l11.5-19.9H48.6 M49.7,31.2H24.4L11.8,53.1L24.4,75h25.3l12.6-21.9
            L49.7,31.2L49.7,31.2z"/>
    </g>
    <g id="Res">
        <polyline class="bgrnd" points="86.5,52.1 63.3,52.1 51,31.2 62.5,11.1 86.5,11.1 99.3,31.1 	"/>
        <text class="zoneText" class="zoneText" transform="matrix(1 0 0 1 64 36)" class="st10 st1 st2">Res</text>
        <path class="st10" d="M86.5,11.3L98,31.2L86.5,51.1h-23L52,31.2l11.5-19.9H86.5 M87.7,9.3H62.3L49.7,31.2l12.6,21.9h25.3l12.7-21.9
            L87.7,9.3L87.7,9.3z"/>
    </g>
</svg>
