<svg xmlns="http://www.w3.org/2000/svg" viewBox="0 0 100 122"><defs><style>.cls-1{fill:#fff;}.cls-2{fill:#0d47a1;}.cls-3{fill:#ffe471;}.cls-4{fill:#ffebc5;}.cls-5{fill:#7de5d6;}</style></defs><title>NwkEhd_divs_web_mini</title><g id="Planning_Zoning" data-name="Planning &amp; Zoning"><rect class="cls-1" x="-10" y="11" width="120" height="100" rx="8.53341" transform="translate(111 11) rotate(90)"/><rect class="cls-2" y="4.21767" width="100" height="113.56467" rx="7.42035"/><path class="cls-1" d="M10.27971,47.88008A1.11515,1.11515,0,0,1,10,47.11992V21.28008a1.11725,1.11725,0,0,1,.27971-.76016A.8555.8555,0,0,1,10.9441,20.2h5.52471a1.50466,1.50466,0,0,1,1.4334.91992L23.81125,32.2V21.28008a1.11729,1.11729,0,0,1,.27971-.76016A.85552.85552,0,0,1,24.75535,20.2h6.329a.85764.85764,0,0,1,.66439.31992,1.12077,1.12077,0,0,1,.27971.76016V47.11992a1.11867,1.11867,0,0,1-.27971.76016.85578.85578,0,0,1-.66439.31992H25.55959a1.32231,1.32231,0,0,1-.90886-.28008,2.60175,2.60175,0,0,1-.52454-.63984l-5.9094-10.2V47.11992a1.11693,1.11693,0,0,1-.27971.76016.85454.85454,0,0,1-.664.31992h-6.329A.85365.85365,0,0,1,10.27971,47.88008Z"/><path class="cls-1" d="M39.10858,47.74a1.80769,1.80769,0,0,1-.50711-1.06L35.3845,21.2v-.11992a.91035.91035,0,0,1,.2274-.62012.69776.69776,0,0,1,.542-.26h6.50369a1.465,1.465,0,0,1,.9263.24,1.11587,1.11587,0,0,1,.33237.84L45.10516,32.56l1.4334-5q.34926-1.15958,1.18893-1.16h3.56642q.83911,0,1.18893,1.16l1.43339,4.96,1.18893-11.23984a1.11175,1.11175,0,0,1,.332-.84,1.4654,1.4654,0,0,1,.92665-.24h6.50369a.69938.69938,0,0,1,.542.26.91357.91357,0,0,1,.227.62012V21.2L60.41992,46.68008a1.81414,1.81414,0,0,1-.5071,1.06,1.45538,1.45538,0,0,1-1.10138.46H53.81125a1.243,1.243,0,0,1-.96153-.36,2.30244,2.30244,0,0,1-.47186-.72012l-2.86716-8.2-2.86716,8.2a2.32349,2.32349,0,0,1-.47223.72012,1.24347,1.24347,0,0,1-.96153.36H40.21A1.45316,1.45316,0,0,1,39.10858,47.74Z"/><path class="cls-1" d="M67.27233,47.88008a1.11519,1.11519,0,0,1-.2797-.76016V21.28008a1.11729,1.11729,0,0,1,.2797-.76016A.85552.85552,0,0,1,67.93672,20.2h6.67841a.85657.85657,0,0,1,.66439.31992,1.119,1.119,0,0,1,.27971.76016V29.2l3.9511-8.11992A1.44,1.44,0,0,1,80.90886,20.2h7.72749a.69936.69936,0,0,1,.542.26.91357.91357,0,0,1,.227.62012.92922.92922,0,0,1-.105.43984L83.007,33.6l6.888,13.28008a.79873.79873,0,0,1,.105.43984.91277.91277,0,0,1-.2274.62012.697.697,0,0,1-.542.26h-7.972a1.4,1.4,0,0,1-.94409-.3,1.76865,1.76865,0,0,1-.48967-.61992L75.55923,38.56v8.56a1.11693,1.11693,0,0,1-.27971.76016.85472.85472,0,0,1-.66439.31992H67.93672A.85366.85366,0,0,1,67.27233,47.88008Z"/><rect class="cls-1" x="10" y="60.2" width="80" height="1.6" rx="0.23264"/><path class="cls-3" d="M10.30417,103.88008A1.06408,1.06408,0,0,1,10,103.11992V77.28008a1.066,1.066,0,0,1,.30417-.76016A.96356.96356,0,0,1,11.02666,76.2H22.54744q5.3233,0,8.38432,2.48008Q33.99158,81.16064,33.99238,86q0,4.8-3.04166,7.14-3.04266,2.33994-8.40328,2.34H19.88579v7.63984a1.06571,1.06571,0,0,1-.30417.76016.96268.96268,0,0,1-.72249.31992H11.02666A.96146.96146,0,0,1,10.30417,103.88008Zm12.05326-15.8a1.66425,1.66425,0,0,0,1.21667-.54,2.22058,2.22058,0,0,0,.53249-1.62012,2.99776,2.99776,0,0,0-.41833-1.6A1.44721,1.44721,0,0,0,22.35743,83.64H19.69578v4.44Z"/><path class="cls-3" d="M46.80606,102.56a1.06163,1.06163,0,0,1-.30417-.76V95.36H40.60818a.96148.96148,0,0,1-.72249-.31992,1.06329,1.06329,0,0,1-.30417-.76V89.91992a1.0659,1.0659,0,0,1,.30417-.76.96354.96354,0,0,1,.72249-.31992h5.89371V82.6a1.06358,1.06358,0,0,1,.30417-.76.96291.96291,0,0,1,.7221-.32012h4.63912a.96619.96619,0,0,1,.72249.32012,1.06853,1.06853,0,0,1,.30417.76v6.24h5.81747a.966.966,0,0,1,.72249.31992,1.06923,1.06923,0,0,1,.30417.76v4.36016a1.0666,1.0666,0,0,1-.30417.76.96391.96391,0,0,1-.72249.31992H53.19394v6.44a1.06656,1.06656,0,0,1-.30417.76.9634.9634,0,0,1-.72249.32012H47.52816A.96014.96014,0,0,1,46.80606,102.56Z"/><path class="cls-3" d="M66.53972,103.88008a1.06241,1.06241,0,0,1-.30417-.76016V97.36a1.96807,1.96807,0,0,1,.57041-1.4l10.64621-11.64H67.64222A.96146.96146,0,0,1,66.91973,84a1.06329,1.06329,0,0,1-.30417-.76v-5.96a1.066,1.066,0,0,1,.30417-.76016A.96356.96356,0,0,1,67.64222,76.2H88.47878a.96481.96481,0,0,1,.72249.31992,1.0677,1.0677,0,0,1,.30416.76016V82.96a1.83973,1.83973,0,0,1-.49417,1.32012L78.93507,96H88.97334a.966.966,0,0,1,.72249.31992A1.06767,1.06767,0,0,1,90,97.08008v6.03984a1.06571,1.06571,0,0,1-.30417.76016.96391.96391,0,0,1-.72249.31992H67.26221A.96146.96146,0,0,1,66.53972,103.88008Z"/><path class="cls-4" d="M10.30417,103.88008A1.06408,1.06408,0,0,1,10,103.11992V77.28008a1.066,1.066,0,0,1,.30417-.76016A.96356.96356,0,0,1,11.02666,76.2H22.54744q5.3233,0,8.38432,2.48008Q33.99158,81.16064,33.99238,86q0,4.8-3.04166,7.14-3.04266,2.33994-8.40328,2.34H19.88579v7.63984a1.06571,1.06571,0,0,1-.30417.76016.96268.96268,0,0,1-.72249.31992H11.02666A.96146.96146,0,0,1,10.30417,103.88008Zm12.05326-15.8a1.66425,1.66425,0,0,0,1.21667-.54,2.22058,2.22058,0,0,0,.53249-1.62012,2.99776,2.99776,0,0,0-.41833-1.6A1.44721,1.44721,0,0,0,22.35743,83.64H19.69578v4.44Z"/><path class="cls-4" d="M46.80606,102.56a1.06163,1.06163,0,0,1-.30417-.76V95.36H40.60818a.96148.96148,0,0,1-.72249-.31992,1.06329,1.06329,0,0,1-.30417-.76V89.91992a1.0659,1.0659,0,0,1,.30417-.76.96354.96354,0,0,1,.72249-.31992h5.89371V82.6a1.06358,1.06358,0,0,1,.30417-.76.96291.96291,0,0,1,.7221-.32012h4.63912a.96619.96619,0,0,1,.72249.32012,1.06853,1.06853,0,0,1,.30417.76v6.24h5.81747a.966.966,0,0,1,.72249.31992,1.06923,1.06923,0,0,1,.30417.76v4.36016a1.0666,1.0666,0,0,1-.30417.76.96391.96391,0,0,1-.72249.31992H53.19394v6.44a1.06656,1.06656,0,0,1-.30417.76.9634.9634,0,0,1-.72249.32012H47.52816A.96014.96014,0,0,1,46.80606,102.56Z"/><path class="cls-4" d="M66.53972,103.88008a1.06241,1.06241,0,0,1-.30417-.76016V97.36a1.96807,1.96807,0,0,1,.57041-1.4l10.64621-11.64H67.64222A.96146.96146,0,0,1,66.91973,84a1.06329,1.06329,0,0,1-.30417-.76v-5.96a1.066,1.066,0,0,1,.30417-.76016A.96356.96356,0,0,1,67.64222,76.2H88.47878a.96481.96481,0,0,1,.72249.31992,1.0677,1.0677,0,0,1,.30416.76016V82.96a1.83973,1.83973,0,0,1-.49417,1.32012L78.93507,96H88.97334a.966.966,0,0,1,.72249.31992A1.06767,1.06767,0,0,1,90,97.08008v6.03984a1.06571,1.06571,0,0,1-.30417.76016.96391.96391,0,0,1-.72249.31992H67.26221A.96146.96146,0,0,1,66.53972,103.88008Z"/><path class="cls-5" d="M10.30417,103.88008A1.06408,1.06408,0,0,1,10,103.11992V77.28008a1.066,1.066,0,0,1,.30417-.76016A.96356.96356,0,0,1,11.02666,76.2H22.54744q5.3233,0,8.38432,2.48008Q33.99158,81.16064,33.99238,86q0,4.8-3.04166,7.14-3.04266,2.33994-8.40328,2.34H19.88579v7.63984a1.06571,1.06571,0,0,1-.30417.76016.96268.96268,0,0,1-.72249.31992H11.02666A.96146.96146,0,0,1,10.30417,103.88008Zm12.05326-15.8a1.66425,1.66425,0,0,0,1.21667-.54,2.22058,2.22058,0,0,0,.53249-1.62012,2.99776,2.99776,0,0,0-.41833-1.6A1.44721,1.44721,0,0,0,22.35743,83.64H19.69578v4.44Z"/><path class="cls-5" d="M46.80606,102.56a1.06163,1.06163,0,0,1-.30417-.76V95.36H40.60818a.96148.96148,0,0,1-.72249-.31992,1.06329,1.06329,0,0,1-.30417-.76V89.91992a1.0659,1.0659,0,0,1,.30417-.76.96354.96354,0,0,1,.72249-.31992h5.89371V82.6a1.06358,1.06358,0,0,1,.30417-.76.96291.96291,0,0,1,.7221-.32012h4.63912a.96619.96619,0,0,1,.72249.32012,1.06853,1.06853,0,0,1,.30417.76v6.24h5.81747a.966.966,0,0,1,.72249.31992,1.06923,1.06923,0,0,1,.30417.76v4.36016a1.0666,1.0666,0,0,1-.30417.76.96391.96391,0,0,1-.72249.31992H53.19394v6.44a1.06656,1.06656,0,0,1-.30417.76.9634.9634,0,0,1-.72249.32012H47.52816A.96014.96014,0,0,1,46.80606,102.56Z"/><path class="cls-5" d="M66.53972,103.88008a1.06241,1.06241,0,0,1-.30417-.76016V97.36a1.96807,1.96807,0,0,1,.57041-1.4l10.64621-11.64H67.64222A.96146.96146,0,0,1,66.91973,84a1.06329,1.06329,0,0,1-.30417-.76v-5.96a1.066,1.066,0,0,1,.30417-.76016A.96356.96356,0,0,1,67.64222,76.2H88.47878a.96481.96481,0,0,1,.72249.31992,1.0677,1.0677,0,0,1,.30416.76016V82.96a1.83973,1.83973,0,0,1-.49417,1.32012L78.93507,96H88.97334a.966.966,0,0,1,.72249.31992A1.06767,1.06767,0,0,1,90,97.08008v6.03984a1.06571,1.06571,0,0,1-.30417.76016.96391.96391,0,0,1-.72249.31992H67.26221A.96146.96146,0,0,1,66.53972,103.88008Z"/></g></svg>