<svg xmlns="http://www.w3.org/2000/svg" viewBox="0 0 100 122"><defs><style>.cls-1{fill:#fff;}.cls-2{fill:#0d47a1;}.cls-3{fill:#ffe471;}.cls-4{fill:#ffebc5;}.cls-5{fill:#e5aa7d;}</style></defs><title>NwkEhd_divs_web_mini</title><g id="Rent_Control" data-name="Rent Control"><rect class="cls-1" x="-10" y="11" width="120" height="100" rx="8.53341" transform="translate(111 11) rotate(90)"/><rect class="cls-2" y="4.21767" width="100" height="113.56467" rx="7.42035"/><path class="cls-1" d="M10.27971,47.88008A1.11515,1.11515,0,0,1,10,47.11992V21.28008a1.11725,1.11725,0,0,1,.27971-.76016A.8555.8555,0,0,1,10.9441,20.2h5.52453a1.50473,1.50473,0,0,1,1.43358.91992L23.81125,32.2V21.28008a1.11729,1.11729,0,0,1,.27971-.76016A.85552.85552,0,0,1,24.75535,20.2h6.32878a.85711.85711,0,0,1,.66439.31992,1.11989,1.11989,0,0,1,.2797.76016V47.11992a1.11779,1.11779,0,0,1-.2797.76016.85526.85526,0,0,1-.66439.31992H25.55959a1.32312,1.32312,0,0,1-.909-.28008,2.60581,2.60581,0,0,1-.52454-.63984l-5.90922-10.2V47.11992a1.11693,1.11693,0,0,1-.27971.76016.85489.85489,0,0,1-.6642.31992H10.9441A.85365.85365,0,0,1,10.27971,47.88008Z"/><path class="cls-1" d="M39.10839,47.74a1.80774,1.80774,0,0,1-.5071-1.06L35.3845,21.2v-.11992a.90949.90949,0,0,1,.2274-.62012.6975.6975,0,0,1,.542-.26h6.50351a1.46555,1.46555,0,0,1,.92648.24,1.11582,1.11582,0,0,1,.33219.84L45.105,32.56l1.43358-5q.349-1.15958,1.18875-1.16h3.56642q.83912,0,1.18892,1.16l1.43358,4.96L55.105,21.28008a1.1118,1.1118,0,0,1,.3322-.84,1.46447,1.46447,0,0,1,.92647-.24h6.50369a.69882.69882,0,0,1,.542.26.91281.91281,0,0,1,.22722.62012V21.2L60.41974,46.68008a1.81307,1.81307,0,0,1-.5071,1.06,1.45511,1.45511,0,0,1-1.10139.46h-5a1.243,1.243,0,0,1-.96153-.36,2.30344,2.30344,0,0,1-.472-.72012l-2.86715-8.2-2.86716,8.2a2.3227,2.3227,0,0,1-.47205.72012,1.24375,1.24375,0,0,1-.96153.36h-5A1.45347,1.45347,0,0,1,39.10839,47.74Z"/><path class="cls-1" d="M67.27233,47.88008a1.11519,1.11519,0,0,1-.2797-.76016V21.28008a1.11729,1.11729,0,0,1,.2797-.76016A.85552.85552,0,0,1,67.93672,20.2h6.67841a.85657.85657,0,0,1,.66439.31992,1.119,1.119,0,0,1,.27971.76016V29.2l3.9511-8.11992A1.44,1.44,0,0,1,80.90886,20.2h7.72749a.69936.69936,0,0,1,.542.26.91357.91357,0,0,1,.227.62012.92922.92922,0,0,1-.105.43984L83.007,33.6l6.888,13.28008a.79873.79873,0,0,1,.105.43984.91277.91277,0,0,1-.2274.62012.697.697,0,0,1-.542.26h-7.972a1.4,1.4,0,0,1-.94409-.3,1.76865,1.76865,0,0,1-.48967-.61992L75.55923,38.56v8.56a1.11693,1.11693,0,0,1-.27971.76016.85472.85472,0,0,1-.66439.31992H67.93672A.85366.85366,0,0,1,67.27233,47.88008Z"/><rect class="cls-1" x="10" y="60.2" width="80" height="1.6" rx="0.23264"/><path class="cls-3" d="M22.646,103.50008a1.02531,1.02531,0,0,1-.30079-.739V77.639a1.02719,1.02719,0,0,1,.30079-.739.96033.96033,0,0,1,.71445-.311H34.49014q5.41436,0,8.46,2.50841a8.50142,8.50142,0,0,1,3.04551,6.94151,8.87918,8.87918,0,0,1-1.09043,4.45286,9.19264,9.19264,0,0,1-2.97032,3.1694l4.62481,8.86678a.99417.99417,0,0,1,.11269.42763.83811.83811,0,0,1-.24433.60289.78231.78231,0,0,1-.58282.25274h-7.708a1.61518,1.61518,0,0,1-1.07149-.33059,1.78661,1.78661,0,0,1-.54531-.71948l-3.23359-7.42763H31.74521V102.761a1.02693,1.02693,0,0,1-.30078.739.96006.96006,0,0,1-.71445.311H23.36045A.95824.95824,0,0,1,22.646,103.50008ZM34.49014,87.94452a1.54305,1.54305,0,0,0,1.27832-.564,2.199,2.199,0,0,0,.45117-1.41941,2.619,2.619,0,0,0-.43242-1.49726,1.46027,1.46027,0,0,0-1.29707-.64163H31.74521v4.12226Z"/><path class="cls-3" d="M55.95947,101.61393q-3.34716-2.586-3.57207-7.95286-.03778-1.04988-.03769-3.42214,0-2.41081.03769-3.5.22559-5.211,3.64727-7.875A14.156,14.156,0,0,1,64.9833,76.2a17.8092,17.8092,0,0,1,6.22305,1.05008,10.40487,10.40487,0,0,1,4.62461,3.286,8.89171,8.89171,0,0,1,1.82383,5.61952.83676.83676,0,0,1-.24454.60271.78134.78134,0,0,1-.58281.25274H69.15713a1.37369,1.37369,0,0,1-.88359-.23319,2.01,2.01,0,0,1-.50782-.89455,3.21219,3.21219,0,0,0-1.09023-1.63322,2.98143,2.98143,0,0,0-1.72969-.46675,2.73494,2.73494,0,0,0-2.03047.71949,3.49067,3.49067,0,0,0-.752,2.43055q-.0378,1.0499-.0375,3.2277,0,2.17839.0375,3.30556a3.48862,3.48862,0,0,0,.752,2.43055,3.03485,3.03485,0,0,0,4.85039-1.38048,1.79665,1.79665,0,0,1,.47032-.89455,1.44515,1.44515,0,0,1,.92109-.23319h7.67031a.78339.78339,0,0,1,.58281.25274.8377.8377,0,0,1,.24454.60271A8.89056,8.89056,0,0,1,75.831,99.86393a10.399,10.399,0,0,1-4.62461,3.286A17.8092,17.8092,0,0,1,64.9833,104.2Q59.30556,104.2,55.95947,101.61393Z"/><path class="cls-4" d="M22.646,103.50008a1.02531,1.02531,0,0,1-.30079-.739V77.639a1.02719,1.02719,0,0,1,.30079-.739.96033.96033,0,0,1,.71445-.311H34.49014q5.41436,0,8.46,2.50841a8.50142,8.50142,0,0,1,3.04551,6.94151,8.87918,8.87918,0,0,1-1.09043,4.45286,9.19264,9.19264,0,0,1-2.97032,3.1694l4.62481,8.86678a.99417.99417,0,0,1,.11269.42763.83811.83811,0,0,1-.24433.60289.78231.78231,0,0,1-.58282.25274h-7.708a1.61518,1.61518,0,0,1-1.07149-.33059,1.78661,1.78661,0,0,1-.54531-.71948l-3.23359-7.42763H31.74521V102.761a1.02693,1.02693,0,0,1-.30078.739.96006.96006,0,0,1-.71445.311H23.36045A.95824.95824,0,0,1,22.646,103.50008ZM34.49014,87.94452a1.54305,1.54305,0,0,0,1.27832-.564,2.199,2.199,0,0,0,.45117-1.41941,2.619,2.619,0,0,0-.43242-1.49726,1.46027,1.46027,0,0,0-1.29707-.64163H31.74521v4.12226Z"/><path class="cls-4" d="M55.95947,101.61393q-3.34716-2.586-3.57207-7.95286-.03778-1.04988-.03769-3.42214,0-2.41081.03769-3.5.22559-5.211,3.64727-7.875A14.156,14.156,0,0,1,64.9833,76.2a17.8092,17.8092,0,0,1,6.22305,1.05008,10.40487,10.40487,0,0,1,4.62461,3.286,8.89171,8.89171,0,0,1,1.82383,5.61952.83676.83676,0,0,1-.24454.60271.78134.78134,0,0,1-.58281.25274H69.15713a1.37369,1.37369,0,0,1-.88359-.23319,2.01,2.01,0,0,1-.50782-.89455,3.21219,3.21219,0,0,0-1.09023-1.63322,2.98143,2.98143,0,0,0-1.72969-.46675,2.73494,2.73494,0,0,0-2.03047.71949,3.49067,3.49067,0,0,0-.752,2.43055q-.0378,1.0499-.0375,3.2277,0,2.17839.0375,3.30556a3.48862,3.48862,0,0,0,.752,2.43055,3.03485,3.03485,0,0,0,4.85039-1.38048,1.79665,1.79665,0,0,1,.47032-.89455,1.44515,1.44515,0,0,1,.92109-.23319h7.67031a.78339.78339,0,0,1,.58281.25274.8377.8377,0,0,1,.24454.60271A8.89056,8.89056,0,0,1,75.831,99.86393a10.399,10.399,0,0,1-4.62461,3.286A17.8092,17.8092,0,0,1,64.9833,104.2Q59.30556,104.2,55.95947,101.61393Z"/><path class="cls-5" d="M22.646,103.50008a1.02531,1.02531,0,0,1-.30079-.739V77.639a1.02719,1.02719,0,0,1,.30079-.739.96033.96033,0,0,1,.71445-.311H34.49014q5.41436,0,8.46,2.50841a8.50142,8.50142,0,0,1,3.04551,6.94151,8.87918,8.87918,0,0,1-1.09043,4.45286,9.19264,9.19264,0,0,1-2.97032,3.1694l4.62481,8.86678a.99417.99417,0,0,1,.11269.42763.83811.83811,0,0,1-.24433.60289.78231.78231,0,0,1-.58282.25274h-7.708a1.61518,1.61518,0,0,1-1.07149-.33059,1.78661,1.78661,0,0,1-.54531-.71948l-3.23359-7.42763H31.74521V102.761a1.02693,1.02693,0,0,1-.30078.739.96006.96006,0,0,1-.71445.311H23.36045A.95824.95824,0,0,1,22.646,103.50008ZM34.49014,87.94452a1.54305,1.54305,0,0,0,1.27832-.564,2.199,2.199,0,0,0,.45117-1.41941,2.619,2.619,0,0,0-.43242-1.49726,1.46027,1.46027,0,0,0-1.29707-.64163H31.74521v4.12226Z"/><path class="cls-5" d="M55.95947,101.61393q-3.34716-2.586-3.57207-7.95286-.03778-1.04988-.03769-3.42214,0-2.41081.03769-3.5.22559-5.211,3.64727-7.875A14.156,14.156,0,0,1,64.9833,76.2a17.8092,17.8092,0,0,1,6.22305,1.05008,10.40487,10.40487,0,0,1,4.62461,3.286,8.89171,8.89171,0,0,1,1.82383,5.61952.83676.83676,0,0,1-.24454.60271.78134.78134,0,0,1-.58281.25274H69.15713a1.37369,1.37369,0,0,1-.88359-.23319,2.01,2.01,0,0,1-.50782-.89455,3.21219,3.21219,0,0,0-1.09023-1.63322,2.98143,2.98143,0,0,0-1.72969-.46675,2.73494,2.73494,0,0,0-2.03047.71949,3.49067,3.49067,0,0,0-.752,2.43055q-.0378,1.0499-.0375,3.2277,0,2.17839.0375,3.30556a3.48862,3.48862,0,0,0,.752,2.43055,3.03485,3.03485,0,0,0,4.85039-1.38048,1.79665,1.79665,0,0,1,.47032-.89455,1.44515,1.44515,0,0,1,.92109-.23319h7.67031a.78339.78339,0,0,1,.58281.25274.8377.8377,0,0,1,.24454.60271A8.89056,8.89056,0,0,1,75.831,99.86393a10.399,10.399,0,0,1-4.62461,3.286A17.8092,17.8092,0,0,1,64.9833,104.2Q59.30556,104.2,55.95947,101.61393Z"/></g></svg>