<svg id="Opportunity_Zones" data-name="Opportunity Zones" xmlns="http://www.w3.org/2000/svg" viewBox="0 0 100 121"><defs><style>.cls-1{fill:#fff;}.cls-2{fill:#0d47a1;}.cls-3{fill:#ffe471;}.cls-4{fill:#d6f58e;}.cls-5{fill:#8cb232;}</style></defs><title>NwkEhd_divs_web_mini</title><rect class="cls-1" x="-10" y="11" width="120" height="100" rx="8.53341" transform="translate(111 11) rotate(90)"/><rect class="cls-2" y="4.21767" width="100" height="113.56467" rx="7.42035"/><path class="cls-1" d="M10.27971,47.88008A1.11515,1.11515,0,0,1,10,47.11992V21.28008a1.11725,1.11725,0,0,1,.27971-.76016A.8555.8555,0,0,1,10.9441,20.2h5.52471a1.50466,1.50466,0,0,1,1.4334.91992L23.81125,32.2V21.28008a1.11729,1.11729,0,0,1,.27971-.76016A.85552.85552,0,0,1,24.75535,20.2h6.329a.85764.85764,0,0,1,.66439.31992,1.12077,1.12077,0,0,1,.27971.76016V47.11992a1.11867,1.11867,0,0,1-.27971.76016.85578.85578,0,0,1-.66439.31992H25.55959a1.32231,1.32231,0,0,1-.90886-.28008,2.60175,2.60175,0,0,1-.52454-.63984l-5.9094-10.2V47.11992a1.11693,1.11693,0,0,1-.27971.76016.85454.85454,0,0,1-.664.31992h-6.329A.85365.85365,0,0,1,10.27971,47.88008Z"/><path class="cls-1" d="M39.10858,47.74a1.80769,1.80769,0,0,1-.50711-1.06L35.3845,21.2v-.11992a.91035.91035,0,0,1,.2274-.62012.69776.69776,0,0,1,.542-.26h6.50369a1.465,1.465,0,0,1,.9263.24,1.11587,1.11587,0,0,1,.33237.84L45.10516,32.56l1.4334-5q.34926-1.15958,1.18893-1.16h3.56642q.83911,0,1.18893,1.16l1.43339,4.96,1.18893-11.23984a1.11175,1.11175,0,0,1,.332-.84,1.4654,1.4654,0,0,1,.92665-.24h6.50369a.69938.69938,0,0,1,.542.26.91357.91357,0,0,1,.227.62012V21.2L60.41992,46.68008a1.81414,1.81414,0,0,1-.5071,1.06,1.45538,1.45538,0,0,1-1.10138.46H53.81125a1.243,1.243,0,0,1-.96153-.36,2.30244,2.30244,0,0,1-.47186-.72012l-2.86716-8.2-2.86716,8.2a2.32349,2.32349,0,0,1-.47223.72012,1.24347,1.24347,0,0,1-.96153.36H40.21A1.45316,1.45316,0,0,1,39.10858,47.74Z"/><path class="cls-1" d="M67.27233,47.88008a1.11519,1.11519,0,0,1-.2797-.76016V21.28008a1.11729,1.11729,0,0,1,.2797-.76016A.85552.85552,0,0,1,67.93672,20.2h6.67841a.85657.85657,0,0,1,.66439.31992,1.119,1.119,0,0,1,.27971.76016V29.2l3.9511-8.11992A1.44,1.44,0,0,1,80.90886,20.2h7.72749a.69936.69936,0,0,1,.542.26.91357.91357,0,0,1,.227.62012.92922.92922,0,0,1-.105.43984L83.007,33.6l6.888,13.28008a.79873.79873,0,0,1,.105.43984.91277.91277,0,0,1-.2274.62012.697.697,0,0,1-.542.26h-7.972a1.4,1.4,0,0,1-.94409-.3,1.76865,1.76865,0,0,1-.48967-.61992L75.55923,38.56v8.56a1.11693,1.11693,0,0,1-.27971.76016.85472.85472,0,0,1-.66439.31992H67.93672A.85366.85366,0,0,1,67.27233,47.88008Z"/><rect class="cls-1" x="10" y="60.2" width="80" height="1.6" rx="0.23264"/><path class="cls-3" d="M26.143,101.5167A10.03015,10.03015,0,0,1,22.5707,93.7q-.0375-1.04988-.0375-3.38341,0-2.3715.0375-3.46107A10.86515,10.86515,0,0,1,24.28164,81.1a10.04177,10.04177,0,0,1,4.38047-3.65552A15.711,15.711,0,0,1,35.1293,76.2a15.71611,15.71611,0,0,1,6.46718,1.24452A10.05049,10.05049,0,0,1,45.977,81.1a10.8683,10.8683,0,0,1,1.71055,5.75548q.075,2.17838.07539,3.46107,0,1.28344-.07539,3.38341a10.03236,10.03236,0,0,1-3.57187,7.8167q-3.34689,2.68339-8.98633,2.6833Q29.48906,104.2,26.143,101.5167Zm10.99766-5.67781a3.47716,3.47716,0,0,0,.77109-2.37226q.075-2.255.075-3.30556,0-1.12735-.075-3.2277a3.423,3.423,0,0,0-.78984-2.37226,2.94177,2.94177,0,0,0-3.98555,0,3.41737,3.41737,0,0,0-.78946,2.37226q-.03809,1.0499-.0375,3.2277,0,2.17839.0375,3.30556a3.47517,3.47517,0,0,0,.77071,2.37226,2.99,2.99,0,0,0,4.02305,0Z"/><path class="cls-3" d="M54.26758,103.50008a1.02376,1.02376,0,0,1-.30078-.739v-5.6A1.89676,1.89676,0,0,1,54.53086,95.8l10.52773-11.3167H55.35781a.95822.95822,0,0,1-.71445-.311,1.02458,1.02458,0,0,1-.30078-.73885V77.639a1.02723,1.02723,0,0,1,.30078-.739.96033.96033,0,0,1,.71445-.311H75.9625a.96155.96155,0,0,1,.71445.311,1.02882,1.02882,0,0,1,.30078.739v5.52211a1.77172,1.77172,0,0,1-.48867,1.28345L66.525,95.83889h9.92656a.96282.96282,0,0,1,.71446.311,1.02882,1.02882,0,0,1,.30078.739V102.761a1.02693,1.02693,0,0,1-.30078.739.96073.96073,0,0,1-.71446.311H54.982A.95824.95824,0,0,1,54.26758,103.50008Z"/><path class="cls-4" d="M26.143,101.5167A10.03015,10.03015,0,0,1,22.5707,93.7q-.0375-1.04988-.0375-3.38341,0-2.3715.0375-3.46107A10.86515,10.86515,0,0,1,24.28164,81.1a10.04177,10.04177,0,0,1,4.38047-3.65552A15.711,15.711,0,0,1,35.1293,76.2a15.71611,15.71611,0,0,1,6.46718,1.24452A10.05049,10.05049,0,0,1,45.977,81.1a10.8683,10.8683,0,0,1,1.71055,5.75548q.075,2.17838.07539,3.46107,0,1.28344-.07539,3.38341a10.03236,10.03236,0,0,1-3.57187,7.8167q-3.34689,2.68339-8.98633,2.6833Q29.48906,104.2,26.143,101.5167Zm10.99766-5.67781a3.47716,3.47716,0,0,0,.77109-2.37226q.075-2.255.075-3.30556,0-1.12735-.075-3.2277a3.423,3.423,0,0,0-.78984-2.37226,2.94177,2.94177,0,0,0-3.98555,0,3.41737,3.41737,0,0,0-.78946,2.37226q-.03809,1.0499-.0375,3.2277,0,2.17839.0375,3.30556a3.47517,3.47517,0,0,0,.77071,2.37226,2.99,2.99,0,0,0,4.02305,0Z"/><path class="cls-4" d="M54.26758,103.50008a1.02376,1.02376,0,0,1-.30078-.739v-5.6A1.89676,1.89676,0,0,1,54.53086,95.8l10.52773-11.3167H55.35781a.95822.95822,0,0,1-.71445-.311,1.02458,1.02458,0,0,1-.30078-.73885V77.639a1.02723,1.02723,0,0,1,.30078-.739.96033.96033,0,0,1,.71445-.311H75.9625a.96155.96155,0,0,1,.71445.311,1.02882,1.02882,0,0,1,.30078.739v5.52211a1.77172,1.77172,0,0,1-.48867,1.28345L66.525,95.83889h9.92656a.96282.96282,0,0,1,.71446.311,1.02882,1.02882,0,0,1,.30078.739V102.761a1.02693,1.02693,0,0,1-.30078.739.96073.96073,0,0,1-.71446.311H54.982A.95824.95824,0,0,1,54.26758,103.50008Z"/><path class="cls-5" d="M26.143,101.5167A10.03015,10.03015,0,0,1,22.5707,93.7q-.0375-1.04988-.0375-3.38341,0-2.3715.0375-3.46107A10.86515,10.86515,0,0,1,24.28164,81.1a10.04177,10.04177,0,0,1,4.38047-3.65552A15.711,15.711,0,0,1,35.1293,76.2a15.71611,15.71611,0,0,1,6.46718,1.24452A10.05049,10.05049,0,0,1,45.977,81.1a10.8683,10.8683,0,0,1,1.71055,5.75548q.075,2.17838.07539,3.46107,0,1.28344-.07539,3.38341a10.03236,10.03236,0,0,1-3.57187,7.8167q-3.34689,2.68339-8.98633,2.6833Q29.48906,104.2,26.143,101.5167Zm10.99766-5.67781a3.47716,3.47716,0,0,0,.77109-2.37226q.075-2.255.075-3.30556,0-1.12735-.075-3.2277a3.423,3.423,0,0,0-.78984-2.37226,2.94177,2.94177,0,0,0-3.98555,0,3.41737,3.41737,0,0,0-.78946,2.37226q-.03809,1.0499-.0375,3.2277,0,2.17839.0375,3.30556a3.47517,3.47517,0,0,0,.77071,2.37226,2.99,2.99,0,0,0,4.02305,0Z"/><path class="cls-5" d="M54.26758,103.50008a1.02376,1.02376,0,0,1-.30078-.739v-5.6A1.89676,1.89676,0,0,1,54.53086,95.8l10.52773-11.3167H55.35781a.95822.95822,0,0,1-.71445-.311,1.02458,1.02458,0,0,1-.30078-.73885V77.639a1.02723,1.02723,0,0,1,.30078-.739.96033.96033,0,0,1,.71445-.311H75.9625a.96155.96155,0,0,1,.71445.311,1.02882,1.02882,0,0,1,.30078.739v5.52211a1.77172,1.77172,0,0,1-.48867,1.28345L66.525,95.83889h9.92656a.96282.96282,0,0,1,.71446.311,1.02882,1.02882,0,0,1,.30078.739V102.761a1.02693,1.02693,0,0,1-.30078.739.96073.96073,0,0,1-.71446.311H54.982A.95824.95824,0,0,1,54.26758,103.50008Z"/></svg>