<svg xmlns="http://www.w3.org/2000/svg" viewBox="0 0 189.54 263.8">
  <defs>
    <style>
      .cls-1 {
        fill: #1a1a1a;
      }

      .cls-2 {
        fill: #4273cc;
      }

      .cls-3 {
        fill: #fff;
      }

      .cls-4 {
        fill: #9bf78b;
      }

      .cls-5 {
        fill: #cff;
      }

      .cls-6 {
        fill: aqua;
      }

      .cls-7 {
        fill: #92f7ff;
      }

      .cls-8 {
        fill: #c1c1c1;
      }

      .cls-9 {
        fill: #7f7f7f;
      }

      .cls-10 {
        fill: #515151;
      }

      .cls-11 {
        fill: #761daa;
      }

      .cls-12 {
        fill: #a53ed5;
      }

      .cls-13 {
        fill: #a18aad;
      }

      .cls-14 {
        fill: #fc8b93;
      }

      .cls-15 {
        fill: #da2028;
      }

      .cls-16 {
        fill: #850204;
      }

      .cls-17 {
        fill: #fffaca;
      }

      .cls-18 {
        fill: #fff68f;
      }

      .cls-19 {
        fill: #fff100;
      }

      .cls-20 {
        fill: #ebd417;
      }

      .cls-21 {
        fill: #fbb03b;
      }

      .cls-22 {
        fill: #ff931e;
      }
    </style>
  </defs>
  <title>ZonesHex</title>
  <g id="Layer_2" data-name="Layer 2">
    <rect class="cls-1" x="-0.23" y="-0.1" width="190" height="264"/>
  </g>
  <g id="Res">
    <g id="OTHER">
      <path class="cls-2" d="M106.26,200.1,117.75,220l-11.49,19.9h-23L71.79,220l11.49-19.9h23m1.16-2H82.13L69.48,220l12.65,21.9h25.29L120.06,220l-12.64-21.9Z"/>
      <path class="cls-3" d="M68.33,222l11.49,19.9L68.33,261.8h-23L33.86,241.9,45.35,222h23m1.16-2H44.2L31.55,241.9,44.2,263.8H69.49l12.64-21.9L69.49,220Z"/>
      <path class="cls-4" d="M144.19,222l11.49,19.9-11.49,19.9h-23l-11.49-19.9L121.21,222h23m1.15-2H120.06l-12.65,21.9,12.65,21.9h25.28L158,241.9,145.34,220Z"/>
      <g>
        <path class="cls-4" d="M115.87,246.71a.32.32,0,0,1-.09-.23v-9.14a.33.33,0,0,1,.09-.25.28.28,0,0,1,.22-.09h3.54a3.8,3.8,0,0,1,2.49.76A2.75,2.75,0,0,1,123,240a2.72,2.72,0,0,1-.9,2.21,3.74,3.74,0,0,1-2.49.76h-2.52v3.53a.31.31,0,0,1-.32.32h-.7A.28.28,0,0,1,115.87,246.71Zm3.69-4.89c1.41,0,2.12-.62,2.12-1.84a1.77,1.77,0,0,0-.53-1.37,2.29,2.29,0,0,0-1.59-.48h-2.45v3.69Z"/>
        <path class="cls-4" d="M123.33,246.72a.27.27,0,0,1-.09-.2l0-.15,3.47-9.06a.44.44,0,0,1,.45-.31h.9a.44.44,0,0,1,.45.31l3.47,9.06,0,.15a.27.27,0,0,1-.09.2.34.34,0,0,1-.21.08h-.66a.38.38,0,0,1-.35-.24l-.78-2h-4.63l-.77,2a.38.38,0,0,1-.35.24h-.68A.27.27,0,0,1,123.33,246.72Zm2.39-3.34h3.84l-1.92-5Z"/>
        <path class="cls-4" d="M133.63,246.71a.31.31,0,0,1-.08-.23v-9.14a.33.33,0,0,1,.08-.25.3.3,0,0,1,.23-.09h3.41a3.81,3.81,0,0,1,2.5.75,2.67,2.67,0,0,1,.9,2.18,2.74,2.74,0,0,1-.53,1.75,2.79,2.79,0,0,1-1.48.95l2.15,3.74a.3.3,0,0,1,.05.15.27.27,0,0,1-.09.2.28.28,0,0,1-.2.08H140a.48.48,0,0,1-.33-.1.94.94,0,0,1-.22-.28l-2-3.58h-2.5v3.64a.32.32,0,0,1-.09.23.36.36,0,0,1-.24.09h-.67A.3.3,0,0,1,133.63,246.71Zm3.59-5c1.4,0,2.11-.59,2.11-1.78s-.71-1.78-2.11-1.78h-2.36v3.56Z"/>
        <path class="cls-4" d="M142.79,246.71a.32.32,0,0,1-.09-.23v-9.14a.33.33,0,0,1,.09-.25A.28.28,0,0,1,143,237h.66a.32.32,0,0,1,.24.09.3.3,0,0,1,.1.25v3.48l3.79-3.6a.78.78,0,0,1,.55-.22h.7a.27.27,0,0,1,.27.28.24.24,0,0,1-.06.18l-4.37,4.23,4.66,4.63a.31.31,0,0,1,.07.2.3.3,0,0,1-.08.2.32.32,0,0,1-.2.08h-.73a.68.68,0,0,1-.31-.06l-.23-.16-4.06-4v3.87a.33.33,0,0,1-.1.23.36.36,0,0,1-.24.09H143A.28.28,0,0,1,142.79,246.71Z"/>
      </g>
      <g>
        <path class="cls-2" d="M80.58,224.81a.36.36,0,0,1-.08-.23v-9.16a.36.36,0,0,1,.08-.23.3.3,0,0,1,.23-.09h.7a.31.31,0,0,1,.32.32v9.16a.31.31,0,0,1-.32.32h-.7A.3.3,0,0,1,80.58,224.81Z"/>
        <path class="cls-2" d="M84.38,224.81a.32.32,0,0,1-.09-.23v-9.14a.35.35,0,0,1,.09-.25.28.28,0,0,1,.22-.09h.62a.33.33,0,0,1,.21.06l.14.14,4.69,7.22v-7.08a.35.35,0,0,1,.09-.25.32.32,0,0,1,.23-.09h.63a.32.32,0,0,1,.24.09.36.36,0,0,1,.1.25v9.13a.33.33,0,0,1-.1.23.28.28,0,0,1-.23.1h-.63a.33.33,0,0,1-.33-.19l-4.69-7.16v7a.32.32,0,0,1-.09.23.32.32,0,0,1-.24.09H84.6A.28.28,0,0,1,84.38,224.81Z"/>
        <path class="cls-2" d="M95.12,224.68a3.08,3.08,0,0,1-1.29-1,2.31,2.31,0,0,1-.47-1.28.27.27,0,0,1,.09-.2.3.3,0,0,1,.21-.08h.69a.35.35,0,0,1,.34.28,1.69,1.69,0,0,0,.73,1,2.83,2.83,0,0,0,1.7.43,3,3,0,0,0,1.77-.42,1.33,1.33,0,0,0,.59-1.16,1.12,1.12,0,0,0-.28-.79,2.49,2.49,0,0,0-.86-.53,16.36,16.36,0,0,0-1.7-.57,8.75,8.75,0,0,1-1.71-.66,2.46,2.46,0,0,1-1-.86,2.56,2.56,0,0,1,.08-2.65,2.75,2.75,0,0,1,1.18-.94,4.58,4.58,0,0,1,1.82-.34,4.16,4.16,0,0,1,1.87.39,3.1,3.1,0,0,1,1.18,1,2.25,2.25,0,0,1,.43,1.17.25.25,0,0,1-.08.21.29.29,0,0,1-.21.09h-.7a.38.38,0,0,1-.21-.07.39.39,0,0,1-.14-.21,1.44,1.44,0,0,0-.67-1,2.6,2.6,0,0,0-1.47-.39,2.66,2.66,0,0,0-1.51.37,1.23,1.23,0,0,0-.56,1.1,1.22,1.22,0,0,0,.25.8,2.19,2.19,0,0,0,.8.54,12.93,12.93,0,0,0,1.58.55,11.68,11.68,0,0,1,1.87.67,2.52,2.52,0,0,1,1,.84,2.18,2.18,0,0,1,.34,1.28,2.42,2.42,0,0,1-1,2.05,4.49,4.49,0,0,1-2.71.73A5.1,5.1,0,0,1,95.12,224.68Z"/>
        <path class="cls-2" d="M104.8,224.81a.29.29,0,0,1-.1-.23v-8.27H102a.29.29,0,0,1-.23-.1.3.3,0,0,1-.09-.23v-.54a.35.35,0,0,1,.09-.25.32.32,0,0,1,.23-.09h6.72a.32.32,0,0,1,.24.09.34.34,0,0,1,.08.25V216a.3.3,0,0,1-.09.23.28.28,0,0,1-.23.1H106v8.27a.32.32,0,0,1-.09.23.36.36,0,0,1-.24.09H105A.3.3,0,0,1,104.8,224.81Z"/>
      </g>
      <g>
        <path class="cls-3" d="M44,246.71a.32.32,0,0,1-.09-.23v-9.14a.33.33,0,0,1,.09-.25.28.28,0,0,1,.22-.09h3.42a3.81,3.81,0,0,1,2.5.75,2.67,2.67,0,0,1,.9,2.18,2.59,2.59,0,0,1-2,2.7l2.16,3.74a.28.28,0,0,1,0,.15.27.27,0,0,1-.28.28h-.61a.48.48,0,0,1-.33-.1.94.94,0,0,1-.22-.28l-2.06-3.58H45.18v3.64a.29.29,0,0,1-.1.23.32.32,0,0,1-.24.09h-.67A.28.28,0,0,1,44,246.71Zm3.58-5c1.41,0,2.12-.59,2.12-1.78s-.71-1.78-2.12-1.78H45.18v3.56Z"/>
        <path class="cls-3" d="M53.11,246.71a.32.32,0,0,1-.09-.23v-9.14a.33.33,0,0,1,.09-.25.28.28,0,0,1,.22-.09h3.16a4.16,4.16,0,0,1,3,.95,4,4,0,0,1,1,2.85c0,.27,0,.63,0,1.09s0,.82,0,1.1a5.29,5.29,0,0,1-.43,2.17,2.54,2.54,0,0,1-1.25,1.23,5.18,5.18,0,0,1-2.27.41H53.33A.28.28,0,0,1,53.11,246.71Zm3.38-1.07a3.7,3.7,0,0,0,1.56-.27,1.68,1.68,0,0,0,.84-.86,4.07,4.07,0,0,0,.29-1.57q0-.84,0-1.05c0-.15,0-.5,0-1a3,3,0,0,0-.66-2,2.88,2.88,0,0,0-2.1-.65H54.34v7.49Z"/>
        <path class="cls-3" d="M64.79,246.44l-3.14-9,0-.15a.25.25,0,0,1,.09-.19.28.28,0,0,1,.2-.09h.67a.37.37,0,0,1,.25.08.38.38,0,0,1,.12.17l2.77,8,2.78-8a.38.38,0,0,1,.12-.17.39.39,0,0,1,.25-.08h.67a.27.27,0,0,1,.2.09.27.27,0,0,1,.08.19.58.58,0,0,1,0,.15l-3.15,9a.51.51,0,0,1-.51.36H65.3A.52.52,0,0,1,64.79,246.44Z"/>
      </g>
    </g>
    <g id="MX">
      <path class="cls-5" d="M137.81,67.7,149.3,87.6l-11.49,19.9h-23L103.35,87.6l11.48-19.9h23m1.16-2H113.68L101,87.6l12.64,21.9H139l12.64-21.9L139,65.7Z"/>
      <path class="cls-6" d="M137.81,111.5l11.49,19.9-11.49,19.9h-23l-11.48-19.9,11.48-19.9h23m1.16-2H113.68L101,131.4l12.64,21.9H139l12.64-21.9L139,109.5Z"/>
      <path class="cls-7" d="M175.74,89.6l11.49,19.9-11.49,19.9h-23l-11.49-19.9,11.49-19.9h23m1.16-2H151.61L139,109.5l12.65,21.9H176.9l12.64-21.9L176.9,87.6Z"/>
      <g>
        <path class="cls-5" d="M111.84,92.41a.32.32,0,0,1-.09-.23V83a.41.41,0,0,1,.08-.25.32.32,0,0,1,.24-.09h.66a.36.36,0,0,1,.35.21l3,5.73,3-5.73a.37.37,0,0,1,.34-.21h.66a.29.29,0,0,1,.23.09.37.37,0,0,1,.09.25v9.14a.31.31,0,0,1-.32.32h-.65a.28.28,0,0,1-.22-.09.32.32,0,0,1-.09-.23v-7l-2.39,4.64a.47.47,0,0,1-.45.29h-.42a.51.51,0,0,1-.45-.29L113,85.22v7a.32.32,0,0,1-.09.23.3.3,0,0,1-.23.09h-.63A.32.32,0,0,1,111.84,92.41Z"/>
        <path class="cls-5" d="M122.05,92.42a.3.3,0,0,1-.08-.2A.32.32,0,0,1,122,92l3.2-4.52-3-4.35a.33.33,0,0,1-.06-.19.31.31,0,0,1,.28-.28h.8a.48.48,0,0,1,.37.24l2.5,3.54,2.48-3.54a.4.4,0,0,1,.36-.24h.75a.31.31,0,0,1,.28.28.33.33,0,0,1-.06.19l-3,4.36,3.2,4.51a.32.32,0,0,1,.06.18.27.27,0,0,1-.09.2.28.28,0,0,1-.21.08H129a.43.43,0,0,1-.37-.22L126,88.58l-2.64,3.7a.42.42,0,0,1-.36.22h-.77A.27.27,0,0,1,122.05,92.42Z"/>
        <path class="cls-5" d="M130.82,88.78a.29.29,0,0,1-.09-.22v-.51a.32.32,0,0,1,.09-.23.32.32,0,0,1,.24-.09h4.2a.31.31,0,0,1,.32.32v.51a.29.29,0,0,1-.09.22.31.31,0,0,1-.23.08h-4.2A.32.32,0,0,1,130.82,88.78Z"/>
        <path class="cls-5" d="M139.67,92.41a.32.32,0,0,1-.09-.23V84.29l-2.35,1.8a.32.32,0,0,1-.21.09.34.34,0,0,1-.24-.14l-.33-.44a.3.3,0,0,1-.07-.19.29.29,0,0,1,.14-.26l3-2.35a.76.76,0,0,1,.37-.1h.66a.32.32,0,0,1,.23.09.34.34,0,0,1,.09.24v9.15a.31.31,0,0,1-.32.32h-.69A.28.28,0,0,1,139.67,92.41Z"/>
      </g>
      <g>
        <path class="cls-7" d="M148.5,114.39a.28.28,0,0,1-.09-.23V105a.33.33,0,0,1,.08-.25.3.3,0,0,1,.24-.09h.65a.35.35,0,0,1,.35.21l3,5.73,3-5.73a.35.35,0,0,1,.33-.21h.66a.32.32,0,0,1,.24.09.37.37,0,0,1,.08.25v9.14a.31.31,0,0,1-.32.32h-.64a.3.3,0,0,1-.23-.09.36.36,0,0,1-.08-.23v-7l-2.4,4.63a.46.46,0,0,1-.44.3h-.42a.48.48,0,0,1-.45-.3l-2.38-4.63v7a.31.31,0,0,1-.32.32h-.63A.3.3,0,0,1,148.5,114.39Z"/>
        <path class="cls-7" d="M158.71,114.4a.27.27,0,0,1-.09-.2.3.3,0,0,1,.06-.18l3.21-4.52-3.06-4.36a.35.35,0,0,1-.05-.18.32.32,0,0,1,.08-.2.3.3,0,0,1,.2-.08h.8a.45.45,0,0,1,.36.24l2.51,3.54,2.47-3.54a.43.43,0,0,1,.37-.24h.74a.27.27,0,0,1,.28.28.28.28,0,0,1-.06.18l-3,4.37,3.21,4.51a.37.37,0,0,1,.05.18.27.27,0,0,1-.09.2.32.32,0,0,1-.2.08h-.8a.42.42,0,0,1-.36-.22l-2.65-3.7-2.63,3.7a.44.44,0,0,1-.37.22h-.77A.27.27,0,0,1,158.71,114.4Z"/>
        <path class="cls-7" d="M167.48,110.76a.3.3,0,0,1-.09-.23V110a.31.31,0,0,1,.32-.32h4.2a.31.31,0,0,1,.32.32v.5a.3.3,0,0,1-.09.23.36.36,0,0,1-.23.08h-4.2A.36.36,0,0,1,167.48,110.76Z"/>
        <path class="cls-7" d="M173.42,114.39a.29.29,0,0,1-.1-.23v-.42a.84.84,0,0,1,.35-.62l3.06-3a8,8,0,0,0,1.42-1.44,2,2,0,0,0,.4-1.19,1.63,1.63,0,0,0-1.81-1.76,1.79,1.79,0,0,0-1.33.49,2.17,2.17,0,0,0-.6,1.31.36.36,0,0,1-.14.24.37.37,0,0,1-.23.09h-.67a.29.29,0,0,1-.21-.09.27.27,0,0,1-.08-.19,3.25,3.25,0,0,1,.4-1.44A2.84,2.84,0,0,1,175,105a3.26,3.26,0,0,1,1.76-.44,3.12,3.12,0,0,1,2.36.82,2.83,2.83,0,0,1,.79,2.07,3,3,0,0,1-.43,1.59,6.45,6.45,0,0,1-1.33,1.49l-2.76,2.8h4.41a.32.32,0,0,1,.24.09.33.33,0,0,1,.08.24v.53a.31.31,0,0,1-.32.32h-6.13A.3.3,0,0,1,173.42,114.39Z"/>
      </g>
      <g>
        <path class="cls-6" d="M110.32,136.14a.32.32,0,0,1-.09-.23v-9.14a.37.37,0,0,1,.09-.25.29.29,0,0,1,.23-.09h.66a.35.35,0,0,1,.35.21l3,5.73,3-5.73a.37.37,0,0,1,.34-.21h.66a.29.29,0,0,1,.23.09.37.37,0,0,1,.09.25v9.14a.31.31,0,0,1-.32.32h-.65a.29.29,0,0,1-.22-.09.32.32,0,0,1-.09-.23v-7l-2.39,4.64a.47.47,0,0,1-.45.29h-.42a.51.51,0,0,1-.45-.29L111.5,129v7a.32.32,0,0,1-.09.23.3.3,0,0,1-.23.09h-.63A.32.32,0,0,1,110.32,136.14Z"/>
        <path class="cls-6" d="M120.53,136.15a.3.3,0,0,1-.08-.2.32.32,0,0,1,.06-.18l3.2-4.52-3-4.35a.33.33,0,0,1-.06-.19.31.31,0,0,1,.28-.28h.8a.48.48,0,0,1,.37.24l2.5,3.54,2.48-3.54a.4.4,0,0,1,.36-.24h.75a.31.31,0,0,1,.28.28.33.33,0,0,1-.06.19l-3,4.36,3.2,4.51a.32.32,0,0,1,.06.18.27.27,0,0,1-.09.2.28.28,0,0,1-.21.08h-.79a.44.44,0,0,1-.37-.22l-2.64-3.7-2.64,3.7a.42.42,0,0,1-.36.22h-.77A.27.27,0,0,1,120.53,136.15Z"/>
        <path class="cls-6" d="M129.31,132.51a.27.27,0,0,1-.1-.22v-.51a.29.29,0,0,1,.1-.23.3.3,0,0,1,.23-.09h4.2a.31.31,0,0,1,.32.32v.51a.29.29,0,0,1-.09.22.31.31,0,0,1-.23.08h-4.2A.3.3,0,0,1,129.31,132.51Z"/>
        <path class="cls-6" d="M137,136a2.92,2.92,0,0,1-1.21-.93,2.18,2.18,0,0,1-.44-1.19.29.29,0,0,1,.08-.21.31.31,0,0,1,.21-.07h.63a.44.44,0,0,1,.25.06.41.41,0,0,1,.16.24,1.42,1.42,0,0,0,.79,1,3.2,3.2,0,0,0,1.43.3,2.49,2.49,0,0,0,1.61-.49,1.69,1.69,0,0,0,.59-1.38c0-1.14-.69-1.7-2.08-1.7h-1.32a.33.33,0,0,1-.23-.1.3.3,0,0,1-.09-.23V131a.49.49,0,0,1,.15-.36l2.73-3h-4.14a.34.34,0,0,1-.23-.08.3.3,0,0,1-.09-.23v-.5a.37.37,0,0,1,.09-.25.3.3,0,0,1,.23-.09h5.54a.33.33,0,0,1,.25.09.37.37,0,0,1,.09.25v.46a.53.53,0,0,1-.14.32l-2.73,3.07h.22a3.56,3.56,0,0,1,2.26.74,2.52,2.52,0,0,1,.84,2A2.75,2.75,0,0,1,142,135a2.84,2.84,0,0,1-1.27,1,4.63,4.63,0,0,1-1.83.35A4.72,4.72,0,0,1,137,136Z"/>
      </g>
    </g>
    <g id="Port_EWR_CEM" data-name="Port/EWR/CEM">
      <path class="cls-8" d="M175.74,133.4l11.49,19.9-11.49,19.9h-23l-11.49-19.9,11.49-19.9h23m1.16-2H151.61L139,153.3l12.65,21.9H176.9l12.64-21.9L176.9,131.4Z"/>
      <path class="cls-9" d="M137.81,155.3l11.49,19.9-11.49,19.9h-23l-11.49-19.9,11.49-19.9h23m1.16-2H113.68L101,175.2l12.64,21.9H139l12.64-21.9L139,153.3Z"/>
      <path class="cls-10" d="M175.74,177.2l11.49,19.9L175.74,217h-23l-11.49-19.9,11.49-19.9h23m1.16-2H151.61L139,197.1,151.61,219H176.9l12.64-21.9L176.9,175.2Z"/>
      <g>
        <path class="cls-10" d="M150.85,201.91a.36.36,0,0,1-.08-.23v-9.14a.39.39,0,0,1,.08-.25.3.3,0,0,1,.23-.09h5.75a.33.33,0,0,1,.25.09.35.35,0,0,1,.09.25v.5a.3.3,0,0,1-.09.23.37.37,0,0,1-.25.08h-4.77v3.12h4.46a.33.33,0,0,1,.25.09.35.35,0,0,1,.09.25v.48a.32.32,0,0,1-.09.23.33.33,0,0,1-.25.09h-4.46v3.23h4.88a.31.31,0,0,1,.34.34v.5a.29.29,0,0,1-.1.23.32.32,0,0,1-.24.09h-5.86A.3.3,0,0,1,150.85,201.91Z"/>
        <path class="cls-10" d="M160.46,201.64l-1.81-9,0-.16a.31.31,0,0,1,.28-.28h.69c.2,0,.31.08.34.24l1.44,7.31,1.55-5a.42.42,0,0,1,.44-.34h.49a.44.44,0,0,1,.44.34l1.54,5,1.45-7.31c0-.16.14-.24.35-.24h.67a.31.31,0,0,1,.28.28.78.78,0,0,1,0,.16l-1.82,9a.39.39,0,0,1-.43.36h-.5a.45.45,0,0,1-.47-.35l-1.73-5.39-1.75,5.39a.43.43,0,0,1-.45.35h-.52A.41.41,0,0,1,160.46,201.64Z"/>
        <path class="cls-10" d="M170.51,201.91a.31.31,0,0,1-.08-.23v-9.14a.34.34,0,0,1,.08-.25.29.29,0,0,1,.22-.09h3.42a3.81,3.81,0,0,1,2.5.75,2.68,2.68,0,0,1,.9,2.18,2.59,2.59,0,0,1-2,2.7l2.15,3.74a.34.34,0,0,1,0,.15.26.26,0,0,1-.08.2.24.24,0,0,1-.2.08h-.61a.54.54,0,0,1-.33-.09,1.09,1.09,0,0,1-.22-.28L174.23,198h-2.49v3.64a.32.32,0,0,1-.09.23.36.36,0,0,1-.24.09h-.68A.29.29,0,0,1,170.51,201.91Zm3.59-5c1.4,0,2.11-.59,2.11-1.78s-.71-1.77-2.11-1.77h-2.36v3.55Z"/>
      </g>
      <g>
        <path class="cls-8" d="M151.91,157.33a4.13,4.13,0,0,1-1-2.78c0-.25,0-.66,0-1.23s0-1,0-1.26a4.09,4.09,0,0,1,1-2.78,3.71,3.71,0,0,1,2.83-1,4.64,4.64,0,0,1,2.11.44,3.18,3.18,0,0,1,1.31,1.16,3.11,3.11,0,0,1,.49,1.52.24.24,0,0,1-.1.21.31.31,0,0,1-.21.07h-.7a.33.33,0,0,1-.23-.07.45.45,0,0,1-.12-.23,2.42,2.42,0,0,0-.86-1.52,3,3,0,0,0-1.69-.43c-1.62,0-2.47.91-2.53,2.72,0,.25,0,.64,0,1.16s0,.92,0,1.19c.06,1.8.91,2.7,2.53,2.7a2.91,2.91,0,0,0,1.68-.43,2.36,2.36,0,0,0,.87-1.5.54.54,0,0,1,.12-.24.33.33,0,0,1,.23-.07h.7a.32.32,0,0,1,.21.08.23.23,0,0,1,.1.2,3.14,3.14,0,0,1-1.8,2.68,4.51,4.51,0,0,1-2.11.44A3.75,3.75,0,0,1,151.91,157.33Z"/>
        <path class="cls-8" d="M160.63,158.11a.36.36,0,0,1-.08-.23v-9.14a.39.39,0,0,1,.08-.25.3.3,0,0,1,.23-.09h5.75a.31.31,0,0,1,.34.34v.5a.32.32,0,0,1-.09.23.39.39,0,0,1-.25.08h-4.77v3.12h4.46a.31.31,0,0,1,.34.34v.47a.34.34,0,0,1-.09.24.33.33,0,0,1-.25.09h-4.46V157h4.88a.31.31,0,0,1,.34.34v.5a.29.29,0,0,1-.1.23.32.32,0,0,1-.24.09h-5.86A.3.3,0,0,1,160.63,158.11Z"/>
        <path class="cls-8" d="M169.11,158.11a.32.32,0,0,1-.09-.23v-9.14a.39.39,0,0,1,.08-.25.32.32,0,0,1,.24-.09H170a.35.35,0,0,1,.35.21l3,5.73,3-5.73a.37.37,0,0,1,.34-.21h.66a.29.29,0,0,1,.23.09.35.35,0,0,1,.09.25v9.14a.31.31,0,0,1-.32.32h-.65a.28.28,0,0,1-.22-.09.32.32,0,0,1-.09-.23v-7L174,155.56a.47.47,0,0,1-.45.29h-.42a.51.51,0,0,1-.45-.29l-2.38-4.64v7a.32.32,0,0,1-.09.23.3.3,0,0,1-.23.09h-.63A.32.32,0,0,1,169.11,158.11Z"/>
      </g>
      <g>
        <path class="cls-9" d="M109.44,180a.31.31,0,0,1-.08-.23v-9.14a.34.34,0,0,1,.08-.25.29.29,0,0,1,.22-.09h3.55a3.77,3.77,0,0,1,2.48.76,3.19,3.19,0,0,1,0,4.44,3.77,3.77,0,0,1-2.48.75h-2.52v3.53a.33.33,0,0,1-.1.23.3.3,0,0,1-.23.09h-.7A.29.29,0,0,1,109.44,180Zm3.7-4.89c1.4,0,2.11-.61,2.11-1.84a1.77,1.77,0,0,0-.53-1.37,2.28,2.28,0,0,0-1.58-.47h-2.45v3.68Z"/>
        <path class="cls-9" d="M119,179.28a4,4,0,0,1-1-2.89c0-.28,0-.67,0-1.19s0-.9,0-1.17a4,4,0,0,1,1.08-2.89,3.88,3.88,0,0,1,2.78-1,3.84,3.84,0,0,1,2.77,1,4,4,0,0,1,1.08,2.89q0,.81,0,1.17c0,.24,0,.63,0,1.19a4.07,4.07,0,0,1-1,2.89,4.59,4.59,0,0,1-5.62,0Zm4.6-.88a3,3,0,0,0,.73-2.08c0-.56,0-.93,0-1.12s0-.58,0-1.12a3,3,0,0,0-.73-2.08,2.68,2.68,0,0,0-3.59,0,3,3,0,0,0-.72,2.08c0,.27,0,.65,0,1.12s0,.84,0,1.12a3,3,0,0,0,.71,2.08,2.44,2.44,0,0,0,1.81.68A2.41,2.41,0,0,0,123.62,178.4Z"/>
        <path class="cls-9" d="M127.86,180a.36.36,0,0,1-.08-.23v-9.14a.39.39,0,0,1,.08-.25.3.3,0,0,1,.23-.09h3.41a3.79,3.79,0,0,1,2.5.75,2.69,2.69,0,0,1,.91,2.18,2.61,2.61,0,0,1-2,2.7l2.16,3.74a.48.48,0,0,1,0,.15.27.27,0,0,1-.09.2.27.27,0,0,1-.19.08h-.62a.48.48,0,0,1-.33-.1.71.71,0,0,1-.21-.28l-2.06-3.58H129.1v3.64a.33.33,0,0,1-.1.23.36.36,0,0,1-.24.09h-.67A.3.3,0,0,1,127.86,180Zm3.59-5c1.41,0,2.11-.59,2.11-1.78s-.7-1.77-2.11-1.77H129.1V175Z"/>
        <path class="cls-9" d="M139,180a.32.32,0,0,1-.09-.23v-8.27h-2.7a.29.29,0,0,1-.23-.1.3.3,0,0,1-.09-.23v-.54a.35.35,0,0,1,.09-.25.32.32,0,0,1,.23-.09H143a.32.32,0,0,1,.24.09.39.39,0,0,1,.08.25v.54a.3.3,0,0,1-.09.23.29.29,0,0,1-.23.1h-2.69v8.27a.29.29,0,0,1-.1.23.32.32,0,0,1-.23.09h-.68A.32.32,0,0,1,139,180Z"/>
      </g>
    </g>
    <g id="Ind">
      <path class="cls-11" d="M175.74,45.8l11.49,19.9L175.74,85.6h-23L141.28,65.7l11.49-19.9h23m1.16-2H151.61L139,65.7l12.64,21.9H176.9l12.64-21.9L176.9,43.8Z"/>
      <path class="cls-12" d="M137.81,23.9,149.3,43.8,137.81,63.7h-23L103.34,43.8l11.49-19.9h23m1.16-2H113.68L101,43.8l12.65,21.9H139l12.64-21.9L139,21.9Z"/>
      <path class="cls-13" d="M175.74,2l11.49,19.9L175.74,41.8h-23L141.28,21.9,152.77,2h23m1.16-2H151.61L139,21.9l12.64,21.9H176.9l12.64-21.9L176.9,0Z"/>
      <g>
        <path class="cls-13" d="M157.55,26.71a.32.32,0,0,1-.09-.23V17.32a.32.32,0,0,1,.09-.23.28.28,0,0,1,.22-.09h.7a.31.31,0,0,1,.24.09.28.28,0,0,1,.08.23v9.16a.32.32,0,0,1-.09.23.3.3,0,0,1-.23.09h-.7A.28.28,0,0,1,157.55,26.71Z"/>
        <path class="cls-13" d="M161,23.08a.3.3,0,0,1-.09-.23v-.5a.31.31,0,0,1,.32-.32h4.2a.3.3,0,0,1,.23.09.32.32,0,0,1,.09.23v.5a.3.3,0,0,1-.09.23.34.34,0,0,1-.23.08h-4.2A.36.36,0,0,1,161,23.08Z"/>
        <path class="cls-13" d="M169.81,26.71a.36.36,0,0,1-.08-.23v-7.9l-2.35,1.81a.31.31,0,0,1-.21.08.28.28,0,0,1-.24-.14l-.34-.43a.4.4,0,0,1-.07-.2.31.31,0,0,1,.14-.25l3-2.35a.61.61,0,0,1,.36-.1h.66a.3.3,0,0,1,.23.09.32.32,0,0,1,.09.23v9.16a.32.32,0,0,1-.09.23.3.3,0,0,1-.23.09H170A.3.3,0,0,1,169.81,26.71Z"/>
      </g>
      <g>
        <path class="cls-12" d="M118.34,48.69a.36.36,0,0,1-.08-.23V39.3a.36.36,0,0,1,.08-.23.3.3,0,0,1,.23-.09h.7a.32.32,0,0,1,.23.08.32.32,0,0,1,.09.24v9.16a.31.31,0,0,1-.32.32h-.7A.3.3,0,0,1,118.34,48.69Z"/>
        <path class="cls-12" d="M121.76,45.05a.28.28,0,0,1-.09-.22v-.5a.3.3,0,0,1,.09-.23A.3.3,0,0,1,122,44h4.2a.29.29,0,0,1,.23.1.3.3,0,0,1,.09.23v.5a.28.28,0,0,1-.09.22.32.32,0,0,1-.23.09H122A.32.32,0,0,1,121.76,45.05Z"/>
        <path class="cls-12" d="M127.7,48.69a.32.32,0,0,1-.09-.23V48a.84.84,0,0,1,.35-.62l3-3a8.91,8.91,0,0,0,1.43-1.44,2,2,0,0,0,.39-1.19,1.74,1.74,0,0,0-.46-1.29,2.1,2.1,0,0,0-2.67,0,2.21,2.21,0,0,0-.61,1.31A.32.32,0,0,1,129,42a.33.33,0,0,1-.22.08h-.67a.25.25,0,0,1-.21-.08.27.27,0,0,1-.09-.2,3.38,3.38,0,0,1,.4-1.43,3,3,0,0,1,1.1-1.13,3.33,3.33,0,0,1,1.77-.45,3.13,3.13,0,0,1,2.35.82,2.88,2.88,0,0,1,.8,2.08,3.05,3.05,0,0,1-.43,1.59,6.53,6.53,0,0,1-1.34,1.49l-2.76,2.8h4.41a.3.3,0,0,1,.24.09.29.29,0,0,1,.09.23v.54a.32.32,0,0,1-.09.23.34.34,0,0,1-.24.09h-6.13A.32.32,0,0,1,127.7,48.69Z"/>
      </g>
      <g>
        <path class="cls-11" d="M156,70.44a.31.31,0,0,1-.08-.23V61.05a.31.31,0,0,1,.08-.23.29.29,0,0,1,.22-.09h.7a.3.3,0,0,1,.24.09.28.28,0,0,1,.08.23v9.16a.32.32,0,0,1-.09.23.3.3,0,0,1-.23.09h-.7A.29.29,0,0,1,156,70.44Z"/>
        <path class="cls-11" d="M159.45,66.81a.3.3,0,0,1-.09-.23v-.5a.31.31,0,0,1,.32-.32h4.2a.3.3,0,0,1,.23.09.32.32,0,0,1,.09.23v.5a.3.3,0,0,1-.09.23.34.34,0,0,1-.23.08h-4.2A.36.36,0,0,1,159.45,66.81Z"/>
        <path class="cls-11" d="M167.12,70.32a2.86,2.86,0,0,1-1.21-.94,2.06,2.06,0,0,1-.44-1.19.24.24,0,0,1,.08-.2.32.32,0,0,1,.21-.08h.63a.46.46,0,0,1,.25.07.41.41,0,0,1,.16.24,1.44,1.44,0,0,0,.79,1,3.18,3.18,0,0,0,1.43.29,2.46,2.46,0,0,0,1.6-.48,1.66,1.66,0,0,0,.6-1.38c0-1.14-.7-1.71-2.09-1.71h-1.31a.31.31,0,0,1-.32-.32v-.36a.53.53,0,0,1,.15-.37l2.73-3h-4.14a.36.36,0,0,1-.24-.08.3.3,0,0,1-.09-.23v-.5a.35.35,0,0,1,.09-.25.32.32,0,0,1,.24-.09h5.54a.32.32,0,0,1,.24.09.32.32,0,0,1,.1.25v.46a.53.53,0,0,1-.14.32l-2.73,3.07h.22a3.56,3.56,0,0,1,2.26.74,2.51,2.51,0,0,1,.83,2,2.75,2.75,0,0,1-.45,1.59,2.89,2.89,0,0,1-1.27,1,4.63,4.63,0,0,1-1.83.35A4.72,4.72,0,0,1,167.12,70.32Z"/>
      </g>
    </g>
    <g id="Comm">
      <path class="cls-14" d="M36.78,133.4l11.49,19.9L36.78,173.2h-23L2.31,153.3,13.8,133.4h23m1.15-2H12.64L0,153.3l12.64,21.9H37.93l12.65-21.9L37.93,131.4Z"/>
      <path class="cls-15" d="M74.71,155.3,86.2,175.2,74.71,195.1h-23L40.24,175.2l11.49-19.9h23m1.16-2H50.58L37.93,175.2l12.65,21.9H75.87l12.64-21.9L75.87,153.3Z"/>
      <path class="cls-16" d="M36.78,177.2l11.49,19.9L36.78,217h-23L2.31,197.1,13.8,177.2h23m1.15-2H12.64L0,197.1,12.64,219H37.93l12.65-21.9L37.93,175.2Z"/>
      <g>
        <path class="cls-16" d="M15.12,201.13a4.13,4.13,0,0,1-1-2.78c0-.25,0-.66,0-1.23s0-1,0-1.26a4.09,4.09,0,0,1,1-2.78,3.73,3.73,0,0,1,2.83-1,4.71,4.71,0,0,1,2.12.44,3.24,3.24,0,0,1,1.31,1.16,3.2,3.2,0,0,1,.48,1.52.26.26,0,0,1-.09.21.34.34,0,0,1-.22.07h-.7a.36.36,0,0,1-.22-.06.46.46,0,0,1-.13-.24,2.37,2.37,0,0,0-.86-1.51,2.92,2.92,0,0,0-1.69-.44c-1.62,0-2.47.91-2.53,2.72,0,.25,0,.64,0,1.16s0,.92,0,1.19c.06,1.8.91,2.7,2.53,2.7a2.91,2.91,0,0,0,1.68-.43,2.36,2.36,0,0,0,.87-1.5.46.46,0,0,1,.13-.24.31.31,0,0,1,.22-.07h.7a.35.35,0,0,1,.22.08.25.25,0,0,1,.09.2,3.27,3.27,0,0,1-.48,1.53,3.22,3.22,0,0,1-1.31,1.15,4.58,4.58,0,0,1-2.12.44A3.76,3.76,0,0,1,15.12,201.13Z"/>
        <path class="cls-16" d="M23.41,198.28a.28.28,0,0,1-.1-.23v-.5a.29.29,0,0,1,.1-.23.3.3,0,0,1,.23-.09h4.2a.31.31,0,0,1,.32.32v.5a.3.3,0,0,1-.09.23.36.36,0,0,1-.23.08h-4.2A.34.34,0,0,1,23.41,198.28Z"/>
        <path class="cls-16" d="M31.07,201.79a2.92,2.92,0,0,1-1.21-.94,2.13,2.13,0,0,1-.44-1.19.28.28,0,0,1,.08-.2.32.32,0,0,1,.21-.08h.63a.5.5,0,0,1,.26.07.45.45,0,0,1,.15.24,1.44,1.44,0,0,0,.79,1A3.22,3.22,0,0,0,33,201a2.48,2.48,0,0,0,1.6-.49,1.69,1.69,0,0,0,.59-1.38c0-1.14-.69-1.71-2.08-1.71H31.77a.32.32,0,0,1-.23-.09.3.3,0,0,1-.09-.23v-.36a.53.53,0,0,1,.15-.37l2.73-3H30.19a.36.36,0,0,1-.23-.08.3.3,0,0,1-.09-.23v-.5a.35.35,0,0,1,.09-.25.32.32,0,0,1,.23-.09h5.54a.33.33,0,0,1,.25.09.35.35,0,0,1,.09.25V193a.53.53,0,0,1-.14.32l-2.73,3.07h.22a3.56,3.56,0,0,1,2.26.74,2.51,2.51,0,0,1,.84,2,2.69,2.69,0,0,1-.46,1.59,2.84,2.84,0,0,1-1.27,1,4.63,4.63,0,0,1-1.83.35A4.72,4.72,0,0,1,31.07,201.79Z"/>
      </g>
      <g>
        <path class="cls-15" d="M53.3,178.93a4.13,4.13,0,0,1-1-2.78c0-.25,0-.66,0-1.24s0-1,0-1.26a4.09,4.09,0,0,1,1-2.77,3.73,3.73,0,0,1,2.83-1,4.64,4.64,0,0,1,2.11.44,3.18,3.18,0,0,1,1.31,1.16A3.11,3.11,0,0,1,60,173a.26.26,0,0,1-.09.21.34.34,0,0,1-.22.07H59a.31.31,0,0,1-.22-.07.39.39,0,0,1-.13-.23,2.42,2.42,0,0,0-.86-1.52,2.92,2.92,0,0,0-1.69-.43c-1.62,0-2.47.9-2.53,2.72,0,.25,0,.63,0,1.16s0,.92,0,1.19c.06,1.8.91,2.7,2.53,2.7a2.91,2.91,0,0,0,1.68-.43,2.36,2.36,0,0,0,.87-1.5.46.46,0,0,1,.13-.24.31.31,0,0,1,.22-.07h.7a.35.35,0,0,1,.22.08.25.25,0,0,1,.09.2,3.14,3.14,0,0,1-1.8,2.68,4.64,4.64,0,0,1-2.11.44A3.76,3.76,0,0,1,53.3,178.93Z"/>
        <path class="cls-15" d="M61.58,176.08a.3.3,0,0,1-.09-.23v-.5a.32.32,0,0,1,.09-.23.32.32,0,0,1,.24-.09H66a.31.31,0,0,1,.32.32v.5a.3.3,0,0,1-.09.23.36.36,0,0,1-.23.08h-4.2A.36.36,0,0,1,61.58,176.08Z"/>
        <path class="cls-15" d="M67.52,179.71a.32.32,0,0,1-.09-.23v-.42a.84.84,0,0,1,.35-.62l3-3A8.17,8.17,0,0,0,72.26,174a2,2,0,0,0,.39-1.19,1.74,1.74,0,0,0-.46-1.29,1.83,1.83,0,0,0-1.35-.47,1.75,1.75,0,0,0-1.32.49,2.23,2.23,0,0,0-.61,1.32.33.33,0,0,1-.14.23.35.35,0,0,1-.22.09h-.67a.26.26,0,0,1-.21-.09.25.25,0,0,1-.09-.19,3.25,3.25,0,0,1,.4-1.44,3,3,0,0,1,1.1-1.13,3.29,3.29,0,0,1,1.76-.44,3.1,3.1,0,0,1,2.36.82,2.83,2.83,0,0,1,.79,2.07,3,3,0,0,1-.42,1.59,6.33,6.33,0,0,1-1.34,1.49l-2.76,2.81h4.41a.29.29,0,0,1,.24.08.31.31,0,0,1,.08.24v.53a.32.32,0,0,1-.09.23.3.3,0,0,1-.23.09H67.75A.32.32,0,0,1,67.52,179.71Z"/>
      </g>
      <g>
        <path class="cls-14" d="M16.64,157.33a4.13,4.13,0,0,1-1.05-2.78c0-.25,0-.66,0-1.23s0-1,0-1.26a4.09,4.09,0,0,1,1.05-2.78,3.73,3.73,0,0,1,2.83-1,4.71,4.71,0,0,1,2.12.44,3.31,3.31,0,0,1,1.31,1.16,3.2,3.2,0,0,1,.48,1.52.26.26,0,0,1-.09.21.34.34,0,0,1-.22.07h-.7a.31.31,0,0,1-.22-.07.39.39,0,0,1-.13-.23,2.42,2.42,0,0,0-.86-1.52,3,3,0,0,0-1.69-.43c-1.62,0-2.47.91-2.53,2.72,0,.25,0,.64,0,1.16s0,.92,0,1.19c.06,1.8.91,2.7,2.53,2.7a2.91,2.91,0,0,0,1.68-.43,2.36,2.36,0,0,0,.87-1.5.46.46,0,0,1,.13-.24.31.31,0,0,1,.22-.07h.7a.35.35,0,0,1,.22.08.25.25,0,0,1,.09.2,3.1,3.1,0,0,1-1.79,2.68,4.58,4.58,0,0,1-2.12.44A3.76,3.76,0,0,1,16.64,157.33Z"/>
        <path class="cls-14" d="M24.92,154.48a.3.3,0,0,1-.09-.23v-.5a.32.32,0,0,1,.09-.23.34.34,0,0,1,.24-.09h4.2a.31.31,0,0,1,.32.32v.5a.3.3,0,0,1-.09.23.36.36,0,0,1-.23.08h-4.2A.38.38,0,0,1,24.92,154.48Z"/>
        <path class="cls-14" d="M33.77,158.11a.32.32,0,0,1-.09-.23V150l-2.35,1.81a.29.29,0,0,1-.45-.06l-.33-.43a.31.31,0,0,1-.07-.2.29.29,0,0,1,.14-.25l3-2.35a.66.66,0,0,1,.37-.1h.66a.31.31,0,0,1,.32.32v9.16a.31.31,0,0,1-.32.32H34A.28.28,0,0,1,33.77,158.11Z"/>
      </g>
    </g>
    <g id="Res-2" data-name="Res">
      <path class="cls-17" d="M36.78,2,48.27,21.9,36.78,41.8h-23L2.31,21.9,13.8,2h23m1.15-2H12.64L0,21.9,12.64,43.8H37.93L50.58,21.9,37.93,0Z"/>
      <g>
        <path class="cls-17" d="M16,26.71a.36.36,0,0,1-.08-.23V17.34a.37.37,0,0,1,.08-.25.3.3,0,0,1,.23-.09h3.41a3.79,3.79,0,0,1,2.5.75,2.67,2.67,0,0,1,.9,2.18,2.74,2.74,0,0,1-.53,1.75,2.79,2.79,0,0,1-1.48.95l2.15,3.74a.3.3,0,0,1,0,.15.27.27,0,0,1-.09.2.27.27,0,0,1-.19.08h-.62a.48.48,0,0,1-.33-.1.79.79,0,0,1-.21-.28l-2.06-3.58h-2.5v3.64a.32.32,0,0,1-.09.23.36.36,0,0,1-.24.09h-.67A.3.3,0,0,1,16,26.71Zm3.59-5c1.41,0,2.11-.59,2.11-1.78s-.7-1.78-2.11-1.78H17.22v3.56Z"/>
        <path class="cls-17" d="M24.6,23.08a.28.28,0,0,1-.1-.23v-.5a.28.28,0,0,1,.1-.23.3.3,0,0,1,.23-.09H29a.32.32,0,0,1,.23.09.3.3,0,0,1,.09.23v.5a.3.3,0,0,1-.09.23.36.36,0,0,1-.23.08h-4.2A.34.34,0,0,1,24.6,23.08Z"/>
        <path class="cls-17" d="M33.44,26.71a.32.32,0,0,1-.09-.23v-7.9L31,20.39a.32.32,0,0,1-.21.08.31.31,0,0,1-.24-.14l-.33-.43a.32.32,0,0,1-.07-.2.29.29,0,0,1,.14-.25l3-2.35a.66.66,0,0,1,.37-.1h.66a.31.31,0,0,1,.32.32v9.16a.31.31,0,0,1-.32.32h-.69A.28.28,0,0,1,33.44,26.71Z"/>
      </g>
      <path class="cls-18" d="M74.71,23.9,86.2,43.8,74.71,63.7h-23L40.24,43.8,51.73,23.9h23m1.16-2H50.58L37.93,43.8,50.58,65.7H75.87L88.51,43.8,75.87,21.9Z"/>
      <g>
        <path class="cls-18" d="M52.81,48.61a.34.34,0,0,1-.08-.23v-9a.36.36,0,0,1,.08-.24.3.3,0,0,1,.23-.09H56.4a3.74,3.74,0,0,1,2.46.74,2.63,2.63,0,0,1,.89,2.14,2.74,2.74,0,0,1-.53,1.73,2.62,2.62,0,0,1-1.46.93l2.13,3.68a.53.53,0,0,1,0,.16.26.26,0,0,1-.09.19.27.27,0,0,1-.19.08h-.6a.48.48,0,0,1-.33-.1.75.75,0,0,1-.21-.27l-2-3.53H54v3.58a.28.28,0,0,1-.1.23.32.32,0,0,1-.23.09H53A.3.3,0,0,1,52.81,48.61Zm3.53-4.94c1.39,0,2.08-.58,2.08-1.75s-.69-1.75-2.08-1.75H54v3.5Z"/>
        <path class="cls-18" d="M61.28,45a.29.29,0,0,1-.08-.22v-.49a.36.36,0,0,1,.08-.23.32.32,0,0,1,.23-.09h4.14a.28.28,0,0,1,.22.09.32.32,0,0,1,.09.23v.49a.27.27,0,0,1-.09.22.28.28,0,0,1-.22.09H61.51A.32.32,0,0,1,61.28,45Z"/>
        <path class="cls-18" d="M67.13,48.61a.3.3,0,0,1-.09-.23V48a.82.82,0,0,1,.34-.61l3-3A8.14,8.14,0,0,0,71.79,43a2,2,0,0,0,.39-1.17,1.74,1.74,0,0,0-.45-1.27,2.09,2.09,0,0,0-2.64,0,2.16,2.16,0,0,0-.59,1.29.38.38,0,0,1-.36.32h-.66a.32.32,0,0,1-.21-.08.3.3,0,0,1-.08-.2,3.32,3.32,0,0,1,.39-1.41,2.9,2.9,0,0,1,1.09-1.11,3.24,3.24,0,0,1,1.73-.44,3.1,3.1,0,0,1,2.33.81,2.86,2.86,0,0,1,.77,2,3,3,0,0,1-.42,1.57,6.72,6.72,0,0,1-1.31,1.47l-2.72,2.75h4.34a.31.31,0,0,1,.24.09.32.32,0,0,1,.08.23v.52a.31.31,0,0,1-.32.32h-6A.3.3,0,0,1,67.13,48.61Z"/>
      </g>
      <path class="cls-19" d="M36.78,45.8,48.27,65.7,36.78,85.6h-23L2.31,65.7,13.8,45.8h23m1.15-2H12.64L0,65.7,12.64,87.6H37.93L50.58,65.7,37.93,43.8Z"/>
      <g>
        <path class="cls-19" d="M14.63,70.37a.29.29,0,0,1-.09-.22v-9a.32.32,0,0,1,.09-.24.28.28,0,0,1,.22-.09h3.37a3.76,3.76,0,0,1,2.46.74,2.64,2.64,0,0,1,.89,2.15A2.71,2.71,0,0,1,21,65.41a2.67,2.67,0,0,1-1.46.94L21.71,70a.42.42,0,0,1,0,.15.27.27,0,0,1-.08.19.26.26,0,0,1-.2.08h-.6a.54.54,0,0,1-.33-.09.89.89,0,0,1-.21-.28l-2-3.53H15.84v3.59a.27.27,0,0,1-.1.22.32.32,0,0,1-.23.09h-.66A.28.28,0,0,1,14.63,70.37Zm3.53-4.94c1.39,0,2.08-.59,2.08-1.76s-.69-1.75-2.08-1.75H15.84v3.51Z"/>
        <path class="cls-19" d="M23.11,66.79a.28.28,0,0,1-.09-.22v-.5a.29.29,0,0,1,.09-.22.3.3,0,0,1,.23-.09h4.14a.31.31,0,0,1,.31.31v.5a.28.28,0,0,1-.09.22.29.29,0,0,1-.22.09H23.34A.3.3,0,0,1,23.11,66.79Z"/>
        <path class="cls-19" d="M30.66,70.25a2.82,2.82,0,0,1-1.19-.92A2.08,2.08,0,0,1,29,68.16a.24.24,0,0,1,.08-.2.29.29,0,0,1,.21-.08H30a.41.41,0,0,1,.25.07.45.45,0,0,1,.15.24,1.42,1.42,0,0,0,.78,1,3.25,3.25,0,0,0,1.41.29A2.42,2.42,0,0,0,34.12,69a1.65,1.65,0,0,0,.59-1.36c0-1.12-.69-1.68-2.06-1.68h-1.3a.29.29,0,0,1-.22-.09.3.3,0,0,1-.09-.23v-.36a.49.49,0,0,1,.15-.35l2.69-3H29.8a.3.3,0,0,1-.23-.08.28.28,0,0,1-.09-.22v-.5a.32.32,0,0,1,.09-.24.3.3,0,0,1,.23-.09h5.46a.31.31,0,0,1,.33.33v.46a.48.48,0,0,1-.14.32l-2.69,3H33a3.52,3.52,0,0,1,2.23.73,2.48,2.48,0,0,1,.82,2,2.75,2.75,0,0,1-.44,1.56,2.85,2.85,0,0,1-1.25,1,4.56,4.56,0,0,1-1.81.35A4.66,4.66,0,0,1,30.66,70.25Z"/>
      </g>
      <path class="cls-20" d="M74.71,67.7,86.2,87.6,74.71,107.5h-23L40.24,87.6,51.73,67.7h23m1.16-2H50.58L37.93,87.6l12.65,21.9H75.87L88.51,87.6,75.87,65.7Z"/>
      <g>
        <path class="cls-20" d="M52,92.41a.32.32,0,0,1-.09-.23V83a.37.37,0,0,1,.09-.25.28.28,0,0,1,.22-.09h3.42a3.82,3.82,0,0,1,2.5.75,2.68,2.68,0,0,1,.9,2.18,2.8,2.8,0,0,1-.53,1.75,2.76,2.76,0,0,1-1.49,1l2.16,3.74a.34.34,0,0,1,0,.15.3.3,0,0,1-.08.2.26.26,0,0,1-.2.08h-.61a.54.54,0,0,1-.33-.09,1.09,1.09,0,0,1-.22-.28l-2.06-3.59H53.24v3.64a.29.29,0,0,1-.1.23.32.32,0,0,1-.24.09h-.67A.28.28,0,0,1,52,92.41Zm3.58-5c1.41,0,2.12-.59,2.12-1.77s-.71-1.78-2.12-1.78H53.24v3.55Z"/>
        <path class="cls-20" d="M60.61,88.78a.29.29,0,0,1-.09-.22v-.51a.31.31,0,0,1,.32-.32H65a.31.31,0,0,1,.32.32v.51a.29.29,0,0,1-.09.22.31.31,0,0,1-.23.08h-4.2A.31.31,0,0,1,60.61,88.78Z"/>
        <path class="cls-20" d="M71.73,92.41a.32.32,0,0,1-.09-.23v-2H67.09a.34.34,0,0,1-.24-.09.32.32,0,0,1-.09-.23V89.3a.79.79,0,0,1,.16-.42l4.21-5.94a.51.51,0,0,1,.21-.17.64.64,0,0,1,.31-.07h.95a.32.32,0,0,1,.24.09.29.29,0,0,1,.08.24V89H74.2a.31.31,0,0,1,.32.32v.54a.31.31,0,0,1-.32.32H72.92v2a.31.31,0,0,1-.32.32H72A.3.3,0,0,1,71.73,92.41ZM68.22,89h3.43V84.12Z"/>
      </g>
      <path class="cls-21" d="M36.78,89.6l11.49,19.9L36.78,129.4h-23L2.31,109.5,13.8,89.6h23m1.15-2H12.64L0,109.5l12.64,21.9H37.93l12.65-21.9L37.93,87.6Z"/>
      <g>
        <path class="cls-21" d="M14.57,114.18a.36.36,0,0,1-.08-.23v-9a.36.36,0,0,1,.08-.24.29.29,0,0,1,.22-.09h3.37a3.74,3.74,0,0,1,2.46.74,2.61,2.61,0,0,1,.89,2.15,2.56,2.56,0,0,1-2,2.66l2.12,3.69a.28.28,0,0,1,0,.15.24.24,0,0,1-.08.19.26.26,0,0,1-.19.09h-.61a.49.49,0,0,1-.32-.1,1.09,1.09,0,0,1-.22-.28l-2-3.53H15.79V114a.33.33,0,0,1-.1.23.34.34,0,0,1-.24.09h-.66A.29.29,0,0,1,14.57,114.18Zm3.53-5c1.39,0,2.09-.59,2.09-1.76s-.7-1.75-2.09-1.75H15.79v3.51Z"/>
        <path class="cls-21" d="M23.05,110.59a.28.28,0,0,1-.09-.22v-.49a.3.3,0,0,1,.09-.23.32.32,0,0,1,.23-.09h4.14a.32.32,0,0,1,.23.09.3.3,0,0,1,.09.23v.49a.28.28,0,0,1-.09.22.32.32,0,0,1-.23.09H23.28A.32.32,0,0,1,23.05,110.59Z"/>
        <path class="cls-21" d="M30.79,114a2.88,2.88,0,0,1-1.16-1,2.45,2.45,0,0,1-.43-1.29v0a.25.25,0,0,1,.08-.18.29.29,0,0,1,.2-.07h.67a.37.37,0,0,1,.38.3,1.86,1.86,0,0,0,.76,1.12,2.36,2.36,0,0,0,1.29.36,2.21,2.21,0,0,0,1.56-.57,2,2,0,0,0,.62-1.58,1.83,1.83,0,0,0-.62-1.47,2.24,2.24,0,0,0-1.56-.55,2,2,0,0,0-.8.13,2.68,2.68,0,0,0-.62.36l-.29.2a.58.58,0,0,1-.26.06H30a.29.29,0,0,1-.22-.09.23.23,0,0,1-.09-.21l.43-4.6c0-.23.14-.35.35-.35h4.77a.32.32,0,0,1,.24.09.32.32,0,0,1,.08.23v.51a.28.28,0,0,1-.09.22.32.32,0,0,1-.23.09h-4L31,108.51a3,3,0,0,1,1.78-.47,3.7,3.7,0,0,1,1.68.37,2.85,2.85,0,0,1,1.21,1.07,3,3,0,0,1,.45,1.67,3.34,3.34,0,0,1-.45,1.76A2.84,2.84,0,0,1,34.4,114a4.09,4.09,0,0,1-1.82.38A4,4,0,0,1,30.79,114Z"/>
      </g>
      <path class="cls-22" d="M74.71,111.5,86.2,131.4,74.71,151.3h-23L40.24,131.4l11.49-19.9h23m1.16-2H50.58L37.93,131.4l12.65,21.9H75.87l12.64-21.9L75.87,109.5Z"/>
      <g>
        <path class="cls-22" d="M52.32,136.08a.32.32,0,0,1-.09-.23v-9a.33.33,0,0,1,.09-.25.28.28,0,0,1,.22-.09h3.37a3.74,3.74,0,0,1,2.46.74,2.66,2.66,0,0,1,.89,2.15,2.71,2.71,0,0,1-.52,1.72,2.64,2.64,0,0,1-1.47.94l2.13,3.69a.28.28,0,0,1,0,.15.27.27,0,0,1-.08.19.27.27,0,0,1-.2.09h-.6a.54.54,0,0,1-.33-.1.79.79,0,0,1-.21-.28l-2-3.53H53.53v3.59a.32.32,0,0,1-.09.23.36.36,0,0,1-.24.09h-.66A.28.28,0,0,1,52.32,136.08Zm3.53-5c1.39,0,2.09-.59,2.09-1.75s-.7-1.76-2.09-1.76H53.53v3.51Z"/>
        <path class="cls-22" d="M60.8,132.49a.27.27,0,0,1-.09-.22v-.49a.31.31,0,0,1,.32-.32h4.14a.31.31,0,0,1,.32.32v.49a.27.27,0,0,1-.09.22.32.32,0,0,1-.23.09H61A.32.32,0,0,1,60.8,132.49Z"/>
        <path class="cls-22" d="M68.76,135.86a3.15,3.15,0,0,1-1.22-1.21,3.29,3.29,0,0,1-.43-1.66,4.46,4.46,0,0,1,1-2.54l2.63-3.67.08-.1a.53.53,0,0,1,.16-.13.51.51,0,0,1,.22,0h.67a.24.24,0,0,1,.2.09.3.3,0,0,1,.08.22A.38.38,0,0,1,72,127l-2,2.81a3.87,3.87,0,0,1,.8-.08,3.43,3.43,0,0,1,1.77.45,3.16,3.16,0,0,1,1.19,1.19,3.21,3.21,0,0,1,.42,1.62,3.37,3.37,0,0,1-.42,1.65,3.11,3.11,0,0,1-1.22,1.22,3.83,3.83,0,0,1-1.89.45A4,4,0,0,1,68.76,135.86Zm3-1a1.93,1.93,0,0,0,.81-.74A2.12,2.12,0,0,0,72.9,133a2.16,2.16,0,0,0-.31-1.16,2,2,0,0,0-.82-.75,2.48,2.48,0,0,0-1.11-.26,2.44,2.44,0,0,0-1.1.26,2,2,0,0,0-.82.75,2.15,2.15,0,0,0-.3,1.16,2.2,2.2,0,0,0,.3,1.18,2,2,0,0,0,.82.74,2.43,2.43,0,0,0,1.1.25A2.46,2.46,0,0,0,71.78,134.91Z"/>
      </g>
    </g>
  </g>
</svg>
