<svg xmlns="http://www.w3.org/2000/svg" viewBox="0 0 250 300"><defs><style>.cls-1{fill:#fff;}.cls-2{fill:#0d47a1;}.cls-3{fill:#ffe471;}.cls-4{fill:#ffebc5;}.cls-5{fill:#e5cb7d;}</style></defs><title>NwkEhd_Divs_web</title><g id="Property_Management" data-name="Property Management"><rect class="cls-1" x="-25" y="25" width="300" height="250" rx="21.33352" transform="translate(275 25) rotate(90)"/><rect class="cls-2" y="8.04416" width="250" height="283.91167" rx="18.55089"/><path class="cls-1" d="M25.69926,117.2002A2.788,2.788,0,0,1,25,115.2998V50.7002a2.79146,2.79146,0,0,1,.69926-1.9004A2.13722,2.13722,0,0,1,27.36024,48H41.172a3.7609,3.7609,0,0,1,3.58349,2.2998L59.52813,78V50.7002a2.79147,2.79147,0,0,1,.69927-1.9004A2.1372,2.1372,0,0,1,61.88837,48H77.71078a2.14254,2.14254,0,0,1,1.661.7998,2.80021,2.80021,0,0,1,.69927,1.9004v64.5996a2.7967,2.7967,0,0,1-.69927,1.9004,2.13945,2.13945,0,0,1-1.661.7998H63.899a3.30824,3.30824,0,0,1-2.27215-.7002,6.513,6.513,0,0,1-1.31134-1.5996L45.542,90.2002v25.0996a2.79235,2.79235,0,0,1-.69926,1.9004A2.13636,2.13636,0,0,1,43.18264,118H27.36024A2.13415,2.13415,0,0,1,25.69926,117.2002Z"/><path class="cls-1" d="M97.77144,116.84961a4.518,4.518,0,0,1-1.26775-2.64941L88.46126,50.5v-.2998a2.27623,2.27623,0,0,1,.56849-1.55079A1.74393,1.74393,0,0,1,90.38469,48H106.6439a3.66562,3.66562,0,0,1,2.31574.59961,2.79165,2.79165,0,0,1,.83094,2.10059l2.97232,28.19921,3.5835-12.5q.87317-2.89891,2.97232-2.89941h8.916q2.09779,0,2.97232,2.89941l3.58349,12.40039,2.97232-28.0996a2.78143,2.78143,0,0,1,.83-2.10059A3.66679,3.66679,0,0,1,140.90959,48H157.1688a1.74793,1.74793,0,0,1,1.35494.64941,2.28425,2.28425,0,0,1,.56758,1.55079V50.5l-8.04152,63.7002a4.53415,4.53415,0,0,1-1.26775,2.64941A3.63717,3.63717,0,0,1,147.02859,118H134.52813a3.10587,3.10587,0,0,1-2.40382-.90039,5.754,5.754,0,0,1-1.17967-1.79981l-7.1679-20.5-7.16789,20.5a5.80677,5.80677,0,0,1-1.18057,1.79981A3.10724,3.10724,0,0,1,113.02445,118H100.5249A3.63167,3.63167,0,0,1,97.77144,116.84961Z"/><path class="cls-1" d="M168.18083,117.2002a2.788,2.788,0,0,1-.69927-1.9004V50.7002a2.79147,2.79147,0,0,1,.69927-1.9004A2.1372,2.1372,0,0,1,169.8418,48h16.696a2.13988,2.13988,0,0,1,1.661.7998,2.79585,2.79585,0,0,1,.69926,1.9004V70.5l9.87777-20.2998A3.59989,3.59989,0,0,1,202.27215,48h19.31872a1.74793,1.74793,0,0,1,1.35493.64941,2.28421,2.28421,0,0,1,.56759,1.55079,2.32587,2.32587,0,0,1-.26245,1.0996L207.51753,81.5l17.22,33.2002A1.99451,1.99451,0,0,1,225,115.7998a2.28079,2.28079,0,0,1-.56849,1.54981A1.74147,1.74147,0,0,1,223.07657,118H203.14668a3.50015,3.50015,0,0,1-2.36024-.75,4.42165,4.42165,0,0,1-1.22416-1.5498L188.89807,93.89941V115.2998a2.79235,2.79235,0,0,1-.69926,1.9004,2.1368,2.1368,0,0,1-1.661.7998h-16.696A2.13413,2.13413,0,0,1,168.18083,117.2002Z"/><rect class="cls-1" x="25" y="148" width="200" height="4" rx="0.58161"/><path class="cls-3" d="M52.85547,257.2002a2.67615,2.67615,0,0,1-.75195-1.9004V190.7002a2.67943,2.67943,0,0,1,.75195-1.9004A2.36845,2.36845,0,0,1,54.6416,188H83.12305q13.16014,0,20.72754,6.2002,7.56444,6.20067,7.5664,18.2998,0,12-7.51953,17.84961-7.522,5.85058-20.77441,5.85059H76.543v19.0996a2.68032,2.68032,0,0,1-.75195,1.9004A2.368,2.368,0,0,1,74.00488,258H54.6416A2.365,2.365,0,0,1,52.85547,257.2002Zm29.79785-39.5a4.09214,4.09214,0,0,0,3.00781-1.35059,5.58926,5.58926,0,0,0,1.31641-4.04981,7.5581,7.5581,0,0,0-1.03418-4,3.56714,3.56714,0,0,0-3.29-1.70019H76.07324V217.7002Z"/><path class="cls-3" d="M128.52441,257.2002a2.67615,2.67615,0,0,1-.75195-1.9004V190.7002a2.67943,2.67943,0,0,1,.75195-1.9004A2.36847,2.36847,0,0,1,130.31055,188h14.85156a4.39669,4.39669,0,0,1,4.042,2.7002l13.62988,24,13.62989-24a4.3967,4.3967,0,0,1,4.042-2.7002H195.3584a2.37446,2.37446,0,0,1,1.78613.7998,2.68358,2.68358,0,0,1,.75195,1.9004v64.5996a2.68028,2.68028,0,0,1-.75195,1.9004A2.371,2.371,0,0,1,195.3584,258H178.34473a2.365,2.365,0,0,1-1.78614-.7998,2.672,2.672,0,0,1-.752-1.9004V227.89941l-6.2041,10.80079a7.465,7.465,0,0,1-1.457,1.7998,2.959,2.959,0,0,1-2.02149.7002H159.544a2.95124,2.95124,0,0,1-2.02051-.7002,7.37343,7.37343,0,0,1-1.457-1.7998l-6.20411-10.80079V255.2998a2.68028,2.68028,0,0,1-.75195,1.9004,2.36951,2.36951,0,0,1-1.78613.7998H130.31055A2.365,2.365,0,0,1,128.52441,257.2002Z"/><path class="cls-4" d="M52.85547,257.2002a2.67615,2.67615,0,0,1-.75195-1.9004V190.7002a2.67943,2.67943,0,0,1,.75195-1.9004A2.36845,2.36845,0,0,1,54.6416,188H83.12305q13.16014,0,20.72754,6.2002,7.56444,6.20067,7.5664,18.2998,0,12-7.51953,17.84961-7.522,5.85058-20.77441,5.85059H76.543v19.0996a2.68032,2.68032,0,0,1-.75195,1.9004A2.368,2.368,0,0,1,74.00488,258H54.6416A2.365,2.365,0,0,1,52.85547,257.2002Zm29.79785-39.5a4.09214,4.09214,0,0,0,3.00781-1.35059,5.58926,5.58926,0,0,0,1.31641-4.04981,7.5581,7.5581,0,0,0-1.03418-4,3.56714,3.56714,0,0,0-3.29-1.70019H76.07324V217.7002Z"/><path class="cls-4" d="M128.52441,257.2002a2.67615,2.67615,0,0,1-.75195-1.9004V190.7002a2.67943,2.67943,0,0,1,.75195-1.9004A2.36847,2.36847,0,0,1,130.31055,188h14.85156a4.39669,4.39669,0,0,1,4.042,2.7002l13.62988,24,13.62989-24a4.3967,4.3967,0,0,1,4.042-2.7002H195.3584a2.37446,2.37446,0,0,1,1.78613.7998,2.68358,2.68358,0,0,1,.75195,1.9004v64.5996a2.68028,2.68028,0,0,1-.75195,1.9004A2.371,2.371,0,0,1,195.3584,258H178.34473a2.365,2.365,0,0,1-1.78614-.7998,2.672,2.672,0,0,1-.752-1.9004V227.89941l-6.2041,10.80079a7.465,7.465,0,0,1-1.457,1.7998,2.959,2.959,0,0,1-2.02149.7002H159.544a2.95124,2.95124,0,0,1-2.02051-.7002,7.37343,7.37343,0,0,1-1.457-1.7998l-6.20411-10.80079V255.2998a2.68028,2.68028,0,0,1-.75195,1.9004,2.36951,2.36951,0,0,1-1.78613.7998H130.31055A2.365,2.365,0,0,1,128.52441,257.2002Z"/><path class="cls-5" d="M52.85547,257.2002a2.67615,2.67615,0,0,1-.75195-1.9004V190.7002a2.67943,2.67943,0,0,1,.75195-1.9004A2.36845,2.36845,0,0,1,54.6416,188H83.12305q13.16014,0,20.72754,6.2002,7.56444,6.20067,7.5664,18.2998,0,12-7.51953,17.84961-7.522,5.85058-20.77441,5.85059H76.543v19.0996a2.68032,2.68032,0,0,1-.75195,1.9004A2.368,2.368,0,0,1,74.00488,258H54.6416A2.365,2.365,0,0,1,52.85547,257.2002Zm29.79785-39.5a4.09214,4.09214,0,0,0,3.00781-1.35059,5.58926,5.58926,0,0,0,1.31641-4.04981,7.5581,7.5581,0,0,0-1.03418-4,3.56714,3.56714,0,0,0-3.29-1.70019H76.07324V217.7002Z"/><path class="cls-5" d="M128.52441,257.2002a2.67615,2.67615,0,0,1-.75195-1.9004V190.7002a2.67943,2.67943,0,0,1,.75195-1.9004A2.36847,2.36847,0,0,1,130.31055,188h14.85156a4.39669,4.39669,0,0,1,4.042,2.7002l13.62988,24,13.62989-24a4.3967,4.3967,0,0,1,4.042-2.7002H195.3584a2.37446,2.37446,0,0,1,1.78613.7998,2.68358,2.68358,0,0,1,.75195,1.9004v64.5996a2.68028,2.68028,0,0,1-.75195,1.9004A2.371,2.371,0,0,1,195.3584,258H178.34473a2.365,2.365,0,0,1-1.78614-.7998,2.672,2.672,0,0,1-.752-1.9004V227.89941l-6.2041,10.80079a7.465,7.465,0,0,1-1.457,1.7998,2.959,2.959,0,0,1-2.02149.7002H159.544a2.95124,2.95124,0,0,1-2.02051-.7002,7.37343,7.37343,0,0,1-1.457-1.7998l-6.20411-10.80079V255.2998a2.68028,2.68028,0,0,1-.75195,1.9004,2.36951,2.36951,0,0,1-1.78613.7998H130.31055A2.365,2.365,0,0,1,128.52441,257.2002Z"/></g></svg>