<svg xmlns="http://www.w3.org/2000/svg" viewBox="0 0 250 300"><defs><style>.cls-1{fill:#fff;}.cls-2{fill:#0d47a1;}.cls-3{fill:#fdcb06;}</style></defs><title>NwkEhd</title><g id="EHD_Web"><rect class="cls-1" x="-25" y="25" width="300" height="250" rx="21.33352" transform="translate(275 25) rotate(90)"/><rect class="cls-2" y="8.04416" width="250" height="283.91167" rx="18.55089"/><path class="cls-1" d="M25.69926,117.2002A2.788,2.788,0,0,1,25,115.2998V50.7002a2.79146,2.79146,0,0,1,.69926-1.9004A2.13722,2.13722,0,0,1,27.36024,48H41.172a3.7609,3.7609,0,0,1,3.58349,2.2998L59.52813,78V50.7002a2.79147,2.79147,0,0,1,.69927-1.9004A2.1372,2.1372,0,0,1,61.88837,48H77.71078a2.14254,2.14254,0,0,1,1.661.7998,2.80021,2.80021,0,0,1,.69927,1.9004v64.5996a2.7967,2.7967,0,0,1-.69927,1.9004,2.13945,2.13945,0,0,1-1.661.7998H63.899a3.30824,3.30824,0,0,1-2.27215-.7002,6.513,6.513,0,0,1-1.31134-1.5996L45.542,90.2002v25.0996a2.79235,2.79235,0,0,1-.69926,1.9004A2.13636,2.13636,0,0,1,43.18264,118H27.36024A2.13415,2.13415,0,0,1,25.69926,117.2002Z"/><path class="cls-1" d="M97.77144,116.84961a4.518,4.518,0,0,1-1.26775-2.64941L88.46126,50.5v-.2998a2.27623,2.27623,0,0,1,.56849-1.55079A1.74393,1.74393,0,0,1,90.38469,48H106.6439a3.66562,3.66562,0,0,1,2.31574.59961,2.79165,2.79165,0,0,1,.83094,2.10059l2.97232,28.19921,3.5835-12.5q.87317-2.89891,2.97232-2.89941h8.916q2.09779,0,2.97232,2.89941l3.58349,12.40039,2.97232-28.0996a2.78143,2.78143,0,0,1,.83-2.10059A3.66679,3.66679,0,0,1,140.90959,48H157.1688a1.74793,1.74793,0,0,1,1.35494.64941,2.28425,2.28425,0,0,1,.56758,1.55079V50.5l-8.04152,63.7002a4.53415,4.53415,0,0,1-1.26775,2.64941A3.63717,3.63717,0,0,1,147.02859,118H134.52813a3.10587,3.10587,0,0,1-2.40382-.90039,5.754,5.754,0,0,1-1.17967-1.79981l-7.1679-20.5-7.16789,20.5a5.80677,5.80677,0,0,1-1.18057,1.79981A3.10724,3.10724,0,0,1,113.02445,118H100.5249A3.63167,3.63167,0,0,1,97.77144,116.84961Z"/><path class="cls-1" d="M168.18083,117.2002a2.788,2.788,0,0,1-.69927-1.9004V50.7002a2.79147,2.79147,0,0,1,.69927-1.9004A2.1372,2.1372,0,0,1,169.8418,48h16.696a2.13988,2.13988,0,0,1,1.661.7998,2.79585,2.79585,0,0,1,.69926,1.9004V70.5l9.87777-20.2998A3.59989,3.59989,0,0,1,202.27215,48h19.31872a1.74793,1.74793,0,0,1,1.35493.64941,2.28421,2.28421,0,0,1,.56759,1.55079,2.32587,2.32587,0,0,1-.26245,1.0996L207.51753,81.5l17.22,33.2002A1.99451,1.99451,0,0,1,225,115.7998a2.28079,2.28079,0,0,1-.56849,1.54981A1.74147,1.74147,0,0,1,223.07657,118H203.14668a3.50015,3.50015,0,0,1-2.36024-.75,4.42165,4.42165,0,0,1-1.22416-1.5498L188.89807,93.89941V115.2998a2.79235,2.79235,0,0,1-.69926,1.9004,2.1368,2.1368,0,0,1-1.661.7998h-16.696A2.13413,2.13413,0,0,1,168.18083,117.2002Z"/><rect class="cls-1" x="25" y="148" width="200" height="4" rx="0.58161"/><path class="cls-3" d="M25.76537,257.2002A2.65,2.65,0,0,1,25,255.2998V190.7002a2.65319,2.65319,0,0,1,.76537-1.9004A2.43529,2.43529,0,0,1,27.58394,188H76.67512a2.44116,2.44116,0,0,1,1.81858.7998,2.661,2.661,0,0,1,.76537,1.9004v14.0996a2.6577,2.6577,0,0,1-.76537,1.9004,2.43406,2.43406,0,0,1-1.81858.7998H47.96672v6.2998H74.56965a2.43818,2.43818,0,0,1,1.81858.79981A2.66422,2.66422,0,0,1,77.1536,216.5v13a2.65766,2.65766,0,0,1-.76537,1.90039,2.43114,2.43114,0,0,1-1.81858.79981H47.96672V238.5H77.44049a2.43821,2.43821,0,0,1,1.81858.7998,2.661,2.661,0,0,1,.76537,1.9004v14.0996a2.6577,2.6577,0,0,1-.76537,1.9004A2.43113,2.43113,0,0,1,77.44049,258H27.58394A2.42823,2.42823,0,0,1,25.76537,257.2002Z"/><path class="cls-3" d="M89.593,257.25a2.60655,2.60655,0,0,1-.76537-1.9502V190.7002a2.65319,2.65319,0,0,1,.76537-1.9004A2.43529,2.43529,0,0,1,91.41154,188h18.75579a2.4382,2.4382,0,0,1,1.81857.7998,2.661,2.661,0,0,1,.76537,1.9004v21H128.254v-21a2.65319,2.65319,0,0,1,.76537-1.9004A2.43529,2.43529,0,0,1,130.83794,188h18.75578a2.44114,2.44114,0,0,1,1.81857.7998,2.661,2.661,0,0,1,.76537,1.9004v64.5996a2.6577,2.6577,0,0,1-.76537,1.9004,2.434,2.434,0,0,1-1.81857.7998H130.83794a2.42823,2.42823,0,0,1-1.81858-.7998,2.65,2.65,0,0,1-.76537-1.9004V233.7002H112.75127v21.5996a2.6577,2.6577,0,0,1-.76537,1.9004,2.43112,2.43112,0,0,1-1.81857.7998H91.41154A2.50858,2.50858,0,0,1,89.593,257.25Z"/><path class="cls-3" d="M163.46851,257.2002a2.65,2.65,0,0,1-.76537-1.9004V190.7002a2.65319,2.65319,0,0,1,.76537-1.9004A2.43529,2.43529,0,0,1,165.28708,188H192.847a38.89818,38.89818,0,0,1,16.17278,3.2002,26.58769,26.58769,0,0,1,11.29178,9.39941A27.575,27.575,0,0,1,224.80936,215.5Q225,221.10157,225,223.09961q0,1.90137-.19064,7.30078-.57473,13.79883-8.948,20.69922Q207.48712,258.0005,193.32544,258H165.28708A2.42823,2.42823,0,0,1,163.46851,257.2002ZM192.847,238.5a7.32622,7.32622,0,0,0,5.40713-2.0498,8.82182,8.82182,0,0,0,2.24845-6.04981q.19063-2.90038.19157-7.5,0-4.69921-.19157-7.40039a7.61463,7.61463,0,0,0-8.13405-8h-5.74168v31Z"/></g></svg>