<svg xmlns="http://www.w3.org/2000/svg" viewBox="0 0 440 145"><defs><style>.cls-1{fill:#666;}.cls-2{fill:#fffef9;}.cls-3,.cls-4{fill:none;stroke:#fff;stroke-miterlimit:10;}.cls-3{stroke-width:0.62691px;}.cls-4{stroke-width:0.60178px;}.cls-5{fill:#333;}.cls-6{fill:#0d47a1;}.cls-7{fill:#fff;}</style></defs><title>NwkEhd_divs_horizontal</title><g id="Tenant_Legal_Services" data-name="Tenant Legal Services"><rect class="cls-1" y="120" width="440" height="25" rx="3.71318"/><path class="cls-2" d="M80.31055,139.11625a.41568.41568,0,0,1-.126-.30567v-9.918h-3.3291a.41787.41787,0,0,1-.30664-.126.43935.43935,0,0,1-.126-.32422v-1.34961a.45762.45762,0,0,1,.11719-.32422.40906.40906,0,0,1,.31543-.126h9.19726a.43155.43155,0,0,1,.4502.45019v1.34961a.43156.43156,0,0,1-.4502.4502H82.74121v9.918a.432.432,0,0,1-.11719.30567.409.409,0,0,1-.31543.126h-1.6914A.41787.41787,0,0,1,80.31055,139.11625Z"/><path class="cls-2" d="M92.04688,139.11625a.41568.41568,0,0,1-.126-.30567V127.09281a.45762.45762,0,0,1,.11719-.32422.40832.40832,0,0,1,.31445-.126H100.291a.43154.43154,0,0,1,.45019.45019v1.20606a.41178.41178,0,0,1-.126.31445.45929.45929,0,0,1-.32421.11719h-5.9043v3.15039h5.50781a.43148.43148,0,0,1,.4502.44922v1.13476a.40832.40832,0,0,1-.126.31445.45761.45761,0,0,1-.32422.11719H94.38672v3.25781h6.04785a.45767.45767,0,0,1,.32422.11719.40908.40908,0,0,1,.126.31543v1.22363a.40692.40692,0,0,1-.126.31446.45337.45337,0,0,1-.32422.11718h-8.082A.41567.41567,0,0,1,92.04688,139.11625Z"/><path class="cls-2" d="M106.86035,139.11625a.41571.41571,0,0,1-.126-.30567V127.09281a.45766.45766,0,0,1,.11718-.32422.40835.40835,0,0,1,.31446-.126h1.40429a.57318.57318,0,0,1,.52246.30566l5.14746,7.99219v-7.84766a.45767.45767,0,0,1,.11719-.32422.40835.40835,0,0,1,.31446-.126h1.54882a.43147.43147,0,0,1,.44922.45019V138.792a.43785.43785,0,0,1-.126.32422.41571.41571,0,0,1-.30567.126h-1.42187a.58645.58645,0,0,1-.54-.30566l-5.12989-7.8125v7.68652a.432.432,0,0,1-.11718.30567.40907.40907,0,0,1-.31543.126H107.166A.41571.41571,0,0,1,106.86035,139.11625Z"/><path class="cls-2" d="M122.0166,139.1348a.36658.36658,0,0,1-.1084-.2705l.03614-.16211,4.32031-11.60938a.6498.6498,0,0,1,.64746-.45019h1.98047a.6498.6498,0,0,1,.64746.45019l4.32031,11.60938.03613.16211a.35278.35278,0,0,1-.11718.2705.37842.37842,0,0,1-.26075.10742H131.916a.5201.5201,0,0,1-.52149-.34179l-.82812-2.17774h-5.32813l-.82812,2.17774a.5201.5201,0,0,1-.52149.34179h-1.60254A.36892.36892,0,0,1,122.0166,139.1348Zm3.85156-4.5h4.06836l-2.03418-5.54394Z"/><path class="cls-2" d="M139.27734,139.11625a.41571.41571,0,0,1-.126-.30567V127.09281a.45766.45766,0,0,1,.11718-.32422.40907.40907,0,0,1,.31543-.126h1.4043a.57174.57174,0,0,1,.52149.30566l5.14843,7.99219v-7.84766a.457.457,0,0,1,.11621-.32422.41052.41052,0,0,1,.31543-.126h1.54786a.43154.43154,0,0,1,.45019.45019V138.792a.43782.43782,0,0,1-.126.32422.41724.41724,0,0,1-.30566.126H147.2334a.58646.58646,0,0,1-.54-.30566l-5.12988-7.8125v7.68652a.43549.43549,0,0,1-.11621.30567.412.412,0,0,1-.31543.126H139.584A.4179.4179,0,0,1,139.27734,139.11625Z"/><path class="cls-2" d="M158.376,139.11625a.41568.41568,0,0,1-.126-.30567v-9.918h-3.33008a.41568.41568,0,0,1-.30566-.126.43935.43935,0,0,1-.126-.32422v-1.34961a.457.457,0,0,1,.11621-.32422.41052.41052,0,0,1,.31543-.126h9.19824a.43155.43155,0,0,1,.4502.45019v1.34961a.43156.43156,0,0,1-.4502.4502h-3.3125v9.918a.43544.43544,0,0,1-.11621.30567.41194.41194,0,0,1-.31543.126h-1.69238A.41567.41567,0,0,1,158.376,139.11625Z"/><path class="cls-2" d="M177.38379,139.11625a.41568.41568,0,0,1-.126-.30567V127.07426a.40832.40832,0,0,1,.126-.31446.432.432,0,0,1,.30566-.11718h1.69239a.40366.40366,0,0,1,.43164.43164v10.00781h5.70605a.4432.4432,0,0,1,.32422.126.41945.41945,0,0,1,.126.30664v1.29589a.41572.41572,0,0,1-.126.30567.43936.43936,0,0,1-.32422.126h-7.83008A.41569.41569,0,0,1,177.38379,139.11625Z"/><path class="cls-2" d="M191.44141,139.11625a.41568.41568,0,0,1-.126-.30567V127.09281a.45762.45762,0,0,1,.11719-.32422.40832.40832,0,0,1,.31445-.126h7.93848a.43153.43153,0,0,1,.45019.45019v1.20606a.41181.41181,0,0,1-.126.31445.45933.45933,0,0,1-.32422.11719h-5.9043v3.15039h5.50781a.43148.43148,0,0,1,.4502.44922v1.13476a.40829.40829,0,0,1-.126.31445.45761.45761,0,0,1-.32422.11719h-5.50781v3.25781h6.04785a.45765.45765,0,0,1,.32422.11719.40908.40908,0,0,1,.126.31543v1.22363a.40692.40692,0,0,1-.126.31446.45336.45336,0,0,1-.32422.11718h-8.082A.41567.41567,0,0,1,191.44141,139.11625Z"/><path class="cls-2" d="M207.07422,138.14457a4.89955,4.89955,0,0,1-1.4668-3.56445q-.01758-.52149-.01758-1.67383,0-1.15137.01758-1.67383a4.69718,4.69718,0,0,1,1.47559-3.501,5.53692,5.53692,0,0,1,3.85254-1.26855,6.612,6.612,0,0,1,2.85254.5664,4.636,4.636,0,0,1,1.80957,1.4043,3.02811,3.02811,0,0,1,.64746,1.64649.36962.36962,0,0,1-.10742.2705.38827.38827,0,0,1-.28809.10743H213.959a.42508.42508,0,0,1-.26953-.07129.60442.60442,0,0,1-.16211-.23438,2.51354,2.51354,0,0,0-.88183-1.13379,2.80434,2.80434,0,0,0-1.71-.46777,2.74534,2.74534,0,0,0-1.97071.6748,2.87194,2.87194,0,0,0-.74707,2.09668q-.019.523-.01855,1.584,0,1.04443.01855,1.584a2.96748,2.96748,0,0,0,.75586,2.15137,2.73448,2.73448,0,0,0,1.9795.69238,2.98693,2.98693,0,0,0,2.05273-.68359,2.5959,2.5959,0,0,0,.77344-2.05176v-.55859H211.583a.43011.43011,0,0,1-.43164-.43164v-.99024a.43011.43011,0,0,1,.43164-.43164h4.32031a.43935.43935,0,0,1,.32422.126.41725.41725,0,0,1,.126.30566v1.9082a4.951,4.951,0,0,1-.666,2.60059,4.37741,4.37741,0,0,1-1.88965,1.70117,6.48165,6.48165,0,0,1-2.8623.59473A5.4595,5.4595,0,0,1,207.07422,138.14457Z"/><path class="cls-2" d="M220.9248,139.1348a.36962.36962,0,0,1-.10742-.2705l.03614-.16211,4.31933-11.60938a.65018.65018,0,0,1,.64844-.45019h1.97949a.65018.65018,0,0,1,.64844.45019l4.32031,11.60938.03613.16211a.35612.35612,0,0,1-.11718.2705.37894.37894,0,0,1-.26172.10742H230.8252a.52215.52215,0,0,1-.52247-.34179l-.82714-2.17774h-5.32813l-.82812,2.17774a.52215.52215,0,0,1-.52246.34179h-1.60157A.3696.3696,0,0,1,220.9248,139.1348Zm3.85254-4.5h4.06739l-2.03321-5.54394Z"/><path class="cls-2" d="M238.18652,139.11625a.41571.41571,0,0,1-.126-.30567V127.07426a.40835.40835,0,0,1,.126-.31446.43435.43435,0,0,1,.30664-.11718h1.69141a.40376.40376,0,0,1,.43262.43164v10.00781h5.70605a.44479.44479,0,0,1,.32422.126.42328.42328,0,0,1,.126.30664v1.29589a.4195.4195,0,0,1-.126.30567.44091.44091,0,0,1-.32422.126h-7.83008A.4179.4179,0,0,1,238.18652,139.11625Z"/><path class="cls-2" d="M260.99316,138.93656a4.11091,4.11091,0,0,1-1.74609-1.27832,3.00946,3.00946,0,0,1-.62988-1.72754.38245.38245,0,0,1,.10742-.26172.35529.35529,0,0,1,.27051-.11621h1.63769a.5484.5484,0,0,1,.32422.08985.94782.94782,0,0,1,.23438.25195,1.84021,1.84021,0,0,0,.81836,1.02637,3.20887,3.20887,0,0,0,1.75488.41308,3.46428,3.46428,0,0,0,1.89941-.42285,1.322,1.322,0,0,0,.63867-1.16113,1.096,1.096,0,0,0-.32421-.80957,2.71338,2.71338,0,0,0-.98047-.56739q-.65772-.24169-1.95313-.585a7.65738,7.65738,0,0,1-3.11426-1.332,2.92166,2.92166,0,0,1-.98925-2.376,3.15934,3.15934,0,0,1,.57519-1.86231,3.8282,3.8282,0,0,1,1.64746-1.28711,6.172,6.172,0,0,1,2.49317-.46777,5.92914,5.92914,0,0,1,2.583.52148,4.27066,4.27066,0,0,1,1.65528,1.30469,2.88672,2.88672,0,0,1,.60351,1.55762.37522.37522,0,0,1-.10839.26074.35075.35075,0,0,1-.26954.11719h-1.71a.5366.5366,0,0,1-.54-.32422,1.3945,1.3945,0,0,0-.70214-.96289,3.27027,3.27027,0,0,0-3.06934-.00879,1.23752,1.23752,0,0,0-.56641,1.09765,1.17505,1.17505,0,0,0,.28809.81055,2.34241,2.34241,0,0,0,.89941.56641,16.36021,16.36021,0,0,0,1.78223.54883,12.42828,12.42828,0,0,1,2.54687.81054,3.32573,3.32573,0,0,1,1.39551,1.13379,3.12007,3.12007,0,0,1,.44922,1.7461,3.28517,3.28517,0,0,1-.63867,2.02441,3.96272,3.96272,0,0,1-1.79981,1.30566,7.42314,7.42314,0,0,1-2.6914.4502A7.1078,7.1078,0,0,1,260.99316,138.93656Z"/><path class="cls-2" d="M274.67285,139.11625a.41571.41571,0,0,1-.126-.30567V127.09281a.45766.45766,0,0,1,.11718-.32422.40835.40835,0,0,1,.31446-.126H282.917a.43155.43155,0,0,1,.4502.45019v1.20606a.41178.41178,0,0,1-.126.31445.45929.45929,0,0,1-.32422.11719H277.0127v3.15039h5.50781a.43147.43147,0,0,1,.45019.44922v1.13476a.40832.40832,0,0,1-.126.31445.45764.45764,0,0,1-.32422.11719H277.0127v3.25781h6.04785a.45768.45768,0,0,1,.32422.11719.40907.40907,0,0,1,.126.31543v1.22363a.40692.40692,0,0,1-.126.31446.45339.45339,0,0,1-.32422.11718h-8.082A.41571.41571,0,0,1,274.67285,139.11625Z"/><path class="cls-2" d="M289.48633,139.11625a.41568.41568,0,0,1-.126-.30567V127.09281a.45762.45762,0,0,1,.11719-.32422.40833.40833,0,0,1,.31445-.126h4.66211A5.3141,5.3141,0,0,1,297.919,127.668a3.55847,3.55847,0,0,1,1.251,2.916,3.72154,3.72154,0,0,1-.62988,2.20508,3.499,3.499,0,0,1-1.76367,1.28711l2.61035,4.58984a.46228.46228,0,0,1,.05371.19825.35275.35275,0,0,1-.11719.2705.3784.3784,0,0,1-.26074.10742h-1.65625a.68418.68418,0,0,1-.4502-.13476,1.32174,1.32174,0,0,1-.28808-.35059l-2.30371-4.2666h-2.46582v4.32031a.41568.41568,0,0,1-.126.30567.43936.43936,0,0,1-.32422.126H289.792A.41569.41569,0,0,1,289.48633,139.11625Zm4.91406-6.67774a2.39,2.39,0,0,0,1.62012-.47656,1.76622,1.76622,0,0,0,.54-1.39551,1.82248,1.82248,0,0,0-.54-1.41308,2.32742,2.32742,0,0,0-1.62012-.49512h-2.502v3.78027Z"/><path class="cls-2" d="M307.667,138.73832l-3.85254-11.55567a.55864.55864,0,0,1-.01757-.1621.3673.3673,0,0,1,.37792-.37793h1.60157a.55219.55219,0,0,1,.37793.126.67791.67791,0,0,1,.19824.26953l3.00586,9.2168,3.02441-9.2168a.53507.53507,0,0,1,.17969-.26953.55217.55217,0,0,1,.37793-.126h1.62012a.37841.37841,0,0,1,.26074.10742.35279.35279,0,0,1,.11719.27051l-.03614.1621-3.834,11.55567a.68874.68874,0,0,1-.70117.5039h-1.998A.671.671,0,0,1,307.667,138.73832Z"/><path class="cls-2" d="M320.57227,139.11625a.41568.41568,0,0,1-.126-.30567V127.07426a.40832.40832,0,0,1,.126-.31446.432.432,0,0,1,.30566-.11718h1.72852a.40366.40366,0,0,1,.43164.43164v11.73632a.432.432,0,0,1-.11719.30567.40835.40835,0,0,1-.31445.126h-1.72852A.41567.41567,0,0,1,320.57227,139.11625Z"/><path class="cls-2" d="M330.46289,138.15336a4.96991,4.96991,0,0,1-1.44824-3.60938q-.019-.48486-.01856-1.584,0-1.11476.01856-1.61914a4.97423,4.97423,0,0,1,1.458-3.5918,5.37879,5.37879,0,0,1,3.834-1.28613,6.58293,6.58293,0,0,1,2.78906.54883,4.43336,4.43336,0,0,1,1.84571,1.50293,3.91938,3.91938,0,0,1,.69336,2.1416v.03613a.30636.30636,0,0,1-.11719.24316.39425.39425,0,0,1-.26172.09864h-1.74609a.4667.4667,0,0,1-.32422-.09864.78358.78358,0,0,1-.17969-.35156,2.54482,2.54482,0,0,0-.93555-1.57422,3.04509,3.04509,0,0,0-1.76367-.459q-2.5752,0-2.68164,2.87988-.01758.48633-.01758,1.49414t.01758,1.5293q.10841,2.88135,2.68164,2.87988a3.05031,3.05031,0,0,0,1.75391-.459,2.51619,2.51619,0,0,0,.94531-1.57422.78915.78915,0,0,1,.17969-.35156.47155.47155,0,0,1,.32422-.09864h1.74609a.39846.39846,0,0,1,.2793.10743.30431.30431,0,0,1,.09961.2705,3.91935,3.91935,0,0,1-.69336,2.1416,4.41862,4.41862,0,0,1-1.84571,1.50293,6.58261,6.58261,0,0,1-2.78906.54981A5.422,5.422,0,0,1,330.46289,138.15336Z"/><path class="cls-2" d="M345.50293,139.11625a.41572.41572,0,0,1-.126-.30567V127.09281a.45338.45338,0,0,1,.11719-.32422.40691.40691,0,0,1,.31445-.126h7.93848a.43148.43148,0,0,1,.44922.45019v1.20606a.40832.40832,0,0,1-.126.31445.45522.45522,0,0,1-.32324.11719h-5.9043v3.15039h5.50782a.43148.43148,0,0,1,.45019.44922v1.13476a.40829.40829,0,0,1-.126.31445.4576.4576,0,0,1-.32421.11719h-5.50782v3.25781h6.04786a.45764.45764,0,0,1,.32421.11719.409.409,0,0,1,.126.31543v1.22363a.40689.40689,0,0,1-.126.31446.45335.45335,0,0,1-.32421.11718h-8.082A.41569.41569,0,0,1,345.50293,139.11625Z"/><path class="cls-2" d="M361.81055,138.93656a4.11088,4.11088,0,0,1-1.7461-1.27832,3.00946,3.00946,0,0,1-.62988-1.72754.37808.37808,0,0,1,.10742-.26172.35529.35529,0,0,1,.27051-.11621h1.6377a.54839.54839,0,0,1,.32421.08985.92988.92988,0,0,1,.2334.25195,1.84634,1.84634,0,0,0,.81934,1.02637,3.20887,3.20887,0,0,0,1.75488.41308,3.46656,3.46656,0,0,0,1.89942-.42285,1.322,1.322,0,0,0,.63867-1.16113,1.0998,1.0998,0,0,0-.32422-.80957,2.71338,2.71338,0,0,0-.98047-.56739q-.65772-.24169-1.95313-.585a7.65727,7.65727,0,0,1-3.11425-1.332,2.92225,2.92225,0,0,1-.99024-2.376,3.16023,3.16023,0,0,1,.57617-1.86231,3.81657,3.81657,0,0,1,1.64747-1.28711,6.172,6.172,0,0,1,2.49316-.46777,5.9322,5.9322,0,0,1,2.583.52148,4.2707,4.2707,0,0,1,1.65527,1.30469,2.89451,2.89451,0,0,1,.60352,1.55762.37523.37523,0,0,1-.1084.26074.35221.35221,0,0,1-.26953.11719h-1.71a.5366.5366,0,0,1-.54-.32422,1.39742,1.39742,0,0,0-.70215-.96289,3.27027,3.27027,0,0,0-3.06934-.00879,1.23751,1.23751,0,0,0-.5664,1.09765,1.179,1.179,0,0,0,.28711.81055,2.35468,2.35468,0,0,0,.90039.56641,16.35919,16.35919,0,0,0,1.78222.54883,12.44852,12.44852,0,0,1,2.54688.81054,3.31644,3.31644,0,0,1,1.39453,1.13379,3.12026,3.12026,0,0,1,.45019,1.7461,3.28517,3.28517,0,0,1-.63867,2.02441,3.96794,3.96794,0,0,1-1.7998,1.30566,7.42694,7.42694,0,0,1-2.69141.4502A7.10775,7.10775,0,0,1,361.81055,138.93656Z"/><line class="cls-3" x1="12.5" y1="133" x2="57.5" y2="133"/><line class="cls-4" x1="383.5" y1="133.07136" x2="427.5" y2="133.07136"/></g><g id="Rent_Control" data-name="Rent Control"><rect class="cls-5" x="162.5" y="-162.202" width="115" height="440" rx="4.94413" transform="translate(277.798 -162.202) rotate(90)"/><rect class="cls-6" x="5" y="7.798" width="240" height="100" rx="6.74481"/><path class="cls-7" d="M15.74762,91.998A2.68447,2.68447,0,0,1,15,90.09756V25.49844a2.68945,2.68945,0,0,1,.74762-1.90039,2.35051,2.35051,0,0,1,1.77585-.79981H32.29a4.047,4.047,0,0,1,3.83181,2.29981L51.91612,52.79824V25.49844a2.68945,2.68945,0,0,1,.74762-1.90039,2.3505,2.3505,0,0,1,1.77585-.79981H71.3558a2.355,2.355,0,0,1,1.77585.79981,2.69576,2.69576,0,0,1,.74762,1.90039V90.09756a2.69075,2.69075,0,0,1-.74762,1.90039,2.3499,2.3499,0,0,1-1.77585.79981H56.58925a3.69935,3.69935,0,0,1-2.42978-.7002,6.61736,6.61736,0,0,1-1.402-1.59961L36.96267,64.99844V90.09756A2.68861,2.68861,0,0,1,36.215,91.998a2.34887,2.34887,0,0,1-1.77536.79981H17.52347A2.34545,2.34545,0,0,1,15.74762,91.998Z"/><path class="cls-7" d="M95.88806,91.64834A4.407,4.407,0,0,1,94.53262,88.998L85.93446,25.29824v-.2998a2.189,2.189,0,0,1,.60781-1.55029,1.91677,1.91677,0,0,1,1.44865-.64991h17.38322a4.12051,4.12051,0,0,1,2.47639.6001,2.70289,2.70289,0,0,1,.88792,2.1001l3.17789,28.19971,3.83181-12.5q.93284-2.89893,3.17741-2.89991h9.53269q2.24286,0,3.17788,2.89991l3.83182,12.3999,3.1774-28.09961a2.69322,2.69322,0,0,1,.88793-2.1001,4.11744,4.11744,0,0,1,2.47638-.6001h17.38371a1.92046,1.92046,0,0,1,1.44864.64991,2.19692,2.19692,0,0,1,.60733,1.55029v.2998L152.85118,88.998a4.42008,4.42008,0,0,1-1.35544,2.65039,4.027,4.027,0,0,1-2.94389,1.14942h-13.3645a3.45264,3.45264,0,0,1-2.57008-.89942,5.73643,5.73643,0,0,1-1.26174-1.80078L123.6919,69.59805l-7.66363,20.49951a5.78463,5.78463,0,0,1-1.26174,1.80078,3.45489,3.45489,0,0,1-2.57008.89942H98.832A4.02233,4.02233,0,0,1,95.88806,91.64834Z"/><path class="cls-7" d="M174.25167,91.998a2.68447,2.68447,0,0,1-.74762-1.90039V25.49844a2.68945,2.68945,0,0,1,.74762-1.90039,2.35048,2.35048,0,0,1,1.77585-.79981h17.85074a2.355,2.355,0,0,1,1.77584.79981,2.69573,2.69573,0,0,1,.74763,1.90039v19.7998l10.56043-20.2998a3.87633,3.87633,0,0,1,3.73861-2.2002h20.65432a1.919,1.919,0,0,1,1.44864.64991,2.28374,2.28374,0,0,1,.32624,2.6499L216.30843,56.29824,234.72037,89.498A1.898,1.898,0,0,1,235,90.59756a2.19813,2.19813,0,0,1-.60781,1.55078,1.91508,1.91508,0,0,1-1.44864.64942H211.6353a3.9153,3.9153,0,0,1-2.52348-.75,4.47078,4.47078,0,0,1-1.30834-1.54981l-11.40175-21.7998V90.09756a2.69072,2.69072,0,0,1-.74763,1.90039,2.34986,2.34986,0,0,1-1.77584.79981H176.02752A2.34542,2.34542,0,0,1,174.25167,91.998Z"/><path class="cls-7" d="M255.839,87.11279a2.30306,2.30306,0,0,1-.639-1.62836V30.11254a2.30832,2.30832,0,0,1,.639-1.62884,2.00807,2.00807,0,0,1,1.51845-.6857h40.99329a2.01177,2.01177,0,0,1,1.51845.6857,2.313,2.313,0,0,1,.63952,1.62884V42.19819a2.30684,2.30684,0,0,1-.63952,1.62836,2.005,2.005,0,0,1-1.51845.6857H274.378V49.9122h22.21491a2.0125,2.0125,0,0,1,1.51845.6857,2.31253,2.31253,0,0,1,.639,1.62885v11.143a2.30641,2.30641,0,0,1-.639,1.62836,2.00743,2.00743,0,0,1-1.51845.6857H274.378v5.40044H298.9903a2.012,2.012,0,0,1,1.51845.68521,2.31216,2.31216,0,0,1,.639,1.62836V85.48443a2.3072,2.3072,0,0,1-.639,1.62836,2.00861,2.00861,0,0,1-1.51845.68521H257.35749A2.00421,2.00421,0,0,1,255.839,87.11279Z"/><path class="cls-7" d="M313.13321,87.15561a2.26712,2.26712,0,0,1-.639-1.67118V30.11254a2.30832,2.30832,0,0,1,.639-1.62884,2.008,2.008,0,0,1,1.51845-.6857H330.314a2.01075,2.01075,0,0,1,1.518.6857,2.31085,2.31085,0,0,1,.63953,1.62884v18h12.94542v-18a2.30621,2.30621,0,0,1,.639-1.62884,2.008,2.008,0,0,1,1.51844-.6857H363.2367a2.01076,2.01076,0,0,1,1.518.6857,2.31293,2.31293,0,0,1,.63952,1.62884V85.48443a2.30764,2.30764,0,0,1-.63952,1.62836,2.00689,2.00689,0,0,1-1.518.68521H347.57438a2.00417,2.00417,0,0,1-1.51844-.68521,2.301,2.301,0,0,1-.639-1.62836V66.96955H332.47147V85.48443a2.30558,2.30558,0,0,1-.63953,1.62836,2.00688,2.00688,0,0,1-1.518.68521H314.65166A2.06735,2.06735,0,0,1,313.13321,87.15561Z"/><path class="cls-7" d="M378.81794,87.11279a2.30306,2.30306,0,0,1-.639-1.62836V30.11254a2.30832,2.30832,0,0,1,.639-1.62884,2.008,2.008,0,0,1,1.51845-.6857H403.3501a31.76264,31.76264,0,0,1,13.50483,2.7428,22.3529,22.3529,0,0,1,9.42925,8.05759,24.07187,24.07187,0,0,1,3.75558,12.77135q.15927,4.80112.16024,6.51391,0,1.62933-.16024,6.25744-.47928,11.828-7.4711,17.743-6.99375,5.91435-18.81892,5.91386H380.33639A2.00418,2.00418,0,0,1,378.81794,87.11279ZM403.3501,71.08424a6.03006,6.03006,0,0,0,4.5148-1.75781,7.66845,7.66845,0,0,0,1.878-5.18534q.15929-2.48561.15977-6.42874,0-4.02807-.15977-6.34261a7.10522,7.10522,0,0,0-2.03779-5.143,6.78189,6.78189,0,0,0-4.7542-1.7145H398.1562v26.572Z"/></g></svg>