<svg xmlns="http://www.w3.org/2000/svg" viewBox="0 0 440 145"><defs><style>.cls-1{fill:#666;}.cls-2{fill:#fffef9;}.cls-3,.cls-4{fill:none;stroke:#fff;stroke-miterlimit:10;}.cls-3{stroke-width:0.66082px;}.cls-4{stroke-width:0.6415px;}.cls-5{fill:#333;}.cls-6{fill:#0d47a1;}.cls-7{fill:#fff;}</style></defs><title>NwkEhd_divs_horizontal</title><g id="Property_Management" data-name="Property Management"><rect class="cls-1" y="120" width="440" height="25" rx="3.71318"/><path class="cls-2" d="M75.84863,137.98576a.41787.41787,0,0,1-.126-.30664V125.96135a.45766.45766,0,0,1,.11718-.32422.41178.41178,0,0,1,.31446-.126h4.82422a5.21735,5.21735,0,0,1,3.41992,1.02636,3.65213,3.65213,0,0,1,1.24219,2.98828,3.55148,3.55148,0,0,1-1.24219,2.94239,5.31226,5.31226,0,0,1-3.41992.999H78.333v4.21191a.41247.41247,0,0,1-.126.31543.45925.45925,0,0,1-.32422.11719H76.1543A.41568.41568,0,0,1,75.84863,137.98576Zm5.04-6.53418a2.30363,2.30363,0,0,0,1.59278-.49511,1.84987,1.84987,0,0,0,.54882-1.44922,1.95408,1.95408,0,0,0-.53027-1.458,2.21762,2.21762,0,0,0-1.61133-.52148H78.29688v3.92382Z"/><path class="cls-2" d="M91.32813,137.98576a.41784.41784,0,0,1-.126-.30664V125.96135a.45762.45762,0,0,1,.11719-.32422.41246.41246,0,0,1,.31543-.126h4.66211a5.31614,5.31614,0,0,1,3.46484,1.02636,3.5572,3.5572,0,0,1,1.251,2.916,3.72364,3.72364,0,0,1-.62989,2.20508,3.50734,3.50734,0,0,1-1.76465,1.28711l2.61036,4.58984a.44553.44553,0,0,1,.05371.19824.3547.3547,0,0,1-.11621.26953.37744.37744,0,0,1-.26172.1084H99.249a.68235.68235,0,0,1-.45019-.13476,1.30879,1.30879,0,0,1-.28809-.35157L96.207,133.35979h-2.4668v4.31933a.41787.41787,0,0,1-.126.30664.43709.43709,0,0,1-.32324.126H91.63477A.41784.41784,0,0,1,91.32813,137.98576Zm4.91406-6.67871a2.38144,2.38144,0,0,0,1.62011-.47656,1.76075,1.76075,0,0,0,.54-1.39453,1.819,1.819,0,0,0-.54-1.41309,2.32412,2.32412,0,0,0-1.62011-.49511h-2.502v3.77929Z"/><path class="cls-2" d="M107.9248,137.04924a4.94122,4.94122,0,0,1-1.44042-3.68945q-.01758-.52295-.01758-1.53028,0-1.02538.01758-1.54785a4.92678,4.92678,0,0,1,1.47558-3.67187,6.26921,6.26921,0,0,1,7.58789,0,4.91,4.91,0,0,1,1.48438,3.67187q.03662,1.04444.03613,1.54785,0,.48633-.03613,1.53028a4.92342,4.92342,0,0,1-1.44922,3.68945,6.52278,6.52278,0,0,1-7.65821,0Zm5.74122-1.56543a3.23823,3.23823,0,0,0,.75683-2.21387q.03516-1.081.03516-1.458,0-.41455-.03516-1.458a3.19744,3.19744,0,0,0-.77441-2.20508,2.83623,2.83623,0,0,0-3.79785,0,3.12905,3.12905,0,0,0-.75586,2.20508q-.019.52148-.01856,1.458,0,.917.01856,1.458a3.15309,3.15309,0,0,0,.74707,2.20411,2.88519,2.88519,0,0,0,3.82422.00976Z"/><path class="cls-2" d="M123.13379,137.98576a.41784.41784,0,0,1-.126-.30664V125.96135a.45767.45767,0,0,1,.11719-.32422.41249.41249,0,0,1,.31543-.126h4.82422a5.21912,5.21912,0,0,1,3.41992,1.02636,3.65151,3.65151,0,0,1,1.24121,2.98828,3.55085,3.55085,0,0,1-1.24121,2.94239,5.31408,5.31408,0,0,1-3.41992.999h-2.64649v4.21191a.409.409,0,0,1-.126.31543.45764.45764,0,0,1-.32422.11719h-1.72754A.41784.41784,0,0,1,123.13379,137.98576Zm5.04-6.53418a2.30461,2.30461,0,0,0,1.59375-.49511,1.85326,1.85326,0,0,0,.54883-1.44922,1.95462,1.95462,0,0,0-.53125-1.458,2.21452,2.21452,0,0,0-1.61133-.52148H125.582v3.92382Z"/><path class="cls-2" d="M138.61426,137.98576a.41784.41784,0,0,1-.126-.30664V125.96135a.45762.45762,0,0,1,.11719-.32422.41176.41176,0,0,1,.31445-.126h7.93848a.43153.43153,0,0,1,.45019.45019v1.20606a.41393.41393,0,0,1-.126.31542.45863.45863,0,0,1-.32422.11622h-5.9043v3.15039h5.50781a.43155.43155,0,0,1,.4502.45019v1.13379a.41046.41046,0,0,1-.126.31543.457.457,0,0,1-.32422.11621H140.9541v3.25879H147.002a.46135.46135,0,0,1,.32422.11621.41192.41192,0,0,1,.126.31543v1.22363a.409.409,0,0,1-.126.31543.45761.45761,0,0,1-.32422.11719h-8.082A.41564.41564,0,0,1,138.61426,137.98576Z"/><path class="cls-2" d="M153.42773,137.98576a.41787.41787,0,0,1-.126-.30664V125.96135a.45762.45762,0,0,1,.11719-.32422.41174.41174,0,0,1,.31445-.126h4.66211a5.31429,5.31429,0,0,1,3.46484,1.02636,3.55717,3.55717,0,0,1,1.251,2.916,3.72363,3.72363,0,0,1-.62988,2.20508,3.50479,3.50479,0,0,1-1.76368,1.28711l2.61036,4.58984a.45888.45888,0,0,1,.05371.19824.35219.35219,0,0,1-.11719.26953.37519.37519,0,0,1-.26074.1084h-1.65625a.68416.68416,0,0,1-.4502-.13476,1.32719,1.32719,0,0,1-.28808-.35157l-2.30372-4.26562h-2.46582v4.31933a.41787.41787,0,0,1-.126.30664.43936.43936,0,0,1-.32422.126H153.7334A.41568.41568,0,0,1,153.42773,137.98576Zm4.91407-6.67871a2.38488,2.38488,0,0,0,1.62011-.47656,1.764,1.764,0,0,0,.54-1.39453,1.82246,1.82246,0,0,0-.54-1.41309,2.32745,2.32745,0,0,0-1.62011-.49511h-2.502v3.77929Z"/><path class="cls-2" d="M171.78711,137.98576a.41787.41787,0,0,1-.126-.30664v-9.918H168.332a.41789.41789,0,0,1-.30664-.126.4356.4356,0,0,1-.126-.32324v-1.35059a.45767.45767,0,0,1,.11719-.32422.41249.41249,0,0,1,.31543-.126h9.19727a.43153.43153,0,0,1,.45019.45019v1.35059a.43148.43148,0,0,1-.45019.44922h-3.31153v9.918a.43432.43432,0,0,1-.11718.30664.409.409,0,0,1-.31543.126h-1.69141A.41784.41784,0,0,1,171.78711,137.98576Z"/><path class="cls-2" d="M186.835,137.98576a.41787.41787,0,0,1-.126-.30664v-4.0498l-4.26562-7.542a.95672.95672,0,0,1-.05371-.19825.34885.34885,0,0,1,.11719-.26953.37177.37177,0,0,1,.26074-.10839h1.62012a.64156.64156,0,0,1,.55761.34277l3.02442,5.21973,3.042-5.21973a.8214.8214,0,0,1,.207-.23438.51313.51313,0,0,1,.333-.10839h1.62012a.37034.37034,0,0,1,.37792.37792.37612.37612,0,0,1-.05468.19825l-4.248,7.542v4.0498a.409.409,0,0,1-.126.31543.45517.45517,0,0,1-.32324.11719H187.1416A.41785.41785,0,0,1,186.835,137.98576Z"/><path class="cls-2" d="M206.27539,137.98576a.41787.41787,0,0,1-.126-.30664V125.96135a.45767.45767,0,0,1,.11719-.32422.41177.41177,0,0,1,.31445-.126h1.458a.602.602,0,0,1,.54.34277l3.47461,6.44336,3.47363-6.44336a.602.602,0,0,1,.54-.34277h1.44043a.43148.43148,0,0,1,.44922.45019v11.71777a.409.409,0,0,1-.126.31543.45517.45517,0,0,1-.32324.11719H215.959a.43014.43014,0,0,1-.43164-.43262v-7.73925l-2.502,4.75195a.63411.63411,0,0,1-.59375.39551h-.75586a.69567.69567,0,0,1-.6123-.39551l-2.502-4.75195v7.73925a.43432.43432,0,0,1-.11718.30664.409.409,0,0,1-.31543.126h-1.54786A.41567.41567,0,0,1,206.27539,137.98576Z"/><path class="cls-2" d="M223.32129,138.00334a.3689.3689,0,0,1-.10742-.26953l.03613-.16211,4.31934-11.61035a.65016.65016,0,0,1,.64843-.45019h1.9795a.65016.65016,0,0,1,.64843.45019L235.166,137.5717l.03613.16211a.35555.35555,0,0,1-.11719.26953.3757.3757,0,0,1-.26172.1084h-1.60156a.52338.52338,0,0,1-.52246-.3418l-.82715-2.17871H226.544l-.82813,2.17871a.52338.52338,0,0,1-.52246.3418H223.5918A.36655.36655,0,0,1,223.32129,138.00334Zm3.85254-4.5h4.06738l-2.0332-5.54394Z"/><path class="cls-2" d="M240.583,137.98576a.41784.41784,0,0,1-.126-.30664V125.96135a.45762.45762,0,0,1,.11719-.32422.41176.41176,0,0,1,.31445-.126h1.4043a.57406.57406,0,0,1,.52246.30664l5.14746,7.99218v-7.84863a.45762.45762,0,0,1,.11719-.32422.41176.41176,0,0,1,.31445-.126h1.54883a.43148.43148,0,0,1,.44922.45019v11.7002a.43932.43932,0,0,1-.126.32421.41566.41566,0,0,1-.30566.126h-1.42188a.5873.5873,0,0,1-.54-.30664l-5.12988-7.81152v7.68554a.43428.43428,0,0,1-.11719.30664.409.409,0,0,1-.31543.126h-1.54785A.41564.41564,0,0,1,240.583,137.98576Z"/><path class="cls-2" d="M255.73828,138.00334a.3689.3689,0,0,1-.10742-.26953l.03613-.16211,4.31934-11.61035a.65018.65018,0,0,1,.64844-.45019h1.97949a.65018.65018,0,0,1,.64844.45019L267.583,137.5717l.03613.16211a.35555.35555,0,0,1-.11719.26953.3757.3757,0,0,1-.26172.1084h-1.60156a.52338.52338,0,0,1-.52246-.3418l-.82715-2.17871h-5.32812l-.82813,2.17871a.52338.52338,0,0,1-.52246.3418h-1.60156A.36656.36656,0,0,1,255.73828,138.00334Zm3.85254-4.5h4.06738l-2.0332-5.54394Z"/><path class="cls-2" d="M273.67578,137.01311a4.89723,4.89723,0,0,1-1.4668-3.56348q-.019-.52148-.01855-1.67383,0-1.15283.01855-1.67382a4.69386,4.69386,0,0,1,1.47559-3.502,5.53268,5.53268,0,0,1,3.85156-1.26855,6.61318,6.61318,0,0,1,2.85352.56738,4.63947,4.63947,0,0,1,1.80859,1.40332,3.03538,3.03538,0,0,1,.64844,1.64746.36434.36434,0,0,1-.1084.26953.38734.38734,0,0,1-.28808.1084h-1.88965a.42987.42987,0,0,1-.27051-.07226.61726.61726,0,0,1-.16113-.2334,2.51991,2.51991,0,0,0-.88282-1.13477,2.80889,2.80889,0,0,0-1.71-.46777,2.74956,2.74956,0,0,0-1.9707.6748,2.88092,2.88092,0,0,0-.74707,2.09766q-.01758.52149-.01758,1.584,0,1.043.01758,1.584a2.97489,2.97489,0,0,0,.75586,2.15039,2.73477,2.73477,0,0,0,1.98047.69336,2.9843,2.9843,0,0,0,2.05176-.6836,2.59851,2.59851,0,0,0,.77441-2.05273v-.55762h-2.19629a.43011.43011,0,0,1-.43164-.43164v-.99023a.43014.43014,0,0,1,.43164-.43262h4.32031a.441.441,0,0,1,.32325.126.41944.41944,0,0,1,.126.30664v1.9082a4.94444,4.94444,0,0,1-.666,2.60059,4.37255,4.37255,0,0,1-1.88965,1.70117,6.49532,6.49532,0,0,1-2.86231.59375A5.45857,5.45857,0,0,1,273.67578,137.01311Z"/><path class="cls-2" d="M288.9668,137.98576a.41784.41784,0,0,1-.126-.30664V125.96135a.45762.45762,0,0,1,.11719-.32422.41176.41176,0,0,1,.31445-.126h7.93848a.43153.43153,0,0,1,.45019.45019v1.20606a.414.414,0,0,1-.126.31542.45863.45863,0,0,1-.32422.11622h-5.9043v3.15039h5.50781a.43155.43155,0,0,1,.4502.45019v1.13379a.41046.41046,0,0,1-.126.31543.457.457,0,0,1-.32422.11621h-5.50781v3.25879h6.04785a.46135.46135,0,0,1,.32422.11621.41192.41192,0,0,1,.126.31543v1.22363a.409.409,0,0,1-.126.31543.45761.45761,0,0,1-.32422.11719h-8.082A.41564.41564,0,0,1,288.9668,137.98576Z"/><path class="cls-2" d="M303.78027,137.98576a.41787.41787,0,0,1-.126-.30664V125.96135a.45766.45766,0,0,1,.11718-.32422.41178.41178,0,0,1,.31446-.126h1.458a.602.602,0,0,1,.54.34277l3.47461,6.44336,3.47364-6.44336a.602.602,0,0,1,.54-.34277h1.44043a.43146.43146,0,0,1,.44921.45019v11.71777a.409.409,0,0,1-.126.31543.4552.4552,0,0,1-.32324.11719h-1.54883a.43012.43012,0,0,1-.43164-.43262v-7.73925l-2.502,4.75195a.63409.63409,0,0,1-.59375.39551h-.75586a.69567.69567,0,0,1-.6123-.39551l-2.50195-4.75195v7.73925a.43432.43432,0,0,1-.11719.30664.409.409,0,0,1-.31543.126h-1.54785A.41568.41568,0,0,1,303.78027,137.98576Z"/><path class="cls-2" d="M321.99609,137.98576a.41787.41787,0,0,1-.126-.30664V125.96135a.45766.45766,0,0,1,.11718-.32422.41178.41178,0,0,1,.31446-.126h7.93847a.43.43,0,0,1,.44922.45019v1.20606a.40979.40979,0,0,1-.125.31542.45536.45536,0,0,1-.32422.11622h-5.90429v3.15039h5.50781a.433.433,0,0,1,.45117.45019v1.13379a.41116.41116,0,0,1-.12695.31543.45538.45538,0,0,1-.32422.11621h-5.50781v3.25879h6.04883a.463.463,0,0,1,.32421.11621.41125.41125,0,0,1,.125.31543v1.22363a.40836.40836,0,0,1-.125.31543.45922.45922,0,0,1-.32421.11719h-8.083A.41568.41568,0,0,1,321.99609,137.98576Z"/><path class="cls-2" d="M336.81055,137.98576a.41784.41784,0,0,1-.126-.30664V125.96135a.45338.45338,0,0,1,.11719-.32422.4103.4103,0,0,1,.31445-.126h1.4043a.57259.57259,0,0,1,.52148.30664l5.14844,7.99218v-7.84863a.45762.45762,0,0,1,.11719-.32422.41029.41029,0,0,1,.31445-.126h1.54785a.43155.43155,0,0,1,.4502.45019v11.7002a.43932.43932,0,0,1-.126.32421.41721.41721,0,0,1-.30566.126H344.7666a.58628.58628,0,0,1-.54-.30664l-5.12988-7.81152v7.68554a.43428.43428,0,0,1-.11719.30664.41046.41046,0,0,1-.31543.126h-1.54785A.41564.41564,0,0,1,336.81055,137.98576Z"/><path class="cls-2" d="M355.90723,137.98576a.41784.41784,0,0,1-.126-.30664v-9.918h-3.33008a.41568.41568,0,0,1-.30566-.126.43556.43556,0,0,1-.126-.32324v-1.35059a.45762.45762,0,0,1,.11719-.32422.41176.41176,0,0,1,.31445-.126h9.19824a.43155.43155,0,0,1,.4502.45019v1.35059a.4315.4315,0,0,1-.4502.44922h-3.31152v9.918a.43428.43428,0,0,1-.11719.30664.41046.41046,0,0,1-.31543.126h-1.6914A.41784.41784,0,0,1,355.90723,137.98576Z"/><line class="cls-3" x1="12.5" y1="133" x2="62.5" y2="133"/><line class="cls-4" x1="377.5" y1="133" x2="427.5" y2="133"/></g><g id="Planning_Zoning" data-name="Planning &amp; Zoning"><rect class="cls-5" x="162.5" y="-162.202" width="115" height="440" rx="4.94413" transform="translate(277.798 -162.202) rotate(90)"/><rect class="cls-6" x="5" y="7.798" width="240" height="100" rx="6.74481"/><path class="cls-7" d="M15.74762,91.998A2.68447,2.68447,0,0,1,15,90.09756V25.49844a2.68945,2.68945,0,0,1,.74762-1.90039,2.35051,2.35051,0,0,1,1.77585-.79981H32.29a4.047,4.047,0,0,1,3.83181,2.29981L51.91612,52.79824V25.49844a2.68945,2.68945,0,0,1,.74762-1.90039,2.3505,2.3505,0,0,1,1.77585-.79981H71.3558a2.355,2.355,0,0,1,1.77585.79981,2.69576,2.69576,0,0,1,.74762,1.90039V90.09756a2.69075,2.69075,0,0,1-.74762,1.90039,2.3499,2.3499,0,0,1-1.77585.79981H56.58925a3.69935,3.69935,0,0,1-2.42978-.7002,6.61736,6.61736,0,0,1-1.402-1.59961L36.96267,64.99844V90.09756A2.68861,2.68861,0,0,1,36.215,91.998a2.34887,2.34887,0,0,1-1.77536.79981H17.52347A2.34545,2.34545,0,0,1,15.74762,91.998Z"/><path class="cls-7" d="M95.88806,91.64834A4.407,4.407,0,0,1,94.53262,88.998L85.93446,25.29824v-.2998a2.189,2.189,0,0,1,.60781-1.55029,1.91677,1.91677,0,0,1,1.44865-.64991h17.38322a4.12051,4.12051,0,0,1,2.47639.6001,2.70289,2.70289,0,0,1,.88792,2.1001l3.17789,28.19971,3.83181-12.5q.93284-2.89893,3.17741-2.89991h9.53269q2.24286,0,3.17788,2.89991l3.83182,12.3999,3.1774-28.09961a2.69322,2.69322,0,0,1,.88793-2.1001,4.11744,4.11744,0,0,1,2.47638-.6001h17.38371a1.92046,1.92046,0,0,1,1.44864.64991,2.19692,2.19692,0,0,1,.60733,1.55029v.2998L152.85118,88.998a4.42008,4.42008,0,0,1-1.35544,2.65039,4.027,4.027,0,0,1-2.94389,1.14942h-13.3645a3.45264,3.45264,0,0,1-2.57008-.89942,5.73643,5.73643,0,0,1-1.26174-1.80078L123.6919,69.59805l-7.66363,20.49951a5.78463,5.78463,0,0,1-1.26174,1.80078,3.45489,3.45489,0,0,1-2.57008.89942H98.832A4.02233,4.02233,0,0,1,95.88806,91.64834Z"/><path class="cls-7" d="M174.25167,91.998a2.68447,2.68447,0,0,1-.74762-1.90039V25.49844a2.68945,2.68945,0,0,1,.74762-1.90039,2.35048,2.35048,0,0,1,1.77585-.79981h17.85074a2.355,2.355,0,0,1,1.77584.79981,2.69573,2.69573,0,0,1,.74763,1.90039v19.7998l10.56043-20.2998a3.87633,3.87633,0,0,1,3.73861-2.2002h20.65432a1.919,1.919,0,0,1,1.44864.64991,2.28374,2.28374,0,0,1,.32624,2.6499L216.30843,56.29824,234.72037,89.498A1.898,1.898,0,0,1,235,90.59756a2.19813,2.19813,0,0,1-.60781,1.55078,1.91508,1.91508,0,0,1-1.44864.64942H211.6353a3.9153,3.9153,0,0,1-2.52348-.75,4.47078,4.47078,0,0,1-1.30834-1.54981l-11.40175-21.7998V90.09756a2.69072,2.69072,0,0,1-.74763,1.90039,2.34986,2.34986,0,0,1-1.77584.79981H176.02752A2.34542,2.34542,0,0,1,174.25167,91.998Z"/><path class="cls-7" d="M255.839,87.11279a2.30306,2.30306,0,0,1-.639-1.62836V30.11254a2.30832,2.30832,0,0,1,.639-1.62884,2.00807,2.00807,0,0,1,1.51845-.6857h40.99329a2.01177,2.01177,0,0,1,1.51845.6857,2.313,2.313,0,0,1,.63952,1.62884V42.19819a2.30684,2.30684,0,0,1-.63952,1.62836,2.005,2.005,0,0,1-1.51845.6857H274.378V49.9122h22.21491a2.0125,2.0125,0,0,1,1.51845.6857,2.31253,2.31253,0,0,1,.639,1.62885v11.143a2.30641,2.30641,0,0,1-.639,1.62836,2.00743,2.00743,0,0,1-1.51845.6857H274.378v5.40044H298.9903a2.012,2.012,0,0,1,1.51845.68521,2.31216,2.31216,0,0,1,.639,1.62836V85.48443a2.3072,2.3072,0,0,1-.639,1.62836,2.00861,2.00861,0,0,1-1.51845.68521H257.35749A2.00421,2.00421,0,0,1,255.839,87.11279Z"/><path class="cls-7" d="M313.13321,87.15561a2.26712,2.26712,0,0,1-.639-1.67118V30.11254a2.30832,2.30832,0,0,1,.639-1.62884,2.008,2.008,0,0,1,1.51845-.6857H330.314a2.01075,2.01075,0,0,1,1.518.6857,2.31085,2.31085,0,0,1,.63953,1.62884v18h12.94542v-18a2.30621,2.30621,0,0,1,.639-1.62884,2.008,2.008,0,0,1,1.51844-.6857H363.2367a2.01076,2.01076,0,0,1,1.518.6857,2.31293,2.31293,0,0,1,.63952,1.62884V85.48443a2.30764,2.30764,0,0,1-.63952,1.62836,2.00689,2.00689,0,0,1-1.518.68521H347.57438a2.00417,2.00417,0,0,1-1.51844-.68521,2.301,2.301,0,0,1-.639-1.62836V66.96955H332.47147V85.48443a2.30558,2.30558,0,0,1-.63953,1.62836,2.00688,2.00688,0,0,1-1.518.68521H314.65166A2.06735,2.06735,0,0,1,313.13321,87.15561Z"/><path class="cls-7" d="M378.81794,87.11279a2.30306,2.30306,0,0,1-.639-1.62836V30.11254a2.30832,2.30832,0,0,1,.639-1.62884,2.008,2.008,0,0,1,1.51845-.6857H403.3501a31.76264,31.76264,0,0,1,13.50483,2.7428,22.3529,22.3529,0,0,1,9.42925,8.05759,24.07187,24.07187,0,0,1,3.75558,12.77135q.15927,4.80112.16024,6.51391,0,1.62933-.16024,6.25744-.47928,11.828-7.4711,17.743-6.99375,5.91435-18.81892,5.91386H380.33639A2.00418,2.00418,0,0,1,378.81794,87.11279ZM403.3501,71.08424a6.03006,6.03006,0,0,0,4.5148-1.75781,7.66845,7.66845,0,0,0,1.878-5.18534q.15929-2.48561.15977-6.42874,0-4.02807-.15977-6.34261a7.10522,7.10522,0,0,0-2.03779-5.143,6.78189,6.78189,0,0,0-4.7542-1.7145H398.1562v26.572Z"/></g></svg>