<svg xmlns="http://www.w3.org/2000/svg" viewBox="0 0 250 300"><defs><style>.cls-1{fill:#fff;}.cls-2{fill:#0d47a1;}.cls-3{fill:#ffe471;}.cls-4{fill:#ffebc5;}.cls-5{fill:#e5aa7d;}</style></defs><title>NwkEhd_Divs_web</title><g id="Rent_Control" data-name="Rent Control"><rect class="cls-1" x="-25" y="25" width="300" height="250" rx="21.33352" transform="translate(275 25) rotate(90)"/><rect class="cls-2" y="8.04416" width="250" height="283.91167" rx="18.55089"/><path class="cls-1" d="M25.69926,117.2002A2.788,2.788,0,0,1,25,115.2998V50.7002a2.79322,2.79322,0,0,1,.69926-1.9004A2.13876,2.13876,0,0,1,27.36024,48H41.17158a3.76181,3.76181,0,0,1,3.584,2.2998L59.52813,78V50.7002a2.79322,2.79322,0,0,1,.69927-1.9004A2.13874,2.13874,0,0,1,61.88837,48H77.71032a2.14277,2.14277,0,0,1,1.661.7998,2.79978,2.79978,0,0,1,.69926,1.9004v64.5996a2.79452,2.79452,0,0,1-.69926,1.9004,2.13813,2.13813,0,0,1-1.661.7998H63.899a3.30782,3.30782,0,0,1-2.2726-.7002,6.51418,6.51418,0,0,1-1.31135-1.5996L45.542,90.2002v25.0996a2.79235,2.79235,0,0,1-.69926,1.9004A2.13724,2.13724,0,0,1,43.18219,118H27.36024A2.13415,2.13415,0,0,1,25.69926,117.2002Z"/><path class="cls-1" d="M97.771,116.8501a4.51928,4.51928,0,0,1-1.26776-2.6499L88.46126,50.5v-.2998a2.27371,2.27371,0,0,1,.56849-1.5503A1.74379,1.74379,0,0,1,90.38469,48h16.25876a3.66384,3.66384,0,0,1,2.31619.6001,2.78952,2.78952,0,0,1,.83049,2.1001l2.97232,28.1997,3.584-12.5q.87249-2.89891,2.97186-2.8999h8.91606q2.09778,0,2.97232,2.8999l3.58394,12.3999,2.97187-28.0996a2.77948,2.77948,0,0,1,.83049-2.1001A3.66121,3.66121,0,0,1,140.90913,48h16.25922a1.7471,1.7471,0,0,1,1.35493.6499,2.282,2.282,0,0,1,.568,1.5503V50.5l-8.042,63.7002a4.53273,4.53273,0,0,1-1.26776,2.6499A3.63781,3.63781,0,0,1,147.02813,118h-12.5a3.10738,3.10738,0,0,1-2.40382-.8999,5.7577,5.7577,0,0,1-1.18012-1.8003l-7.1679-20.5-7.1679,20.5a5.8065,5.8065,0,0,1-1.18011,1.8003,3.1094,3.1094,0,0,1-2.40383.8999h-12.5A3.63367,3.63367,0,0,1,97.771,116.8501Z"/><path class="cls-1" d="M168.18083,117.2002a2.788,2.788,0,0,1-.69927-1.9004V50.7002a2.79322,2.79322,0,0,1,.69927-1.9004A2.13874,2.13874,0,0,1,169.8418,48h16.696a2.14143,2.14143,0,0,1,1.661.7998,2.79761,2.79761,0,0,1,.69926,1.9004V70.5l9.87777-20.2998A3.59989,3.59989,0,0,1,202.27215,48h19.31872a1.74845,1.74845,0,0,1,1.35493.6499,2.28385,2.28385,0,0,1,.56759,1.5503,2.32306,2.32306,0,0,1-.26245,1.0996L207.51753,81.5l17.22,33.2002A1.99677,1.99677,0,0,1,225,115.7998a2.282,2.282,0,0,1-.56849,1.5503,1.74249,1.74249,0,0,1-1.35494.6499H203.14668a3.50015,3.50015,0,0,1-2.36024-.75,4.42165,4.42165,0,0,1-1.22416-1.5498L188.89807,93.8999v21.3999a2.79235,2.79235,0,0,1-.69926,1.9004,2.1368,2.1368,0,0,1-1.661.7998h-16.696A2.13413,2.13413,0,0,1,168.18083,117.2002Z"/><rect class="cls-1" x="25" y="148" width="200" height="4" rx="0.58161"/><path class="cls-3" d="M56.615,256.25019a2.56335,2.56335,0,0,1-.752-1.8476V191.59741a2.56806,2.56806,0,0,1,.752-1.8476,2.40077,2.40077,0,0,1,1.78613-.77759H86.22534q13.53589,0,21.1499,6.271,7.61353,6.27054,7.61377,17.35378a22.19778,22.19778,0,0,1-2.72607,11.13214,22.98153,22.98153,0,0,1-7.42578,7.92351l11.562,22.16695a2.48522,2.48522,0,0,1,.28174,1.06907,2.09523,2.09523,0,0,1-.61084,1.50723,1.95578,1.95578,0,0,1-1.457.63185H95.343a4.03785,4.03785,0,0,1-2.67871-.82649,4.46633,4.46633,0,0,1-1.36328-1.7987l-8.084-18.56907H79.363v18.56907a2.56731,2.56731,0,0,1-.752,1.8476,2.40015,2.40015,0,0,1-1.78613.77759H58.40112A2.39558,2.39558,0,0,1,56.615,256.25019ZM86.22534,217.3613a3.85756,3.85756,0,0,0,3.1958-1.40991,5.4975,5.4975,0,0,0,1.12793-3.54852,6.54764,6.54764,0,0,0-1.08105-3.74315,3.65068,3.65068,0,0,0-3.24268-1.60407H79.363V217.3613Z"/><path class="cls-3" d="M139.89868,251.53482q-8.36792-6.465-8.93017-19.88214-.09449-2.62472-.09424-8.55536,0-6.027.09424-8.75.564-13.02746,9.11816-19.6875,8.55249-6.65863,22.37158-6.65982a44.52338,44.52338,0,0,1,15.55762,2.62519,26.01213,26.01213,0,0,1,11.56152,8.215q4.46338,5.59194,4.55957,14.0488a2.09182,2.09182,0,0,1-.61133,1.50676,1.95325,1.95325,0,0,1-1.457.63185H172.89282a3.43422,3.43422,0,0,1-2.209-.583,5.02524,5.02524,0,0,1-1.26953-2.23639,8.0306,8.0306,0,0,0-2.72559-4.083,7.45365,7.45365,0,0,0-4.32422-1.16686,6.83737,6.83737,0,0,0-5.07617,1.79871q-1.78638,1.80014-1.87988,6.07639-.09448,2.62472-.09375,8.06925,0,5.446.09375,8.26389.09228,4.27959,1.87988,6.07639a6.83166,6.83166,0,0,0,5.07617,1.79871q5.35841,0,7.04981-5.24991a4.49175,4.49175,0,0,1,1.17578-2.23639,3.61289,3.61289,0,0,1,2.30273-.583H192.0686a1.95848,1.95848,0,0,1,1.457.63185,2.09419,2.09419,0,0,1,.61133,1.50676q-.0952,8.45875-4.55957,14.0488a25.99743,25.99743,0,0,1-11.56152,8.215A44.52338,44.52338,0,0,1,162.45825,258Q148.26392,258,139.89868,251.53482Z"/><path class="cls-4" d="M56.615,256.25019a2.56335,2.56335,0,0,1-.752-1.8476V191.59741a2.56806,2.56806,0,0,1,.752-1.8476,2.40077,2.40077,0,0,1,1.78613-.77759H86.22534q13.53589,0,21.1499,6.271,7.61353,6.27054,7.61377,17.35378a22.19778,22.19778,0,0,1-2.72607,11.13214,22.98153,22.98153,0,0,1-7.42578,7.92351l11.562,22.16695a2.48522,2.48522,0,0,1,.28174,1.06907,2.09523,2.09523,0,0,1-.61084,1.50723,1.95578,1.95578,0,0,1-1.457.63185H95.343a4.03785,4.03785,0,0,1-2.67871-.82649,4.46633,4.46633,0,0,1-1.36328-1.7987l-8.084-18.56907H79.363v18.56907a2.56731,2.56731,0,0,1-.752,1.8476,2.40015,2.40015,0,0,1-1.78613.77759H58.40112A2.39558,2.39558,0,0,1,56.615,256.25019ZM86.22534,217.3613a3.85756,3.85756,0,0,0,3.1958-1.40991,5.4975,5.4975,0,0,0,1.12793-3.54852,6.54764,6.54764,0,0,0-1.08105-3.74315,3.65068,3.65068,0,0,0-3.24268-1.60407H79.363V217.3613Z"/><path class="cls-4" d="M139.89868,251.53482q-8.36792-6.465-8.93017-19.88214-.09449-2.62472-.09424-8.55536,0-6.027.09424-8.75.564-13.02746,9.11816-19.6875,8.55249-6.65863,22.37158-6.65982a44.52338,44.52338,0,0,1,15.55762,2.62519,26.01213,26.01213,0,0,1,11.56152,8.215q4.46338,5.59194,4.55957,14.0488a2.09182,2.09182,0,0,1-.61133,1.50676,1.95325,1.95325,0,0,1-1.457.63185H172.89282a3.43422,3.43422,0,0,1-2.209-.583,5.02524,5.02524,0,0,1-1.26953-2.23639,8.0306,8.0306,0,0,0-2.72559-4.083,7.45365,7.45365,0,0,0-4.32422-1.16686,6.83737,6.83737,0,0,0-5.07617,1.79871q-1.78638,1.80014-1.87988,6.07639-.09448,2.62472-.09375,8.06925,0,5.446.09375,8.26389.09228,4.27959,1.87988,6.07639a6.83166,6.83166,0,0,0,5.07617,1.79871q5.35841,0,7.04981-5.24991a4.49175,4.49175,0,0,1,1.17578-2.23639,3.61289,3.61289,0,0,1,2.30273-.583H192.0686a1.95848,1.95848,0,0,1,1.457.63185,2.09419,2.09419,0,0,1,.61133,1.50676q-.0952,8.45875-4.55957,14.0488a25.99743,25.99743,0,0,1-11.56152,8.215A44.52338,44.52338,0,0,1,162.45825,258Q148.26392,258,139.89868,251.53482Z"/><path class="cls-5" d="M56.615,256.25019a2.56335,2.56335,0,0,1-.752-1.8476V191.59741a2.56806,2.56806,0,0,1,.752-1.8476,2.40077,2.40077,0,0,1,1.78613-.77759H86.22534q13.53589,0,21.1499,6.271,7.61353,6.27054,7.61377,17.35378a22.19778,22.19778,0,0,1-2.72607,11.13214,22.98153,22.98153,0,0,1-7.42578,7.92351l11.562,22.16695a2.48522,2.48522,0,0,1,.28174,1.06907,2.09523,2.09523,0,0,1-.61084,1.50723,1.95578,1.95578,0,0,1-1.457.63185H95.343a4.03785,4.03785,0,0,1-2.67871-.82649,4.46633,4.46633,0,0,1-1.36328-1.7987l-8.084-18.56907H79.363v18.56907a2.56731,2.56731,0,0,1-.752,1.8476,2.40015,2.40015,0,0,1-1.78613.77759H58.40112A2.39558,2.39558,0,0,1,56.615,256.25019ZM86.22534,217.3613a3.85756,3.85756,0,0,0,3.1958-1.40991,5.4975,5.4975,0,0,0,1.12793-3.54852,6.54764,6.54764,0,0,0-1.08105-3.74315,3.65068,3.65068,0,0,0-3.24268-1.60407H79.363V217.3613Z"/><path class="cls-5" d="M139.89868,251.53482q-8.36792-6.465-8.93017-19.88214-.09449-2.62472-.09424-8.55536,0-6.027.09424-8.75.564-13.02746,9.11816-19.6875,8.55249-6.65863,22.37158-6.65982a44.52338,44.52338,0,0,1,15.55762,2.62519,26.01213,26.01213,0,0,1,11.56152,8.215q4.46338,5.59194,4.55957,14.0488a2.09182,2.09182,0,0,1-.61133,1.50676,1.95325,1.95325,0,0,1-1.457.63185H172.89282a3.43422,3.43422,0,0,1-2.209-.583,5.02524,5.02524,0,0,1-1.26953-2.23639,8.0306,8.0306,0,0,0-2.72559-4.083,7.45365,7.45365,0,0,0-4.32422-1.16686,6.83737,6.83737,0,0,0-5.07617,1.79871q-1.78638,1.80014-1.87988,6.07639-.09448,2.62472-.09375,8.06925,0,5.446.09375,8.26389.09228,4.27959,1.87988,6.07639a6.83166,6.83166,0,0,0,5.07617,1.79871q5.35841,0,7.04981-5.24991a4.49175,4.49175,0,0,1,1.17578-2.23639,3.61289,3.61289,0,0,1,2.30273-.583H192.0686a1.95848,1.95848,0,0,1,1.457.63185,2.09419,2.09419,0,0,1,.61133,1.50676q-.0952,8.45875-4.55957,14.0488a25.99743,25.99743,0,0,1-11.56152,8.215A44.52338,44.52338,0,0,1,162.45825,258Q148.26392,258,139.89868,251.53482Z"/></g></svg>