<svg xmlns="http://www.w3.org/2000/svg" viewBox="0 0 250 300"><defs><style>.cls-1{fill:#fff;}.cls-2{fill:#0d47a1;}.cls-3{fill:#ffe471;}.cls-4{fill:#ffebc5;}.cls-5{fill:#b1aea4;}</style></defs><title>NwkEhd_Divs_web</title><g id="Tenant_Legal_Services" data-name="Tenant Legal Services"><rect class="cls-1" x="-25" y="25" width="300" height="250" rx="21.33352" transform="translate(275 25) rotate(90)"/><rect class="cls-2" y="8.04416" width="250" height="283.91167" rx="18.55089"/><path class="cls-1" d="M25.69926,117.2002A2.788,2.788,0,0,1,25,115.2998V50.7002a2.79146,2.79146,0,0,1,.69926-1.9004A2.13722,2.13722,0,0,1,27.36024,48H41.172a3.7609,3.7609,0,0,1,3.58349,2.2998L59.52813,78V50.7002a2.79147,2.79147,0,0,1,.69927-1.9004A2.1372,2.1372,0,0,1,61.88837,48H77.71078a2.14254,2.14254,0,0,1,1.661.7998,2.80021,2.80021,0,0,1,.69927,1.9004v64.5996a2.7967,2.7967,0,0,1-.69927,1.9004,2.13945,2.13945,0,0,1-1.661.7998H63.899a3.30824,3.30824,0,0,1-2.27215-.7002,6.513,6.513,0,0,1-1.31134-1.5996L45.542,90.2002v25.0996a2.79235,2.79235,0,0,1-.69926,1.9004A2.13636,2.13636,0,0,1,43.18264,118H27.36024A2.13415,2.13415,0,0,1,25.69926,117.2002Z"/><path class="cls-1" d="M97.77144,116.84961a4.518,4.518,0,0,1-1.26775-2.64941L88.46126,50.5v-.2998a2.27623,2.27623,0,0,1,.56849-1.55079A1.74393,1.74393,0,0,1,90.38469,48H106.6439a3.66562,3.66562,0,0,1,2.31574.59961,2.79165,2.79165,0,0,1,.83094,2.10059l2.97232,28.19921,3.5835-12.5q.87317-2.89891,2.97232-2.89941h8.916q2.09779,0,2.97232,2.89941l3.58349,12.40039,2.97232-28.0996a2.78143,2.78143,0,0,1,.83-2.10059A3.66679,3.66679,0,0,1,140.90959,48H157.1688a1.74793,1.74793,0,0,1,1.35494.64941,2.28425,2.28425,0,0,1,.56758,1.55079V50.5l-8.04152,63.7002a4.53415,4.53415,0,0,1-1.26775,2.64941A3.63717,3.63717,0,0,1,147.02859,118H134.52813a3.10587,3.10587,0,0,1-2.40382-.90039,5.754,5.754,0,0,1-1.17967-1.79981l-7.1679-20.5-7.16789,20.5a5.80677,5.80677,0,0,1-1.18057,1.79981A3.10724,3.10724,0,0,1,113.02445,118H100.5249A3.63167,3.63167,0,0,1,97.77144,116.84961Z"/><path class="cls-1" d="M168.18083,117.2002a2.788,2.788,0,0,1-.69927-1.9004V50.7002a2.79147,2.79147,0,0,1,.69927-1.9004A2.1372,2.1372,0,0,1,169.8418,48h16.696a2.13988,2.13988,0,0,1,1.661.7998,2.79585,2.79585,0,0,1,.69926,1.9004V70.5l9.87777-20.2998A3.59989,3.59989,0,0,1,202.27215,48h19.31872a1.74793,1.74793,0,0,1,1.35493.64941,2.28421,2.28421,0,0,1,.56759,1.55079,2.32587,2.32587,0,0,1-.26245,1.0996L207.51753,81.5l17.22,33.2002A1.99451,1.99451,0,0,1,225,115.7998a2.28079,2.28079,0,0,1-.56849,1.54981A1.74147,1.74147,0,0,1,223.07657,118H203.14668a3.50015,3.50015,0,0,1-2.36024-.75,4.42165,4.42165,0,0,1-1.22416-1.5498L188.89807,93.89941V115.2998a2.79235,2.79235,0,0,1-.69926,1.9004,2.1368,2.1368,0,0,1-1.661.7998h-16.696A2.13413,2.13413,0,0,1,168.18083,117.2002Z"/><rect class="cls-1" x="25" y="148" width="200" height="4" rx="0.58161"/><path class="cls-3" d="M43.59359,256.25019a2.5849,2.5849,0,0,1-.74-1.8476V209.875H27.49779a2.34026,2.34026,0,0,1-1.75778-.77759,2.58092,2.58092,0,0,1-.74-1.8476v-15.6524a2.5841,2.5841,0,0,1,.74-1.8476,2.34364,2.34364,0,0,1,1.75778-.77759H81.70722a2.3461,2.3461,0,0,1,1.75682.77759,2.59213,2.59213,0,0,1,.74,1.8476v15.6524a2.58893,2.58893,0,0,1-.74,1.8476,2.3427,2.3427,0,0,1-1.75682.77759H66.35048v44.52759a2.58891,2.58891,0,0,1-.74,1.8476,2.3447,2.3447,0,0,1-1.75777.77759H45.35136A2.34022,2.34022,0,0,1,43.59359,256.25019Z"/><path class="cls-3" d="M100.85534,256.25019a2.58494,2.58494,0,0,1-.74-1.8476V191.59741a2.58811,2.58811,0,0,1,.74-1.8476,2.34363,2.34363,0,0,1,1.75778-.77759h18.50132a2.34662,2.34662,0,0,1,1.75778.77759,2.59213,2.59213,0,0,1,.74,1.8476v45.49981h25.62469a2.34659,2.34659,0,0,1,1.75777.77759,2.5921,2.5921,0,0,1,.74,1.8476v14.68018a2.58891,2.58891,0,0,1-.74,1.8476,2.34319,2.34319,0,0,1-1.75777.77759h-46.6238A2.34024,2.34024,0,0,1,100.85534,256.25019Z"/><path class="cls-3" d="M177.68231,255.18018a23.18194,23.18194,0,0,1-10.22181-7.53473,18.28957,18.28957,0,0,1-3.60781-10.35359,2.10607,2.10607,0,0,1,.60162-1.50771,1.91085,1.91085,0,0,1,1.43294-.63137H183.464a5.33671,5.33671,0,0,1,2.08165.3399,7.90617,7.90617,0,0,1,1.89617,1.31307,10.326,10.326,0,0,0,6.84561,2.23592,14.35266,14.35266,0,0,0,5.04171-.72917q1.89569-.72916,1.89617-1.99287,0-1.75027-2.49779-2.67361a53.29307,53.29307,0,0,0-9.43567-1.896Q165.425,228.446,165.425,210.36111a19.81026,19.81026,0,0,1,3.56168-11.61824,23.23181,23.23181,0,0,1,9.945-7.924A36.10045,36.10045,0,0,1,193.63972,188a35.31011,35.31011,0,0,1,15.26448,3.1113,26.27719,26.27719,0,0,1,10.08246,7.8262,16.66906,16.66906,0,0,1,3.701,9.18769,2.11029,2.11029,0,0,1-.60162,1.50675,1.81524,1.81524,0,0,1-1.34163.63138H202.24311a4.95059,4.95059,0,0,1-2.03552-.3399,6.50263,6.50263,0,0,1-1.66455-1.21528,7.05083,7.05083,0,0,0-4.90332-1.74981q-4.44009,0-4.44009,2.722,0,1.45833,2.17391,2.43055a33.31066,33.31066,0,0,0,8.094,1.74981,54.8651,54.8651,0,0,1,14.84835,3.79205,17.53685,17.53685,0,0,1,8.14016,6.75713A20.36436,20.36436,0,0,1,225,235.055a19.37022,19.37022,0,0,1-3.97782,12.10435,25.37367,25.37367,0,0,1-10.96183,8.02084A41.84393,41.84393,0,0,1,194.28747,258,43.39509,43.39509,0,0,1,177.68231,255.18018Z"/><path class="cls-4" d="M43.59359,256.25019a2.5849,2.5849,0,0,1-.74-1.8476V209.875H27.49779a2.34026,2.34026,0,0,1-1.75778-.77759,2.58092,2.58092,0,0,1-.74-1.8476v-15.6524a2.5841,2.5841,0,0,1,.74-1.8476,2.34364,2.34364,0,0,1,1.75778-.77759H81.70722a2.3461,2.3461,0,0,1,1.75682.77759,2.59213,2.59213,0,0,1,.74,1.8476v15.6524a2.58893,2.58893,0,0,1-.74,1.8476,2.3427,2.3427,0,0,1-1.75682.77759H66.35048v44.52759a2.58891,2.58891,0,0,1-.74,1.8476,2.3447,2.3447,0,0,1-1.75777.77759H45.35136A2.34022,2.34022,0,0,1,43.59359,256.25019Z"/><path class="cls-4" d="M100.85534,256.25019a2.58494,2.58494,0,0,1-.74-1.8476V191.59741a2.58811,2.58811,0,0,1,.74-1.8476,2.34363,2.34363,0,0,1,1.75778-.77759h18.50132a2.34662,2.34662,0,0,1,1.75778.77759,2.59213,2.59213,0,0,1,.74,1.8476v45.49981h25.62469a2.34659,2.34659,0,0,1,1.75777.77759,2.5921,2.5921,0,0,1,.74,1.8476v14.68018a2.58891,2.58891,0,0,1-.74,1.8476,2.34319,2.34319,0,0,1-1.75777.77759h-46.6238A2.34024,2.34024,0,0,1,100.85534,256.25019Z"/><path class="cls-4" d="M177.68231,255.18018a23.18194,23.18194,0,0,1-10.22181-7.53473,18.28957,18.28957,0,0,1-3.60781-10.35359,2.10607,2.10607,0,0,1,.60162-1.50771,1.91085,1.91085,0,0,1,1.43294-.63137H183.464a5.33671,5.33671,0,0,1,2.08165.3399,7.90617,7.90617,0,0,1,1.89617,1.31307,10.326,10.326,0,0,0,6.84561,2.23592,14.35266,14.35266,0,0,0,5.04171-.72917q1.89569-.72916,1.89617-1.99287,0-1.75027-2.49779-2.67361a53.29307,53.29307,0,0,0-9.43567-1.896Q165.425,228.446,165.425,210.36111a19.81026,19.81026,0,0,1,3.56168-11.61824,23.23181,23.23181,0,0,1,9.945-7.924A36.10045,36.10045,0,0,1,193.63972,188a35.31011,35.31011,0,0,1,15.26448,3.1113,26.27719,26.27719,0,0,1,10.08246,7.8262,16.66906,16.66906,0,0,1,3.701,9.18769,2.11029,2.11029,0,0,1-.60162,1.50675,1.81524,1.81524,0,0,1-1.34163.63138H202.24311a4.95059,4.95059,0,0,1-2.03552-.3399,6.50263,6.50263,0,0,1-1.66455-1.21528,7.05083,7.05083,0,0,0-4.90332-1.74981q-4.44009,0-4.44009,2.722,0,1.45833,2.17391,2.43055a33.31066,33.31066,0,0,0,8.094,1.74981,54.8651,54.8651,0,0,1,14.84835,3.79205,17.53685,17.53685,0,0,1,8.14016,6.75713A20.36436,20.36436,0,0,1,225,235.055a19.37022,19.37022,0,0,1-3.97782,12.10435,25.37367,25.37367,0,0,1-10.96183,8.02084A41.84393,41.84393,0,0,1,194.28747,258,43.39509,43.39509,0,0,1,177.68231,255.18018Z"/><path class="cls-5" d="M43.59359,256.25019a2.5849,2.5849,0,0,1-.74-1.8476V209.875H27.49779a2.34026,2.34026,0,0,1-1.75778-.77759,2.58092,2.58092,0,0,1-.74-1.8476v-15.6524a2.5841,2.5841,0,0,1,.74-1.8476,2.34364,2.34364,0,0,1,1.75778-.77759H81.70722a2.3461,2.3461,0,0,1,1.75682.77759,2.59213,2.59213,0,0,1,.74,1.8476v15.6524a2.58893,2.58893,0,0,1-.74,1.8476,2.3427,2.3427,0,0,1-1.75682.77759H66.35048v44.52759a2.58891,2.58891,0,0,1-.74,1.8476,2.3447,2.3447,0,0,1-1.75777.77759H45.35136A2.34022,2.34022,0,0,1,43.59359,256.25019Z"/><path class="cls-5" d="M100.85534,256.25019a2.58494,2.58494,0,0,1-.74-1.8476V191.59741a2.58811,2.58811,0,0,1,.74-1.8476,2.34363,2.34363,0,0,1,1.75778-.77759h18.50132a2.34662,2.34662,0,0,1,1.75778.77759,2.59213,2.59213,0,0,1,.74,1.8476v45.49981h25.62469a2.34659,2.34659,0,0,1,1.75777.77759,2.5921,2.5921,0,0,1,.74,1.8476v14.68018a2.58891,2.58891,0,0,1-.74,1.8476,2.34319,2.34319,0,0,1-1.75777.77759h-46.6238A2.34024,2.34024,0,0,1,100.85534,256.25019Z"/><path class="cls-5" d="M177.68231,255.18018a23.18194,23.18194,0,0,1-10.22181-7.53473,18.28957,18.28957,0,0,1-3.60781-10.35359,2.10607,2.10607,0,0,1,.60162-1.50771,1.91085,1.91085,0,0,1,1.43294-.63137H183.464a5.33671,5.33671,0,0,1,2.08165.3399,7.90617,7.90617,0,0,1,1.89617,1.31307,10.326,10.326,0,0,0,6.84561,2.23592,14.35266,14.35266,0,0,0,5.04171-.72917q1.89569-.72916,1.89617-1.99287,0-1.75027-2.49779-2.67361a53.29307,53.29307,0,0,0-9.43567-1.896Q165.425,228.446,165.425,210.36111a19.81026,19.81026,0,0,1,3.56168-11.61824,23.23181,23.23181,0,0,1,9.945-7.924A36.10045,36.10045,0,0,1,193.63972,188a35.31011,35.31011,0,0,1,15.26448,3.1113,26.27719,26.27719,0,0,1,10.08246,7.8262,16.66906,16.66906,0,0,1,3.701,9.18769,2.11029,2.11029,0,0,1-.60162,1.50675,1.81524,1.81524,0,0,1-1.34163.63138H202.24311a4.95059,4.95059,0,0,1-2.03552-.3399,6.50263,6.50263,0,0,1-1.66455-1.21528,7.05083,7.05083,0,0,0-4.90332-1.74981q-4.44009,0-4.44009,2.722,0,1.45833,2.17391,2.43055a33.31066,33.31066,0,0,0,8.094,1.74981,54.8651,54.8651,0,0,1,14.84835,3.79205,17.53685,17.53685,0,0,1,8.14016,6.75713A20.36436,20.36436,0,0,1,225,235.055a19.37022,19.37022,0,0,1-3.97782,12.10435,25.37367,25.37367,0,0,1-10.96183,8.02084A41.84393,41.84393,0,0,1,194.28747,258,43.39509,43.39509,0,0,1,177.68231,255.18018Z"/></g></svg>