<svg xmlns="http://www.w3.org/2000/svg" viewBox="0 0 440 145"><defs><style>.cls-1{fill:#666;}.cls-2{fill:#fffef9;}.cls-3,.cls-4{fill:none;stroke:#fff;stroke-miterlimit:10;}.cls-3{stroke-width:0.93454px;}.cls-4{stroke-width:0.90722px;}.cls-5{fill:#333;}.cls-6{fill:#0d47a1;}.cls-7{fill:#fff;}</style></defs><title>NwkEhd_divs_horizontal</title><g id="Rent_Control" data-name="Rent Control"><rect class="cls-1" y="120" width="440" height="25" rx="3.71318"/><path class="cls-2" d="M134.10449,139.17334a.41569.41569,0,0,1-.126-.30566V127.1499a.45768.45768,0,0,1,.11718-.32422.40871.40871,0,0,1,.31494-.126h4.66211a5.315,5.315,0,0,1,3.46485,1.02539,3.55847,3.55847,0,0,1,1.251,2.916,3.72152,3.72152,0,0,1-.62988,2.20508,3.50034,3.50034,0,0,1-1.76416,1.28711l2.61035,4.58984a.45543.45543,0,0,1,.05371.19825.354.354,0,0,1-.1167.2705.37953.37953,0,0,1-.26123.10743H142.0249a.68325.68325,0,0,1-.45019-.13477,1.31264,1.31264,0,0,1-.28809-.35059l-2.30371-4.2666H136.5166v4.32032a.41569.41569,0,0,1-.126.30566.43827.43827,0,0,1-.32374.126h-1.65625A.41681.41681,0,0,1,134.10449,139.17334Zm4.91406-6.67773a2.38821,2.38821,0,0,0,1.62012-.47657,1.76455,1.76455,0,0,0,.54-1.3955,1.82073,1.82073,0,0,0-.54-1.41309,2.32575,2.32575,0,0,0-1.62012-.49512H136.5166v3.78028Z"/><path class="cls-2" d="M149.83643,139.17334a.41566.41566,0,0,1-.126-.30566V127.1499a.45764.45764,0,0,1,.11719-.32422.40868.40868,0,0,1,.31494-.126h7.938a.43153.43153,0,0,1,.45019.45019V128.356a.41005.41005,0,0,1-.126.31445.45846.45846,0,0,1-.32422.11719h-5.90381V131.938h5.50781a.43148.43148,0,0,1,.4502.44922V133.522a.41.41,0,0,1-.126.31446.45846.45846,0,0,1-.32422.11718h-5.50781v3.25782h6.04785a.45846.45846,0,0,1,.32422.11718.41079.41079,0,0,1,.126.31543v1.22364a.40862.40862,0,0,1-.126.31445.45417.45417,0,0,1-.32422.11719h-8.082A.41678.41678,0,0,1,149.83643,139.17334Z"/><path class="cls-2" d="M164.65039,139.17334a.4157.4157,0,0,1-.126-.30566V127.1499a.45768.45768,0,0,1,.11719-.32422.40871.40871,0,0,1,.31494-.126h1.4043a.57244.57244,0,0,1,.522.30566l5.14795,7.99219V127.1499a.45737.45737,0,0,1,.1167-.32422.40943.40943,0,0,1,.31494-.126h1.54834a.43151.43151,0,0,1,.44971.45019v11.69922a.43781.43781,0,0,1-.126.32422.41646.41646,0,0,1-.30566.126h-1.42236a.58646.58646,0,0,1-.54-.30567l-5.12989-7.8125v7.68653a.43367.43367,0,0,1-.1167.30566.41049.41049,0,0,1-.31543.126h-1.54785A.41681.41681,0,0,1,164.65039,139.17334Z"/><path class="cls-2" d="M183.74805,139.17334a.41566.41566,0,0,1-.126-.30566v-9.918h-3.32959a.41678.41678,0,0,1-.30615-.126.43933.43933,0,0,1-.126-.32422V127.1499a.45737.45737,0,0,1,.1167-.32422.40979.40979,0,0,1,.31543-.126h9.19775a.43155.43155,0,0,1,.4502.45019v1.34961a.43156.43156,0,0,1-.4502.4502h-3.312v9.918a.43367.43367,0,0,1-.1167.30566.41049.41049,0,0,1-.31543.126H184.0542A.41678.41678,0,0,1,183.74805,139.17334Z"/><path class="cls-2" d="M203.647,138.21045a4.97018,4.97018,0,0,1-1.44873-3.60938q-.0183-.48486-.01806-1.584,0-1.11474.01806-1.61914a4.97424,4.97424,0,0,1,1.458-3.5918,5.378,5.378,0,0,1,3.834-1.28613,6.5922,6.5922,0,0,1,2.79.54883,4.43959,4.43959,0,0,1,1.84473,1.50293,3.90308,3.90308,0,0,1,.69287,2.1416v.03613a.30734.30734,0,0,1-.1167.24317.39213.39213,0,0,1-.26123.09863h-1.74609a.46291.46291,0,0,1-.32373-.09863.75532.75532,0,0,1-.18018-.35157,2.54309,2.54309,0,0,0-.936-1.57422,3.04829,3.04829,0,0,0-1.76368-.459q-2.57445,0-2.68212,2.87988-.01832.48633-.01807,1.49414,0,1.00782.01807,1.5293.10766,2.88135,2.68212,2.87988a3.05793,3.05793,0,0,0,1.75489-.459,2.52,2.52,0,0,0,.94482-1.57422.76038.76038,0,0,1,.18018-.35156.46764.46764,0,0,1,.32373-.09864h1.74609a.401.401,0,0,1,.2793.10743.30362.30362,0,0,1,.09863.2705,3.90311,3.90311,0,0,1-.69287,2.14161,4.42488,4.42488,0,0,1-1.84473,1.50293,6.592,6.592,0,0,1-2.79.5498A5.42073,5.42073,0,0,1,203.647,138.21045Z"/><path class="cls-2" d="M219.58643,138.23779a4.94146,4.94146,0,0,1-1.44-3.69043q-.0183-.52147-.01806-1.53027,0-1.02539.01806-1.54785a4.9248,4.9248,0,0,1,1.47559-3.67188,6.27231,6.27231,0,0,1,7.5874,0,4.91188,4.91188,0,0,1,1.48487,3.67188q.03588,1.04443.03613,1.54785,0,.48633-.03613,1.53027a4.92757,4.92757,0,0,1-1.44922,3.69043,6.52352,6.52352,0,0,1-7.65869,0Zm5.7417-1.5664a3.23872,3.23872,0,0,0,.75634-2.21387q.03589-1.07959.03565-1.458,0-.41308-.03565-1.458a3.19875,3.19875,0,0,0-.77441-2.20507,2.839,2.839,0,0,0-3.79785,0,3.137,3.137,0,0,0-.75586,2.20507q-.01832.523-.01807,1.458,0,.91847.01807,1.458a3.1603,3.1603,0,0,0,.74707,2.20508,2.88731,2.88731,0,0,0,3.82471.00879Z"/><path class="cls-2" d="M234.7959,139.17334a.41566.41566,0,0,1-.126-.30566V127.1499a.45764.45764,0,0,1,.11719-.32422.40869.40869,0,0,1,.31494-.126h1.4043a.57245.57245,0,0,1,.522.30566l5.14795,7.99219V127.1499a.45732.45732,0,0,1,.1167-.32422.4094.4094,0,0,1,.31494-.126h1.54834a.43151.43151,0,0,1,.44971.45019v11.69922a.43785.43785,0,0,1-.126.32422.41646.41646,0,0,1-.30566.126H242.752a.58648.58648,0,0,1-.54-.30567l-5.12988-7.8125v7.68653a.43367.43367,0,0,1-.1167.30566.41049.41049,0,0,1-.31543.126h-1.54785A.41678.41678,0,0,1,234.7959,139.17334Z"/><path class="cls-2" d="M253.89355,139.17334a.41569.41569,0,0,1-.126-.30566v-9.918H250.438a.41678.41678,0,0,1-.30615-.126.43933.43933,0,0,1-.126-.32422V127.1499a.45732.45732,0,0,1,.1167-.32422.40976.40976,0,0,1,.31543-.126h9.19775a.43155.43155,0,0,1,.4502.45019v1.34961a.43156.43156,0,0,1-.4502.4502h-3.312v9.918a.43367.43367,0,0,1-.1167.30566.41049.41049,0,0,1-.31543.126h-1.69189A.41682.41682,0,0,1,253.89355,139.17334Z"/><path class="cls-2" d="M265.62939,139.17334a.41569.41569,0,0,1-.126-.30566V127.1499a.45764.45764,0,0,1,.11719-.32422.40868.40868,0,0,1,.31494-.126h4.66211a5.315,5.315,0,0,1,3.46484,1.02539,3.55848,3.55848,0,0,1,1.251,2.916,3.72146,3.72146,0,0,1-.62989,2.20508,3.50034,3.50034,0,0,1-1.76416,1.28711l2.61036,4.58984a.45557.45557,0,0,1,.05371.19825.354.354,0,0,1-.1167.2705.37957.37957,0,0,1-.26123.10743H273.5498a.68325.68325,0,0,1-.45019-.13477,1.31264,1.31264,0,0,1-.28809-.35059l-2.30371-4.2666H268.0415v4.32032a.41569.41569,0,0,1-.126.30566.43827.43827,0,0,1-.32373.126h-1.65625A.41682.41682,0,0,1,265.62939,139.17334Zm4.91407-6.67773a2.3882,2.3882,0,0,0,1.62011-.47657,1.76455,1.76455,0,0,0,.54-1.3955,1.82073,1.82073,0,0,0-.54-1.41309,2.32574,2.32574,0,0,0-1.62011-.49512h-2.502v3.78028Z"/><path class="cls-2" d="M282.22559,138.23779a4.94146,4.94146,0,0,1-1.44-3.69043q-.0183-.52147-.01806-1.53027,0-1.02539.01806-1.54785a4.9248,4.9248,0,0,1,1.47559-3.67188,6.27231,6.27231,0,0,1,7.5874,0,4.91188,4.91188,0,0,1,1.48487,3.67188q.03588,1.04443.03613,1.54785,0,.48633-.03613,1.53027a4.92757,4.92757,0,0,1-1.44922,3.69043,6.52352,6.52352,0,0,1-7.65869,0Zm5.7417-1.5664a3.23872,3.23872,0,0,0,.75634-2.21387q.0359-1.07959.03565-1.458,0-.41308-.03565-1.458a3.19875,3.19875,0,0,0-.77441-2.20507,2.839,2.839,0,0,0-3.79785,0,3.137,3.137,0,0,0-.75586,2.20507q-.01831.523-.01807,1.458,0,.91847.01807,1.458a3.1603,3.1603,0,0,0,.74707,2.20508,2.88731,2.88731,0,0,0,3.82471.00879Z"/><path class="cls-2" d="M297.43506,139.17334a.41566.41566,0,0,1-.126-.30566V127.13135a.40832.40832,0,0,1,.126-.31446.43314.43314,0,0,1,.30615-.11718h1.6919a.4037.4037,0,0,1,.43212.43164v10.00781h5.70606a.444.444,0,0,1,.32422.126.42137.42137,0,0,1,.126.30664v1.2959a.41759.41759,0,0,1-.126.30566.44014.44014,0,0,1-.32422.126h-7.83008A.41678.41678,0,0,1,297.43506,139.17334Z"/><line class="cls-3" x1="12.5" y1="133" x2="112.5" y2="133"/><line class="cls-4" x1="327.5" y1="133" x2="427.5" y2="133"/><rect class="cls-5" x="162.5" y="-162.202" width="115" height="440" rx="4.94413" transform="translate(277.798 -162.202) rotate(90)"/><rect class="cls-6" x="5" y="7.798" width="240" height="100" rx="6.74481"/><path class="cls-7" d="M15.74762,91.998A2.68447,2.68447,0,0,1,15,90.09756V25.49844a2.68945,2.68945,0,0,1,.74762-1.90039,2.35051,2.35051,0,0,1,1.77585-.79981H32.29a4.047,4.047,0,0,1,3.83181,2.29981L51.91612,52.79824V25.49844a2.68945,2.68945,0,0,1,.74762-1.90039,2.3505,2.3505,0,0,1,1.77585-.79981H71.3558a2.355,2.355,0,0,1,1.77585.79981,2.69576,2.69576,0,0,1,.74762,1.90039V90.09756a2.69075,2.69075,0,0,1-.74762,1.90039,2.3499,2.3499,0,0,1-1.77585.79981H56.58925a3.69935,3.69935,0,0,1-2.42978-.7002,6.61736,6.61736,0,0,1-1.402-1.59961L36.96267,64.99844V90.09756A2.68861,2.68861,0,0,1,36.215,91.998a2.34887,2.34887,0,0,1-1.77536.79981H17.52347A2.34545,2.34545,0,0,1,15.74762,91.998Z"/><path class="cls-7" d="M95.88806,91.64834A4.407,4.407,0,0,1,94.53262,88.998L85.93446,25.29824v-.2998a2.189,2.189,0,0,1,.60781-1.55029,1.91677,1.91677,0,0,1,1.44865-.64991h17.38322a4.12051,4.12051,0,0,1,2.47639.6001,2.70289,2.70289,0,0,1,.88792,2.1001l3.17789,28.19971,3.83181-12.5q.93284-2.89893,3.17741-2.89991h9.53269q2.24286,0,3.17788,2.89991l3.83182,12.3999,3.1774-28.09961a2.69322,2.69322,0,0,1,.88793-2.1001,4.11744,4.11744,0,0,1,2.47638-.6001h17.38371a1.92046,1.92046,0,0,1,1.44864.64991,2.19692,2.19692,0,0,1,.60733,1.55029v.2998L152.85118,88.998a4.42008,4.42008,0,0,1-1.35544,2.65039,4.027,4.027,0,0,1-2.94389,1.14942h-13.3645a3.45264,3.45264,0,0,1-2.57008-.89942,5.73643,5.73643,0,0,1-1.26174-1.80078L123.6919,69.59805l-7.66363,20.49951a5.78463,5.78463,0,0,1-1.26174,1.80078,3.45489,3.45489,0,0,1-2.57008.89942H98.832A4.02233,4.02233,0,0,1,95.88806,91.64834Z"/><path class="cls-7" d="M174.25167,91.998a2.68447,2.68447,0,0,1-.74762-1.90039V25.49844a2.68945,2.68945,0,0,1,.74762-1.90039,2.35048,2.35048,0,0,1,1.77585-.79981h17.85074a2.355,2.355,0,0,1,1.77584.79981,2.69573,2.69573,0,0,1,.74763,1.90039v19.7998l10.56043-20.2998a3.87633,3.87633,0,0,1,3.73861-2.2002h20.65432a1.919,1.919,0,0,1,1.44864.64991,2.28374,2.28374,0,0,1,.32624,2.6499L216.30843,56.29824,234.72037,89.498A1.898,1.898,0,0,1,235,90.59756a2.19813,2.19813,0,0,1-.60781,1.55078,1.91508,1.91508,0,0,1-1.44864.64942H211.6353a3.9153,3.9153,0,0,1-2.52348-.75,4.47078,4.47078,0,0,1-1.30834-1.54981l-11.40175-21.7998V90.09756a2.69072,2.69072,0,0,1-.74763,1.90039,2.34986,2.34986,0,0,1-1.77584.79981H176.02752A2.34542,2.34542,0,0,1,174.25167,91.998Z"/><path class="cls-7" d="M255.839,87.11279a2.30306,2.30306,0,0,1-.639-1.62836V30.11254a2.30832,2.30832,0,0,1,.639-1.62884,2.00807,2.00807,0,0,1,1.51845-.6857h40.99329a2.01177,2.01177,0,0,1,1.51845.6857,2.313,2.313,0,0,1,.63952,1.62884V42.19819a2.30684,2.30684,0,0,1-.63952,1.62836,2.005,2.005,0,0,1-1.51845.6857H274.378V49.9122h22.21491a2.0125,2.0125,0,0,1,1.51845.6857,2.31253,2.31253,0,0,1,.639,1.62885v11.143a2.30641,2.30641,0,0,1-.639,1.62836,2.00743,2.00743,0,0,1-1.51845.6857H274.378v5.40044H298.9903a2.012,2.012,0,0,1,1.51845.68521,2.31216,2.31216,0,0,1,.639,1.62836V85.48443a2.3072,2.3072,0,0,1-.639,1.62836,2.00861,2.00861,0,0,1-1.51845.68521H257.35749A2.00421,2.00421,0,0,1,255.839,87.11279Z"/><path class="cls-7" d="M313.13321,87.15561a2.26712,2.26712,0,0,1-.639-1.67118V30.11254a2.30832,2.30832,0,0,1,.639-1.62884,2.008,2.008,0,0,1,1.51845-.6857H330.314a2.01075,2.01075,0,0,1,1.518.6857,2.31085,2.31085,0,0,1,.63953,1.62884v18h12.94542v-18a2.30621,2.30621,0,0,1,.639-1.62884,2.008,2.008,0,0,1,1.51844-.6857H363.2367a2.01076,2.01076,0,0,1,1.518.6857,2.31293,2.31293,0,0,1,.63952,1.62884V85.48443a2.30764,2.30764,0,0,1-.63952,1.62836,2.00689,2.00689,0,0,1-1.518.68521H347.57438a2.00417,2.00417,0,0,1-1.51844-.68521,2.301,2.301,0,0,1-.639-1.62836V66.96955H332.47147V85.48443a2.30558,2.30558,0,0,1-.63953,1.62836,2.00688,2.00688,0,0,1-1.518.68521H314.65166A2.06735,2.06735,0,0,1,313.13321,87.15561Z"/><path class="cls-7" d="M378.81794,87.11279a2.30306,2.30306,0,0,1-.639-1.62836V30.11254a2.30832,2.30832,0,0,1,.639-1.62884,2.008,2.008,0,0,1,1.51845-.6857H403.3501a31.76264,31.76264,0,0,1,13.50483,2.7428,22.3529,22.3529,0,0,1,9.42925,8.05759,24.07187,24.07187,0,0,1,3.75558,12.77135q.15927,4.80112.16024,6.51391,0,1.62933-.16024,6.25744-.47928,11.828-7.4711,17.743-6.99375,5.91435-18.81892,5.91386H380.33639A2.00418,2.00418,0,0,1,378.81794,87.11279ZM403.3501,71.08424a6.03006,6.03006,0,0,0,4.5148-1.75781,7.66845,7.66845,0,0,0,1.878-5.18534q.15929-2.48561.15977-6.42874,0-4.02807-.15977-6.34261a7.10522,7.10522,0,0,0-2.03779-5.143,6.78189,6.78189,0,0,0-4.7542-1.7145H398.1562v26.572Z"/></g></svg>