<svg xmlns="http://www.w3.org/2000/svg" viewBox="0 0 440 145"><defs><style>.cls-1{fill:#666;}.cls-2{fill:#333;}.cls-3{fill:#0d47a1;}.cls-4{fill:#fff;}.cls-5{fill:#fffef9;}.cls-6,.cls-7{fill:none;stroke:#fff;stroke-miterlimit:10;}.cls-6{stroke-width:0.81144px;}.cls-7{stroke-width:0.80933px;}</style></defs><title>NwkEhd_divs_horizontal</title><g id="Planning_Zoning" data-name="Planning &amp; Zoning"><rect class="cls-1" y="119.99913" width="440" height="25.00087" rx="3.71324"/><rect class="cls-2" x="162.5" y="-162.202" width="115" height="440" rx="4.94413" transform="translate(277.798 -162.202) rotate(90)"/><rect class="cls-3" x="5" y="7.798" width="240" height="100" rx="6.74481"/><path class="cls-4" d="M15.74762,91.998A2.68447,2.68447,0,0,1,15,90.09756V25.49844a2.68945,2.68945,0,0,1,.74762-1.90039,2.35051,2.35051,0,0,1,1.77585-.79981H32.29a4.047,4.047,0,0,1,3.83181,2.29981L51.91612,52.79824V25.49844a2.68945,2.68945,0,0,1,.74762-1.90039,2.3505,2.3505,0,0,1,1.77585-.79981H71.3558a2.355,2.355,0,0,1,1.77585.79981,2.69576,2.69576,0,0,1,.74762,1.90039V90.09756a2.69075,2.69075,0,0,1-.74762,1.90039,2.3499,2.3499,0,0,1-1.77585.79981H56.58925a3.69935,3.69935,0,0,1-2.42978-.7002,6.61736,6.61736,0,0,1-1.402-1.59961L36.96267,64.99844V90.09756A2.68861,2.68861,0,0,1,36.215,91.998a2.34887,2.34887,0,0,1-1.77536.79981H17.52347A2.34545,2.34545,0,0,1,15.74762,91.998Z"/><path class="cls-4" d="M95.88806,91.64834A4.407,4.407,0,0,1,94.53262,88.998L85.93446,25.29824v-.2998a2.189,2.189,0,0,1,.60781-1.55029,1.91677,1.91677,0,0,1,1.44865-.64991h17.38322a4.12051,4.12051,0,0,1,2.47639.6001,2.70289,2.70289,0,0,1,.88792,2.1001l3.17789,28.19971,3.83181-12.5q.93284-2.89893,3.17741-2.89991h9.53269q2.24286,0,3.17788,2.89991l3.83182,12.3999,3.1774-28.09961a2.69322,2.69322,0,0,1,.88793-2.1001,4.11744,4.11744,0,0,1,2.47638-.6001h17.38371a1.92046,1.92046,0,0,1,1.44864.64991,2.19692,2.19692,0,0,1,.60733,1.55029v.2998L152.85118,88.998a4.42008,4.42008,0,0,1-1.35544,2.65039,4.027,4.027,0,0,1-2.94389,1.14942h-13.3645a3.45264,3.45264,0,0,1-2.57008-.89942,5.73643,5.73643,0,0,1-1.26174-1.80078L123.6919,69.59805l-7.66363,20.49951a5.78463,5.78463,0,0,1-1.26174,1.80078,3.45489,3.45489,0,0,1-2.57008.89942H98.832A4.02233,4.02233,0,0,1,95.88806,91.64834Z"/><path class="cls-4" d="M174.25167,91.998a2.68447,2.68447,0,0,1-.74762-1.90039V25.49844a2.68945,2.68945,0,0,1,.74762-1.90039,2.35048,2.35048,0,0,1,1.77585-.79981h17.85074a2.355,2.355,0,0,1,1.77584.79981,2.69573,2.69573,0,0,1,.74763,1.90039v19.7998l10.56043-20.2998a3.87633,3.87633,0,0,1,3.73861-2.2002h20.65432a1.919,1.919,0,0,1,1.44864.64991,2.28374,2.28374,0,0,1,.32624,2.6499L216.30843,56.29824,234.72037,89.498A1.898,1.898,0,0,1,235,90.59756a2.19813,2.19813,0,0,1-.60781,1.55078,1.91508,1.91508,0,0,1-1.44864.64942H211.6353a3.9153,3.9153,0,0,1-2.52348-.75,4.47078,4.47078,0,0,1-1.30834-1.54981l-11.40175-21.7998V90.09756a2.69072,2.69072,0,0,1-.74763,1.90039,2.34986,2.34986,0,0,1-1.77584.79981H176.02752A2.34542,2.34542,0,0,1,174.25167,91.998Z"/><path class="cls-4" d="M255.839,87.11279a2.30306,2.30306,0,0,1-.639-1.62836V30.11254a2.30832,2.30832,0,0,1,.639-1.62884,2.00807,2.00807,0,0,1,1.51845-.6857h40.99329a2.01177,2.01177,0,0,1,1.51845.6857,2.313,2.313,0,0,1,.63952,1.62884V42.19819a2.30684,2.30684,0,0,1-.63952,1.62836,2.005,2.005,0,0,1-1.51845.6857H274.378V49.9122h22.21491a2.0125,2.0125,0,0,1,1.51845.6857,2.31253,2.31253,0,0,1,.639,1.62885v11.143a2.30641,2.30641,0,0,1-.639,1.62836,2.00743,2.00743,0,0,1-1.51845.6857H274.378v5.40044H298.9903a2.012,2.012,0,0,1,1.51845.68521,2.31216,2.31216,0,0,1,.639,1.62836V85.48443a2.3072,2.3072,0,0,1-.639,1.62836,2.00861,2.00861,0,0,1-1.51845.68521H257.35749A2.00421,2.00421,0,0,1,255.839,87.11279Z"/><path class="cls-4" d="M313.13321,87.15561a2.26712,2.26712,0,0,1-.639-1.67118V30.11254a2.30832,2.30832,0,0,1,.639-1.62884,2.008,2.008,0,0,1,1.51845-.6857H330.314a2.01075,2.01075,0,0,1,1.518.6857,2.31085,2.31085,0,0,1,.63953,1.62884v18h12.94542v-18a2.30621,2.30621,0,0,1,.639-1.62884,2.008,2.008,0,0,1,1.51844-.6857H363.2367a2.01076,2.01076,0,0,1,1.518.6857,2.31293,2.31293,0,0,1,.63952,1.62884V85.48443a2.30764,2.30764,0,0,1-.63952,1.62836,2.00689,2.00689,0,0,1-1.518.68521H347.57438a2.00417,2.00417,0,0,1-1.51844-.68521,2.301,2.301,0,0,1-.639-1.62836V66.96955H332.47147V85.48443a2.30558,2.30558,0,0,1-.63953,1.62836,2.00688,2.00688,0,0,1-1.518.68521H314.65166A2.06735,2.06735,0,0,1,313.13321,87.15561Z"/><path class="cls-4" d="M378.81794,87.11279a2.30306,2.30306,0,0,1-.639-1.62836V30.11254a2.30832,2.30832,0,0,1,.639-1.62884,2.008,2.008,0,0,1,1.51845-.6857H403.3501a31.76264,31.76264,0,0,1,13.50483,2.7428,22.3529,22.3529,0,0,1,9.42925,8.05759,24.07187,24.07187,0,0,1,3.75558,12.77135q.15927,4.80112.16024,6.51391,0,1.62933-.16024,6.25744-.47928,11.828-7.4711,17.743-6.99375,5.91435-18.81892,5.91386H380.33639A2.00418,2.00418,0,0,1,378.81794,87.11279ZM403.3501,71.08424a6.03006,6.03006,0,0,0,4.5148-1.75781,7.66845,7.66845,0,0,0,1.878-5.18534q.15929-2.48561.15977-6.42874,0-4.02807-.15977-6.34261a7.10522,7.10522,0,0,0-2.03779-5.143,6.78189,6.78189,0,0,0-4.7542-1.7145H398.1562v26.572Z"/><path class="cls-5" d="M105.41211,139.17432a.41924.41924,0,0,1-.12354-.30567V127.1499a.46019.46019,0,0,1,.11475-.32324.39481.39481,0,0,1,.30762-.126h4.71679a5.02372,5.02372,0,0,1,3.34375,1.02539,3.69442,3.69442,0,0,1,1.21436,2.98829,3.59091,3.59091,0,0,1-1.21436,2.94335,5.11372,5.11372,0,0,1-3.34375.999h-2.58691v4.21191a.41367.41367,0,0,1-.12353.31446.44008.44008,0,0,1-.31641.11718h-1.68994A.40212.40212,0,0,1,105.41211,139.17432Zm4.92773-6.53418a2.22019,2.22019,0,0,0,1.55762-.49512,1.87408,1.87408,0,0,0,.53662-1.44824,1.97821,1.97821,0,0,0-.519-1.458,2.13224,2.13224,0,0,0-1.5752-.52246h-2.53418v3.92383Z"/><path class="cls-5" d="M120.54736,139.17432a.41924.41924,0,0,1-.12353-.30567V127.13232a.4141.4141,0,0,1,.12353-.31543.4207.4207,0,0,1,.29883-.11621H122.501a.41306.41306,0,0,1,.30761.11621.43323.43323,0,0,1,.11475.31543v10.00782H128.502a.42559.42559,0,0,1,.43994.43261v1.2959a.42557.42557,0,0,1-.43994.43164h-7.65576A.40212.40212,0,0,1,120.54736,139.17432Z"/><path class="cls-5" d="M133.14844,139.19189a.36809.36809,0,0,1-.10547-.26953l.03516-.16211,4.22363-11.61035a.63546.63546,0,0,1,.63379-.44922h1.936a.63527.63527,0,0,1,.6333.44922l4.22412,11.61035.03516.16211a.35382.35382,0,0,1-.11475.26953.36187.36187,0,0,1-.25488.1084h-1.5664a.51008.51008,0,0,1-.51026-.34179l-.80957-2.17774h-5.20947l-.80957,2.17774a.51109.51109,0,0,1-.51074.34179H133.4126A.35306.35306,0,0,1,133.14844,139.19189Zm3.76611-4.5h3.97754l-1.98877-5.54394Z"/><path class="cls-5" d="M150.02588,139.17432a.41924.41924,0,0,1-.12354-.30567V127.1499a.46019.46019,0,0,1,.11475-.32324.39481.39481,0,0,1,.30762-.126h1.373a.55719.55719,0,0,1,.51026.30567l5.03369,7.99219V127.1499a.45988.45988,0,0,1,.11426-.32324.39516.39516,0,0,1,.3081-.126h1.51319a.42412.42412,0,0,1,.31689.126.44274.44274,0,0,1,.12305.32324v11.7002a.44351.44351,0,0,1-.12305.32422.40319.40319,0,0,1-.29932.126h-1.39013a.57054.57054,0,0,1-.52783-.30566l-5.01612-7.8125v7.68652a.43818.43818,0,0,1-.11426.30567.39656.39656,0,0,1-.3081.126h-1.51367A.40212.40212,0,0,1,150.02588,139.17432Z"/><path class="cls-5" d="M165.98828,139.17432a.41924.41924,0,0,1-.12353-.30567V127.1499a.46018.46018,0,0,1,.11474-.32324.39481.39481,0,0,1,.30762-.126h1.373a.55719.55719,0,0,1,.51025.30567l5.03369,7.99219V127.1499a.45988.45988,0,0,1,.11426-.32324.39516.39516,0,0,1,.3081-.126h1.51319a.42412.42412,0,0,1,.31689.126.44274.44274,0,0,1,.12305.32324v11.7002a.44351.44351,0,0,1-.12305.32422.40319.40319,0,0,1-.29931.126h-1.39014a.57056.57056,0,0,1-.52783-.30566l-5.01612-7.8125v7.68652a.43822.43822,0,0,1-.11425.30567.39658.39658,0,0,1-.30811.126h-1.51367A.40212.40212,0,0,1,165.98828,139.17432Z"/><path class="cls-5" d="M181.95068,139.17432a.41924.41924,0,0,1-.12353-.30567V127.13232a.4141.4141,0,0,1,.12353-.31543.4207.4207,0,0,1,.29883-.11621h1.68994a.41307.41307,0,0,1,.30762.11621.43327.43327,0,0,1,.11475.31543v11.73633a.43863.43863,0,0,1-.11475.30567.39481.39481,0,0,1-.30762.126h-1.68994A.40212.40212,0,0,1,181.95068,139.17432Z"/><path class="cls-5" d="M190.75,139.17432a.41924.41924,0,0,1-.12354-.30567V127.1499a.46019.46019,0,0,1,.11475-.32324.39481.39481,0,0,1,.30762-.126h1.373a.55719.55719,0,0,1,.51025.30567l5.03369,7.99219V127.1499a.45988.45988,0,0,1,.11426-.32324.39516.39516,0,0,1,.3081-.126h1.51319a.42412.42412,0,0,1,.31689.126.44274.44274,0,0,1,.12305.32324v11.7002a.44351.44351,0,0,1-.12305.32422.40319.40319,0,0,1-.29931.126h-1.39014a.57055.57055,0,0,1-.52783-.30566l-5.01612-7.8125v7.68652a.43822.43822,0,0,1-.11425.30567.39658.39658,0,0,1-.30811.126h-1.51367A.40212.40212,0,0,1,190.75,139.17432Z"/><path class="cls-5" d="M207.61865,138.20264a4.959,4.959,0,0,1-1.43457-3.56446q-.01758-.52148-.01758-1.67382,0-1.15137.01758-1.67383a4.74814,4.74814,0,0,1,1.44336-3.501,5.3304,5.3304,0,0,1,3.76611-1.26953,6.34222,6.34222,0,0,1,2.78956.56738,4.54964,4.54964,0,0,1,1.769,1.4043,3.0707,3.0707,0,0,1,.6333,1.64648.37194.37194,0,0,1-.10547.27051.37867.37867,0,0,1-.28174.10742h-1.84765a.40507.40507,0,0,1-.26416-.07226.604.604,0,0,1-.15821-.2334,2.49976,2.49976,0,0,0-.86279-1.13379,2.69672,2.69672,0,0,0-1.67188-.46875,2.64772,2.64772,0,0,0-1.92675.67578,2.90962,2.90962,0,0,0-.73047,2.09668q-.01832.52149-.01758,1.584,0,1.04442.01758,1.584a3.0116,3.0116,0,0,0,.73926,2.15137,2.6382,2.6382,0,0,0,1.93554.69238,2.87743,2.87743,0,0,0,2.00635-.68359,2.62716,2.62716,0,0,0,.75684-2.05176v-.5586h-2.147a.40242.40242,0,0,1-.29931-.126.42076.42076,0,0,1-.123-.30567v-.99023a.42072.42072,0,0,1,.123-.30566.40239.40239,0,0,1,.29931-.126H216.251a.4256.4256,0,0,1,.43994.43164v1.9082a5.03787,5.03787,0,0,1-.65088,2.60059,4.31157,4.31157,0,0,1-1.84815,1.70117,6.2147,6.2147,0,0,1-2.79834.59375A5.26668,5.26668,0,0,1,207.61865,138.20264Z"/><path class="cls-5" d="M231.52734,139.03076a3.523,3.523,0,0,1-1.50439-1.26953,3.38071,3.38071,0,0,1-.53711-1.89941,3.07056,3.07056,0,0,1,.63379-1.93457,6.22193,6.22193,0,0,1,1.79492-1.50293,6.67674,6.67674,0,0,1-1.06445-1.4668,3.02637,3.02637,0,0,1-.32569-1.35938,2.91556,2.91556,0,0,1,.42237-1.53027,3.03407,3.03407,0,0,1,1.23193-1.125,4.0991,4.0991,0,0,1,1.91846-.42285,3.95771,3.95771,0,0,1,1.83887.40527,2.94558,2.94558,0,0,1,1.20556,1.10742,2.90968,2.90968,0,0,1,.42236,1.5293,2.69523,2.69523,0,0,1-.65087,1.81836,7.309,7.309,0,0,1-1.90088,1.47559l2.5166,2.53808a9.03405,9.03405,0,0,0,.915-2.376.33088.33088,0,0,1,.11474-.22461.38446.38446,0,0,1,.25489-.08106h1.30224a.356.356,0,0,1,.26416.10742.3508.3508,0,0,1,.10547.25293,4.77271,4.77271,0,0,1-.49267,1.75489,10.58292,10.58292,0,0,1-1.12647,1.93457l1.8833,1.94433a.38187.38187,0,0,1,.12305.26953.32143.32143,0,0,1-.08789.23438.3298.3298,0,0,1-.2461.08984h-1.72509a.61091.61091,0,0,1-.45752-.17968l-.96778-.95411a5.15741,5.15741,0,0,1-3.60791,1.31348A5.29479,5.29479,0,0,1,231.52734,139.03076Zm4.4878-2.3584-2.79834-2.80761q-1.49561.82763-1.49561,1.90722a1.61918,1.61918,0,0,0,.60694,1.32324,2.225,2.225,0,0,0,1.45214.49512A2.99705,2.99705,0,0,0,236.01514,136.67236Zm-.9502-6.0664a1.31161,1.31161,0,0,0,.43994-.98926,1.22058,1.22058,0,0,0-.40478-.94531,1.43367,1.43367,0,0,0-1.00293-.36914,1.46239,1.46239,0,0,0-.99463.36035,1.20182,1.20182,0,0,0-.41358.9541,1.69264,1.69264,0,0,0,.229.82715,5.316,5.316,0,0,0,.84473,1.04492A6.38172,6.38172,0,0,0,235.06494,130.606Z"/><path class="cls-5" d="M253.11279,139.17432a.46072.46072,0,0,1-.11425-.32422v-1.27735a.78829.78829,0,0,1,.0791-.3789,2.62516,2.62516,0,0,1,.18457-.28711l6.10693-8.04688h-5.77246a.39957.39957,0,0,1-.29932-.126.4412.4412,0,0,1-.123-.32325V127.1499a.46211.46211,0,0,1,.11425-.32324.3952.3952,0,0,1,.30811-.126h8.43018a.42487.42487,0,0,1,.31689.126.44274.44274,0,0,1,.123.32324v1.26074a.94582.94582,0,0,1-.22852.62989l-5.96631,8.09961h5.96631a.40991.40991,0,0,1,.30762.11718.4317.4317,0,0,1,.11474.31543v1.2959a.43862.43862,0,0,1-.11474.30567.39481.39481,0,0,1-.30762.126H253.4209A.39516.39516,0,0,1,253.11279,139.17432Z"/><path class="cls-5" d="M269.13721,138.23877a5.00194,5.00194,0,0,1-1.40821-3.69043q-.01756-.52149-.01757-1.53027,0-1.0254.01757-1.54786a4.9851,4.9851,0,0,1,1.44336-3.67187,6.01988,6.01988,0,0,1,7.418,0,4.96718,4.96718,0,0,1,1.45215,3.67187q.03516,1.04444.03516,1.54786,0,.48633-.03516,1.53027a4.983,4.983,0,0,1-1.417,3.69043,6.26774,6.26774,0,0,1-7.48828,0Zm5.61425-1.56641a3.2846,3.2846,0,0,0,.73926-2.21386q.03442-1.0796.03516-1.458,0-.41456-.03516-1.458a3.23986,3.23986,0,0,0-.75683-2.20508,2.72752,2.72752,0,0,0-3.71338,0,3.177,3.177,0,0,0-.73926,2.20508q-.01831.52149-.01758,1.458,0,.917.01758,1.458a3.20343,3.20343,0,0,0,.73047,2.20507,2.77633,2.77633,0,0,0,3.73974.00879Z"/><path class="cls-5" d="M284.00879,139.17432a.41924.41924,0,0,1-.12354-.30567V127.1499A.46019.46019,0,0,1,284,126.82666a.39481.39481,0,0,1,.30762-.126h1.373a.55719.55719,0,0,1,.51026.30567l5.03369,7.99219V127.1499a.45988.45988,0,0,1,.11426-.32324.39516.39516,0,0,1,.3081-.126h1.51319a.42412.42412,0,0,1,.31689.126.44274.44274,0,0,1,.123.32324v11.7002a.44351.44351,0,0,1-.123.32422.40319.40319,0,0,1-.29932.126H291.7876a.57054.57054,0,0,1-.52783-.30566l-5.01612-7.8125v7.68652a.43818.43818,0,0,1-.11426.30567.39656.39656,0,0,1-.3081.126h-1.51367A.40212.40212,0,0,1,284.00879,139.17432Z"/><path class="cls-5" d="M299.97119,139.17432a.41924.41924,0,0,1-.12353-.30567V127.13232a.4141.4141,0,0,1,.12353-.31543.4207.4207,0,0,1,.29883-.11621H301.96a.41307.41307,0,0,1,.30762.11621.43327.43327,0,0,1,.11474.31543v11.73633a.43862.43862,0,0,1-.11474.30567.39481.39481,0,0,1-.30762.126H300.27A.40212.40212,0,0,1,299.97119,139.17432Z"/><path class="cls-5" d="M308.77051,139.17432a.41924.41924,0,0,1-.12354-.30567V127.1499a.46019.46019,0,0,1,.11475-.32324.39481.39481,0,0,1,.30762-.126h1.373a.55719.55719,0,0,1,.51026.30567l5.03369,7.99219V127.1499a.45988.45988,0,0,1,.11426-.32324.39516.39516,0,0,1,.3081-.126h1.51319a.42412.42412,0,0,1,.31689.126.44274.44274,0,0,1,.12305.32324v11.7002a.44351.44351,0,0,1-.12305.32422.40319.40319,0,0,1-.29932.126h-1.39013a.57056.57056,0,0,1-.52784-.30566l-5.01611-7.8125v7.68652a.43818.43818,0,0,1-.11426.30567.39657.39657,0,0,1-.3081.126h-1.51367A.40212.40212,0,0,1,308.77051,139.17432Z"/><path class="cls-5" d="M325.63916,138.20264a4.95894,4.95894,0,0,1-1.43457-3.56446q-.01758-.52148-.01758-1.67382,0-1.15137.01758-1.67383a4.7481,4.7481,0,0,1,1.44336-3.501,5.3304,5.3304,0,0,1,3.76611-1.26953,6.34214,6.34214,0,0,1,2.78955.56738,4.54961,4.54961,0,0,1,1.769,1.4043,3.07078,3.07078,0,0,1,.6333,1.64648.37194.37194,0,0,1-.10547.27051.37867.37867,0,0,1-.28174.10742h-1.84766a.4051.4051,0,0,1-.26416-.07226.60414.60414,0,0,1-.1582-.2334,2.49976,2.49976,0,0,0-.86279-1.13379,2.69676,2.69676,0,0,0-1.67188-.46875,2.64774,2.64774,0,0,0-1.92676.67578,2.90962,2.90962,0,0,0-.73046,2.09668q-.01832.52149-.01758,1.584,0,1.04442.01758,1.584a3.01159,3.01159,0,0,0,.73925,2.15137,2.63823,2.63823,0,0,0,1.93555.69238,2.87745,2.87745,0,0,0,2.00635-.68359,2.62719,2.62719,0,0,0,.75683-2.05176v-.5586h-2.147a.40242.40242,0,0,1-.29931-.126.42072.42072,0,0,1-.123-.30567v-.99023a.42068.42068,0,0,1,.123-.30566.40239.40239,0,0,1,.29931-.126h4.22363a.4256.4256,0,0,1,.44.43164v1.9082a5.03787,5.03787,0,0,1-.65088,2.60059,4.31168,4.31168,0,0,1-1.84815,1.70117,6.21473,6.21473,0,0,1-2.79834.59375A5.26668,5.26668,0,0,1,325.63916,138.20264Z"/><line class="cls-6" x1="347.5" y1="133" x2="427.5" y2="133"/><line class="cls-7" x1="12.5" y1="133" x2="87.5" y2="133"/></g></svg>