<svg xmlns="http://www.w3.org/2000/svg" viewBox="0 0 440 145"><defs><style>.cls-1{fill:#333;}.cls-2{fill:#0d47a1;}.cls-3{fill:#fff;}.cls-4{fill:#666;}.cls-5{fill:#fffef9;}.cls-6,.cls-7{fill:none;stroke:#fff;stroke-miterlimit:10;}.cls-6{stroke-width:0.80933px;}.cls-7{stroke-width:0.78567px;}</style></defs><title>NwkEhd_divs_horizontal</title><g id="Housing_Finance" data-name="Housing &amp; Finance"><rect class="cls-1" x="162.49619" y="-162.20179" width="115" height="440" rx="4.94413" transform="translate(277.7944 -162.19798) rotate(90)"/><rect class="cls-2" x="5" y="7.798" width="240" height="100" rx="6.74481"/><path class="cls-3" d="M15.74762,91.9982A2.68451,2.68451,0,0,1,15,90.0978V25.4982a2.68948,2.68948,0,0,1,.74762-1.9004,2.35054,2.35054,0,0,1,1.77585-.7998H32.29a4.047,4.047,0,0,1,3.83181,2.2998L51.91612,52.798V25.4982a2.68948,2.68948,0,0,1,.74762-1.9004,2.35052,2.35052,0,0,1,1.77585-.7998H71.3558a2.355,2.355,0,0,1,1.77585.7998,2.69579,2.69579,0,0,1,.74762,1.9004V90.0978a2.6908,2.6908,0,0,1-.74762,1.9004,2.34992,2.34992,0,0,1-1.77585.7998H56.58925a3.70205,3.70205,0,0,1-2.42978-.7002,6.6267,6.6267,0,0,1-1.402-1.5996l-15.79477-25.5V90.0978a2.68865,2.68865,0,0,1-.74763,1.9004,2.3489,2.3489,0,0,1-1.77536.7998H17.52347A2.34547,2.34547,0,0,1,15.74762,91.9982Z"/><path class="cls-3" d="M95.88806,91.6481a4.40585,4.40585,0,0,1-1.35544-2.6499L85.93446,25.298v-.2998a2.189,2.189,0,0,1,.60781-1.5503,1.91679,1.91679,0,0,1,1.44865-.6499h17.38322a4.12051,4.12051,0,0,1,2.47639.6001,2.70289,2.70289,0,0,1,.88792,2.1001l3.17789,28.1997,3.83181-12.5q.93284-2.89891,3.17741-2.8999h9.53269q2.24286,0,3.17788,2.8999L135.468,53.5978l3.1774-28.0996a2.69322,2.69322,0,0,1,.88793-2.1001,4.11744,4.11744,0,0,1,2.47638-.6001h17.38371a1.92049,1.92049,0,0,1,1.44864.6499,2.19694,2.19694,0,0,1,.60733,1.5503v.2998l-8.59816,63.7002a4.41889,4.41889,0,0,1-1.35544,2.6499,4.0254,4.0254,0,0,1-2.94389,1.1499h-13.3645a3.45087,3.45087,0,0,1-2.57008-.8999,5.735,5.735,0,0,1-1.26174-1.8003l-7.66363-20.5-7.66363,20.5a5.78318,5.78318,0,0,1-1.26174,1.8003,3.45313,3.45313,0,0,1-2.57008.8999H98.832A4.02075,4.02075,0,0,1,95.88806,91.6481Z"/><path class="cls-3" d="M174.25167,91.9982a2.68451,2.68451,0,0,1-.74762-1.9004V25.4982a2.68948,2.68948,0,0,1,.74762-1.9004,2.35051,2.35051,0,0,1,1.77585-.7998h17.85074a2.355,2.355,0,0,1,1.77584.7998,2.69575,2.69575,0,0,1,.74763,1.9004V45.298l10.56043-20.2998a3.87631,3.87631,0,0,1,3.73861-2.2002h20.65432a1.919,1.919,0,0,1,1.44864.6499,2.28374,2.28374,0,0,1,.32624,2.6499L216.30843,56.298l18.41194,33.2002A1.89589,1.89589,0,0,1,235,90.5978a2.197,2.197,0,0,1-.60781,1.5503,1.9139,1.9139,0,0,1-1.44864.6499H211.6353a3.9153,3.9153,0,0,1-2.52348-.75,4.47085,4.47085,0,0,1-1.30834-1.5498L196.40173,68.6979V90.0978a2.69076,2.69076,0,0,1-.74763,1.9004,2.34989,2.34989,0,0,1-1.77584.7998H176.02752A2.34544,2.34544,0,0,1,174.25167,91.9982Z"/><path class="cls-3" d="M255.83933,87.1123a2.30223,2.30223,0,0,1-.639-1.62836V30.11254a2.30832,2.30832,0,0,1,.639-1.62884,2.00805,2.00805,0,0,1,1.51845-.6857h40.99329a2.01174,2.01174,0,0,1,1.51844.6857,2.31294,2.31294,0,0,1,.63953,1.62884V42.19819a2.3068,2.3068,0,0,1-.63953,1.62836,2.005,2.005,0,0,1-1.51844.6857H274.3783V49.9122h22.21492a2.01252,2.01252,0,0,1,1.51845.6857,2.31253,2.31253,0,0,1,.639,1.62885v11.143a2.30641,2.30641,0,0,1-.639,1.62836,2.00745,2.00745,0,0,1-1.51845.6857H274.3783v5.39995h24.61229a2.01247,2.01247,0,0,1,1.51845.6857,2.31137,2.31137,0,0,1,.639,1.62836V85.48394a2.30641,2.30641,0,0,1-.639,1.62836,2.00743,2.00743,0,0,1-1.51845.6857H257.35778A2.003,2.003,0,0,1,255.83933,87.1123Z"/><path class="cls-3" d="M313.1335,87.15513a2.26559,2.26559,0,0,1-.63905-1.67119V30.11254a2.30828,2.30828,0,0,1,.63905-1.62884,2.008,2.008,0,0,1,1.51844-.6857h15.66232a2.01076,2.01076,0,0,1,1.518.6857,2.31085,2.31085,0,0,1,.63953,1.62884v18h12.94542v-18a2.30624,2.30624,0,0,1,.639-1.62884,2.00807,2.00807,0,0,1,1.51845-.6857H363.237a2.01076,2.01076,0,0,1,1.518.6857,2.313,2.313,0,0,1,.63952,1.62884v55.3714a2.30685,2.30685,0,0,1-.63952,1.62836,2.0057,2.0057,0,0,1-1.518.6857H347.57467a2.003,2.003,0,0,1-1.51845-.6857,2.30016,2.30016,0,0,1-.639-1.62836V66.96955H332.47176V85.48394a2.30475,2.30475,0,0,1-.63953,1.62836,2.0057,2.0057,0,0,1-1.518.6857H314.65194A2.066,2.066,0,0,1,313.1335,87.15513Z"/><path class="cls-3" d="M378.81823,87.1123a2.30219,2.30219,0,0,1-.63905-1.62836V30.11254a2.30828,2.30828,0,0,1,.63905-1.62884,2.008,2.008,0,0,1,1.51844-.6857h23.01372a31.76264,31.76264,0,0,1,13.50483,2.7428,22.353,22.353,0,0,1,9.42925,8.05759A24.072,24.072,0,0,1,430.04,51.36974q.15929,4.80112.16025,6.51391,0,1.62933-.16025,6.25744-.47928,11.828-7.47109,17.74256Q415.5752,87.798,403.75,87.798H380.33667A2.003,2.003,0,0,1,378.81823,87.1123Zm24.53216-16.02855a6.02972,6.02972,0,0,0,4.5148-1.75732,7.6685,7.6685,0,0,0,1.878-5.18534q.15928-2.48561.15976-6.42874,0-4.02807-.15976-6.34261a7.10522,7.10522,0,0,0-2.03779-5.143,6.78189,6.78189,0,0,0-4.7542-1.7145h-4.79475v26.5715Z"/><rect class="cls-4" y="120" width="440" height="25" rx="3.71318"/><path class="cls-5" d="M105.21054,139.17383a.42034.42034,0,0,1-.12353-.30615V127.1499a.46268.46268,0,0,1,.11474-.32422.39682.39682,0,0,1,.30811-.126H107.129a.42487.42487,0,0,1,.31641.126.44542.44542,0,0,1,.12353.32422v4.626h5.13916v-4.626a.44508.44508,0,0,1,.123-.32422.40425.40425,0,0,1,.29931-.126h1.63672a.39825.39825,0,0,1,.30811.126.46463.46463,0,0,1,.11426.32422v11.71778a.43943.43943,0,0,1-.11426.30615.39658.39658,0,0,1-.30811.126h-1.63672a.40242.40242,0,0,1-.29931-.126.42188.42188,0,0,1-.123-.30615V134.062h-5.13916v4.80567a.42636.42636,0,0,1-.43994.43212h-1.61914A.40242.40242,0,0,1,105.21054,139.17383Z"/><path class="cls-5" d="M122.4581,138.23779a5.00261,5.00261,0,0,1-1.4082-3.68994q-.01758-.52221-.01758-1.53027,0-1.0254.01758-1.54785a4.98426,4.98426,0,0,1,1.44336-3.67188,6.02239,6.02239,0,0,1,7.41845,0,4.96827,4.96827,0,0,1,1.45215,3.67188q.03516,1.04443.03516,1.54785,0,.48633-.03516,1.53027a4.98561,4.98561,0,0,1-1.417,3.68994,6.26452,6.26452,0,0,1-7.48877,0Zm5.61426-1.56591a3.28316,3.28316,0,0,0,.73926-2.21387q.03514-1.08033.03515-1.458,0-.41382-.03515-1.458a3.23991,3.23991,0,0,0-.75684-2.20508,2.72886,2.72886,0,0,0-3.71338,0,3.177,3.177,0,0,0-.73926,2.20508q-.01758.52222-.01757,1.458,0,.91773.01757,1.458a3.20211,3.20211,0,0,0,.73047,2.20459,2.77568,2.77568,0,0,0,3.73975.00928Z"/><path class="cls-5" d="M138.42148,138.23779a4.92992,4.92992,0,0,1-1.32031-3.7622V127.1499a.46268.46268,0,0,1,.11474-.32422.39647.39647,0,0,1,.30762-.126h1.61914a.42522.42522,0,0,1,.3169.126.44542.44542,0,0,1,.12353.32422v7.32569a3.07177,3.07177,0,0,0,.65967,2.14209,2.79952,2.79952,0,0,0,3.749,0,3.07177,3.07177,0,0,0,.65967-2.14209V127.1499a.44348.44348,0,0,1,.12353-.32422.42522.42522,0,0,1,.3169-.126H146.711a.39647.39647,0,0,1,.30762.126.46492.46492,0,0,1,.11474.32422v7.32569a4.951,4.951,0,0,1-1.31152,3.7622,5.14953,5.14953,0,0,1-3.687,1.24219A5.20805,5.20805,0,0,1,138.42148,138.23779Z"/><path class="cls-5" d="M154.87753,138.99365a4.02665,4.02665,0,0,1-1.70752-1.27783,3.058,3.058,0,0,1-.61572-1.728.38268.38268,0,0,1,.10547-.26123.34148.34148,0,0,1,.26416-.1167h1.60156a.52541.52541,0,0,1,.31641.08985.95.95,0,0,1,.229.25195,1.83747,1.83747,0,0,0,.80078,1.02637,3.07852,3.07852,0,0,0,1.71582.41357,3.326,3.326,0,0,0,1.85694-.42285,1.32993,1.32993,0,0,0,.625-1.16113,1.11243,1.11243,0,0,0-.3169-.80957,2.63782,2.63782,0,0,0-.95947-.56739q-.64233-.24243-1.90918-.585a7.407,7.407,0,0,1-3.04492-1.332,2.95369,2.95369,0,0,1-.96826-2.376,3.20931,3.20931,0,0,1,.56347-1.8628,3.75384,3.75384,0,0,1,1.61036-1.28711,5.925,5.925,0,0,1,2.4375-.46777,5.683,5.683,0,0,1,2.52588.522,4.18749,4.18749,0,0,1,1.61914,1.30469,2.92488,2.92488,0,0,1,.58935,1.55713.38092.38092,0,0,1-.10547.26123.33986.33986,0,0,1-.26416.1167H160.1749a.52354.52354,0,0,1-.52783-.32373,1.39454,1.39454,0,0,0-.68653-.96338,3.13466,3.13466,0,0,0-3.001-.00879,1.24614,1.24614,0,0,0-.5542,1.09814,1.19063,1.19063,0,0,0,.28173.81006,2.292,2.292,0,0,0,.87989.5669,15.69078,15.69078,0,0,0,1.74218.54883,11.97914,11.97914,0,0,1,2.49073.81,3.27073,3.27073,0,0,1,1.36377,1.13379,3.17732,3.17732,0,0,1,.43994,1.7461,3.34072,3.34072,0,0,1-.62451,2.0249,3.8872,3.8872,0,0,1-1.76026,1.30518,7.11187,7.11187,0,0,1-2.63135.45019A6.81463,6.81463,0,0,1,154.87753,138.99365Z"/><path class="cls-5" d="M168.253,139.17383a.42034.42034,0,0,1-.12353-.30615V127.13184a.413.413,0,0,1,.12353-.31495.41772.41772,0,0,1,.29932-.11718h1.68945a.4118.4118,0,0,1,.30811.11718.43181.43181,0,0,1,.11426.31495v11.73584a.43943.43943,0,0,1-.11426.30615.39658.39658,0,0,1-.30811.126h-1.68945A.40242.40242,0,0,1,168.253,139.17383Z"/><path class="cls-5" d="M177.05283,139.17383a.42035.42035,0,0,1-.12354-.30615V127.1499a.46268.46268,0,0,1,.11475-.32422.39681.39681,0,0,1,.3081-.126h1.37256a.55764.55764,0,0,1,.51026.30615l5.03369,7.99219V127.1499a.46458.46458,0,0,1,.11426-.32422.39751.39751,0,0,1,.3081-.126h1.51367a.426.426,0,0,1,.3169.126.44507.44507,0,0,1,.123.32422v11.69971a.44429.44429,0,0,1-.123.32422.40319.40319,0,0,1-.29932.126h-1.39014a.57171.57171,0,0,1-.52832-.30615l-5.01611-7.812v7.686a.43943.43943,0,0,1-.11426.30615.39515.39515,0,0,1-.3081.126h-1.51319A.40242.40242,0,0,1,177.05283,139.17383Z"/><path class="cls-5" d="M193.922,138.20166a4.956,4.956,0,0,1-1.43457-3.564q-.01758-.52149-.01758-1.67383,0-1.15211.01758-1.67383a4.75008,4.75008,0,0,1,1.44336-3.50147,5.33491,5.33491,0,0,1,3.7666-1.26855,6.34521,6.34521,0,0,1,2.78955.56689,4.5477,4.5477,0,0,1,1.76855,1.40381,3.07051,3.07051,0,0,1,.63379,1.647.37074.37074,0,0,1-.10547.27.376.376,0,0,1-.28173.10792H200.6539a.41031.41031,0,0,1-.26367-.07178.6082.6082,0,0,1-.15869-.23389,2.50753,2.50753,0,0,0-.86231-1.13428,2.69974,2.69974,0,0,0-1.67187-.46777,2.65055,2.65055,0,0,0-1.92725.6748,2.91342,2.91342,0,0,0-.73047,2.09717q-.01758.52222-.01757,1.584,0,1.0437.01757,1.584a3.00943,3.00943,0,0,0,.73926,2.15088,2.63767,2.63767,0,0,0,1.936.69287,2.87826,2.87826,0,0,0,2.00634-.68359,2.62829,2.62829,0,0,0,.75684-2.05225v-.5581h-2.14746a.40136.40136,0,0,1-.29883-.126.41844.41844,0,0,1-.12353-.30566v-.99024a.4219.4219,0,0,1,.12353-.30615.40315.40315,0,0,1,.29883-.126h4.22412a.42561.42561,0,0,1,.43994.43213v1.9082a5.039,5.039,0,0,1-.65088,2.60059,4.31728,4.31728,0,0,1-1.84814,1.70117,6.22407,6.22407,0,0,1-2.79834.59424A5.264,5.264,0,0,1,193.922,138.20166Z"/><path class="cls-5" d="M217.83115,139.02979a3.52159,3.52159,0,0,1-1.5044-1.269,3.38022,3.38022,0,0,1-.53711-1.89892,3.071,3.071,0,0,1,.63379-1.93506,6.22207,6.22207,0,0,1,1.79492-1.50293,6.66564,6.66564,0,0,1-1.06445-1.4668,3.02343,3.02343,0,0,1-.32568-1.35937,2.91136,2.91136,0,0,1,.42236-1.52979,3.037,3.037,0,0,1,1.23193-1.125A4.09316,4.09316,0,0,1,220.401,126.52a3.95375,3.95375,0,0,1,1.83936.40478,2.95428,2.95428,0,0,1,1.20556,1.10694,2.91757,2.91757,0,0,1,.42237,1.53027,2.69192,2.69192,0,0,1-.65137,1.81787A7.31124,7.31124,0,0,1,221.316,132.856l2.51709,2.53808a9.044,9.044,0,0,0,.915-2.37646.33241.33241,0,0,1,.11426-.22461.38407.38407,0,0,1,.25537-.08106H226.42a.35451.35451,0,0,1,.26416.10791.34942.34942,0,0,1,.10547.252,4.76781,4.76781,0,0,1-.49267,1.75488,10.55442,10.55442,0,0,1-1.12647,1.93506l1.8833,1.94385a.38373.38373,0,0,1,.12305.27.32141.32141,0,0,1-.08789.23437.329.329,0,0,1-.24658.08984h-1.72461a.61049.61049,0,0,1-.45752-.18017l-.96826-.95361a5.15614,5.15614,0,0,1-3.60791,1.314A5.298,5.298,0,0,1,217.83115,139.02979Zm4.48828-2.35791-2.79834-2.80811q-1.49634.82838-1.4961,1.9082a1.61892,1.61892,0,0,0,.60694,1.32276,2.2269,2.2269,0,0,0,1.45215.49511A3.00074,3.00074,0,0,0,222.31943,136.67188Zm-.95069-6.06592a1.31242,1.31242,0,0,0,.44043-.99024,1.22262,1.22262,0,0,0-.40478-.94482,1.43488,1.43488,0,0,0-1.00342-.36914,1.4653,1.4653,0,0,0-.99463.35986,1.20407,1.20407,0,0,0-.41357.9541,1.69475,1.69475,0,0,0,.229.82813,5.33466,5.33466,0,0,0,.84473,1.04394A6.36877,6.36877,0,0,0,221.36874,130.606Z"/><path class="cls-5" d="M240.11289,139.17383a.42035.42035,0,0,1-.12354-.30615V127.1499a.46268.46268,0,0,1,.11475-.32422.39681.39681,0,0,1,.3081-.126H248.068a.42674.42674,0,0,1,.3169.126.44508.44508,0,0,1,.12305.32422v1.2959a.42561.42561,0,0,1-.44.43213h-5.63183v3.38379h5.27978a.4256.4256,0,0,1,.43994.43213v1.2959a.4256.4256,0,0,1-.43994.43213h-5.27978v4.4458a.42637.42637,0,0,1-.43994.43212h-1.584A.40242.40242,0,0,1,240.11289,139.17383Z"/><path class="cls-5" d="M254.22812,139.17383a.42035.42035,0,0,1-.12354-.30615V127.13184a.413.413,0,0,1,.12354-.31495.41772.41772,0,0,1,.29932-.11718h1.68945a.41178.41178,0,0,1,.3081.11718.43177.43177,0,0,1,.11426.31495v11.73584a.43938.43938,0,0,1-.11426.30615.39656.39656,0,0,1-.3081.126h-1.68945A.40242.40242,0,0,1,254.22812,139.17383Z"/><path class="cls-5" d="M263.02792,139.17383a.42038.42038,0,0,1-.12353-.30615V127.1499a.46268.46268,0,0,1,.11475-.32422.39681.39681,0,0,1,.3081-.126h1.37256a.55761.55761,0,0,1,.51025.30615l5.03369,7.99219V127.1499a.46463.46463,0,0,1,.11426-.32422.39753.39753,0,0,1,.30811-.126h1.51367a.426.426,0,0,1,.31689.126.445.445,0,0,1,.123.32422v11.69971a.44425.44425,0,0,1-.123.32422.40317.40317,0,0,1-.29931.126h-1.39014a.57171.57171,0,0,1-.52832-.30615l-5.01611-7.812v7.686a.43943.43943,0,0,1-.11426.30615.39516.39516,0,0,1-.30811.126h-1.51318A.40245.40245,0,0,1,263.02792,139.17383Z"/><path class="cls-5" d="M277.84677,139.19189a.37157.37157,0,0,1-.10547-.27l.03516-.16211,4.22363-11.60987a.63631.63631,0,0,1,.63379-.45019h1.936a.63671.63671,0,0,1,.63379.45019l4.22363,11.60987.03515.16211a.35668.35668,0,0,1-.11425.27.3634.3634,0,0,1-.25489.10791H287.527a.51008.51008,0,0,1-.51074-.34179l-.80957-2.17822h-5.20948l-.80957,2.17822a.51028.51028,0,0,1-.51025.34179h-1.56641A.35449.35449,0,0,1,277.84677,139.19189Zm3.76612-4.5h3.978l-1.98877-5.54394Z"/><path class="cls-5" d="M294.7247,139.17383a.42034.42034,0,0,1-.12353-.30615V127.1499a.46268.46268,0,0,1,.11474-.32422.39682.39682,0,0,1,.30811-.126h1.37256a.55763.55763,0,0,1,.51025.30615l5.03369,7.99219V127.1499a.46463.46463,0,0,1,.11426-.32422.39753.39753,0,0,1,.30811-.126h1.51367a.426.426,0,0,1,.31689.126.44508.44508,0,0,1,.12305.32422v11.69971a.44429.44429,0,0,1-.12305.32422.40319.40319,0,0,1-.29931.126H302.504a.57171.57171,0,0,1-.52832-.30615l-5.01611-7.812v7.686a.43943.43943,0,0,1-.11426.30615.39516.39516,0,0,1-.30811.126H295.024A.40242.40242,0,0,1,294.7247,139.17383Z"/><path class="cls-5" d="M311.55917,138.21094a5.0304,5.0304,0,0,1-1.417-3.60938q-.01758-.4856-.01758-1.584,0-1.11548.01758-1.61963a5.03321,5.03321,0,0,1,1.42578-3.59131,5.18773,5.18773,0,0,1,3.749-1.28662,6.33024,6.33024,0,0,1,2.728.54883,4.3629,4.3629,0,0,1,1.80372,1.50293,3.97176,3.97176,0,0,1,.67773,2.14209V130.75a.30845.30845,0,0,1-.11426.24268.38.38,0,0,1-.25537.09912h-1.707a.446.446,0,0,1-.31689-.09912.76293.76293,0,0,1-.17627-.35108,2.55381,2.55381,0,0,0-.915-1.57471,2.93443,2.93443,0,0,0-1.72461-.459q-2.51734,0-2.62256,2.87988-.01758.48633-.01758,1.49414t.01758,1.52979q.10546,2.88062,2.62256,2.87988a2.94289,2.94289,0,0,0,1.71582-.459,2.53167,2.53167,0,0,0,.92383-1.57471.76545.76545,0,0,1,.17627-.35107.44822.44822,0,0,1,.31689-.09913h1.707a.38578.38578,0,0,1,.27295.10792.30707.30707,0,0,1,.09668.27,3.97042,3.97042,0,0,1-.67773,2.14209,4.35558,4.35558,0,0,1-1.80372,1.50293,6.32286,6.32286,0,0,1-2.728.54932A5.22546,5.22546,0,0,1,311.55917,138.21094Z"/><path class="cls-5" d="M326.26376,139.17383a.42034.42034,0,0,1-.12353-.30615V127.1499a.46268.46268,0,0,1,.11475-.32422.39681.39681,0,0,1,.3081-.126h7.76123a.426.426,0,0,1,.3169.126.44507.44507,0,0,1,.123.32422V128.356a.41445.41445,0,0,1-.123.31494.441.441,0,0,1-.3169.1167h-5.77246V131.938h5.38525a.42412.42412,0,0,1,.3169.126.44393.44393,0,0,1,.123.32374V133.522a.41442.41442,0,0,1-.123.31494.44089.44089,0,0,1-.3169.1167h-5.38525v3.2583h5.91357a.44183.44183,0,0,1,.31641.1167.41589.41589,0,0,1,.12354.31543v1.22364a.4133.4133,0,0,1-.12354.31494.438.438,0,0,1-.31641.11718h-7.90234A.40245.40245,0,0,1,326.26376,139.17383Z"/><line class="cls-6" x1="12.5" y1="133" x2="87.5" y2="133"/><line class="cls-7" x1="352.5" y1="133" x2="427.5" y2="133"/></g></svg>