<svg xmlns="http://www.w3.org/2000/svg" viewBox="0 0 600 198"><defs><style>.cls-1{fill:#666;}.cls-2{fill:#333;}.cls-3{fill:#0d47a1;}.cls-4{fill:#fff;}</style></defs><title>NwkEhd</title><g id="EHD_Horizontal"><rect class="cls-1" y="163.63636" width="600" height="34.09091" rx="5.06343"/><rect class="cls-2" x="221.59091" y="-221.59091" width="156.81818" height="600" rx="6.742" transform="translate(378.40909 -221.59091) rotate(90)"/><rect class="cls-3" x="6.82338" y="10.90909" width="327.27273" height="136.36364" rx="9.19747"/><path class="cls-4" d="M21.47923,125.72754a3.66065,3.66065,0,0,1-1.01948-2.59144V35.04572a3.66741,3.66741,0,0,1,1.01948-2.59144,3.20524,3.20524,0,0,1,2.42162-1.09064H44.037a5.5187,5.5187,0,0,1,5.22521,3.13609l21.53766,37.773v-37.227a3.66741,3.66741,0,0,1,1.01948-2.59144A3.20524,3.20524,0,0,1,74.241,31.36364H97.30856a3.21132,3.21132,0,0,1,2.42161,1.09064,3.676,3.676,0,0,1,1.01949,2.59144V123.1361a3.66918,3.66918,0,0,1-1.01949,2.59144,3.20435,3.20435,0,0,1-2.42161,1.09064H77.17236a5.04824,5.04824,0,0,1-3.31333-.95481,9.03591,9.03591,0,0,1-1.91187-2.18129L50.40884,88.90936V123.1361a3.66634,3.66634,0,0,1-1.01949,2.59144,3.203,3.203,0,0,1-2.42095,1.09064H23.90085A3.1983,3.1983,0,0,1,21.47923,125.72754Z"/><path class="cls-4" d="M130.76164,125.25013a6.00787,6.00787,0,0,1-1.84831-3.6135l-11.72477-86.8639V34.3639a2.985,2.985,0,0,1,.82883-2.114,2.61373,2.61373,0,0,1,1.97542-.88623h23.7044a5.61884,5.61884,0,0,1,3.37689.81831,3.68576,3.68576,0,0,1,1.21081,2.86377l4.33348,38.45415,5.2252-17.04546q1.272-3.95307,4.33282-3.95441h12.99913q3.05845,0,4.33348,3.95441l5.2252,16.909L189.067,35.04572a3.67261,3.67261,0,0,1,1.21081-2.86377,5.61472,5.61472,0,0,1,3.37689-.81831H217.3598a2.61883,2.61883,0,0,1,1.97542.88623,2.99581,2.99581,0,0,1,.82817,2.114v.40883l-11.72477,86.8639a6.02575,6.02575,0,0,1-1.84831,3.6135,5.4892,5.4892,0,0,1-4.0144,1.568H184.35158a4.70573,4.70573,0,0,1-3.50465-1.22714,7.82018,7.82018,0,0,1-1.72055-2.45494L168.676,95.18155l-10.4504,27.95455A7.88631,7.88631,0,0,1,156.505,125.591a4.7088,4.7088,0,0,1-3.50465,1.22714H134.776A5.48287,5.48287,0,0,1,130.76164,125.25013Z"/><path class="cls-4" d="M237.62111,125.72754a3.66065,3.66065,0,0,1-1.01948-2.59144V35.04572a3.66741,3.66741,0,0,1,1.01948-2.59144,3.20524,3.20524,0,0,1,2.42162-1.09064h24.34191a3.21132,3.21132,0,0,1,2.42161,1.09064,3.676,3.676,0,0,1,1.01949,2.59144V62.04545L282.22633,34.3639a5.28589,5.28589,0,0,1,5.0981-3.00026h28.165a2.6168,2.6168,0,0,1,1.97543.88623,3.11416,3.11416,0,0,1,.44486,3.6135L294.97124,77.04545l25.10719,45.273a2.58532,2.58532,0,0,1,.38132,1.49947,2.99592,2.99592,0,0,1-.82883,2.114,2.60988,2.60988,0,0,1-1.97543.88623H288.59878a5.339,5.339,0,0,1-3.4411-1.02273,6.09653,6.09653,0,0,1-1.7841-2.11337L267.82574,93.95441V123.1361a3.66918,3.66918,0,0,1-1.01949,2.59144,3.20435,3.20435,0,0,1-2.42161,1.09064H240.04273A3.1983,3.1983,0,0,1,237.62111,125.72754Z"/><path class="cls-4" d="M348.877,120.15314a3.1394,3.1394,0,0,1-.87142-2.22049V42.42619a3.14771,3.14771,0,0,1,.87142-2.22114,2.73825,2.73825,0,0,1,2.07062-.935h55.89993a2.74328,2.74328,0,0,1,2.07061.935,3.154,3.154,0,0,1,.87208,2.22114V58.90663a3.14563,3.14563,0,0,1-.87208,2.22048,2.73406,2.73406,0,0,1-2.07061.935H374.15743v7.36357H404.4505a2.74429,2.74429,0,0,1,2.07061.93505,3.1534,3.1534,0,0,1,.87142,2.22115v15.195a3.14505,3.14505,0,0,1-.87142,2.22049,2.73737,2.73737,0,0,1-2.07061.935H374.15743V98.296h33.56221a2.74428,2.74428,0,0,1,2.07061.93505,3.15183,3.15183,0,0,1,.87142,2.22048v16.4811a3.14505,3.14505,0,0,1-.87142,2.22049,2.73735,2.73735,0,0,1-2.07061.935h-56.772A2.73136,2.73136,0,0,1,348.877,120.15314Z"/><path class="cls-4" d="M427.00542,120.21153a3.08943,3.08943,0,0,1-.87142-2.27888V42.42619a3.14771,3.14771,0,0,1,.87142-2.22114,2.73824,2.73824,0,0,1,2.07061-.935h21.35771a2.74193,2.74193,0,0,1,2.07.935,3.15118,3.15118,0,0,1,.87208,2.22114V66.97165h17.65285V42.42619a3.14485,3.14485,0,0,1,.87142-2.22114,2.73823,2.73823,0,0,1,2.07061-.935h21.35771a2.74193,2.74193,0,0,1,2.07.935,3.154,3.154,0,0,1,.87207,2.22114v75.50646a3.14569,3.14569,0,0,1-.87207,2.22049,2.735,2.735,0,0,1-2.07.935H473.97066a2.73134,2.73134,0,0,1-2.07061-.935,3.13656,3.13656,0,0,1-.87142-2.22049V92.68575H453.37578v25.2469a3.14285,3.14285,0,0,1-.87208,2.22049,2.735,2.735,0,0,1-2.07.935H429.076A2.81724,2.81724,0,0,1,427.00542,120.21153Z"/><path class="cls-4" d="M516.57551,120.15314a3.13936,3.13936,0,0,1-.87142-2.22049V42.42619a3.14766,3.14766,0,0,1,.87142-2.22114,2.73823,2.73823,0,0,1,2.07061-.935h31.38234a43.31264,43.31264,0,0,1,18.41568,3.74018A30.48138,30.48138,0,0,1,581.3022,53.9978a32.82527,32.82527,0,0,1,5.12124,17.41548q.2172,6.547.21852,8.88261,0,2.22182-.21852,8.53287-.65356,16.12905-10.18785,24.1944-9.53692,8.065-25.66216,8.065H518.64612A2.73134,2.73134,0,0,1,516.57551,120.15314ZM550.02846,98.296a8.22239,8.22239,0,0,0,6.15655-2.39634q2.34276-2.394,2.56095-7.07092.2172-3.38946.21785-8.76647,0-5.49281-.21785-8.649-.21918-4.67357-2.77881-7.01317a9.24808,9.24808,0,0,0-6.483-2.33795h-6.53829V98.296Z"/><path class="cls-4" d="M34.27347,188.45389a.54894.54894,0,0,1-.18256-.41662V172.05842a.60316.60316,0,0,1,.16926-.44173.60922.60922,0,0,1,.45458-.17236H46.18093a.65871.65871,0,0,1,.46788.17236.58024.58024,0,0,1,.18135.44173v1.6448a.54334.54334,0,0,1-.18135.42918.68774.68774,0,0,1-.46788.1598h-8.5283v4.29519h7.95644a.65793.65793,0,0,1,.46788.17121.58369.58369,0,0,1,.18135.44173V180.747a.54572.54572,0,0,1-.18135.43032.68707.68707,0,0,1-.46788.15866H37.65263v4.44358h8.73625a.68706.68706,0,0,1,.46788.15865.54574.54574,0,0,1,.18135.43032v1.66877a.54173.54173,0,0,1-.18135.42918.68216.68216,0,0,1-.46788.1598H34.71475A.616.616,0,0,1,34.27347,188.45389Z"/><path class="cls-4" d="M53.551,187.14125a6.59883,6.59883,0,0,1-2.09278-4.92184q-.02538-.6626-.02539-2.15958,0-1.5221.02539-2.20866a6.59673,6.59673,0,0,1,2.10608-4.89673,8.055,8.055,0,0,1,5.53723-1.75551,10.02671,10.02671,0,0,1,4.03081.74877,6.3574,6.3574,0,0,1,2.66464,2.05,5.1299,5.1299,0,0,1,1.00106,2.92091v.04908a.40978.40978,0,0,1-.16926.331.58966.58966,0,0,1-.37721.13468h-2.522a.69771.69771,0,0,1-.46788-.13468,1.01265,1.01265,0,0,1-.25994-.47826,3.44876,3.44876,0,0,0-1.35166-2.14817,4.60856,4.60856,0,0,0-2.54858-.6255q-3.71767,0-3.87364,3.92651-.0254.6626-.02539,2.03745t.02539,2.08653q.156,3.92764,3.87364,3.92765a4.61924,4.61924,0,0,0,2.53528-.62664,3.4158,3.4158,0,0,0,1.365-2.147,1.01741,1.01741,0,0,1,.25994-.4794.7039.7039,0,0,1,.46788-.13469h2.522a.59177.59177,0,0,1,.4026.14725.40332.40332,0,0,1,.14387.36868A5.13276,5.13276,0,0,1,65.797,186.074a6.34618,6.34618,0,0,1-2.66464,2.04887,10.00726,10.00726,0,0,1-4.03081.74877A8.12255,8.12255,0,0,1,53.551,187.14125Z"/><path class="cls-4" d="M73.323,187.17777a6.54385,6.54385,0,0,1-2.07948-5.03141q-.02721-.71224-.0266-2.08653,0-1.39882.0266-2.1105a6.53324,6.53324,0,0,1,2.13147-5.00744,8.133,8.133,0,0,1,5.48524-1.743,8.14489,8.14489,0,0,1,5.47315,1.743,6.51311,6.51311,0,0,1,2.14477,5.00744q.05259,1.4228.052,2.1105,0,.6626-.052,2.08653a6.52242,6.52242,0,0,1-2.09278,5.03141,8.262,8.262,0,0,1-5.52514,1.69388A8.24855,8.24855,0,0,1,73.323,187.17777Zm8.29375-2.13561a4.2686,4.2686,0,0,0,1.09173-3.01907q.05259-1.47244.052-1.98723,0-.565-.052-1.98837a4.21063,4.21063,0,0,0-1.11832-3.00652,4.28,4.28,0,0,0-5.48525,0,4.12472,4.12472,0,0,0-1.09172,3.00652q-.02721.71226-.0266,1.98837,0,1.25157.0266,1.98723a4.16544,4.16544,0,0,0,1.07843,3.00766,4.35465,4.35465,0,0,0,5.52513.01141Z"/><path class="cls-4" d="M92.04079,188.45389a.54894.54894,0,0,1-.18256-.41662V172.05842a.60316.60316,0,0,1,.16926-.44173.60922.60922,0,0,1,.45458-.17236h2.02871a.83455.83455,0,0,1,.75321.41777l7.43536,10.89835v-10.702a.60316.60316,0,0,1,.16926-.44173.61206.61206,0,0,1,.45579-.17236h2.23545a.65468.65468,0,0,1,.46788.17236.58118.58118,0,0,1,.18256.44173v15.95374a.58118.58118,0,0,1-.18256.44173.61684.61684,0,0,1-.44249.17236h-2.05289a.8605.8605,0,0,1-.781-.41777l-7.40877-10.6518v10.48059a.5726.5726,0,0,1-.16926.41662.6067.6067,0,0,1-.45458.17236H92.48207A.616.616,0,0,1,92.04079,188.45389Z"/><path class="cls-4" d="M113.671,187.17777a6.54385,6.54385,0,0,1-2.07948-5.03141q-.02721-.71224-.0266-2.08653,0-1.39882.0266-2.1105a6.53328,6.53328,0,0,1,2.13147-5.00744,9.48371,9.48371,0,0,1,10.95839,0,6.51311,6.51311,0,0,1,2.14477,5.00744q.05259,1.4228.052,2.1105,0,.6626-.052,2.08653a6.52239,6.52239,0,0,1-2.09278,5.03141,9.87768,9.87768,0,0,1-11.06237,0Zm8.29376-2.13561a4.26865,4.26865,0,0,0,1.09172-3.01907q.0526-1.47244.052-1.98723,0-.565-.052-1.98837a4.21063,4.21063,0,0,0-1.11832-3.00652,4.28,4.28,0,0,0-5.48524,0,4.12468,4.12468,0,0,0-1.09173,3.00652q-.02721.71226-.0266,1.98837,0,1.25157.0266,1.98723a4.16544,4.16544,0,0,0,1.07843,3.00766,4.35467,4.35467,0,0,0,5.52514.01141Z"/><path class="cls-4" d="M132.39,188.45389a.54894.54894,0,0,1-.18256-.41662V172.05842a.60316.60316,0,0,1,.16926-.44173.60922.60922,0,0,1,.45458-.17236h2.10609a.879.879,0,0,1,.7798.46685l5.01857,8.78671,5.01736-8.78671a.87768.87768,0,0,1,.7798-.46685h2.07949a.65468.65468,0,0,1,.46788.17236.57691.57691,0,0,1,.18256.44173v15.97885a.53879.53879,0,0,1-.18256.42918.678.678,0,0,1-.46788.1598H146.377a.62084.62084,0,0,1-.44249-.17236.552.552,0,0,1-.18135-.41662V177.48249l-3.61371,6.47988a.91931.91931,0,0,1-.85839.5399h-1.09173a1.00941,1.00941,0,0,1-.88378-.5399l-3.61371-6.47988v10.55478a.5726.5726,0,0,1-.16926.41662.6067.6067,0,0,1-.45458.17236H132.8313A.616.616,0,0,1,132.39,188.45389Z"/><path class="cls-4" d="M155.45052,188.45389a.54894.54894,0,0,1-.18256-.41662v-16.004a.54038.54038,0,0,1,.18256-.42918.64663.64663,0,0,1,.44129-.1598h2.49659a.63682.63682,0,0,1,.45458.1598.56366.56366,0,0,1,.16926.42918v16.004a.5726.5726,0,0,1-.16926.41662.60672.60672,0,0,1-.45458.17236h-2.49659A.616.616,0,0,1,155.45052,188.45389Z"/><path class="cls-4" d="M166.48629,187.14125a6.59883,6.59883,0,0,1-2.09278-4.92184q-.0254-.6626-.02539-2.15958,0-1.5221.02539-2.20866a6.59673,6.59673,0,0,1,2.10608-4.89673,8.055,8.055,0,0,1,5.53723-1.75551,10.02671,10.02671,0,0,1,4.03081.74877,6.35746,6.35746,0,0,1,2.66464,2.05,5.13,5.13,0,0,1,1.00106,2.92091v.04908a.40976.40976,0,0,1-.16927.331.58961.58961,0,0,1-.3772.13468h-2.522a.69776.69776,0,0,1-.46789-.13468,1.01265,1.01265,0,0,1-.25993-.47826,3.4488,3.4488,0,0,0-1.35166-2.14817,4.60858,4.60858,0,0,0-2.54858-.6255q-3.71768,0-3.87364,3.92651-.0254.6626-.02539,2.03745t.02539,2.08653q.156,3.92764,3.87364,3.92765a4.61926,4.61926,0,0,0,2.53528-.62664,3.41584,3.41584,0,0,0,1.365-2.147,1.01741,1.01741,0,0,1,.25993-.4794.704.704,0,0,1,.46789-.13469h2.522a.59172.59172,0,0,1,.40259.14725.4033.4033,0,0,1,.14388.36868,5.13283,5.13283,0,0,1-1.00106,2.92091,6.34624,6.34624,0,0,1-2.66464,2.04887,10.00726,10.00726,0,0,1-4.03081.74877A8.12253,8.12253,0,0,1,166.48629,187.14125Z"/><path class="cls-4" d="M194.94136,188.25756a5.11273,5.11273,0,0,1-2.22335-1.7304,4.358,4.358,0,0,1-.79311-2.58876,3.981,3.981,0,0,1,.93577-2.639,9.064,9.064,0,0,1,2.65255-2.05,9.15507,9.15507,0,0,1-1.57291-1.99979,3.86071,3.86071,0,0,1-.48119-1.85367,3.74377,3.74377,0,0,1,.62385-2.08539,4.36607,4.36607,0,0,1,1.81955-1.53408,6.46405,6.46405,0,0,1,2.8339-.57756,6.2382,6.2382,0,0,1,2.71662.55245,4.24982,4.24982,0,0,1,1.78086,1.509,3.74173,3.74173,0,0,1,.62506,2.08653,3.50761,3.50761,0,0,1-.96237,2.47919,10.74961,10.74961,0,0,1-2.80851,2.01347l3.71889,3.46081a11.81941,11.81941,0,0,0,1.35167-3.24051.4453.4453,0,0,1,.16926-.307.59835.59835,0,0,1,.376-.10958h1.92473a.54435.54435,0,0,1,.3893.14724.458.458,0,0,1,.156.34357,6.11417,6.11417,0,0,1-.72782,2.39244,14.1685,14.1685,0,0,1-1.66359,2.639l2.78191,2.65039a.50645.50645,0,0,1,.18135.36868.41821.41821,0,0,1-.12936.31846.50848.50848,0,0,1-.36391.12328H205.7039a.946.946,0,0,1-.67584-.24541l-1.43025-1.30123a7.99357,7.99357,0,0,1-5.32928,1.792A8.36708,8.36708,0,0,1,194.94136,188.25756Zm6.629-3.2154-4.13358-3.82835q-2.21065,1.1283-2.21006,2.60132a2.14631,2.14631,0,0,0,.89708,1.8046,3.4676,3.4676,0,0,0,2.14477.67458A4.62,4.62,0,0,0,201.57032,185.04216Zm-1.40365-8.27078a1.7339,1.7339,0,0,0,.65044-1.35031,1.608,1.608,0,0,0-.59846-1.28867,2.225,2.225,0,0,0-1.48223-.50337,2.27684,2.27684,0,0,0-1.46894.49081,1.58618,1.58618,0,0,0-.61055,1.30123,2.18441,2.18441,0,0,0,.33732,1.12887,7.43014,7.43014,0,0,0,1.24889,1.42336A9.46136,9.46136,0,0,0,200.16667,176.77138Z"/><path class="cls-4" d="M221.35563,188.45389a.549.549,0,0,1-.18256-.41662V172.05842a.5865.5865,0,0,1,.62385-.61409h2.39261a.65872.65872,0,0,1,.46789.17236.58024.58024,0,0,1,.18135.44173V178.366h7.59253v-6.30753a.58024.58024,0,0,1,.18135-.44173.62166.62166,0,0,1,.4425-.17236h2.418a.613.613,0,0,1,.45458.17236.60316.60316,0,0,1,.16926.44173v15.97885a.5726.5726,0,0,1-.16926.41662.60856.60856,0,0,1-.45458.17236h-2.418a.61685.61685,0,0,1-.4425-.17236.552.552,0,0,1-.18135-.41662v-6.55408h-7.59253v6.55408a.552.552,0,0,1-.18135.41662.65379.65379,0,0,1-.46789.17236h-2.39261A.616.616,0,0,1,221.35563,188.45389Z"/><path class="cls-4" d="M243.58434,187.17777a6.54385,6.54385,0,0,1-2.07948-5.03141q-.0272-.71224-.0266-2.08653,0-1.39882.0266-2.1105a6.53328,6.53328,0,0,1,2.13147-5.00744,9.48371,9.48371,0,0,1,10.95839,0,6.51311,6.51311,0,0,1,2.14477,5.00744q.05259,1.4228.052,2.1105,0,.6626-.052,2.08653a6.52239,6.52239,0,0,1-2.09278,5.03141,9.87768,9.87768,0,0,1-11.06237,0Zm8.29376-2.13561a4.26869,4.26869,0,0,0,1.09173-3.01907q.05259-1.47244.052-1.98723,0-.565-.052-1.98837a4.21063,4.21063,0,0,0-1.11833-3.00652,4.28,4.28,0,0,0-5.48524,0,4.12468,4.12468,0,0,0-1.09173,3.00652q-.02721.71226-.0266,1.98837,0,1.25157.0266,1.98723a4.16544,4.16544,0,0,0,1.07843,3.00766,4.35467,4.35467,0,0,0,5.52514.01141Z"/><path class="cls-4" d="M263.91371,187.17777a6.43161,6.43161,0,0,1-1.95012-5.12957v-9.98978a.60316.60316,0,0,1,.16926-.44173.60923.60923,0,0,1,.45459-.17236h2.39261a.65871.65871,0,0,1,.46788.17236.58024.58024,0,0,1,.18135.44173v9.98978a3.97758,3.97758,0,0,0,.97567,2.92091,4.39515,4.39515,0,0,0,5.53723,0,3.97758,3.97758,0,0,0,.97566-2.92091v-9.98978a.58024.58024,0,0,1,.18135-.44173.65469.65469,0,0,1,.46789-.17236h2.3914a.614.614,0,0,1,.4558.17236.6032.6032,0,0,1,.16926.44173v9.98978a6.45769,6.45769,0,0,1-1.93682,5.12957,8.0142,8.0142,0,0,1-5.44777,1.69388A8.10407,8.10407,0,0,1,263.91371,187.17777Z"/><path class="cls-4" d="M284.97332,188.20848a5.92694,5.92694,0,0,1-2.522-1.74182,3.98431,3.98431,0,0,1-.91038-2.357.50146.50146,0,0,1,.156-.35613.52428.52428,0,0,1,.39051-.15866h2.366a.83016.83016,0,0,1,.46789.12213,1.34729,1.34729,0,0,1,.33731.34357,2.54147,2.54147,0,0,0,1.18361,1.3994,4.83784,4.83784,0,0,0,2.53407.565,5.2433,5.2433,0,0,0,2.74323-.57756,1.78018,1.78018,0,0,0,.92246-1.58316,1.45454,1.45454,0,0,0-.46788-1.10376,3.96357,3.96357,0,0,0-1.41695-.77389q-.94846-.33045-2.8206-.79786a11.3853,11.3853,0,0,1-4.49749-1.816,3.88254,3.88254,0,0,1-1.43025-3.24051,4.139,4.139,0,0,1,.8318-2.53968A5.49469,5.49469,0,0,1,285.22,171.837a9.40779,9.40779,0,0,1,3.60041-.63805,8.9835,8.9835,0,0,1,3.731.71225,6.10219,6.10219,0,0,1,2.3914,1.77948,3.808,3.808,0,0,1,.8717,2.12306.49755.49755,0,0,1-.156.35612.52422.52422,0,0,1-.3905.15866h-2.47a.78183.78183,0,0,1-.77981-.44173,1.91067,1.91067,0,0,0-1.01314-1.31264,4.97419,4.97419,0,0,0-4.43341-.01256,1.66516,1.66516,0,0,0-.8185,1.49756,1.54617,1.54617,0,0,0,.4159,1.1049,3.42742,3.42742,0,0,0,1.29968.77274,24.54833,24.54833,0,0,0,2.574.74878,18.68187,18.68187,0,0,1,3.679,1.1049,4.74841,4.74841,0,0,1,2.0142,1.5455,4.06688,4.06688,0,0,1,.65044,2.381,4.318,4.318,0,0,1-.92247,2.76112,5.72988,5.72988,0,0,1-2.60056,1.77948,11.269,11.269,0,0,1-3.88694.61409A10.79308,10.79308,0,0,1,284.97332,188.20848Z"/><path class="cls-4" d="M301.48224,188.45389a.54894.54894,0,0,1-.18256-.41662v-16.004a.54038.54038,0,0,1,.18256-.42918.6466.6466,0,0,1,.44128-.1598h2.49659a.63684.63684,0,0,1,.45459.1598.5637.5637,0,0,1,.16926.42918v16.004a.57263.57263,0,0,1-.16926.41662.60674.60674,0,0,1-.45459.17236h-2.49659A.616.616,0,0,1,301.48224,188.45389Z"/><path class="cls-4" d="M311.23163,188.45389a.54894.54894,0,0,1-.18256-.41662V172.05842a.60316.60316,0,0,1,.16926-.44173.60922.60922,0,0,1,.45458-.17236h2.02871a.83455.83455,0,0,1,.75321.41777l7.43536,10.89835v-10.702a.60316.60316,0,0,1,.16926-.44173.61206.61206,0,0,1,.45579-.17236h2.23545a.65468.65468,0,0,1,.46788.17236.58118.58118,0,0,1,.18256.44173v15.95374a.58118.58118,0,0,1-.18256.44173.61684.61684,0,0,1-.44249.17236h-2.05289a.8605.8605,0,0,1-.781-.41777l-7.40877-10.6518v10.48059a.5726.5726,0,0,1-.16926.41662.60672.60672,0,0,1-.45458.17236h-2.23666A.616.616,0,0,1,311.23163,188.45389Z"/><path class="cls-4" d="M332.90057,187.12869a6.50323,6.50323,0,0,1-2.11817-4.8602q-.02721-.71054-.0266-2.28171,0-1.57175.0266-2.28286a6.24134,6.24134,0,0,1,2.13147-4.77459,8.30046,8.30046,0,0,1,5.56383-1.7304,10.02546,10.02546,0,0,1,4.12027.77388,6.63293,6.63293,0,0,1,2.61266,1.91418,3.9977,3.9977,0,0,1,.937,2.24519.48646.48646,0,0,1-.156.36868.58274.58274,0,0,1-.4171.14724h-2.72872a.64683.64683,0,0,1-.39051-.09816.83461.83461,0,0,1-.23455-.3196,3.45491,3.45491,0,0,0-1.27307-1.54549,4.23193,4.23193,0,0,0-2.47-.63806,4.11107,4.11107,0,0,0-2.8472.92,3.79712,3.79712,0,0,0-1.07843,2.85928q-.02721.71224-.0266,2.16072,0,1.42279.0266,2.15958a3.91844,3.91844,0,0,0,1.09172,2.93347,4.093,4.093,0,0,0,2.85929.9451,4.47776,4.47776,0,0,0,2.96448-.93369,3.43505,3.43505,0,0,0,1.11832-2.79764v-.76133h-3.17242a.62474.62474,0,0,1-.44249-.17121.55271.55271,0,0,1-.18135-.41776v-1.34917a.55273.55273,0,0,1,.18135-.41777.62573.62573,0,0,1,.44249-.17235h6.23966a.65472.65472,0,0,1,.46789.17235.55386.55386,0,0,1,.18255.41777v2.60131a6.45838,6.45838,0,0,1-.96236,3.54642,6.21046,6.21046,0,0,1-2.72993,2.31938,9.8433,9.8433,0,0,1-4.13357.81041A8.18879,8.18879,0,0,1,332.90057,187.12869Z"/><path class="cls-4" d="M359.61347,188.45389a.54894.54894,0,0,1-.18256-.41662V172.05842a.58649.58649,0,0,1,.62384-.61409h6.34364q7.66929,0,7.82586,6.67621.05261,1.42451.052,1.91532,0,.4657-.052,1.88906A6.68886,6.68886,0,0,1,372.262,186.994q-1.86065,1.6334-5.73308,1.63225h-6.47421A.616.616,0,0,1,359.61347,188.45389Zm6.78492-2.67436a4.455,4.455,0,0,0,3.12043-.90858,4.16332,4.16332,0,0,0,1.01435-3.01908q.05078-1.47244.052-1.84112,0-.39209-.052-1.816a4.01814,4.01814,0,0,0-1.06634-2.95744,4.57732,4.57732,0,0,0-3.19781-.9451H363.0966v11.48733Z"/><path class="cls-4" d="M379.84007,188.45389a.54894.54894,0,0,1-.18256-.41662V172.05842a.60316.60316,0,0,1,.16926-.44173.60922.60922,0,0,1,.45458-.17236h11.46618a.65871.65871,0,0,1,.46788.17236.58024.58024,0,0,1,.18135.44173v1.6448a.54334.54334,0,0,1-.18135.42918.68774.68774,0,0,1-.46788.1598h-8.5283v4.29519h7.95644a.65791.65791,0,0,1,.46788.17121.58369.58369,0,0,1,.18135.44173V180.747a.54572.54572,0,0,1-.18135.43032.68705.68705,0,0,1-.46788.15866h-7.95644v4.44358h8.73625a.68706.68706,0,0,1,.46788.15865.54574.54574,0,0,1,.18135.43032v1.66877a.54173.54173,0,0,1-.18135.42918.68216.68216,0,0,1-.46788.1598H380.28135A.616.616,0,0,1,379.84007,188.45389Z"/><path class="cls-4" d="M401.93821,187.93911l-5.56262-15.75856a.67459.67459,0,0,1-.0266-.22029.48648.48648,0,0,1,.156-.36868.54723.54723,0,0,1,.39051-.14725h2.314a.83155.83155,0,0,1,.54526.17236.93342.93342,0,0,1,.28653.36754l4.34153,12.56712,4.36812-12.56712a.72382.72382,0,0,1,.25994-.36754.82926.82926,0,0,1,.54526-.17236h2.34062a.55852.55852,0,0,1,.376.14725.4702.4702,0,0,1,.16926.36868l-.052.22029-5.53723,15.75856a.99371.99371,0,0,1-1.01435.68714h-2.88589A.967.967,0,0,1,401.93821,187.93911Z"/><path class="cls-4" d="M417.33,188.45389a.54894.54894,0,0,1-.18256-.41662V172.05842a.60316.60316,0,0,1,.16926-.44173.60922.60922,0,0,1,.45458-.17236h11.46618a.65871.65871,0,0,1,.46788.17236.58024.58024,0,0,1,.18135.44173v1.6448a.54334.54334,0,0,1-.18135.42918.68774.68774,0,0,1-.46788.1598h-8.5283v4.29519h7.95644a.65791.65791,0,0,1,.46788.17121.58366.58366,0,0,1,.18136.44173V180.747a.5457.5457,0,0,1-.18136.43032.68705.68705,0,0,1-.46788.15866h-7.95644v4.44358h8.73625a.68706.68706,0,0,1,.46788.15865.54574.54574,0,0,1,.18135.43032v1.66877a.54173.54173,0,0,1-.18135.42918.68216.68216,0,0,1-.46788.1598H417.77129A.616.616,0,0,1,417.33,188.45389Z"/><path class="cls-4" d="M435.47592,188.45389a.54894.54894,0,0,1-.18256-.41662v-16.004a.54038.54038,0,0,1,.18256-.42918.64662.64662,0,0,1,.44128-.1598h2.44461a.63682.63682,0,0,1,.45458.1598.56366.56366,0,0,1,.16926.42918v13.64805h8.24177a.65789.65789,0,0,1,.46788.17122.55444.55444,0,0,1,.18135.41776v1.76693a.552.552,0,0,1-.18135.41662.65378.65378,0,0,1-.46788.17236H435.9172A.616.616,0,0,1,435.47592,188.45389Z"/><path class="cls-4" d="M453.59765,187.17777a6.54385,6.54385,0,0,1-2.07948-5.03141q-.02721-.71224-.0266-2.08653,0-1.39882.0266-2.1105a6.53324,6.53324,0,0,1,2.13147-5.00744,9.48371,9.48371,0,0,1,10.95839,0,6.51311,6.51311,0,0,1,2.14477,5.00744q.05259,1.4228.052,2.1105,0,.6626-.052,2.08653a6.52242,6.52242,0,0,1-2.09278,5.03141,9.87768,9.87768,0,0,1-11.06237,0Zm8.29375-2.13561a4.26869,4.26869,0,0,0,1.09173-3.01907q.05259-1.47244.052-1.98723,0-.565-.052-1.98837a4.21063,4.21063,0,0,0-1.11833-3.00652,4.28,4.28,0,0,0-5.48524,0,4.12477,4.12477,0,0,0-1.09173,3.00652q-.0272.71226-.02659,1.98837,0,1.25157.02659,1.98723a4.16553,4.16553,0,0,0,1.07843,3.00766,4.35467,4.35467,0,0,0,5.52514.01141Z"/><path class="cls-4" d="M472.31663,188.45389a.54894.54894,0,0,1-.18256-.41662V172.05842a.58649.58649,0,0,1,.62384-.61409h6.96748a7.84343,7.84343,0,0,1,4.94,1.39939,4.85625,4.85625,0,0,1,1.79416,4.0749,4.72422,4.72422,0,0,1-1.79416,4.01212,7.9921,7.9921,0,0,1-4.94,1.36286h-3.82166v5.74367a.54173.54173,0,0,1-.18135.42918.68216.68216,0,0,1-.46788.1598h-2.49659A.616.616,0,0,1,472.31663,188.45389Zm7.2794-8.90884a3.45389,3.45389,0,0,0,2.30073-.67573,2.45077,2.45077,0,0,0,.7931-1.97581,2.58374,2.58374,0,0,0-.76651-1.98837,3.32515,3.32515,0,0,0-2.32732-.71111h-3.74428v5.351Z"/><path class="cls-4" d="M491.4249,188.45389a.54894.54894,0,0,1-.18256-.41662V172.05842a.60316.60316,0,0,1,.16926-.44173.60923.60923,0,0,1,.45459-.17236h2.10608a.879.879,0,0,1,.7798.46685l5.01857,8.78671,5.01736-8.78671a.8777.8777,0,0,1,.77981-.46685h2.07948a.65468.65468,0,0,1,.46788.17236.57691.57691,0,0,1,.18256.44173v15.97885a.53879.53879,0,0,1-.18256.42918.678.678,0,0,1-.46788.1598h-2.23545a.62086.62086,0,0,1-.44249-.17236.552.552,0,0,1-.18135-.41662V177.48249l-3.61371,6.47988a.9193.9193,0,0,1-.85839.5399h-1.09173a1.00942,1.00942,0,0,1-.88378-.5399l-3.61371-6.47988v10.55478a.5726.5726,0,0,1-.16926.41662.6067.6067,0,0,1-.45458.17236h-2.23665A.616.616,0,0,1,491.4249,188.45389Z"/><path class="cls-4" d="M514.4854,188.45389a.54894.54894,0,0,1-.18256-.41662V172.05842a.58649.58649,0,0,1,.62385-.61409h11.46617a.65872.65872,0,0,1,.46789.17236.58024.58024,0,0,1,.18135.44173v1.6448a.54334.54334,0,0,1-.18135.42918.68775.68775,0,0,1-.46789.1598h-8.5283v4.29519H525.821a.65793.65793,0,0,1,.46788.17121.58369.58369,0,0,1,.18135.44173V180.747a.54572.54572,0,0,1-.18135.43032.68707.68707,0,0,1-.46788.15866h-7.95645v4.44358h8.73625a.68709.68709,0,0,1,.46789.15865.54574.54574,0,0,1,.18135.43032v1.66877a.54173.54173,0,0,1-.18135.42918.68219.68219,0,0,1-.46789.1598H514.92669A.616.616,0,0,1,514.4854,188.45389Z"/><path class="cls-4" d="M532.63131,188.45389a.54894.54894,0,0,1-.18256-.41662V172.05842a.58649.58649,0,0,1,.62385-.61409h2.0287a.83455.83455,0,0,1,.75321.41777l7.43536,10.89835v-10.702a.6032.6032,0,0,1,.16926-.44173.61209.61209,0,0,1,.4558-.17236h2.23544a.65471.65471,0,0,1,.46789.17236.58118.58118,0,0,1,.18256.44173v15.95374a.58118.58118,0,0,1-.18256.44173.61685.61685,0,0,1-.4425.17236h-2.05288a.86052.86052,0,0,1-.781-.41777l-7.40876-10.6518v10.48059a.57263.57263,0,0,1-.16926.41662.60673.60673,0,0,1-.45459.17236H533.0726A.616.616,0,0,1,532.63131,188.45389Z"/><path class="cls-4" d="M556.96489,188.45389a.552.552,0,0,1-.18135-.41662V174.51249h-4.80941a.62068.62068,0,0,1-.44249-.17121.58026.58026,0,0,1-.18135-.44174v-1.84112a.60231.60231,0,0,1,.168-.44173.61206.61206,0,0,1,.45579-.17236h13.28452a.65468.65468,0,0,1,.46788.17236.58118.58118,0,0,1,.18256.44173v1.84112a.5812.5812,0,0,1-.18256.44174.65392.65392,0,0,1-.46788.17121h-4.784v13.52478a.57156.57156,0,0,1-.168.41662.60956.60956,0,0,1-.4558.17236h-2.44339A.62087.62087,0,0,1,556.96489,188.45389Z"/></g></svg>