<svg id="Opportunity_Zones" data-name="Opportunity Zones" xmlns="http://www.w3.org/2000/svg" viewBox="0 0 250 300"><defs><style>.cls-1{fill:#fff;}.cls-2{fill:#0d47a1;}.cls-3{fill:#ffe471;}.cls-4{fill:#d6f58e;}.cls-5{fill:#8cb232;}</style></defs><title>NwkEhd_Divs_web</title><rect class="cls-1" x="-25" y="25" width="300" height="250" rx="21.33352" transform="translate(275 25) rotate(90)"/><rect class="cls-2" y="8.04416" width="250" height="283.91167" rx="18.55089"/><path class="cls-1" d="M25.69926,117.2002A2.788,2.788,0,0,1,25,115.2998V50.7002a2.79322,2.79322,0,0,1,.69926-1.9004A2.13876,2.13876,0,0,1,27.36024,48H41.172a3.76163,3.76163,0,0,1,3.58349,2.2998L59.52813,78V50.7002a2.79322,2.79322,0,0,1,.69927-1.9004A2.13874,2.13874,0,0,1,61.88837,48H77.71078a2.14408,2.14408,0,0,1,1.661.7998,2.802,2.802,0,0,1,.69927,1.9004v64.5996a2.7967,2.7967,0,0,1-.69927,1.9004,2.13945,2.13945,0,0,1-1.661.7998H63.899a3.30579,3.30579,0,0,1-2.27215-.7002,6.504,6.504,0,0,1-1.31134-1.5996L45.542,90.2002v25.0996a2.79235,2.79235,0,0,1-.69926,1.9004A2.13636,2.13636,0,0,1,43.18264,118H27.36024A2.13415,2.13415,0,0,1,25.69926,117.2002Z"/><path class="cls-1" d="M97.77144,116.8501a4.51927,4.51927,0,0,1-1.26775-2.6499L88.46126,50.5v-.2998a2.27587,2.27587,0,0,1,.56849-1.5503A1.74445,1.74445,0,0,1,90.38469,48H106.6439a3.66237,3.66237,0,0,1,2.31574.6001,2.7896,2.7896,0,0,1,.83094,2.1001l2.97232,28.1997,3.5835-12.5q.87317-2.89891,2.97232-2.8999h8.916q2.09779,0,2.97232,2.8999l3.58349,12.3999,2.97232-28.0996a2.7794,2.7794,0,0,1,.83-2.1001A3.66354,3.66354,0,0,1,140.90959,48H157.1688a1.74846,1.74846,0,0,1,1.35494.6499,2.28389,2.28389,0,0,1,.56758,1.5503V50.5l-8.04152,63.7002a4.53545,4.53545,0,0,1-1.26775,2.6499A3.63851,3.63851,0,0,1,147.02859,118H134.52813a3.10738,3.10738,0,0,1-2.40382-.8999,5.75575,5.75575,0,0,1-1.17967-1.8003l-7.1679-20.5-7.16789,20.5a5.80851,5.80851,0,0,1-1.18057,1.8003,3.10874,3.10874,0,0,1-2.40383.8999H100.5249A3.633,3.633,0,0,1,97.77144,116.8501Z"/><path class="cls-1" d="M168.18083,117.2002a2.788,2.788,0,0,1-.69927-1.9004V50.7002a2.79322,2.79322,0,0,1,.69927-1.9004A2.13874,2.13874,0,0,1,169.8418,48h16.696a2.14143,2.14143,0,0,1,1.661.7998,2.79761,2.79761,0,0,1,.69926,1.9004V70.5l9.87777-20.2998A3.59989,3.59989,0,0,1,202.27215,48h19.31872a1.74845,1.74845,0,0,1,1.35493.6499,2.28385,2.28385,0,0,1,.56759,1.5503,2.32306,2.32306,0,0,1-.26245,1.0996L207.51753,81.5l17.22,33.2002A1.99677,1.99677,0,0,1,225,115.7998a2.282,2.282,0,0,1-.56849,1.5503,1.74249,1.74249,0,0,1-1.35494.6499H203.14668a3.50015,3.50015,0,0,1-2.36024-.75,4.42165,4.42165,0,0,1-1.22416-1.5498L188.89807,93.8999v21.3999a2.79235,2.79235,0,0,1-.69926,1.9004,2.1368,2.1368,0,0,1-1.661.7998h-16.696A2.13413,2.13413,0,0,1,168.18083,117.2002Z"/><rect class="cls-1" x="25" y="148" width="200" height="4" rx="0.58161"/><path class="cls-3" d="M65.35742,251.29176q-8.36865-6.70848-8.93066-19.54176-.09375-2.62471-.09375-8.45852,0-5.92875.09375-8.65269a27.16282,27.16282,0,0,1,4.27734-14.3887,25.1044,25.1044,0,0,1,10.95117-9.13879A39.27764,39.27764,0,0,1,87.82324,188a39.2905,39.2905,0,0,1,16.168,3.1113,25.12634,25.12634,0,0,1,10.95117,9.13879,27.171,27.171,0,0,1,4.27637,14.3887q.1875,5.446.18848,8.65269,0,3.20862-.18848,8.45852-.564,12.83306-8.92969,19.54176Q101.92188,258.00024,87.82324,258,73.72266,258,65.35742,251.29176Zm27.49414-14.19454q1.834-1.944,1.92774-5.93065.1875-5.63751.1875-8.26389,0-2.81839-.1875-8.06925-.09522-3.9855-1.97461-5.93065a7.35441,7.35441,0,0,0-9.96387,0q-1.88086,1.9461-1.97363,5.93065-.09522,2.62472-.09375,8.06925,0,5.446.09375,8.26389.09228,3.98763,1.92676,5.93065a7.47506,7.47506,0,0,0,10.05761,0Z"/><path class="cls-3" d="M135.669,256.25019a2.55939,2.55939,0,0,1-.752-1.8476V240.40268a4.74187,4.74187,0,0,1,1.41016-3.40277l26.31933-28.29177H138.39453a2.39557,2.39557,0,0,1-1.78613-.77758,2.56151,2.56151,0,0,1-.75195-1.84713v-14.486a2.56806,2.56806,0,0,1,.75195-1.8476,2.40077,2.40077,0,0,1,1.78613-.77759h51.51172a2.40384,2.40384,0,0,1,1.78613.77759,2.572,2.572,0,0,1,.752,1.8476v13.80527a4.42929,4.42929,0,0,1-1.22168,3.20862l-24.91017,28.48592h24.81642a2.40693,2.40693,0,0,1,1.78613.77759,2.572,2.572,0,0,1,.75195,1.8476v14.68018a2.5673,2.5673,0,0,1-.75195,1.8476,2.40171,2.40171,0,0,1-1.78613.77759H137.45508A2.39556,2.39556,0,0,1,135.669,256.25019Z"/><path class="cls-4" d="M65.35742,251.29176q-8.36865-6.70848-8.93066-19.54176-.09375-2.62471-.09375-8.45852,0-5.92875.09375-8.65269a27.16282,27.16282,0,0,1,4.27734-14.3887,25.1044,25.1044,0,0,1,10.95117-9.13879A39.27764,39.27764,0,0,1,87.82324,188a39.2905,39.2905,0,0,1,16.168,3.1113,25.12634,25.12634,0,0,1,10.95117,9.13879,27.171,27.171,0,0,1,4.27637,14.3887q.1875,5.446.18848,8.65269,0,3.20862-.18848,8.45852-.564,12.83306-8.92969,19.54176Q101.92188,258.00024,87.82324,258,73.72266,258,65.35742,251.29176Zm27.49414-14.19454q1.834-1.944,1.92774-5.93065.1875-5.63751.1875-8.26389,0-2.81839-.1875-8.06925-.09522-3.9855-1.97461-5.93065a7.35441,7.35441,0,0,0-9.96387,0q-1.88086,1.9461-1.97363,5.93065-.09522,2.62472-.09375,8.06925,0,5.446.09375,8.26389.09228,3.98763,1.92676,5.93065a7.47506,7.47506,0,0,0,10.05761,0Z"/><path class="cls-4" d="M135.669,256.25019a2.55939,2.55939,0,0,1-.752-1.8476V240.40268a4.74187,4.74187,0,0,1,1.41016-3.40277l26.31933-28.29177H138.39453a2.39557,2.39557,0,0,1-1.78613-.77758,2.56151,2.56151,0,0,1-.75195-1.84713v-14.486a2.56806,2.56806,0,0,1,.75195-1.8476,2.40077,2.40077,0,0,1,1.78613-.77759h51.51172a2.40384,2.40384,0,0,1,1.78613.77759,2.572,2.572,0,0,1,.752,1.8476v13.80527a4.42929,4.42929,0,0,1-1.22168,3.20862l-24.91017,28.48592h24.81642a2.40693,2.40693,0,0,1,1.78613.77759,2.572,2.572,0,0,1,.75195,1.8476v14.68018a2.5673,2.5673,0,0,1-.75195,1.8476,2.40171,2.40171,0,0,1-1.78613.77759H137.45508A2.39556,2.39556,0,0,1,135.669,256.25019Z"/><path class="cls-5" d="M65.35742,251.29176q-8.36865-6.70848-8.93066-19.54176-.09375-2.62471-.09375-8.45852,0-5.92875.09375-8.65269a27.16282,27.16282,0,0,1,4.27734-14.3887,25.1044,25.1044,0,0,1,10.95117-9.13879A39.27764,39.27764,0,0,1,87.82324,188a39.2905,39.2905,0,0,1,16.168,3.1113,25.12634,25.12634,0,0,1,10.95117,9.13879,27.171,27.171,0,0,1,4.27637,14.3887q.1875,5.446.18848,8.65269,0,3.20862-.18848,8.45852-.564,12.83306-8.92969,19.54176Q101.92188,258.00024,87.82324,258,73.72266,258,65.35742,251.29176Zm27.49414-14.19454q1.834-1.944,1.92774-5.93065.1875-5.63751.1875-8.26389,0-2.81839-.1875-8.06925-.09522-3.9855-1.97461-5.93065a7.35441,7.35441,0,0,0-9.96387,0q-1.88086,1.9461-1.97363,5.93065-.09522,2.62472-.09375,8.06925,0,5.446.09375,8.26389.09228,3.98763,1.92676,5.93065a7.47506,7.47506,0,0,0,10.05761,0Z"/><path class="cls-5" d="M135.669,256.25019a2.55939,2.55939,0,0,1-.752-1.8476V240.40268a4.74187,4.74187,0,0,1,1.41016-3.40277l26.31933-28.29177H138.39453a2.39557,2.39557,0,0,1-1.78613-.77758,2.56151,2.56151,0,0,1-.75195-1.84713v-14.486a2.56806,2.56806,0,0,1,.75195-1.8476,2.40077,2.40077,0,0,1,1.78613-.77759h51.51172a2.40384,2.40384,0,0,1,1.78613.77759,2.572,2.572,0,0,1,.752,1.8476v13.80527a4.42929,4.42929,0,0,1-1.22168,3.20862l-24.91017,28.48592h24.81642a2.40693,2.40693,0,0,1,1.78613.77759,2.572,2.572,0,0,1,.75195,1.8476v14.68018a2.5673,2.5673,0,0,1-.75195,1.8476,2.40171,2.40171,0,0,1-1.78613.77759H137.45508A2.39556,2.39556,0,0,1,135.669,256.25019Z"/></svg>