<svg xmlns="http://www.w3.org/2000/svg" viewBox="0 0 275 317"><defs><style>.cls-1{fill:#fff;}.cls-2{fill:#0d47a1;}.cls-3{fill:#b4ed07;}.cls-4{fill:#ffebc5;}</style></defs><title>NwkLogo-EHD</title><g id="MiniBar"><rect class="cls-1" x="-18.0549" y="22.9787" width="317" height="275" rx="23" transform="translate(297.9787 18.0549) rotate(90)"/><rect class="cls-2" y="8.5" width="275" height="300" rx="20"/></g><g id="MiniTitle"><path class="cls-1" d="M36.52322,126.82782a2.67611,2.67611,0,0,1-.752-1.90039V60.32782a2.68107,2.68107,0,0,1,.752-1.90039,2.37019,2.37019,0,0,1,1.78614-.7998h14.852a4.07351,4.07351,0,0,1,3.854,2.2998l15.88574,27.7002V60.32782a2.681,2.681,0,0,1,.752-1.90039,2.37015,2.37015,0,0,1,1.78613-.7998H92.4534a2.37467,2.37467,0,0,1,1.78613.7998,2.68733,2.68733,0,0,1,.752,1.90039v64.59961a2.68234,2.68234,0,0,1-.752,1.90039,2.36952,2.36952,0,0,1-1.78613.79981H77.60135a3.7386,3.7386,0,0,1-2.44385-.7002,6.6382,6.6382,0,0,1-1.41015-1.59961l-15.88623-25.5v25.09961a2.68025,2.68025,0,0,1-.752,1.90039,2.36852,2.36852,0,0,1-1.78564.79981H38.30936A2.36506,2.36506,0,0,1,36.52322,126.82782Z" transform="translate(-2.9451 -1.9787)"/><path class="cls-1" d="M114.02567,126.47772a4.397,4.397,0,0,1-1.36329-2.6499l-8.64794-63.70019v-.29981a2.18214,2.18214,0,0,1,.61132-1.55029,1.93281,1.93281,0,0,1,1.457-.6499h17.48388a4.16283,4.16283,0,0,1,2.49072.60009,2.696,2.696,0,0,1,.89307,2.1001l3.19629,28.19971,3.854-12.5q.93823-2.89893,3.1958-2.8999h9.58838q2.25586,0,3.19532,2.8999l3.85449,12.3999L157.031,60.32782a2.683,2.683,0,0,1,.89258-2.1001,4.15912,4.15912,0,0,1,2.49023-.60009h17.48437a1.93508,1.93508,0,0,1,1.457.6499,2.18842,2.18842,0,0,1,.61132,1.55029v.29981l-8.64843,63.70019a4.40745,4.40745,0,0,1-1.36328,2.6499,4.059,4.059,0,0,1-2.96094,1.14991H153.55252a3.48274,3.48274,0,0,1-2.585-.89991,5.71613,5.71613,0,0,1-1.26855-1.80029l-7.709-20.5-7.70752,20.5a5.78254,5.78254,0,0,1-1.269,1.80029,3.485,3.485,0,0,1-2.585.89991H116.9866A4.05665,4.05665,0,0,1,114.02567,126.47772Z" transform="translate(-2.9451 -1.9787)"/><path class="cls-1" d="M189.741,126.82782a2.67611,2.67611,0,0,1-.752-1.90039V60.32782a2.68107,2.68107,0,0,1,.752-1.90039,2.37015,2.37015,0,0,1,1.78613-.7998h17.9541a2.37471,2.37471,0,0,1,1.78614.7998,2.68942,2.68942,0,0,1,.75195,1.90039V80.12763l10.62109-20.29981a3.90353,3.90353,0,0,1,3.76074-2.20019h20.77442a1.93807,1.93807,0,0,1,1.457.6499,2.27767,2.27767,0,0,1,.32812,2.6499L232.0408,91.12763l18.51856,33.20019a1.88748,1.88748,0,0,1,.28222,1.09961,2.19008,2.19008,0,0,1-.61132,1.55029,1.93143,1.93143,0,0,1-1.457.64991H227.34158a3.95857,3.95857,0,0,1-2.53906-.75,4.46986,4.46986,0,0,1-1.31543-1.54981l-11.46777-21.80029v21.3999a2.68443,2.68443,0,0,1-.75195,1.90039,2.36955,2.36955,0,0,1-1.78614.79981h-17.9541A2.365,2.365,0,0,1,189.741,126.82782Z" transform="translate(-2.9451 -1.9787)"/><rect class="cls-1" x="33.5" y="155" width="215" height="4" rx="0.60302"/><path class="cls-3" d="M38.92557,262.82831a2.67612,2.67612,0,0,1-.752-1.90039V196.32831a2.67941,2.67941,0,0,1,.752-1.90039,2.36846,2.36846,0,0,1,1.78613-.79981H88.93387a2.37194,2.37194,0,0,1,1.78564.79981,2.68356,2.68356,0,0,1,.752,1.90039v14.09961a2.68026,2.68026,0,0,1-.752,1.90039,2.36849,2.36849,0,0,1-1.78564.7998H60.73367v6.29981H86.86551a2.37642,2.37642,0,0,1,1.78613.7998,2.68358,2.68358,0,0,1,.752,1.90039v13a2.67633,2.67633,0,0,1-.752,1.89942,2.36713,2.36713,0,0,1-1.78613.80078H60.73367v6.2998H89.68582a2.372,2.372,0,0,1,1.78565.79981,2.68405,2.68405,0,0,1,.75244,1.90039v14.09961a2.68075,2.68075,0,0,1-.75244,1.90039,2.36853,2.36853,0,0,1-1.78565.7998H40.7117A2.365,2.365,0,0,1,38.92557,262.82831Z" transform="translate(-2.9451 -1.9787)"/><path class="cls-3" d="M111.02274,262.87811a2.63237,2.63237,0,0,1-.752-1.95019V196.32831a2.67938,2.67938,0,0,1,.752-1.90039,2.36844,2.36844,0,0,1,1.78613-.79981H131.2327a2.373,2.373,0,0,1,1.78613.79981,2.68356,2.68356,0,0,1,.75195,1.90039v21h15.228v-21a2.67524,2.67524,0,0,1,.752-1.90039,2.36848,2.36848,0,0,1,1.78614-.79981h18.42382a2.373,2.373,0,0,1,1.78614.79981,2.6836,2.6836,0,0,1,.75195,1.90039v64.59961a2.6803,2.6803,0,0,1-.75195,1.90039,2.36953,2.36953,0,0,1-1.78614.7998H151.5369a2.365,2.365,0,0,1-1.78614-.7998,2.672,2.672,0,0,1-.752-1.90039V239.32831h-15.228v21.59961a2.68026,2.68026,0,0,1-.75195,1.90039,2.36952,2.36952,0,0,1-1.78613.7998H112.80887A2.44106,2.44106,0,0,1,111.02274,262.87811Z" transform="translate(-2.9451 -1.9787)"/><path class="cls-3" d="M192.99,262.82831a2.67612,2.67612,0,0,1-.75195-1.90039V196.32831a2.67941,2.67941,0,0,1,.75195-1.90039,2.36643,2.36643,0,0,1,1.78516-.79981h27.07226a37.62841,37.62841,0,0,1,15.88672,3.2002,26.23511,26.23511,0,0,1,11.0918,9.39941,27.92986,27.92986,0,0,1,4.418,14.90039q.1875,5.60157.1875,7.59961,0,1.90137-.1875,7.29981-.56544,13.80028-8.78906,20.70019-8.22657,6.90089-22.13672,6.90039h-27.543A2.363,2.363,0,0,1,192.99,262.82831Zm28.85742-18.7002a7.12286,7.12286,0,0,0,5.31055-2.0498,8.89976,8.89976,0,0,0,2.209-6.05078q.1875-2.89893.18848-7.5,0-4.69922-.18848-7.39942a8.24859,8.24859,0,0,0-2.39648-6,8.01759,8.01759,0,0,0-5.59277-2h-5.63965v31Z" transform="translate(-2.9451 -1.9787)"/><path class="cls-4" d="M38.92557,262.82831a2.67612,2.67612,0,0,1-.752-1.90039V196.32831a2.67941,2.67941,0,0,1,.752-1.90039,2.36846,2.36846,0,0,1,1.78613-.79981H88.93387a2.37194,2.37194,0,0,1,1.78564.79981,2.68356,2.68356,0,0,1,.752,1.90039v14.09961a2.68026,2.68026,0,0,1-.752,1.90039,2.36849,2.36849,0,0,1-1.78564.7998H60.73367v6.29981H86.86551a2.37642,2.37642,0,0,1,1.78613.7998,2.68358,2.68358,0,0,1,.752,1.90039v13a2.67633,2.67633,0,0,1-.752,1.89942,2.36713,2.36713,0,0,1-1.78613.80078H60.73367v6.2998H89.68582a2.372,2.372,0,0,1,1.78565.79981,2.68405,2.68405,0,0,1,.75244,1.90039v14.09961a2.68075,2.68075,0,0,1-.75244,1.90039,2.36853,2.36853,0,0,1-1.78565.7998H40.7117A2.365,2.365,0,0,1,38.92557,262.82831Z" transform="translate(-2.9451 -1.9787)"/><path class="cls-4" d="M111.02274,262.87811a2.63237,2.63237,0,0,1-.752-1.95019V196.32831a2.67938,2.67938,0,0,1,.752-1.90039,2.36844,2.36844,0,0,1,1.78613-.79981H131.2327a2.373,2.373,0,0,1,1.78613.79981,2.68356,2.68356,0,0,1,.75195,1.90039v21h15.228v-21a2.67524,2.67524,0,0,1,.752-1.90039,2.36848,2.36848,0,0,1,1.78614-.79981h18.42382a2.373,2.373,0,0,1,1.78614.79981,2.6836,2.6836,0,0,1,.75195,1.90039v64.59961a2.6803,2.6803,0,0,1-.75195,1.90039,2.36953,2.36953,0,0,1-1.78614.7998H151.5369a2.365,2.365,0,0,1-1.78614-.7998,2.672,2.672,0,0,1-.752-1.90039V239.32831h-15.228v21.59961a2.68026,2.68026,0,0,1-.75195,1.90039,2.36952,2.36952,0,0,1-1.78613.7998H112.80887A2.44106,2.44106,0,0,1,111.02274,262.87811Z" transform="translate(-2.9451 -1.9787)"/><path class="cls-4" d="M192.99,262.82831a2.67612,2.67612,0,0,1-.75195-1.90039V196.32831a2.67941,2.67941,0,0,1,.75195-1.90039,2.36643,2.36643,0,0,1,1.78516-.79981h27.07226a37.62841,37.62841,0,0,1,15.88672,3.2002,26.23511,26.23511,0,0,1,11.0918,9.39941,27.92986,27.92986,0,0,1,4.418,14.90039q.1875,5.60157.1875,7.59961,0,1.90137-.1875,7.29981-.56544,13.80028-8.78906,20.70019-8.22657,6.90089-22.13672,6.90039h-27.543A2.363,2.363,0,0,1,192.99,262.82831Zm28.85742-18.7002a7.12286,7.12286,0,0,0,5.31055-2.0498,8.89976,8.89976,0,0,0,2.209-6.05078q.1875-2.89893.18848-7.5,0-4.69922-.18848-7.39942a8.24859,8.24859,0,0,0-2.39648-6,8.01759,8.01759,0,0,0-5.59277-2h-5.63965v31Z" transform="translate(-2.9451 -1.9787)"/></g></svg>