<svg xmlns="http://www.w3.org/2000/svg" viewBox="0 0 250 300"><defs><style>.cls-1{fill:#fff;}.cls-2{fill:#0d47a1;}.cls-3{fill:#ffe471;}.cls-4{fill:#ffebc5;}.cls-5{fill:#7de5d6;}</style></defs><title>NwkEhd_Divs_web</title><g id="Planning_Zoning" data-name="Planning &amp; Zoning"><rect class="cls-1" x="-25" y="25" width="300" height="250" rx="21.33352" transform="translate(275 25) rotate(90)"/><rect class="cls-2" y="8.04416" width="250" height="283.91167" rx="18.55089"/><path class="cls-1" d="M25.69926,117.2002A2.788,2.788,0,0,1,25,115.2998V50.7002a2.79322,2.79322,0,0,1,.69926-1.9004A2.13876,2.13876,0,0,1,27.36024,48H41.172a3.76163,3.76163,0,0,1,3.58349,2.2998L59.52813,78V50.7002a2.79322,2.79322,0,0,1,.69927-1.9004A2.13874,2.13874,0,0,1,61.88837,48H77.71078a2.14408,2.14408,0,0,1,1.661.7998,2.802,2.802,0,0,1,.69927,1.9004v64.5996a2.7967,2.7967,0,0,1-.69927,1.9004,2.13945,2.13945,0,0,1-1.661.7998H63.899a3.30579,3.30579,0,0,1-2.27215-.7002,6.504,6.504,0,0,1-1.31134-1.5996L45.542,90.2002v25.0996a2.79235,2.79235,0,0,1-.69926,1.9004A2.13636,2.13636,0,0,1,43.18264,118H27.36024A2.13415,2.13415,0,0,1,25.69926,117.2002Z"/><path class="cls-1" d="M97.77144,116.8501a4.51927,4.51927,0,0,1-1.26775-2.6499L88.46126,50.5v-.2998a2.27587,2.27587,0,0,1,.56849-1.5503A1.74445,1.74445,0,0,1,90.38469,48H106.6439a3.66237,3.66237,0,0,1,2.31574.6001,2.7896,2.7896,0,0,1,.83094,2.1001l2.97232,28.1997,3.5835-12.5q.87317-2.89891,2.97232-2.8999h8.916q2.09779,0,2.97232,2.8999l3.58349,12.3999,2.97232-28.0996a2.7794,2.7794,0,0,1,.83-2.1001A3.66354,3.66354,0,0,1,140.90959,48H157.1688a1.74846,1.74846,0,0,1,1.35494.6499,2.28389,2.28389,0,0,1,.56758,1.5503V50.5l-8.04152,63.7002a4.53545,4.53545,0,0,1-1.26775,2.6499A3.63851,3.63851,0,0,1,147.02859,118H134.52813a3.10738,3.10738,0,0,1-2.40382-.8999,5.75575,5.75575,0,0,1-1.17967-1.8003l-7.1679-20.5-7.16789,20.5a5.80851,5.80851,0,0,1-1.18057,1.8003,3.10874,3.10874,0,0,1-2.40383.8999H100.5249A3.633,3.633,0,0,1,97.77144,116.8501Z"/><path class="cls-1" d="M168.18083,117.2002a2.788,2.788,0,0,1-.69927-1.9004V50.7002a2.79322,2.79322,0,0,1,.69927-1.9004A2.13874,2.13874,0,0,1,169.8418,48h16.696a2.14143,2.14143,0,0,1,1.661.7998,2.79761,2.79761,0,0,1,.69926,1.9004V70.5l9.87777-20.2998A3.59989,3.59989,0,0,1,202.27215,48h19.31872a1.74845,1.74845,0,0,1,1.35493.6499,2.28385,2.28385,0,0,1,.56759,1.5503,2.32306,2.32306,0,0,1-.26245,1.0996L207.51753,81.5l17.22,33.2002A1.99677,1.99677,0,0,1,225,115.7998a2.282,2.282,0,0,1-.56849,1.5503,1.74249,1.74249,0,0,1-1.35494.6499H203.14668a3.50015,3.50015,0,0,1-2.36024-.75,4.42165,4.42165,0,0,1-1.22416-1.5498L188.89807,93.8999v21.3999a2.79235,2.79235,0,0,1-.69926,1.9004,2.1368,2.1368,0,0,1-1.661.7998h-16.696A2.13413,2.13413,0,0,1,168.18083,117.2002Z"/><rect class="cls-1" x="25" y="148" width="200" height="4" rx="0.58161"/><path class="cls-3" d="M25.76041,257.2002A2.66018,2.66018,0,0,1,25,255.2998V190.7002a2.66508,2.66508,0,0,1,.76041-1.9004A2.40893,2.40893,0,0,1,27.56665,188h28.802q13.30825,0,20.96079,6.2002Q84.979,200.40161,84.98094,212.5q0,12-7.60415,17.8501Q69.77017,236.2,56.3686,236.2002H49.71447v19.0996a2.66432,2.66432,0,0,1-.76041,1.9004A2.40673,2.40673,0,0,1,47.14783,258H27.56665A2.4037,2.4037,0,0,1,25.76041,257.2002Zm30.13318-39.5a4.16057,4.16057,0,0,0,3.04166-1.3501,5.55148,5.55148,0,0,0,1.33122-4.0503,7.4944,7.4944,0,0,0-1.04582-4,3.618,3.618,0,0,0-3.32706-1.6997H49.23946v11.1001Z"/><path class="cls-3" d="M117.01515,253.8999A2.65408,2.65408,0,0,1,116.25473,252V235.8999H101.52046a2.40366,2.40366,0,0,1-1.80623-.7998,2.65823,2.65823,0,0,1-.76042-1.8999V222.2998a2.66475,2.66475,0,0,1,.76042-1.8999,2.4089,2.4089,0,0,1,1.80623-.7998h14.73427V204a2.659,2.659,0,0,1,.76042-1.8999,2.4073,2.4073,0,0,1,1.80524-.8003H130.4182a2.41554,2.41554,0,0,1,1.80624.8003A2.67142,2.67142,0,0,1,132.98485,204v15.6001h14.54368a2.41506,2.41506,0,0,1,1.80623.7998,2.673,2.673,0,0,1,.76042,1.8999v10.9004a2.66648,2.66648,0,0,1-.76042,1.8999,2.4098,2.4098,0,0,1-1.80623.7998H132.98485V252a2.66648,2.66648,0,0,1-.76041,1.8999,2.40856,2.40856,0,0,1-1.80624.8003H118.82039A2.40037,2.40037,0,0,1,117.01515,253.8999Z"/><path class="cls-3" d="M166.34929,257.2002a2.65606,2.65606,0,0,1-.76041-1.9004V240.8999a4.92014,4.92014,0,0,1,1.426-3.5l26.61551-29.1001H169.10555a2.40366,2.40366,0,0,1-1.80623-.7998,2.65821,2.65821,0,0,1-.76042-1.8999V190.7002a2.66509,2.66509,0,0,1,.76042-1.9004A2.4089,2.4089,0,0,1,169.10555,188h52.09139a2.412,2.412,0,0,1,1.80623.7998,2.66925,2.66925,0,0,1,.76042,1.9004v14.1997a4.59942,4.59942,0,0,1-1.23543,3.3003L197.33768,237.5h25.09567a2.41507,2.41507,0,0,1,1.80624.7998A2.66924,2.66924,0,0,1,225,240.2002v15.0996a2.66432,2.66432,0,0,1-.76041,1.9004,2.4098,2.4098,0,0,1-1.80624.7998H168.15552A2.4037,2.4037,0,0,1,166.34929,257.2002Z"/><path class="cls-4" d="M25.76041,257.2002A2.66018,2.66018,0,0,1,25,255.2998V190.7002a2.66508,2.66508,0,0,1,.76041-1.9004A2.40893,2.40893,0,0,1,27.56665,188h28.802q13.30825,0,20.96079,6.2002Q84.979,200.40161,84.98094,212.5q0,12-7.60415,17.8501Q69.77017,236.2,56.3686,236.2002H49.71447v19.0996a2.66432,2.66432,0,0,1-.76041,1.9004A2.40673,2.40673,0,0,1,47.14783,258H27.56665A2.4037,2.4037,0,0,1,25.76041,257.2002Zm30.13318-39.5a4.16057,4.16057,0,0,0,3.04166-1.3501,5.55148,5.55148,0,0,0,1.33122-4.0503,7.4944,7.4944,0,0,0-1.04582-4,3.618,3.618,0,0,0-3.32706-1.6997H49.23946v11.1001Z"/><path class="cls-4" d="M117.01515,253.8999A2.65408,2.65408,0,0,1,116.25473,252V235.8999H101.52046a2.40366,2.40366,0,0,1-1.80623-.7998,2.65823,2.65823,0,0,1-.76042-1.8999V222.2998a2.66475,2.66475,0,0,1,.76042-1.8999,2.4089,2.4089,0,0,1,1.80623-.7998h14.73427V204a2.659,2.659,0,0,1,.76042-1.8999,2.4073,2.4073,0,0,1,1.80524-.8003H130.4182a2.41554,2.41554,0,0,1,1.80624.8003A2.67142,2.67142,0,0,1,132.98485,204v15.6001h14.54368a2.41506,2.41506,0,0,1,1.80623.7998,2.673,2.673,0,0,1,.76042,1.8999v10.9004a2.66648,2.66648,0,0,1-.76042,1.8999,2.4098,2.4098,0,0,1-1.80623.7998H132.98485V252a2.66648,2.66648,0,0,1-.76041,1.8999,2.40856,2.40856,0,0,1-1.80624.8003H118.82039A2.40037,2.40037,0,0,1,117.01515,253.8999Z"/><path class="cls-4" d="M166.34929,257.2002a2.65606,2.65606,0,0,1-.76041-1.9004V240.8999a4.92014,4.92014,0,0,1,1.426-3.5l26.61551-29.1001H169.10555a2.40366,2.40366,0,0,1-1.80623-.7998,2.65821,2.65821,0,0,1-.76042-1.8999V190.7002a2.66509,2.66509,0,0,1,.76042-1.9004A2.4089,2.4089,0,0,1,169.10555,188h52.09139a2.412,2.412,0,0,1,1.80623.7998,2.66925,2.66925,0,0,1,.76042,1.9004v14.1997a4.59942,4.59942,0,0,1-1.23543,3.3003L197.33768,237.5h25.09567a2.41507,2.41507,0,0,1,1.80624.7998A2.66924,2.66924,0,0,1,225,240.2002v15.0996a2.66432,2.66432,0,0,1-.76041,1.9004,2.4098,2.4098,0,0,1-1.80624.7998H168.15552A2.4037,2.4037,0,0,1,166.34929,257.2002Z"/><path class="cls-5" d="M25.76041,257.2002A2.66018,2.66018,0,0,1,25,255.2998V190.7002a2.66508,2.66508,0,0,1,.76041-1.9004A2.40893,2.40893,0,0,1,27.56665,188h28.802q13.30825,0,20.96079,6.2002Q84.979,200.40161,84.98094,212.5q0,12-7.60415,17.8501Q69.77017,236.2,56.3686,236.2002H49.71447v19.0996a2.66432,2.66432,0,0,1-.76041,1.9004A2.40673,2.40673,0,0,1,47.14783,258H27.56665A2.4037,2.4037,0,0,1,25.76041,257.2002Zm30.13318-39.5a4.16057,4.16057,0,0,0,3.04166-1.3501,5.55148,5.55148,0,0,0,1.33122-4.0503,7.4944,7.4944,0,0,0-1.04582-4,3.618,3.618,0,0,0-3.32706-1.6997H49.23946v11.1001Z"/><path class="cls-5" d="M117.01515,253.8999A2.65408,2.65408,0,0,1,116.25473,252V235.8999H101.52046a2.40366,2.40366,0,0,1-1.80623-.7998,2.65823,2.65823,0,0,1-.76042-1.8999V222.2998a2.66475,2.66475,0,0,1,.76042-1.8999,2.4089,2.4089,0,0,1,1.80623-.7998h14.73427V204a2.659,2.659,0,0,1,.76042-1.8999,2.4073,2.4073,0,0,1,1.80524-.8003H130.4182a2.41554,2.41554,0,0,1,1.80624.8003A2.67142,2.67142,0,0,1,132.98485,204v15.6001h14.54368a2.41506,2.41506,0,0,1,1.80623.7998,2.673,2.673,0,0,1,.76042,1.8999v10.9004a2.66648,2.66648,0,0,1-.76042,1.8999,2.4098,2.4098,0,0,1-1.80623.7998H132.98485V252a2.66648,2.66648,0,0,1-.76041,1.8999,2.40856,2.40856,0,0,1-1.80624.8003H118.82039A2.40037,2.40037,0,0,1,117.01515,253.8999Z"/><path class="cls-5" d="M166.34929,257.2002a2.65606,2.65606,0,0,1-.76041-1.9004V240.8999a4.92014,4.92014,0,0,1,1.426-3.5l26.61551-29.1001H169.10555a2.40366,2.40366,0,0,1-1.80623-.7998,2.65821,2.65821,0,0,1-.76042-1.8999V190.7002a2.66509,2.66509,0,0,1,.76042-1.9004A2.4089,2.4089,0,0,1,169.10555,188h52.09139a2.412,2.412,0,0,1,1.80623.7998,2.66925,2.66925,0,0,1,.76042,1.9004v14.1997a4.59942,4.59942,0,0,1-1.23543,3.3003L197.33768,237.5h25.09567a2.41507,2.41507,0,0,1,1.80624.7998A2.66924,2.66924,0,0,1,225,240.2002v15.0996a2.66432,2.66432,0,0,1-.76041,1.9004,2.4098,2.4098,0,0,1-1.80624.7998H168.15552A2.4037,2.4037,0,0,1,166.34929,257.2002Z"/></g></svg>