<svg xmlns="http://www.w3.org/2000/svg" viewBox="0 0 250 300"><defs><style>.cls-1{fill:#fff;}.cls-2{fill:#0d47a1;}.cls-3{fill:#ffe471;}.cls-4{fill:#ffebc5;}.cls-5{fill:#d09ae4;}</style></defs><title>NwkEhd_Divs_web</title><g id="Housing_Finance" data-name="Housing &amp; Finance"><rect class="cls-1" x="-25" y="25" width="300" height="250" rx="21.33352" transform="translate(275 25) rotate(90)"/><rect class="cls-2" y="8.04416" width="250" height="283.91167" rx="18.55089"/><path class="cls-1" d="M25.69926,117.2002A2.788,2.788,0,0,1,25,115.2998V50.7002a2.79146,2.79146,0,0,1,.69926-1.9004A2.13722,2.13722,0,0,1,27.36024,48H41.17158a3.76108,3.76108,0,0,1,3.584,2.2998L59.52813,78V50.7002a2.79147,2.79147,0,0,1,.69927-1.9004A2.1372,2.1372,0,0,1,61.88837,48H77.71032a2.14122,2.14122,0,0,1,1.661.7998,2.798,2.798,0,0,1,.69926,1.9004v64.5996a2.79452,2.79452,0,0,1-.69926,1.9004,2.13813,2.13813,0,0,1-1.661.7998H63.899a3.31027,3.31027,0,0,1-2.2726-.7002,6.52325,6.52325,0,0,1-1.31135-1.5996L45.542,90.2002v25.0996a2.79235,2.79235,0,0,1-.69926,1.9004A2.13724,2.13724,0,0,1,43.18219,118H27.36024A2.13415,2.13415,0,0,1,25.69926,117.2002Z"/><path class="cls-1" d="M97.771,116.84961a4.518,4.518,0,0,1-1.26776-2.64941L88.46126,50.5v-.2998a2.27407,2.27407,0,0,1,.56849-1.55079A1.74327,1.74327,0,0,1,90.38469,48h16.25876a3.66709,3.66709,0,0,1,2.31619.59961,2.79156,2.79156,0,0,1,.83049,2.10059l2.97232,28.19921,3.584-12.5q.87249-2.89891,2.97186-2.89941h8.91606q2.09778,0,2.97232,2.89941l3.58394,12.40039,2.97187-28.0996a2.78152,2.78152,0,0,1,.83049-2.10059A3.66446,3.66446,0,0,1,140.90913,48h16.25922a1.74658,1.74658,0,0,1,1.35493.64941,2.28241,2.28241,0,0,1,.568,1.55079V50.5l-8.042,63.7002a4.53143,4.53143,0,0,1-1.26776,2.64941A3.63647,3.63647,0,0,1,147.02813,118h-12.5a3.10587,3.10587,0,0,1-2.40382-.90039,5.756,5.756,0,0,1-1.18012-1.79981l-7.1679-20.5-7.1679,20.5a5.80476,5.80476,0,0,1-1.18011,1.79981A3.10789,3.10789,0,0,1,113.02445,118h-12.5A3.63233,3.63233,0,0,1,97.771,116.84961Z"/><path class="cls-1" d="M168.18083,117.2002a2.788,2.788,0,0,1-.69927-1.9004V50.7002a2.79147,2.79147,0,0,1,.69927-1.9004A2.1372,2.1372,0,0,1,169.8418,48h16.696a2.13988,2.13988,0,0,1,1.661.7998,2.79585,2.79585,0,0,1,.69926,1.9004V70.5l9.87777-20.2998A3.59989,3.59989,0,0,1,202.27215,48h19.31872a1.74793,1.74793,0,0,1,1.35493.64941,2.28421,2.28421,0,0,1,.56759,1.55079,2.32587,2.32587,0,0,1-.26245,1.0996L207.51753,81.5l17.22,33.2002A1.99451,1.99451,0,0,1,225,115.7998a2.28079,2.28079,0,0,1-.56849,1.54981A1.74147,1.74147,0,0,1,223.07657,118H203.14668a3.50015,3.50015,0,0,1-2.36024-.75,4.42165,4.42165,0,0,1-1.22416-1.5498L188.89807,93.89941V115.2998a2.79235,2.79235,0,0,1-.69926,1.9004,2.1368,2.1368,0,0,1-1.661.7998h-16.696A2.13413,2.13413,0,0,1,168.18083,117.2002Z"/><rect class="cls-1" x="25" y="148" width="200" height="4" rx="0.58161"/><path class="cls-3" d="M25.75325,257.25A2.62994,2.62994,0,0,1,25,255.2998V190.7002a2.67694,2.67694,0,0,1,.75325-1.9004A2.37438,2.37438,0,0,1,27.54247,188H45.99816a2.3789,2.3789,0,0,1,1.78922.7998,2.68111,2.68111,0,0,1,.75325,1.9004v21H63.795v-21a2.67485,2.67485,0,0,1,.75325-1.9004A2.37438,2.37438,0,0,1,66.33746,188H84.79315a2.3789,2.3789,0,0,1,1.78922.7998,2.68111,2.68111,0,0,1,.75325,1.9004v64.5996a2.67782,2.67782,0,0,1-.75325,1.9004A2.37545,2.37545,0,0,1,84.79315,258H66.33746a2.371,2.371,0,0,1-1.78922-.7998,2.67158,2.67158,0,0,1-.75325-1.9004V233.7002H48.54063v21.5996a2.67782,2.67782,0,0,1-.75325,1.9004A2.37545,2.37545,0,0,1,45.99816,258H27.54247A2.4474,2.4474,0,0,1,25.75325,257.25Z"/><path class="cls-3" d="M122.45728,253.89941A2.6676,2.6676,0,0,1,121.704,252V235.89941H107.10852a2.37093,2.37093,0,0,1-1.78922-.7998,2.66971,2.66971,0,0,1-.75325-1.89941V222.2998a2.68022,2.68022,0,0,1,.75325-1.90039,2.37782,2.37782,0,0,1,1.78922-.7998H121.704V204a2.67483,2.67483,0,0,1,.75325-1.90039,2.37677,2.37677,0,0,1,1.78873-.79981H135.7341a2.38235,2.38235,0,0,1,1.78923.79981A2.68318,2.68318,0,0,1,138.27658,204v15.59961h14.4067a2.38235,2.38235,0,0,1,1.78922.7998,2.68647,2.68647,0,0,1,.75326,1.90039v10.9004a2.67591,2.67591,0,0,1-.75326,1.89941,2.37544,2.37544,0,0,1-1.78922.7998h-14.4067V252a2.67591,2.67591,0,0,1-.75325,1.89941,2.373,2.373,0,0,1-1.78923.80079H124.246A2.3675,2.3675,0,0,1,122.45728,253.89941Z"/><path class="cls-3" d="M173.21041,257.2002a2.67365,2.67365,0,0,1-.75325-1.9004V190.7002a2.67694,2.67694,0,0,1,.75325-1.9004A2.37437,2.37437,0,0,1,174.99963,188h47.4579a2.38042,2.38042,0,0,1,1.78922.7998A2.6853,2.6853,0,0,1,225,190.7002v15.19921a2.682,2.682,0,0,1-.75325,1.90039,2.377,2.377,0,0,1-1.78922.79981H195.52725V216h25.04714a2.3804,2.3804,0,0,1,1.78922.7998,2.68527,2.68527,0,0,1,.75326,1.9004v15.0996a2.682,2.682,0,0,1-.75326,1.9004,2.377,2.377,0,0,1-1.78922.7998H195.52725v18.7998a2.682,2.682,0,0,1-.75325,1.9004,2.377,2.377,0,0,1-1.78922.7998H174.99963A2.37093,2.37093,0,0,1,173.21041,257.2002Z"/><path class="cls-4" d="M25.75325,257.25A2.62994,2.62994,0,0,1,25,255.2998V190.7002a2.67694,2.67694,0,0,1,.75325-1.9004A2.37438,2.37438,0,0,1,27.54247,188H45.99816a2.3789,2.3789,0,0,1,1.78922.7998,2.68111,2.68111,0,0,1,.75325,1.9004v21H63.795v-21a2.67485,2.67485,0,0,1,.75325-1.9004A2.37438,2.37438,0,0,1,66.33746,188H84.79315a2.3789,2.3789,0,0,1,1.78922.7998,2.68111,2.68111,0,0,1,.75325,1.9004v64.5996a2.67782,2.67782,0,0,1-.75325,1.9004A2.37545,2.37545,0,0,1,84.79315,258H66.33746a2.371,2.371,0,0,1-1.78922-.7998,2.67158,2.67158,0,0,1-.75325-1.9004V233.7002H48.54063v21.5996a2.67782,2.67782,0,0,1-.75325,1.9004A2.37545,2.37545,0,0,1,45.99816,258H27.54247A2.4474,2.4474,0,0,1,25.75325,257.25Z"/><path class="cls-4" d="M122.45728,253.89941A2.6676,2.6676,0,0,1,121.704,252V235.89941H107.10852a2.37093,2.37093,0,0,1-1.78922-.7998,2.66971,2.66971,0,0,1-.75325-1.89941V222.2998a2.68022,2.68022,0,0,1,.75325-1.90039,2.37782,2.37782,0,0,1,1.78922-.7998H121.704V204a2.67483,2.67483,0,0,1,.75325-1.90039,2.37677,2.37677,0,0,1,1.78873-.79981H135.7341a2.38235,2.38235,0,0,1,1.78923.79981A2.68318,2.68318,0,0,1,138.27658,204v15.59961h14.4067a2.38235,2.38235,0,0,1,1.78922.7998,2.68647,2.68647,0,0,1,.75326,1.90039v10.9004a2.67591,2.67591,0,0,1-.75326,1.89941,2.37544,2.37544,0,0,1-1.78922.7998h-14.4067V252a2.67591,2.67591,0,0,1-.75325,1.89941,2.373,2.373,0,0,1-1.78923.80079H124.246A2.3675,2.3675,0,0,1,122.45728,253.89941Z"/><path class="cls-4" d="M173.21041,257.2002a2.67365,2.67365,0,0,1-.75325-1.9004V190.7002a2.67694,2.67694,0,0,1,.75325-1.9004A2.37437,2.37437,0,0,1,174.99963,188h47.4579a2.38042,2.38042,0,0,1,1.78922.7998A2.6853,2.6853,0,0,1,225,190.7002v15.19921a2.682,2.682,0,0,1-.75325,1.90039,2.377,2.377,0,0,1-1.78922.79981H195.52725V216h25.04714a2.3804,2.3804,0,0,1,1.78922.7998,2.68527,2.68527,0,0,1,.75326,1.9004v15.0996a2.682,2.682,0,0,1-.75326,1.9004,2.377,2.377,0,0,1-1.78922.7998H195.52725v18.7998a2.682,2.682,0,0,1-.75325,1.9004,2.377,2.377,0,0,1-1.78922.7998H174.99963A2.37093,2.37093,0,0,1,173.21041,257.2002Z"/><path class="cls-5" d="M25.75325,257.25A2.62994,2.62994,0,0,1,25,255.2998V190.7002a2.67694,2.67694,0,0,1,.75325-1.9004A2.37438,2.37438,0,0,1,27.54247,188H45.99816a2.3789,2.3789,0,0,1,1.78922.7998,2.68111,2.68111,0,0,1,.75325,1.9004v21H63.795v-21a2.67485,2.67485,0,0,1,.75325-1.9004A2.37438,2.37438,0,0,1,66.33746,188H84.79315a2.3789,2.3789,0,0,1,1.78922.7998,2.68111,2.68111,0,0,1,.75325,1.9004v64.5996a2.67782,2.67782,0,0,1-.75325,1.9004A2.37545,2.37545,0,0,1,84.79315,258H66.33746a2.371,2.371,0,0,1-1.78922-.7998,2.67158,2.67158,0,0,1-.75325-1.9004V233.7002H48.54063v21.5996a2.67782,2.67782,0,0,1-.75325,1.9004A2.37545,2.37545,0,0,1,45.99816,258H27.54247A2.4474,2.4474,0,0,1,25.75325,257.25Z"/><path class="cls-5" d="M122.45728,253.89941A2.6676,2.6676,0,0,1,121.704,252V235.89941H107.10852a2.37093,2.37093,0,0,1-1.78922-.7998,2.66971,2.66971,0,0,1-.75325-1.89941V222.2998a2.68022,2.68022,0,0,1,.75325-1.90039,2.37782,2.37782,0,0,1,1.78922-.7998H121.704V204a2.67483,2.67483,0,0,1,.75325-1.90039,2.37677,2.37677,0,0,1,1.78873-.79981H135.7341a2.38235,2.38235,0,0,1,1.78923.79981A2.68318,2.68318,0,0,1,138.27658,204v15.59961h14.4067a2.38235,2.38235,0,0,1,1.78922.7998,2.68647,2.68647,0,0,1,.75326,1.90039v10.9004a2.67591,2.67591,0,0,1-.75326,1.89941,2.37544,2.37544,0,0,1-1.78922.7998h-14.4067V252a2.67591,2.67591,0,0,1-.75325,1.89941,2.373,2.373,0,0,1-1.78923.80079H124.246A2.3675,2.3675,0,0,1,122.45728,253.89941Z"/><path class="cls-5" d="M173.21041,257.2002a2.67365,2.67365,0,0,1-.75325-1.9004V190.7002a2.67694,2.67694,0,0,1,.75325-1.9004A2.37437,2.37437,0,0,1,174.99963,188h47.4579a2.38042,2.38042,0,0,1,1.78922.7998A2.6853,2.6853,0,0,1,225,190.7002v15.19921a2.682,2.682,0,0,1-.75325,1.90039,2.377,2.377,0,0,1-1.78922.79981H195.52725V216h25.04714a2.3804,2.3804,0,0,1,1.78922.7998,2.68527,2.68527,0,0,1,.75326,1.9004v15.0996a2.682,2.682,0,0,1-.75326,1.9004,2.377,2.377,0,0,1-1.78922.7998H195.52725v18.7998a2.682,2.682,0,0,1-.75325,1.9004,2.377,2.377,0,0,1-1.78922.7998H174.99963A2.37093,2.37093,0,0,1,173.21041,257.2002Z"/></g></svg>