<svg xmlns="http://www.w3.org/2000/svg" viewBox="0 0 440 145"><defs><style>.cls-1{fill:#666;}.cls-2{fill:#fffef9;}.cls-3,.cls-4{fill:none;stroke:#fff;stroke-miterlimit:10;}.cls-3{stroke-width:0.86714px;}.cls-4{stroke-width:0.75903px;}.cls-5{fill:#333;}.cls-6{fill:#0d47a1;}.cls-7{fill:#fff;}</style></defs><title>NwkEhd_divs_horizontal</title><g id="Opportunity_Zones" data-name="Opportunity Zones"><rect class="cls-1" y="120" width="440" height="25" rx="3.71318"/><path class="cls-2" d="M99.31152,138.23779a4.94238,4.94238,0,0,1-1.44043-3.68994q-.01756-.52221-.01757-1.53027,0-1.0254.01757-1.54785a4.92763,4.92763,0,0,1,1.47559-3.67188,6.27112,6.27112,0,0,1,7.58789,0,4.91082,4.91082,0,0,1,1.48438,3.67188q.03662,1.04443.03613,1.54785,0,.48633-.03613,1.53027a4.92461,4.92461,0,0,1-1.44922,3.68994,6.52278,6.52278,0,0,1-7.65821,0Zm5.74121-1.56591a3.23734,3.23734,0,0,0,.75684-2.21387q.03516-1.08033.03516-1.458,0-.41382-.03516-1.458a3.19929,3.19929,0,0,0-.77441-2.20508,2.83766,2.83766,0,0,0-3.79786,0,3.13084,3.13084,0,0,0-.75585,2.20508q-.019.52222-.01856,1.458,0,.91773.01856,1.458a3.15439,3.15439,0,0,0,.74707,2.20459,2.88592,2.88592,0,0,0,3.82421.00928Z"/><path class="cls-2" d="M114.52051,139.17383a.41677.41677,0,0,1-.126-.30615V127.1499a.45764.45764,0,0,1,.11719-.32422.41078.41078,0,0,1,.31543-.126h4.82422a5.219,5.219,0,0,1,3.41992,1.02588,3.65281,3.65281,0,0,1,1.2412,2.98828,3.55185,3.55185,0,0,1-1.2412,2.94287,5.3141,5.3141,0,0,1-3.41992.999h-2.64649v4.21192a.408.408,0,0,1-.126.31494.45552.45552,0,0,1-.32422.11718h-1.72754A.41787.41787,0,0,1,114.52051,139.17383Zm5.04-6.53418a2.30451,2.30451,0,0,0,1.59375-.49463,1.854,1.854,0,0,0,.54883-1.44922,1.95388,1.95388,0,0,0-.53125-1.458,2.21466,2.21466,0,0,0-1.61133-.522h-2.5918v3.92383Z"/><path class="cls-2" d="M130.001,139.17383a.41677.41677,0,0,1-.126-.30615V127.1499a.45764.45764,0,0,1,.11719-.32422.41.41,0,0,1,.31445-.126h4.82422a5.21715,5.21715,0,0,1,3.41992,1.02588,3.65338,3.65338,0,0,1,1.24219,2.98828,3.55243,3.55243,0,0,1-1.24219,2.94287,5.31223,5.31223,0,0,1-3.41992.999h-2.64551v4.21192a.41143.41143,0,0,1-.126.31494.45715.45715,0,0,1-.32422.11718h-1.72852A.41567.41567,0,0,1,130.001,139.17383Zm5.04-6.53418a2.30349,2.30349,0,0,0,1.59277-.49463,1.85058,1.85058,0,0,0,.54883-1.44922,1.95335,1.95335,0,0,0-.53028-1.458,2.21776,2.21776,0,0,0-1.61132-.522h-2.5918v3.92383Z"/><path class="cls-2" d="M146.38086,138.23779a4.94234,4.94234,0,0,1-1.44043-3.68994q-.01758-.52221-.01758-1.53027,0-1.0254.01758-1.54785a4.9276,4.9276,0,0,1,1.47559-3.67188,6.27112,6.27112,0,0,1,7.58789,0,4.91082,4.91082,0,0,1,1.48437,3.67188q.03663,1.04443.03613,1.54785,0,.48633-.03613,1.53027a4.92457,4.92457,0,0,1-1.44922,3.68994,6.52276,6.52276,0,0,1-7.6582,0Zm5.74121-1.56591a3.23739,3.23739,0,0,0,.75684-2.21387q.03515-1.08033.03515-1.458,0-.41382-.03515-1.458a3.19934,3.19934,0,0,0-.77442-2.20508,2.83765,2.83765,0,0,0-3.79785,0,3.13085,3.13085,0,0,0-.75586,2.20508q-.019.52222-.01855,1.458,0,.91773.01855,1.458a3.15444,3.15444,0,0,0,.74707,2.20459,2.88593,2.88593,0,0,0,3.82422.00928Z"/><path class="cls-2" d="M161.58984,139.17383a.4168.4168,0,0,1-.126-.30615V127.1499a.45768.45768,0,0,1,.11718-.32422.41079.41079,0,0,1,.31543-.126h4.66211a5.316,5.316,0,0,1,3.46485,1.02588,3.55782,3.55782,0,0,1,1.251,2.916,3.72257,3.72257,0,0,1-.62988,2.20508,3.50446,3.50446,0,0,1-1.76465,1.28711l2.61035,4.58984a.44713.44713,0,0,1,.05372.19825.355.355,0,0,1-.11622.27.379.379,0,0,1-.26171.10791h-1.65528a.68235.68235,0,0,1-.45019-.13476,1.306,1.306,0,0,1-.28809-.35108l-2.30371-4.26611H164.002v4.31983a.4168.4168,0,0,1-.126.30615.43713.43713,0,0,1-.32325.126h-1.65625A.4179.4179,0,0,1,161.58984,139.17383Zm4.91407-6.67822a2.384,2.384,0,0,0,1.62011-.47657,1.76184,1.76184,0,0,0,.54-1.395,1.819,1.819,0,0,0-.54-1.41308,2.32407,2.32407,0,0,0-1.62011-.49512h-2.502v3.77979Z"/><path class="cls-2" d="M179.9502,139.17383a.41677.41677,0,0,1-.126-.30615v-9.918h-3.33008a.41568.41568,0,0,1-.30566-.126.43745.43745,0,0,1-.126-.32373v-1.3501a.45706.45706,0,0,1,.11622-.32422.41223.41223,0,0,1,.31543-.126h9.19824a.43155.43155,0,0,1,.4502.45019V128.5a.43153.43153,0,0,1-.4502.44971h-3.3125v9.918a.43663.43663,0,0,1-.11621.30615.41194.41194,0,0,1-.31543.126h-1.69238A.41567.41567,0,0,1,179.9502,139.17383Z"/><path class="cls-2" d="M192.80176,138.23779a4.86993,4.86993,0,0,1-1.34961-3.7622V127.1499a.45764.45764,0,0,1,.11719-.32422.40859.40859,0,0,1,.31445-.126H193.54a.43153.43153,0,0,1,.45019.45019v7.32569a3.02564,3.02564,0,0,0,.67481,2.14209,2.91134,2.91134,0,0,0,3.834,0,3.02564,3.02564,0,0,0,.67481-2.14209V127.1499a.43153.43153,0,0,1,.45019-.45019h1.65625a.41007.41007,0,0,1,.31446.126.45768.45768,0,0,1,.11718.32422v7.32569a4.88809,4.88809,0,0,1-1.34082,3.7622,5.34368,5.34368,0,0,1-3.77148,1.24219A5.40353,5.40353,0,0,1,192.80176,138.23779Z"/><path class="cls-2" d="M208.1377,139.17383a.41677.41677,0,0,1-.126-.30615V127.1499a.45764.45764,0,0,1,.11719-.32422.41076.41076,0,0,1,.31543-.126h1.40429a.57218.57218,0,0,1,.52149.30615l5.14843,7.99219V127.1499a.457.457,0,0,1,.11622-.32422.41222.41222,0,0,1,.31543-.126h1.54785a.43153.43153,0,0,1,.45019.45019v11.69971a.43862.43862,0,0,1-.126.32422.41728.41728,0,0,1-.30567.126h-1.42285a.58689.58689,0,0,1-.54-.30615l-5.12988-7.812v7.686a.43663.43663,0,0,1-.11621.30615.412.412,0,0,1-.31543.126h-1.54785A.41787.41787,0,0,1,208.1377,139.17383Z"/><path class="cls-2" d="M224.46387,139.17383a.41677.41677,0,0,1-.126-.30615V127.13184a.40941.40941,0,0,1,.126-.31495.432.432,0,0,1,.30566-.11718h1.72852a.40373.40373,0,0,1,.43164.43213v11.73584a.4331.4331,0,0,1-.1172.30615.40829.40829,0,0,1-.31444.126h-1.72852A.41567.41567,0,0,1,224.46387,139.17383Z"/><path class="cls-2" d="M236.23535,139.17383a.4168.4168,0,0,1-.126-.30615v-9.918H232.7793a.41572.41572,0,0,1-.30567-.126.43747.43747,0,0,1-.126-.32373v-1.3501a.457.457,0,0,1,.11621-.32422.41222.41222,0,0,1,.31543-.126h9.19824a.43153.43153,0,0,1,.45019.45019V128.5a.43151.43151,0,0,1-.45019.44971H238.665v9.918a.43663.43663,0,0,1-.11621.30615.412.412,0,0,1-.31543.126H236.541A.41571.41571,0,0,1,236.23535,139.17383Z"/><path class="cls-2" d="M251.2832,139.17383a.4168.4168,0,0,1-.126-.30615v-4.04981l-4.26563-7.542a.99912.99912,0,0,1-.05469-.19824.35249.35249,0,0,1,.11719-.27.37679.37679,0,0,1,.26074-.10791H248.835a.6446.6446,0,0,1,.55859.34228l3.02344,5.21973,3.042-5.21973a.83664.83664,0,0,1,.207-.23437.51738.51738,0,0,1,.333-.10791h1.62012a.36806.36806,0,0,1,.37793.37793.37653.37653,0,0,1-.05371.19824l-4.248,7.542v4.04981a.408.408,0,0,1-.126.31494.45552.45552,0,0,1-.32422.11718h-1.65625A.41571.41571,0,0,1,251.2832,139.17383Z"/><path class="cls-2" d="M270.01172,139.17383a.45619.45619,0,0,1-.11621-.32422v-1.27783a.7614.7614,0,0,1,.08105-.37793,2.54535,2.54535,0,0,1,.18848-.28809l6.24609-8.0459h-5.90429a.41571.41571,0,0,1-.30567-.126.43862.43862,0,0,1-.126-.32422V127.1499a.45768.45768,0,0,1,.11718-.32422.41007.41007,0,0,1,.31446-.126h8.62207a.43153.43153,0,0,1,.45019.45019v1.25977a.93211.93211,0,0,1-.23437.63037l-6.10157,8.09961h6.10157a.40381.40381,0,0,1,.43261.43213v1.2959a.43317.43317,0,0,1-.11718.30615.41052.41052,0,0,1-.31543.126h-9.01758A.41049.41049,0,0,1,270.01172,139.17383Z"/><path class="cls-2" d="M286.40137,138.23779a4.93819,4.93819,0,0,1-1.43946-3.68994q-.019-.52221-.01855-1.53027,0-1.0254.01855-1.54785a4.92034,4.92034,0,0,1,1.47558-3.67188,6.26968,6.26968,0,0,1,7.58692,0,4.91136,4.91136,0,0,1,1.48536,3.67188q.03515,1.04443.03613,1.54785,0,.48633-.03613,1.53027a4.92825,4.92825,0,0,1-1.44922,3.68994,6.52428,6.52428,0,0,1-7.65918,0Zm5.74218-1.56591a3.24191,3.24191,0,0,0,.75586-2.21387q.03663-1.08033.03614-1.458,0-.41382-.03614-1.458a3.19465,3.19465,0,0,0-.77441-2.20508,2.53511,2.53511,0,0,0-1.88965-.729,2.56153,2.56153,0,0,0-1.9082.729,3.13977,3.13977,0,0,0-.75586,2.20508q-.01758.52222-.01758,1.458,0,.91773.01758,1.458a3.16356,3.16356,0,0,0,.74707,2.20459,2.88721,2.88721,0,0,0,3.82519.00928Z"/><path class="cls-2" d="M301.61133,139.17383a.41677.41677,0,0,1-.126-.30615V127.1499a.45764.45764,0,0,1,.11719-.32422.41005.41005,0,0,1,.31445-.126h1.4043a.57363.57363,0,0,1,.52246.30615l5.14746,7.99219V127.1499a.45764.45764,0,0,1,.11719-.32422.41005.41005,0,0,1,.31445-.126h1.54883a.43148.43148,0,0,1,.44922.45019v11.69971a.43859.43859,0,0,1-.126.32422.41567.41567,0,0,1-.30566.126h-1.42188a.58689.58689,0,0,1-.54-.30615l-5.12988-7.812v7.686a.43314.43314,0,0,1-.11719.30615.409.409,0,0,1-.31543.126H301.917A.41569.41569,0,0,1,301.61133,139.17383Z"/><path class="cls-2" d="M317.93652,139.17383a.4168.4168,0,0,1-.126-.30615V127.1499a.45768.45768,0,0,1,.11718-.32422.41079.41079,0,0,1,.31543-.126h7.9375a.43155.43155,0,0,1,.4502.45019V128.356a.4094.4094,0,0,1-.126.31494.4557.4557,0,0,1-.32422.1167h-5.90332V131.938h5.50782a.4315.4315,0,0,1,.45019.44971V133.522a.41287.41287,0,0,1-.126.31494.459.459,0,0,1-.32422.1167h-5.50782v3.2583h6.04786a.4595.4595,0,0,1,.32421.1167.41049.41049,0,0,1,.126.31543v1.22364a.408.408,0,0,1-.126.31494.45548.45548,0,0,1-.32421.11718h-8.082A.4179.4179,0,0,1,317.93652,139.17383Z"/><path class="cls-2" d="M334.24512,138.99365a4.10611,4.10611,0,0,1-1.7461-1.27783,3.01212,3.01212,0,0,1-.62988-1.728.3761.3761,0,0,1,.10742-.26123.354.354,0,0,1,.27051-.1167h1.6377a.54839.54839,0,0,1,.32421.08985.9446.9446,0,0,1,.2334.25195,1.84629,1.84629,0,0,0,.81934,1.02637,3.20441,3.20441,0,0,0,1.75488.41357,3.46656,3.46656,0,0,0,1.89942-.42285,1.32251,1.32251,0,0,0,.63867-1.16113,1.099,1.099,0,0,0-.32422-.80957,2.70644,2.70644,0,0,0-.98047-.56739q-.65772-.24243-1.95312-.585a7.664,7.664,0,0,1-3.11426-1.332,2.92225,2.92225,0,0,1-.99024-2.376,3.16065,3.16065,0,0,1,.57617-1.8628,3.82019,3.82019,0,0,1,1.64747-1.28711,6.18029,6.18029,0,0,1,2.49316-.46777,5.92507,5.92507,0,0,1,2.583.522,4.26175,4.26175,0,0,1,1.65527,1.30469,2.89164,2.89164,0,0,1,.60352,1.55713.37549.37549,0,0,1-.1084.26123.35177.35177,0,0,1-.26953.1167h-1.71a.53624.53624,0,0,1-.54-.32373,1.39822,1.39822,0,0,0-.70215-.96338,3.27027,3.27027,0,0,0-3.06934-.00879,1.23778,1.23778,0,0,0-.5664,1.09814,1.17772,1.17772,0,0,0,.28711.81006,2.355,2.355,0,0,0,.90039.5669,16.35919,16.35919,0,0,0,1.78222.54883,12.45144,12.45144,0,0,1,2.54688.81,3.32372,3.32372,0,0,1,1.39453,1.13379,3.12137,3.12137,0,0,1,.45019,1.7461,3.28759,3.28759,0,0,1-.63867,2.0249,3.96721,3.96721,0,0,1-1.7998,1.30518,7.42716,7.42716,0,0,1-2.69141.45019A7.10775,7.10775,0,0,1,334.24512,138.99365Z"/><line class="cls-3" x1="12.5" y1="133" x2="82.5" y2="133"/><line class="cls-4" x1="357.5" y1="133" x2="427.5" y2="133"/><rect class="cls-5" x="162.5" y="-162.202" width="115" height="440" rx="4.94413" transform="translate(277.798 -162.202) rotate(90)"/><rect class="cls-6" x="5.00381" y="7.798" width="240" height="100" rx="6.74481"/><path class="cls-7" d="M15.75144,91.9982a2.68448,2.68448,0,0,1-.74763-1.9004V25.4982a2.68944,2.68944,0,0,1,.74763-1.9004,2.35051,2.35051,0,0,1,1.77585-.7998H32.29383a4.047,4.047,0,0,1,3.83182,2.2998L51.91993,52.798V25.4982a2.68944,2.68944,0,0,1,.74763-1.9004,2.3505,2.3505,0,0,1,1.77584-.7998H71.35961a2.355,2.355,0,0,1,1.77585.7998,2.69574,2.69574,0,0,1,.74762,1.9004V90.0978a2.69075,2.69075,0,0,1-.74762,1.9004,2.34991,2.34991,0,0,1-1.77585.7998H56.59307a3.702,3.702,0,0,1-2.42978-.7002,6.62653,6.62653,0,0,1-1.402-1.5996l-15.79477-25.5V90.0978a2.68868,2.68868,0,0,1-.74762,1.9004,2.34892,2.34892,0,0,1-1.77537.7998H17.52729A2.34544,2.34544,0,0,1,15.75144,91.9982Z"/><path class="cls-7" d="M95.89187,91.6481a4.40584,4.40584,0,0,1-1.35543-2.6499L85.93828,25.298v-.2998a2.189,2.189,0,0,1,.60781-1.5503,1.91677,1.91677,0,0,1,1.44864-.6499H105.378a4.12047,4.12047,0,0,1,2.47638.6001,2.70285,2.70285,0,0,1,.88792,2.1001l3.17789,28.1997,3.83182-12.5q.93282-2.89891,3.1774-2.8999h9.53269q2.24287,0,3.17789,2.8999l3.83181,12.3999,3.1774-28.0996a2.69325,2.69325,0,0,1,.88793-2.1001,4.11749,4.11749,0,0,1,2.47638-.6001h17.38372a1.92052,1.92052,0,0,1,1.44864.6499,2.19693,2.19693,0,0,1,.60732,1.5503v.2998L152.855,88.9982a4.41893,4.41893,0,0,1-1.35543,2.6499,4.02541,4.02541,0,0,1-2.94389,1.1499H135.19116a3.45089,3.45089,0,0,1-2.57008-.8999,5.73478,5.73478,0,0,1-1.26173-1.8003l-7.66364-20.5-7.66363,20.5a5.7833,5.7833,0,0,1-1.26173,1.8003,3.45314,3.45314,0,0,1-2.57008.8999H98.83576A4.02075,4.02075,0,0,1,95.89187,91.6481Z"/><path class="cls-7" d="M174.25548,91.9982a2.68451,2.68451,0,0,1-.74762-1.9004V25.4982a2.68948,2.68948,0,0,1,.74762-1.9004,2.35054,2.35054,0,0,1,1.77585-.7998h17.85074a2.355,2.355,0,0,1,1.77585.7998,2.69574,2.69574,0,0,1,.74762,1.9004V45.298L206.966,24.9982a3.87631,3.87631,0,0,1,3.73861-2.2002H231.3589a1.919,1.919,0,0,1,1.44865.6499,2.28371,2.28371,0,0,1,.32623,2.6499L216.31224,56.298l18.41194,33.2002a1.89589,1.89589,0,0,1,.27963,1.0996,2.197,2.197,0,0,1-.6078,1.5503,1.91392,1.91392,0,0,1-1.44865.6499H211.63911a3.91527,3.91527,0,0,1-2.52347-.75,4.47088,4.47088,0,0,1-1.30835-1.5498L196.40554,68.6979V90.0978a2.69075,2.69075,0,0,1-.74762,1.9004,2.34991,2.34991,0,0,1-1.77585.7998H176.03133A2.34547,2.34547,0,0,1,174.25548,91.9982Z"/><path class="cls-7" d="M255.84314,87.1123a2.30223,2.30223,0,0,1-.639-1.62836V30.11254a2.30832,2.30832,0,0,1,.639-1.62884,2.00807,2.00807,0,0,1,1.51845-.6857h40.99329a2.01177,2.01177,0,0,1,1.51845.6857,2.313,2.313,0,0,1,.63952,1.62884V42.19819a2.30684,2.30684,0,0,1-.63952,1.62836,2.005,2.005,0,0,1-1.51845.6857H274.38212V49.9122H296.597a2.01249,2.01249,0,0,1,1.51845.6857,2.31249,2.31249,0,0,1,.639,1.62885v11.143a2.30637,2.30637,0,0,1-.639,1.62836,2.00742,2.00742,0,0,1-1.51845.6857H274.38212v5.39995H298.9944a2.01245,2.01245,0,0,1,1.51845.6857,2.31133,2.31133,0,0,1,.639,1.62836V85.48394a2.30637,2.30637,0,0,1-.639,1.62836,2.00742,2.00742,0,0,1-1.51845.6857H257.36159A2.003,2.003,0,0,1,255.84314,87.1123Z"/><path class="cls-7" d="M313.13731,87.15513a2.26562,2.26562,0,0,1-.639-1.67119V30.11254a2.30832,2.30832,0,0,1,.639-1.62884,2.00805,2.00805,0,0,1,1.51845-.6857h15.66232a2.01075,2.01075,0,0,1,1.518.6857,2.31085,2.31085,0,0,1,.63953,1.62884v18H345.421v-18a2.3062,2.3062,0,0,1,.639-1.62884,2.008,2.008,0,0,1,1.51845-.6857h15.66232a2.01075,2.01075,0,0,1,1.518.6857,2.31294,2.31294,0,0,1,.63953,1.62884v55.3714a2.30682,2.30682,0,0,1-.63953,1.62836,2.00569,2.00569,0,0,1-1.518.6857H347.57849a2.003,2.003,0,0,1-1.51845-.6857,2.30012,2.30012,0,0,1-.639-1.62836V66.96955H332.47557V85.48394a2.30475,2.30475,0,0,1-.63953,1.62836,2.00569,2.00569,0,0,1-1.518.6857H314.65576A2.066,2.066,0,0,1,313.13731,87.15513Z"/><path class="cls-7" d="M378.822,87.1123a2.30223,2.30223,0,0,1-.639-1.62836V30.11254a2.30832,2.30832,0,0,1,.639-1.62884,2.00805,2.00805,0,0,1,1.51845-.6857H403.3542A31.76264,31.76264,0,0,1,416.859,30.5408a22.3529,22.3529,0,0,1,9.42925,8.05759,24.07187,24.07187,0,0,1,3.75558,12.77135q.15927,4.80112.16024,6.51391,0,1.62933-.16024,6.25744-.47928,11.828-7.4711,17.74256Q415.579,87.798,403.75385,87.798H380.34049A2.003,2.003,0,0,1,378.822,87.1123ZM403.3542,71.08375a6.02976,6.02976,0,0,0,4.51481-1.75732,7.6685,7.6685,0,0,0,1.878-5.18534q.15927-2.48561.15976-6.42874,0-4.02807-.15976-6.34261a7.10526,7.10526,0,0,0-2.03779-5.143,6.78192,6.78192,0,0,0-4.75421-1.7145H398.1603v26.5715Z"/></g></svg>