<svg id="EHD_Mini" xmlns="http://www.w3.org/2000/svg" viewBox="0 0 250 115"><defs><style>.cls-1{fill:#fff;}.cls-2{fill:#fdcb06;}.cls-3{fill:#f2f2f2;}</style></defs><title>NwkEhd</title><rect class="cls-1" x="67.5" y="-67" width="115" height="250" rx="13.20842" transform="translate(183 -67) rotate(90)"/><rect class="cls-2" y="3.5836" width="250" height="108.83281" rx="11.48558"/><path class="cls-3" d="M25.73033,91.50206A2.63112,2.63112,0,0,1,25,89.64108V26.35948a2.6381,2.6381,0,0,1,.73033-1.86154,2.29492,2.29492,0,0,1,1.73537-.78365H74.31517a2.29913,2.29913,0,0,1,1.73537.78365,2.64334,2.64334,0,0,1,.73089,1.86154V40.17165a2.63634,2.63634,0,0,1-.73089,1.861,2.29141,2.29141,0,0,1-1.73537.78366H46.91773v6.17137H72.30621a2.3,2.3,0,0,1,1.73536.78366,2.64281,2.64281,0,0,1,.73034,1.86153V64.3677a2.6358,2.6358,0,0,1-.73034,1.861,2.29415,2.29415,0,0,1-1.73536.78366H46.91773v6.17137H75.04606a2.3,2.3,0,0,1,1.73537.78366,2.64156,2.64156,0,0,1,.73033,1.861V89.64108a2.63587,2.63587,0,0,1-.73033,1.861,2.29421,2.29421,0,0,1-1.73537.78365H27.4657A2.28916,2.28916,0,0,1,25.73033,91.50206Z"/><path class="cls-3" d="M91.20938,91.551a2.58924,2.58924,0,0,1-.73033-1.90992V26.35948a2.6381,2.6381,0,0,1,.73033-1.86154,2.29491,2.29491,0,0,1,1.73537-.78365h17.89979a2.298,2.298,0,0,1,1.73482.78365,2.641,2.641,0,0,1,.73089,1.86154V46.93091H128.105V26.35948a2.63572,2.63572,0,0,1,.73033-1.86154,2.29494,2.29494,0,0,1,1.73537-.78365h17.8998a2.298,2.298,0,0,1,1.73482.78365,2.64338,2.64338,0,0,1,.73088,1.86154v63.2816a2.63637,2.63637,0,0,1-.73088,1.861,2.29223,2.29223,0,0,1-1.73482.78365h-17.8998a2.28917,2.28917,0,0,1-1.73537-.78365,2.62876,2.62876,0,0,1-.73033-1.861V68.48177H113.31025V89.64108a2.634,2.634,0,0,1-.73089,1.861,2.2922,2.2922,0,0,1-1.73482.78365H92.94475A2.3611,2.3611,0,0,1,91.20938,91.551Z"/><path class="cls-3" d="M166.27764,91.50206a2.63112,2.63112,0,0,1-.73033-1.861V26.35948a2.6381,2.6381,0,0,1,.73033-1.86154,2.29491,2.29491,0,0,1,1.73537-.78365H194.3144a36.29992,36.29992,0,0,1,15.43409,3.13463,25.54625,25.54625,0,0,1,10.77629,9.20867,27.51072,27.51072,0,0,1,4.29208,14.59583q.182,5.487.18314,7.44447,0,1.86209-.18314,7.15136-.54774,13.51767-8.53839,20.27721-7.99285,6.75925-21.50733,6.75925H168.013A2.28914,2.28914,0,0,1,166.27764,91.50206ZM194.3144,73.18371a6.89114,6.89114,0,0,0,5.15978-2.00836,8.764,8.764,0,0,0,2.14632-5.9261q.182-2.84069.18258-7.34714,0-4.6035-.18258-7.24869a8.1203,8.1203,0,0,0-2.32891-5.87771,7.75078,7.75078,0,0,0-5.43337-1.95942h-5.47971V73.18371Z"/></svg>