<svg xmlns="http://www.w3.org/2000/svg" viewBox="0 0 100 121"><defs><style>.cls-1{fill:#fff;}.cls-2{fill:#0d47a1;}.cls-3{fill:#ffe471;}.cls-4{fill:#ffebc5;}.cls-5{fill:#d09ae4;}</style></defs><title>NwkEhd_divs_web_mini</title><g id="Housing_Finance" data-name="Housing &amp; Finance"><rect class="cls-1" x="-10" y="10.5" width="120" height="100" rx="8.53341" transform="translate(110.5 10.5) rotate(90)"/><rect class="cls-2" y="3.71767" width="100" height="113.56467" rx="7.42035"/><path class="cls-1" d="M10.27971,47.38008A1.11515,1.11515,0,0,1,10,46.61992V20.78008a1.11655,1.11655,0,0,1,.27971-.76016A.85487.85487,0,0,1,10.9441,19.7h5.52453a1.50443,1.50443,0,0,1,1.43358.91992L23.81125,31.7V20.78008a1.1166,1.1166,0,0,1,.27971-.76016A.85489.85489,0,0,1,24.75535,19.7h6.32878a.85648.85648,0,0,1,.66439.31992,1.11919,1.11919,0,0,1,.2797.76016V46.61992a1.11779,1.11779,0,0,1-.2797.76016.85526.85526,0,0,1-.66439.31992H25.55959a1.32412,1.32412,0,0,1-.909-.28008,2.60952,2.60952,0,0,1-.52454-.63984l-5.90922-10.2V46.61992a1.11693,1.11693,0,0,1-.27971.76016.85489.85489,0,0,1-.6642.31992H10.9441A.85365.85365,0,0,1,10.27971,47.38008Z"/><path class="cls-1" d="M39.10839,47.23984a1.80721,1.80721,0,0,1-.5071-1.05976L35.3845,20.7v-.11992a.90959.90959,0,0,1,.2274-.62031.6973.6973,0,0,1,.542-.25977h6.50351a1.46688,1.46688,0,0,1,.92648.23984,1.11665,1.11665,0,0,1,.33219.84024L45.105,32.05977l1.43358-5q.349-1.15958,1.18875-1.15977h3.56642q.83912,0,1.18892,1.15977l1.43358,4.96015L55.105,20.78008a1.11263,1.11263,0,0,1,.3322-.84024A1.4658,1.4658,0,0,1,56.36365,19.7h6.50369a.69861.69861,0,0,1,.542.25977.91291.91291,0,0,1,.22722.62031V20.7L60.41974,46.18008a1.81254,1.81254,0,0,1-.5071,1.05976A1.45456,1.45456,0,0,1,58.81125,47.7h-5a1.24235,1.24235,0,0,1-.96153-.36016,2.30262,2.30262,0,0,1-.472-.71992l-2.86715-8.2-2.86716,8.2a2.32187,2.32187,0,0,1-.47205.71992,1.24314,1.24314,0,0,1-.96153.36016h-5A1.45293,1.45293,0,0,1,39.10839,47.23984Z"/><path class="cls-1" d="M67.27233,47.38008a1.11519,1.11519,0,0,1-.2797-.76016V20.78008a1.11659,1.11659,0,0,1,.2797-.76016A.85489.85489,0,0,1,67.93672,19.7h6.67841a.85594.85594,0,0,1,.66439.31992,1.11833,1.11833,0,0,1,.27971.76016V28.7l3.9511-8.11992A1.44,1.44,0,0,1,80.90886,19.7h7.72749a.69916.69916,0,0,1,.542.25977.91367.91367,0,0,1,.227.62031.93033.93033,0,0,1-.105.43984L83.007,33.1l6.888,13.28008a.79783.79783,0,0,1,.105.43984.91225.91225,0,0,1-.2274.61992.69657.69657,0,0,1-.542.26016h-7.972a1.4,1.4,0,0,1-.94409-.3,1.76865,1.76865,0,0,1-.48967-.61992l-4.26568-8.72031v8.56015a1.11693,1.11693,0,0,1-.27971.76016.85472.85472,0,0,1-.66439.31992H67.93672A.85366.85366,0,0,1,67.27233,47.38008Z"/><rect class="cls-1" x="10" y="59.7" width="80" height="1.6" rx="0.23264"/><path class="cls-3" d="M10.3013,103.4A1.052,1.052,0,0,1,10,102.61992V76.78008a1.07076,1.07076,0,0,1,.3013-.76016A.94975.94975,0,0,1,11.017,75.7h7.38227a.95154.95154,0,0,1,.71569.31992,1.07242,1.07242,0,0,1,.3013.76016v8.4H25.518v-8.4a1.06991,1.06991,0,0,1,.3013-.76016A.94974.94974,0,0,1,26.535,75.7h7.38227a.95158.95158,0,0,1,.71569.31992,1.07242,1.07242,0,0,1,.3013.76016v25.83984a1.07111,1.07111,0,0,1-.3013.76016.9502.9502,0,0,1-.71569.31992H26.535a.94837.94837,0,0,1-.71569-.31992,1.0686,1.0686,0,0,1-.3013-.76016V93.98008H19.41625v8.63984a1.07111,1.07111,0,0,1-.3013.76016.95017.95017,0,0,1-.71569.31992H11.017A.979.979,0,0,1,10.3013,103.4Z"/><path class="cls-3" d="M48.98291,102.05977a1.06708,1.06708,0,0,1-.3013-.75977V94.85977h-5.8382a.94836.94836,0,0,1-.71569-.31993,1.06786,1.06786,0,0,1-.3013-.75976V89.41992a1.07206,1.07206,0,0,1,.3013-.76015.9511.9511,0,0,1,.71569-.31993h5.8382V82.1a1.07,1.07,0,0,1,.3013-.76016.95071.95071,0,0,1,.7155-.31992h4.59523a.95294.95294,0,0,1,.71569.31992,1.0733,1.0733,0,0,1,.3013.76016v6.23984h5.76268a.9529.9529,0,0,1,.71569.31993,1.07458,1.07458,0,0,1,.3013.76015v4.36016a1.07036,1.07036,0,0,1-.3013.75976.95015.95015,0,0,1-.71569.31993H55.31063V101.3a1.07038,1.07038,0,0,1-.3013.75977.94922.94922,0,0,1-.71569.32031H49.69841A.947.947,0,0,1,48.98291,102.05977Z"/><path class="cls-3" d="M69.28416,103.38008a1.06949,1.06949,0,0,1-.3013-.76016V76.78008a1.07081,1.07081,0,0,1,.3013-.76016A.94975.94975,0,0,1,69.99985,75.7H88.983a.95216.95216,0,0,1,.71569.31992A1.07413,1.07413,0,0,1,90,76.78008v6.07969a1.07279,1.07279,0,0,1-.3013.76015.95079.95079,0,0,1-.71569.31992H78.2109V86.9H88.22976a.95218.95218,0,0,1,.71569.31992,1.07413,1.07413,0,0,1,.3013.76016v6.03984a1.07281,1.07281,0,0,1-.3013.76016.9508.9508,0,0,1-.71569.31992H78.2109v7.51992a1.07277,1.07277,0,0,1-.3013.76016.95079.95079,0,0,1-.71569.31992H69.99985A.94839.94839,0,0,1,69.28416,103.38008Z"/><path class="cls-4" d="M10.3013,103.4A1.052,1.052,0,0,1,10,102.61992V76.78008a1.07076,1.07076,0,0,1,.3013-.76016A.94975.94975,0,0,1,11.017,75.7h7.38227a.95154.95154,0,0,1,.71569.31992,1.07242,1.07242,0,0,1,.3013.76016v8.4H25.518v-8.4a1.06991,1.06991,0,0,1,.3013-.76016A.94974.94974,0,0,1,26.535,75.7h7.38227a.95158.95158,0,0,1,.71569.31992,1.07242,1.07242,0,0,1,.3013.76016v25.83984a1.07111,1.07111,0,0,1-.3013.76016.9502.9502,0,0,1-.71569.31992H26.535a.94837.94837,0,0,1-.71569-.31992,1.0686,1.0686,0,0,1-.3013-.76016V93.98008H19.41625v8.63984a1.07111,1.07111,0,0,1-.3013.76016.95017.95017,0,0,1-.71569.31992H11.017A.979.979,0,0,1,10.3013,103.4Z"/><path class="cls-4" d="M48.98291,102.05977a1.06708,1.06708,0,0,1-.3013-.75977V94.85977h-5.8382a.94836.94836,0,0,1-.71569-.31993,1.06786,1.06786,0,0,1-.3013-.75976V89.41992a1.07206,1.07206,0,0,1,.3013-.76015.9511.9511,0,0,1,.71569-.31993h5.8382V82.1a1.07,1.07,0,0,1,.3013-.76016.95071.95071,0,0,1,.7155-.31992h4.59523a.95294.95294,0,0,1,.71569.31992,1.0733,1.0733,0,0,1,.3013.76016v6.23984h5.76268a.9529.9529,0,0,1,.71569.31993,1.07458,1.07458,0,0,1,.3013.76015v4.36016a1.07036,1.07036,0,0,1-.3013.75976.95015.95015,0,0,1-.71569.31993H55.31063V101.3a1.07038,1.07038,0,0,1-.3013.75977.94922.94922,0,0,1-.71569.32031H49.69841A.947.947,0,0,1,48.98291,102.05977Z"/><path class="cls-4" d="M69.28416,103.38008a1.06949,1.06949,0,0,1-.3013-.76016V76.78008a1.07081,1.07081,0,0,1,.3013-.76016A.94975.94975,0,0,1,69.99985,75.7H88.983a.95216.95216,0,0,1,.71569.31992A1.07413,1.07413,0,0,1,90,76.78008v6.07969a1.07279,1.07279,0,0,1-.3013.76015.95079.95079,0,0,1-.71569.31992H78.2109V86.9H88.22976a.95218.95218,0,0,1,.71569.31992,1.07413,1.07413,0,0,1,.3013.76016v6.03984a1.07281,1.07281,0,0,1-.3013.76016.9508.9508,0,0,1-.71569.31992H78.2109v7.51992a1.07277,1.07277,0,0,1-.3013.76016.95079.95079,0,0,1-.71569.31992H69.99985A.94839.94839,0,0,1,69.28416,103.38008Z"/><path class="cls-5" d="M10.3013,103.4A1.052,1.052,0,0,1,10,102.61992V76.78008a1.07076,1.07076,0,0,1,.3013-.76016A.94975.94975,0,0,1,11.017,75.7h7.38227a.95154.95154,0,0,1,.71569.31992,1.07242,1.07242,0,0,1,.3013.76016v8.4H25.518v-8.4a1.06991,1.06991,0,0,1,.3013-.76016A.94974.94974,0,0,1,26.535,75.7h7.38227a.95158.95158,0,0,1,.71569.31992,1.07242,1.07242,0,0,1,.3013.76016v25.83984a1.07111,1.07111,0,0,1-.3013.76016.9502.9502,0,0,1-.71569.31992H26.535a.94837.94837,0,0,1-.71569-.31992,1.0686,1.0686,0,0,1-.3013-.76016V93.98008H19.41625v8.63984a1.07111,1.07111,0,0,1-.3013.76016.95017.95017,0,0,1-.71569.31992H11.017A.979.979,0,0,1,10.3013,103.4Z"/><path class="cls-5" d="M48.98291,102.05977a1.06708,1.06708,0,0,1-.3013-.75977V94.85977h-5.8382a.94836.94836,0,0,1-.71569-.31993,1.06786,1.06786,0,0,1-.3013-.75976V89.41992a1.07206,1.07206,0,0,1,.3013-.76015.9511.9511,0,0,1,.71569-.31993h5.8382V82.1a1.07,1.07,0,0,1,.3013-.76016.95071.95071,0,0,1,.7155-.31992h4.59523a.95294.95294,0,0,1,.71569.31992,1.0733,1.0733,0,0,1,.3013.76016v6.23984h5.76268a.9529.9529,0,0,1,.71569.31993,1.07458,1.07458,0,0,1,.3013.76015v4.36016a1.07036,1.07036,0,0,1-.3013.75976.95015.95015,0,0,1-.71569.31993H55.31063V101.3a1.07038,1.07038,0,0,1-.3013.75977.94922.94922,0,0,1-.71569.32031H49.69841A.947.947,0,0,1,48.98291,102.05977Z"/><path class="cls-5" d="M69.28416,103.38008a1.06949,1.06949,0,0,1-.3013-.76016V76.78008a1.07081,1.07081,0,0,1,.3013-.76016A.94975.94975,0,0,1,69.99985,75.7H88.983a.95216.95216,0,0,1,.71569.31992A1.07413,1.07413,0,0,1,90,76.78008v6.07969a1.07279,1.07279,0,0,1-.3013.76015.95079.95079,0,0,1-.71569.31992H78.2109V86.9H88.22976a.95218.95218,0,0,1,.71569.31992,1.07413,1.07413,0,0,1,.3013.76016v6.03984a1.07281,1.07281,0,0,1-.3013.76016.9508.9508,0,0,1-.71569.31992H78.2109v7.51992a1.07277,1.07277,0,0,1-.3013.76016.95079.95079,0,0,1-.71569.31992H69.99985A.94839.94839,0,0,1,69.28416,103.38008Z"/></g></svg>