<svg xmlns="http://www.w3.org/2000/svg" viewBox="0 0 100 122"><defs><style>.cls-1{fill:#fff;}.cls-2{fill:#0d47a1;}.cls-3{fill:#ffe471;}.cls-4{fill:#ffebc5;}.cls-5{fill:#e5cb7d;}</style></defs><title>NwkEhd_divs_web_mini</title><g id="Property_Management" data-name="Property Management"><rect class="cls-1" x="-10" y="11" width="120" height="100" rx="8.53341" transform="translate(111 11) rotate(90)"/><rect class="cls-2" y="4.21767" width="100" height="113.56467" rx="7.42035"/><path class="cls-1" d="M10.27971,47.88008A1.11515,1.11515,0,0,1,10,47.11992V21.28008a1.11655,1.11655,0,0,1,.27971-.76016A.85487.85487,0,0,1,10.9441,20.2h5.52471a1.50436,1.50436,0,0,1,1.4334.91992L23.81125,32.2V21.28008a1.1166,1.1166,0,0,1,.27971-.76016A.85489.85489,0,0,1,24.75535,20.2h6.329a.857.857,0,0,1,.66439.31992,1.12007,1.12007,0,0,1,.27971.76016V47.11992a1.11867,1.11867,0,0,1-.27971.76016.85578.85578,0,0,1-.66439.31992H25.55959a1.32331,1.32331,0,0,1-.90886-.28008,2.60545,2.60545,0,0,1-.52454-.63984l-5.9094-10.2V47.11992a1.11693,1.11693,0,0,1-.27971.76016.85454.85454,0,0,1-.664.31992h-6.329A.85365.85365,0,0,1,10.27971,47.88008Z"/><path class="cls-1" d="M39.10858,47.73984a1.80716,1.80716,0,0,1-.50711-1.05976L35.3845,21.2v-.11992a.91046.91046,0,0,1,.2274-.62031.69756.69756,0,0,1,.542-.25977h6.50369a1.4663,1.4663,0,0,1,.9263.23984,1.1167,1.1167,0,0,1,.33237.84024l1.18893,11.27969,1.4334-5q.34926-1.15958,1.18893-1.15977h3.56642q.83911,0,1.18893,1.15977l1.43339,4.96015,1.18893-11.23984a1.11258,1.11258,0,0,1,.332-.84024A1.46673,1.46673,0,0,1,56.36383,20.2h6.50369a.69918.69918,0,0,1,.542.25977.91367.91367,0,0,1,.227.62031V21.2L60.41992,46.68008a1.81361,1.81361,0,0,1-.5071,1.05976A1.45483,1.45483,0,0,1,58.81144,48.2H53.81125a1.24235,1.24235,0,0,1-.96153-.36016,2.30162,2.30162,0,0,1-.47186-.71992l-2.86716-8.2-2.86716,8.2a2.32266,2.32266,0,0,1-.47223.71992,1.24286,1.24286,0,0,1-.96153.36016H40.21A1.45262,1.45262,0,0,1,39.10858,47.73984Z"/><path class="cls-1" d="M67.27233,47.88008a1.11519,1.11519,0,0,1-.2797-.76016V21.28008a1.11659,1.11659,0,0,1,.2797-.76016A.85489.85489,0,0,1,67.93672,20.2h6.67841a.85594.85594,0,0,1,.66439.31992,1.11833,1.11833,0,0,1,.27971.76016V29.2l3.9511-8.11992A1.44,1.44,0,0,1,80.90886,20.2h7.72749a.69916.69916,0,0,1,.542.25977.91367.91367,0,0,1,.227.62031.93033.93033,0,0,1-.105.43984L83.007,33.6l6.888,13.28008a.79783.79783,0,0,1,.105.43984.91225.91225,0,0,1-.2274.61992.69657.69657,0,0,1-.542.26016h-7.972a1.4,1.4,0,0,1-.94409-.3,1.76865,1.76865,0,0,1-.48967-.61992l-4.26568-8.72031v8.56015a1.11693,1.11693,0,0,1-.27971.76016.85472.85472,0,0,1-.66439.31992H67.93672A.85366.85366,0,0,1,67.27233,47.88008Z"/><rect class="cls-1" x="10" y="60.2" width="80" height="1.6" rx="0.23264"/><path class="cls-3" d="M21.14219,103.88008a1.07046,1.07046,0,0,1-.30078-.76016V77.28008a1.07177,1.07177,0,0,1,.30078-.76016A.94738.94738,0,0,1,21.85664,76.2H33.24922q5.26405,0,8.291,2.48008Q44.566,81.16035,44.5668,86q0,4.8-3.00782,7.13984-3.00877,2.34024-8.30976,2.34024h-2.632v7.63984a1.07212,1.07212,0,0,1-.30078.76016A.94723.94723,0,0,1,29.602,104.2H21.85664A.946.946,0,0,1,21.14219,103.88008Zm11.91914-15.8a1.63684,1.63684,0,0,0,1.20312-.54024,2.23571,2.23571,0,0,0,.52657-1.61992,3.02327,3.02327,0,0,0-.41368-1.6,1.42686,1.42686,0,0,0-1.316-.68008h-2.632v4.44024Z"/><path class="cls-3" d="M51.40977,103.88008a1.07042,1.07042,0,0,1-.30079-.76016V77.28008a1.07174,1.07174,0,0,1,.30079-.76016A.94738.94738,0,0,1,52.12422,76.2h5.94062a1.75869,1.75869,0,0,1,1.6168,1.08008l5.45195,9.6,5.452-9.6A1.75868,1.75868,0,0,1,72.20234,76.2h5.941a.94978.94978,0,0,1,.71445.31992,1.07344,1.07344,0,0,1,.30078.76016v25.83984a1.07212,1.07212,0,0,1-.30078.76016.94841.94841,0,0,1-.71445.31992H71.33789a.946.946,0,0,1-.71445-.31992,1.0688,1.0688,0,0,1-.30078-.76016V92.15977L67.841,96.48008A2.98624,2.98624,0,0,1,67.2582,97.2a1.18357,1.18357,0,0,1-.80859.28008h-2.632A1.18052,1.18052,0,0,1,63.00937,97.2a2.94946,2.94946,0,0,1-.58281-.71992l-2.48164-4.32031v10.96015a1.07212,1.07212,0,0,1-.30078.76016.94781.94781,0,0,1-.71445.31992H52.12422A.946.946,0,0,1,51.40977,103.88008Z"/><path class="cls-4" d="M21.14219,103.88008a1.07046,1.07046,0,0,1-.30078-.76016V77.28008a1.07177,1.07177,0,0,1,.30078-.76016A.94738.94738,0,0,1,21.85664,76.2H33.24922q5.26405,0,8.291,2.48008Q44.566,81.16035,44.5668,86q0,4.8-3.00782,7.13984-3.00877,2.34024-8.30976,2.34024h-2.632v7.63984a1.07212,1.07212,0,0,1-.30078.76016A.94723.94723,0,0,1,29.602,104.2H21.85664A.946.946,0,0,1,21.14219,103.88008Zm11.91914-15.8a1.63684,1.63684,0,0,0,1.20312-.54024,2.23571,2.23571,0,0,0,.52657-1.61992,3.02327,3.02327,0,0,0-.41368-1.6,1.42686,1.42686,0,0,0-1.316-.68008h-2.632v4.44024Z"/><path class="cls-4" d="M51.40977,103.88008a1.07042,1.07042,0,0,1-.30079-.76016V77.28008a1.07174,1.07174,0,0,1,.30079-.76016A.94738.94738,0,0,1,52.12422,76.2h5.94062a1.75869,1.75869,0,0,1,1.6168,1.08008l5.45195,9.6,5.452-9.6A1.75868,1.75868,0,0,1,72.20234,76.2h5.941a.94978.94978,0,0,1,.71445.31992,1.07344,1.07344,0,0,1,.30078.76016v25.83984a1.07212,1.07212,0,0,1-.30078.76016.94841.94841,0,0,1-.71445.31992H71.33789a.946.946,0,0,1-.71445-.31992,1.0688,1.0688,0,0,1-.30078-.76016V92.15977L67.841,96.48008A2.98624,2.98624,0,0,1,67.2582,97.2a1.18357,1.18357,0,0,1-.80859.28008h-2.632A1.18052,1.18052,0,0,1,63.00937,97.2a2.94946,2.94946,0,0,1-.58281-.71992l-2.48164-4.32031v10.96015a1.07212,1.07212,0,0,1-.30078.76016.94781.94781,0,0,1-.71445.31992H52.12422A.946.946,0,0,1,51.40977,103.88008Z"/><path class="cls-5" d="M21.14219,103.88008a1.07046,1.07046,0,0,1-.30078-.76016V77.28008a1.07177,1.07177,0,0,1,.30078-.76016A.94738.94738,0,0,1,21.85664,76.2H33.24922q5.26405,0,8.291,2.48008Q44.566,81.16035,44.5668,86q0,4.8-3.00782,7.13984-3.00877,2.34024-8.30976,2.34024h-2.632v7.63984a1.07212,1.07212,0,0,1-.30078.76016A.94723.94723,0,0,1,29.602,104.2H21.85664A.946.946,0,0,1,21.14219,103.88008Zm11.91914-15.8a1.63684,1.63684,0,0,0,1.20312-.54024,2.23571,2.23571,0,0,0,.52657-1.61992,3.02327,3.02327,0,0,0-.41368-1.6,1.42686,1.42686,0,0,0-1.316-.68008h-2.632v4.44024Z"/><path class="cls-5" d="M51.40977,103.88008a1.07042,1.07042,0,0,1-.30079-.76016V77.28008a1.07174,1.07174,0,0,1,.30079-.76016A.94738.94738,0,0,1,52.12422,76.2h5.94062a1.75869,1.75869,0,0,1,1.6168,1.08008l5.45195,9.6,5.452-9.6A1.75868,1.75868,0,0,1,72.20234,76.2h5.941a.94978.94978,0,0,1,.71445.31992,1.07344,1.07344,0,0,1,.30078.76016v25.83984a1.07212,1.07212,0,0,1-.30078.76016.94841.94841,0,0,1-.71445.31992H71.33789a.946.946,0,0,1-.71445-.31992,1.0688,1.0688,0,0,1-.30078-.76016V92.15977L67.841,96.48008A2.98624,2.98624,0,0,1,67.2582,97.2a1.18357,1.18357,0,0,1-.80859.28008h-2.632A1.18052,1.18052,0,0,1,63.00937,97.2a2.94946,2.94946,0,0,1-.58281-.71992l-2.48164-4.32031v10.96015a1.07212,1.07212,0,0,1-.30078.76016.94781.94781,0,0,1-.71445.31992H52.12422A.946.946,0,0,1,51.40977,103.88008Z"/></g></svg>