<svg xmlns="http://www.w3.org/2000/svg" viewBox="0 0 88.5 153">
  <defs>
    <style>
      #R-1 {
        fill: #fffaca;
      }

      #R-2 {
        fill: #fff68f;
      }

      #R-3 {
        fill: #fff100;
      }

      #R-4 {
        fill: #ebd417;
      }

      #R-5 {
        fill: #fbb03b;
      }

      #R-6 {
        fill: #ff931e;
      }
      .zoneText {
          user-select: none;
          font-family: 'Century Gothic';
          font-weight: bold;
          cursor: pointer;
      }

      .bgrnd {
          fill: dimgrey;
      }

      #Res:hover .bgrnd,
      #Com:hover .bgrnd,
      #Ind:hover .bgrnd,
      #MX:hover .bgrnd,
      #Special:hover .bgrnd,
      #Other:hover .bgrnd {
          fill: dimgrey;
          cursor: pointer;
      }

      #Res:active .bgrnd,
      #Com:active .bgrnd,
      #Ind:active .bgrnd,
      #MX:active .bgrnd,
      #Special:active .bgrnd,
      #Other:active .bgrnd {
          fill: orchid;
      }
    </style>
  </defs>
  <g id="R-1">
    <polyline class="bgrnd" points="13,.5 1,22 13,44 37,44 50,22 37,.5"/>
    <path d="M36.78,2,48.27,21.9,36.78,41.8h-23L2.31,21.9,13.8,2h23m1.15-2H12.64L0,21.9,12.64,43.8H37.93L50.58,21.9,37.93,0Z"/>
    <text class="zoneText" transform="matrix(1 0 0 1 15 27)">R-1</text>
  </g>
  <g id="R-2">
    <polyline class="bgrnd" points="51,23 40,44 51,64 75,64 87,44 75,23"/>
    <path d="M74.71,23.9,86.2,43.8,74.71,63.7h-23L40.24,43.8,51.73,23.9h23m1.16-2H50.58L37.93,43.8,50.58,65.7H75.87L88.51,43.8,75.87,21.9Z"/>
    <text class="zoneText" transform="matrix(1 0 0 1 52.5 49)">R-2</text>
  </g>
  <g id="R-3">
    <polyline class="bgrnd" points="13,45 1,66 13,88 37,88 50,66 37,45"/>
    <path d="M36.78,45.8,48.27,65.7,36.78,85.6h-23L2.31,65.7,13.8,45.8h23m1.15-2H12.64L0,65.7,12.64,87.6H37.93L50.58,65.7,37.93,43.8Z"/>
    <text class="zoneText" transform="matrix(1 0 0 1 15 71)">R-3</text>
  </g>
  <g id="R-4">
    <polyline class="bgrnd" points="51,67 40,87 51,109 75,109 87,87 75,67"/>
    <path d="M74.71,67.7,86.2,87.6,74.71,107.5h-23L40.24,87.6,51.73,67.7h23m1.16-2H50.58L37.93,87.6l12.65,21.9H75.87L88.51,87.6,75.87,65.7Z"/>
    <text class="zoneText" transform="matrix(1 0 0 1 52.5 92.5)">R-4</text>
  </g>
  <g id="R-5">
    <polyline class="bgrnd" points="13,88 1,110 13,131 37,131 50,110 37,88"/>
    <path d="M36.78,89.6l11.49,19.9L36.78,129.4h-23L2.31,109.5,13.8,89.6h23m1.15-2H12.64L0,109.5l12.64,21.9H37.93l12.65-21.9L37.93,87.6Z"/>
    <text class="zoneText" transform="matrix(1 0 0 1 15 115)">R-5</text>
  </g>
  <g id="R-6">
    <polyline class="bgrnd" points="51,111 40,131 51,152 75,152 87,131 75,111"/>
    <path d="M74.71,111.5,86.2,131.4,74.71,151.3h-23L40.24,131.4l11.49-19.9h23m1.16-2H50.58L37.93,131.4l12.65,21.9H75.87l12.64-21.9L75.87,109.5Z"/>
    <text class="zoneText" transform="matrix(1 0 0 1 52.5 136.5)">R-6</text>
  </g>
</svg>
